G04 #@! TF.GenerationSoftware,KiCad,Pcbnew,6.0.0-unknown*
G04 #@! TF.CreationDate,2019-06-26T08:34:24-07:00*
G04 #@! TF.ProjectId,IOT-LORA,494f542d-4c4f-4524-912e-6b696361645f,rev?*
G04 #@! TF.SameCoordinates,Original*
G04 #@! TF.FileFunction,Copper,L2,Bot*
G04 #@! TF.FilePolarity,Positive*
%FSLAX46Y46*%
G04 Gerber Fmt 4.6, Leading zero omitted, Abs format (unit mm)*
G04 Created by KiCad (PCBNEW 6.0.0-unknown) date 2019-06-26 08:34:24*
%MOMM*%
%LPD*%
G04 APERTURE LIST*
%ADD10O,1.700000X1.700000*%
%ADD11R,1.700000X1.700000*%
%ADD12O,1.700000X1.950000*%
%ADD13R,1.700000X1.950000*%
%ADD14O,2.000000X1.700000*%
%ADD15R,2.000000X1.700000*%
%ADD16R,3.500000X3.500000*%
%ADD17C,3.500000*%
%ADD18C,1.000000*%
%ADD19C,0.500000*%
%ADD20C,0.300000*%
%ADD21C,0.250000*%
%ADD22C,0.254000*%
G04 APERTURE END LIST*
D10*
X128580000Y-117000000D03*
X126040000Y-117000000D03*
D11*
X123500000Y-117000000D03*
D10*
X141290000Y-97250000D03*
X138750000Y-97250000D03*
X136210000Y-97250000D03*
D11*
X133670000Y-97250000D03*
D12*
X114250000Y-123500000D03*
X116750000Y-123500000D03*
D13*
X119250000Y-123500000D03*
D12*
X125250000Y-123500000D03*
X127750000Y-123500000D03*
D13*
X130250000Y-123500000D03*
D12*
X136250000Y-123500000D03*
X138750000Y-123500000D03*
D13*
X141250000Y-123500000D03*
D12*
X147250000Y-123500000D03*
X149750000Y-123500000D03*
D13*
X152250000Y-123500000D03*
D14*
X114250000Y-99500000D03*
D15*
X114250000Y-102000000D03*
D10*
X165350000Y-124650000D03*
X162810000Y-124650000D03*
X160270000Y-124650000D03*
D11*
X157730000Y-124650000D03*
D10*
X135210000Y-116750000D03*
X137750000Y-116750000D03*
X140290000Y-116750000D03*
D11*
X142830000Y-116750000D03*
D10*
X179500000Y-117000000D03*
X176960000Y-117000000D03*
X174420000Y-117000000D03*
X171880000Y-117000000D03*
X169340000Y-117000000D03*
D11*
X166800000Y-117000000D03*
D10*
X175210000Y-120750000D03*
X177750000Y-120750000D03*
X180290000Y-120750000D03*
X182830000Y-120750000D03*
X185370000Y-120750000D03*
D11*
X187910000Y-120750000D03*
D10*
X181700000Y-124750000D03*
X179160000Y-124750000D03*
X176620000Y-124750000D03*
X174080000Y-124750000D03*
X171540000Y-124750000D03*
D11*
X169000000Y-124750000D03*
D16*
X114500000Y-85500000D03*
D17*
X186500000Y-85500000D03*
D18*
X150500000Y-114750000D03*
X146500000Y-113250000D03*
X112250000Y-106250000D03*
X120750000Y-116250000D03*
X131000000Y-106000000D03*
X129500000Y-101500000D03*
X127750000Y-103750000D03*
X127750000Y-99250000D03*
X129250000Y-105000000D03*
X146500000Y-96750000D03*
X145500000Y-109750000D03*
X139500000Y-113250000D03*
X161250000Y-116750000D03*
X155500000Y-112000000D03*
X161250000Y-112000000D03*
X155500000Y-114500000D03*
X161250000Y-114500000D03*
X155500000Y-116750000D03*
X159750000Y-119000000D03*
X156750000Y-119000000D03*
X166999996Y-98000000D03*
X133000000Y-106000000D03*
X188000000Y-113500000D03*
X167250000Y-114000000D03*
X165000000Y-109000000D03*
X166499995Y-103250005D03*
X167316317Y-107183674D03*
X146250000Y-100250000D03*
X150500000Y-99000000D03*
X146750000Y-103750000D03*
X147375000Y-106875000D03*
X147250000Y-108250000D03*
X150500000Y-113000000D03*
X163250000Y-114500000D03*
X164250000Y-113000000D03*
X143250000Y-103250000D03*
X144750000Y-103250000D03*
X152250000Y-97250000D03*
X139250000Y-110000000D03*
X131000000Y-111750000D03*
X163750000Y-99000000D03*
X153925000Y-114925000D03*
X149500000Y-118750000D03*
X166750000Y-101750086D03*
X166750000Y-100000000D03*
X188250000Y-98000000D03*
X188250000Y-99750000D03*
X188250000Y-101500000D03*
X188250000Y-103500000D03*
X166498300Y-105001614D03*
X165250000Y-112000000D03*
X158150000Y-98500000D03*
X152000000Y-103250000D03*
X154250000Y-103250000D03*
X156500000Y-103250000D03*
X156500000Y-107500000D03*
X152000000Y-107250000D03*
X154250000Y-105250000D03*
X152000000Y-105250000D03*
X156500000Y-105250000D03*
X154250000Y-106750000D03*
X159750000Y-110250000D03*
D19*
X126040000Y-117000000D02*
X126040000Y-119040000D01*
X126040000Y-119040000D02*
X127250000Y-120250000D01*
X127250000Y-120250000D02*
X129250000Y-120250000D01*
X130250000Y-121250000D02*
X130250000Y-123500000D01*
X129250000Y-120250000D02*
X130250000Y-121250000D01*
X142830000Y-116750000D02*
X142830000Y-118420000D01*
X141250000Y-120000000D02*
X141250000Y-123500000D01*
X142830000Y-118420000D02*
X141250000Y-120000000D01*
D20*
X171880000Y-115880000D02*
X171880000Y-117000000D01*
X171880000Y-115380000D02*
X171880000Y-115880000D01*
X149250000Y-100250000D02*
X146250000Y-100250000D01*
X150500000Y-99000000D02*
X149250000Y-100250000D01*
X162810000Y-123060000D02*
X162810000Y-124650000D01*
X161750000Y-122000000D02*
X162810000Y-123060000D01*
X155750000Y-122000000D02*
X161750000Y-122000000D01*
X148500000Y-114750000D02*
X155750000Y-122000000D01*
X147375000Y-106875000D02*
X148500000Y-108000000D01*
X148500000Y-108000000D02*
X148500000Y-114750000D01*
D21*
X133670000Y-101670000D02*
X133670000Y-97250000D01*
X134500000Y-102500000D02*
X133670000Y-101670000D01*
X143250000Y-103250000D02*
X142500000Y-102500000D01*
X142500000Y-102500000D02*
X134500000Y-102500000D01*
X136210000Y-101210000D02*
X136210000Y-97250000D01*
X137000000Y-102000000D02*
X136210000Y-101210000D01*
X143500000Y-102000000D02*
X137000000Y-102000000D01*
X144750000Y-103250000D02*
X143500000Y-102000000D01*
X138750000Y-98750000D02*
X138750000Y-97250000D01*
X139250000Y-99250000D02*
X138750000Y-98750000D01*
X148750000Y-99250000D02*
X139250000Y-99250000D01*
X152250000Y-97250000D02*
X150750000Y-97250000D01*
X150750000Y-97250000D02*
X148750000Y-99250000D01*
D19*
X117000000Y-99500000D02*
X114250000Y-99500000D01*
X117750000Y-100250000D02*
X117000000Y-99500000D01*
X117750000Y-103750000D02*
X117750000Y-100250000D01*
X123500000Y-117000000D02*
X123500000Y-109500000D01*
X123500000Y-109500000D02*
X117750000Y-103750000D01*
X137500000Y-110000000D02*
X139250000Y-110000000D01*
X131000000Y-111750000D02*
X135750000Y-111750000D01*
X135750000Y-111750000D02*
X137500000Y-110000000D01*
D21*
X177750000Y-121500000D02*
X177750000Y-120750000D01*
X183500000Y-118290000D02*
X180290000Y-121500000D01*
X183500000Y-98750000D02*
X183500000Y-118290000D01*
X188250000Y-98000000D02*
X184250000Y-98000000D01*
X184250000Y-98000000D02*
X183500000Y-98750000D01*
X185000000Y-99750000D02*
X188250000Y-99750000D01*
X184000000Y-100750000D02*
X185000000Y-99750000D01*
X184000000Y-120330000D02*
X184000000Y-100750000D01*
X182830000Y-121500000D02*
X184000000Y-120330000D01*
X186750000Y-101500000D02*
X188250000Y-101500000D01*
X185250000Y-103000000D02*
X186750000Y-101500000D01*
X185370000Y-121500000D02*
X185370000Y-120297919D01*
X185250000Y-120177919D02*
X185250000Y-103000000D01*
X185370000Y-120297919D02*
X185250000Y-120177919D01*
X188250000Y-103500000D02*
X187250000Y-103500000D01*
X187250000Y-103500000D02*
X186250000Y-104500000D01*
X186250000Y-104500000D02*
X186250000Y-117000000D01*
X187910000Y-118660000D02*
X187910000Y-121500000D01*
X186250000Y-117000000D02*
X187910000Y-118660000D01*
D20*
X165999996Y-103750004D02*
X166499995Y-103250005D01*
X165000000Y-104750000D02*
X165999996Y-103750004D01*
X174420000Y-111920000D02*
X171500000Y-109000000D01*
X174420000Y-117000000D02*
X174420000Y-111920000D01*
X171500000Y-109000000D02*
X166444334Y-109000000D01*
X166444334Y-109000000D02*
X165000000Y-107555666D01*
X165000000Y-107555666D02*
X165000000Y-104750000D01*
X176960000Y-113460000D02*
X176960000Y-117000000D01*
X165750000Y-105749914D02*
X165750000Y-107000000D01*
X166498300Y-105001614D02*
X165750000Y-105749914D01*
X165750000Y-107000000D02*
X167000000Y-108250000D01*
X171750000Y-108250000D02*
X176960000Y-113460000D01*
X167000000Y-108250000D02*
X171750000Y-108250000D01*
X171683674Y-107183674D02*
X167316317Y-107183674D01*
X179500000Y-117000000D02*
X179500000Y-115000000D01*
X179500000Y-115000000D02*
X171683674Y-107183674D01*
X165750000Y-109750000D02*
X165000000Y-109000000D01*
X171250000Y-109750000D02*
X165750000Y-109750000D01*
X171880000Y-115880000D02*
X171880000Y-110380000D01*
X171880000Y-110380000D02*
X171250000Y-109750000D01*
D21*
X179000000Y-119500000D02*
X177750000Y-120750000D01*
X181750000Y-100000000D02*
X183000000Y-101250000D01*
X166750000Y-100000000D02*
X181750000Y-100000000D01*
X183000000Y-101250000D02*
X183000000Y-117750000D01*
X183000000Y-117750000D02*
X181250000Y-119500000D01*
X181250000Y-119500000D02*
X179000000Y-119500000D01*
X175210000Y-120040000D02*
X175210000Y-121500000D01*
X176250000Y-119000000D02*
X175210000Y-120040000D01*
X182000086Y-101750086D02*
X182500000Y-102250000D01*
X166750000Y-101750086D02*
X182000086Y-101750086D01*
X182500000Y-102250000D02*
X182500000Y-117500000D01*
X182500000Y-117500000D02*
X181000000Y-119000000D01*
X181000000Y-119000000D02*
X176250000Y-119000000D01*
D20*
X151500000Y-113000000D02*
X150500000Y-113000000D01*
X152250000Y-113750000D02*
X151500000Y-113000000D01*
X171540000Y-123290000D02*
X169500000Y-121250000D01*
X171540000Y-124750000D02*
X171540000Y-123290000D01*
X169500000Y-121250000D02*
X156500000Y-121250000D01*
X156500000Y-121250000D02*
X152250000Y-117000000D01*
X152250000Y-117000000D02*
X152250000Y-113750000D01*
X179000000Y-124750000D02*
X179160000Y-124750000D01*
X176500000Y-122250000D02*
X179000000Y-124750000D01*
X165250000Y-118250000D02*
X166000000Y-119000000D01*
X166000000Y-119000000D02*
X171000000Y-119000000D01*
X171000000Y-119000000D02*
X174250000Y-122250000D01*
X165250000Y-112000000D02*
X165250000Y-118250000D01*
X174250000Y-122250000D02*
X176500000Y-122250000D01*
X164250000Y-118250000D02*
X164250000Y-113000000D01*
X165750000Y-119750000D02*
X164250000Y-118250000D01*
X176620000Y-124620000D02*
X175250000Y-123250000D01*
X170250000Y-119750000D02*
X165750000Y-119750000D01*
X176620000Y-124750000D02*
X176620000Y-124620000D01*
X175250000Y-123250000D02*
X173750000Y-123250000D01*
X173750000Y-123250000D02*
X170250000Y-119750000D01*
X174000000Y-124750000D02*
X174080000Y-124750000D01*
X169750000Y-120500000D02*
X174000000Y-124750000D01*
X165500000Y-120500000D02*
X169750000Y-120500000D01*
X163250000Y-114500000D02*
X163250000Y-118250000D01*
X163250000Y-118250000D02*
X165500000Y-120500000D01*
D19*
X140750000Y-110000000D02*
X139250000Y-110000000D01*
X149500000Y-118750000D02*
X140750000Y-110000000D01*
D20*
X147750000Y-108750000D02*
X147250000Y-108250000D01*
X160270000Y-123270000D02*
X159750000Y-122750000D01*
X160270000Y-124650000D02*
X160270000Y-123270000D01*
X147750000Y-115000000D02*
X147750000Y-108750000D01*
X159750000Y-122750000D02*
X155500000Y-122750000D01*
X155500000Y-122750000D02*
X147750000Y-115000000D01*
D19*
X153925000Y-111075000D02*
X153925000Y-114925000D01*
X160875000Y-101875000D02*
X160875000Y-108125000D01*
X160875000Y-108125000D02*
X160250000Y-108750000D01*
X163750000Y-99000000D02*
X160875000Y-101875000D01*
X160250000Y-108750000D02*
X156250000Y-108750000D01*
X156250000Y-108750000D02*
X153925000Y-111075000D01*
X161250000Y-112000000D02*
X161250000Y-110250000D01*
X161250000Y-110250000D02*
X162750000Y-108750000D01*
D22*
G36*
X160250000Y-109634566D02*
G01*
X160307469Y-109627000D01*
X161873000Y-109627000D01*
X161873000Y-120473000D01*
X156821844Y-120473000D01*
X154377000Y-118028157D01*
X154377000Y-115957652D01*
X154478561Y-115915480D01*
X154691573Y-115761568D01*
X154863465Y-115562780D01*
X154985016Y-115329781D01*
X155049705Y-115075068D01*
X155052152Y-114794584D01*
X154991919Y-114538781D01*
X154874453Y-114303695D01*
X154802000Y-114216888D01*
X154802000Y-111438265D01*
X156411874Y-109828391D01*
X159332065Y-109727695D01*
X159364068Y-109722448D01*
X159450677Y-109696553D01*
X159505634Y-109663117D01*
X159540527Y-109627000D01*
X160192531Y-109627000D01*
X160250000Y-109634566D01*
X160250000Y-109634566D01*
G37*
X160250000Y-109634566D02*
X160307469Y-109627000D01*
X161873000Y-109627000D01*
X161873000Y-120473000D01*
X156821844Y-120473000D01*
X154377000Y-118028157D01*
X154377000Y-115957652D01*
X154478561Y-115915480D01*
X154691573Y-115761568D01*
X154863465Y-115562780D01*
X154985016Y-115329781D01*
X155049705Y-115075068D01*
X155052152Y-114794584D01*
X154991919Y-114538781D01*
X154874453Y-114303695D01*
X154802000Y-114216888D01*
X154802000Y-111438265D01*
X156411874Y-109828391D01*
X159332065Y-109727695D01*
X159364068Y-109722448D01*
X159450677Y-109696553D01*
X159505634Y-109663117D01*
X159540527Y-109627000D01*
X160192531Y-109627000D01*
X160250000Y-109634566D01*
D20*
G36*
X190100001Y-126600000D02*
G01*
X110900000Y-126600000D01*
X110900000Y-123835090D01*
X112763735Y-123835090D01*
X112818585Y-124076856D01*
X112912481Y-124306296D01*
X113042861Y-124517152D01*
X113206168Y-124703673D01*
X113397948Y-124860770D01*
X113612970Y-124984159D01*
X113845368Y-125070474D01*
X113917101Y-125087593D01*
X114150000Y-124958756D01*
X114150000Y-123600000D01*
X112911668Y-123600000D01*
X112763735Y-123835090D01*
X110900000Y-123835090D01*
X110900000Y-123164910D01*
X112763735Y-123164910D01*
X112911668Y-123400000D01*
X114150000Y-123400000D01*
X114150000Y-122041244D01*
X114350000Y-122041244D01*
X114350000Y-123400000D01*
X114370000Y-123400000D01*
X114370000Y-123600000D01*
X114350000Y-123600000D01*
X114350000Y-124958756D01*
X114582899Y-125087593D01*
X114654632Y-125070474D01*
X114887030Y-124984159D01*
X115102052Y-124860770D01*
X115293832Y-124703673D01*
X115457139Y-124517152D01*
X115497899Y-124451234D01*
X115557493Y-124543353D01*
X115723497Y-124725790D01*
X115917068Y-124878663D01*
X116133008Y-124997868D01*
X116365518Y-125080205D01*
X116608354Y-125123460D01*
X116854992Y-125126474D01*
X117098812Y-125089164D01*
X117333264Y-125012533D01*
X117552052Y-124898639D01*
X117749301Y-124750541D01*
X117787275Y-124710804D01*
X117788098Y-124715154D01*
X117886069Y-124884846D01*
X118029706Y-125018121D01*
X118206245Y-125103138D01*
X118400000Y-125132342D01*
X120100000Y-125132342D01*
X120340154Y-125086902D01*
X120509846Y-124988931D01*
X120643121Y-124845294D01*
X120728138Y-124668755D01*
X120757342Y-124475000D01*
X120757342Y-123835090D01*
X123763735Y-123835090D01*
X123818585Y-124076856D01*
X123912481Y-124306296D01*
X124042861Y-124517152D01*
X124206168Y-124703673D01*
X124397948Y-124860770D01*
X124612970Y-124984159D01*
X124845368Y-125070474D01*
X124917101Y-125087593D01*
X125150000Y-124958756D01*
X125150000Y-123600000D01*
X123911668Y-123600000D01*
X123763735Y-123835090D01*
X120757342Y-123835090D01*
X120757342Y-123164910D01*
X123763735Y-123164910D01*
X123911668Y-123400000D01*
X125150000Y-123400000D01*
X125150000Y-122041244D01*
X124917101Y-121912407D01*
X124845368Y-121929526D01*
X124612970Y-122015841D01*
X124397948Y-122139230D01*
X124206168Y-122296327D01*
X124042861Y-122482848D01*
X123912481Y-122693704D01*
X123818585Y-122923144D01*
X123763735Y-123164910D01*
X120757342Y-123164910D01*
X120757342Y-122525000D01*
X120711902Y-122284846D01*
X120613931Y-122115154D01*
X120470294Y-121981879D01*
X120293755Y-121896862D01*
X120100000Y-121867658D01*
X118400000Y-121867658D01*
X118159846Y-121913098D01*
X117990154Y-122011069D01*
X117856879Y-122154706D01*
X117791429Y-122290614D01*
X117776503Y-122274210D01*
X117582932Y-122121337D01*
X117366992Y-122002132D01*
X117134482Y-121919795D01*
X116891646Y-121876540D01*
X116645008Y-121873526D01*
X116401188Y-121910836D01*
X116166736Y-121987467D01*
X115947948Y-122101361D01*
X115750699Y-122249459D01*
X115580287Y-122427785D01*
X115497832Y-122548658D01*
X115457139Y-122482848D01*
X115293832Y-122296327D01*
X115102052Y-122139230D01*
X114887030Y-122015841D01*
X114654632Y-121929526D01*
X114582899Y-121912407D01*
X114350000Y-122041244D01*
X114150000Y-122041244D01*
X113917101Y-121912407D01*
X113845368Y-121929526D01*
X113612970Y-122015841D01*
X113397948Y-122139230D01*
X113206168Y-122296327D01*
X113042861Y-122482848D01*
X112912481Y-122693704D01*
X112818585Y-122923144D01*
X112763735Y-123164910D01*
X110900000Y-123164910D01*
X110900000Y-102850000D01*
X112594834Y-102850000D01*
X112615417Y-103012933D01*
X112675874Y-103165629D01*
X112772405Y-103298492D01*
X112898945Y-103403175D01*
X113047543Y-103473100D01*
X113208862Y-103503873D01*
X113987500Y-103500000D01*
X114150000Y-103337500D01*
X114150000Y-102100000D01*
X114350000Y-102100000D01*
X114350000Y-103337500D01*
X114512500Y-103500000D01*
X115291138Y-103503873D01*
X115452457Y-103473100D01*
X115601055Y-103403175D01*
X115727595Y-103298492D01*
X115824126Y-103165629D01*
X115884583Y-103012933D01*
X115905166Y-102850000D01*
X115900000Y-102262500D01*
X115737500Y-102100000D01*
X114350000Y-102100000D01*
X114150000Y-102100000D01*
X112762500Y-102100000D01*
X112600000Y-102262500D01*
X112594834Y-102850000D01*
X110900000Y-102850000D01*
X110900000Y-101150000D01*
X112594834Y-101150000D01*
X112600000Y-101737500D01*
X112762500Y-101900000D01*
X114150000Y-101900000D01*
X114150000Y-101880000D01*
X114350000Y-101880000D01*
X114350000Y-101900000D01*
X115737500Y-101900000D01*
X115900000Y-101737500D01*
X115905166Y-101150000D01*
X115884583Y-100987067D01*
X115824126Y-100834371D01*
X115727595Y-100701508D01*
X115601055Y-100596825D01*
X115484027Y-100541756D01*
X115500790Y-100526503D01*
X115600696Y-100400000D01*
X116627209Y-100400000D01*
X116850001Y-100622793D01*
X116850000Y-103691018D01*
X116842235Y-103750000D01*
X116850000Y-103808981D01*
X116850000Y-103808988D01*
X116873165Y-103984946D01*
X116922330Y-104103640D01*
X116963852Y-104203883D01*
X117019854Y-104276866D01*
X117108113Y-104391887D01*
X117155317Y-104428108D01*
X122600001Y-109872793D01*
X122600000Y-115502119D01*
X122409846Y-115538098D01*
X122240154Y-115636069D01*
X122106879Y-115779706D01*
X122021862Y-115956245D01*
X121992658Y-116150000D01*
X121992658Y-117850000D01*
X122038098Y-118090154D01*
X122136069Y-118259846D01*
X122279706Y-118393121D01*
X122456245Y-118478138D01*
X122650000Y-118507342D01*
X124350000Y-118507342D01*
X124590154Y-118461902D01*
X124759846Y-118363931D01*
X124893121Y-118220294D01*
X124972729Y-118054986D01*
X125092785Y-118169713D01*
X125140001Y-118201922D01*
X125140001Y-118981011D01*
X125132235Y-119040000D01*
X125140001Y-119098989D01*
X125163166Y-119274947D01*
X125180204Y-119316080D01*
X125253852Y-119493883D01*
X125361893Y-119634684D01*
X125361896Y-119634687D01*
X125398114Y-119681887D01*
X125445314Y-119718105D01*
X126571895Y-120844687D01*
X126608113Y-120891887D01*
X126655313Y-120928105D01*
X126655315Y-120928107D01*
X126796116Y-121036148D01*
X126874878Y-121068772D01*
X127015053Y-121126835D01*
X127191011Y-121150000D01*
X127191017Y-121150000D01*
X127249999Y-121157765D01*
X127308981Y-121150000D01*
X128877209Y-121150000D01*
X129350000Y-121622792D01*
X129350000Y-121877119D01*
X129159846Y-121913098D01*
X128990154Y-122011069D01*
X128856879Y-122154706D01*
X128791429Y-122290614D01*
X128776503Y-122274210D01*
X128582932Y-122121337D01*
X128366992Y-122002132D01*
X128134482Y-121919795D01*
X127891646Y-121876540D01*
X127645008Y-121873526D01*
X127401188Y-121910836D01*
X127166736Y-121987467D01*
X126947948Y-122101361D01*
X126750699Y-122249459D01*
X126580287Y-122427785D01*
X126497832Y-122548658D01*
X126457139Y-122482848D01*
X126293832Y-122296327D01*
X126102052Y-122139230D01*
X125887030Y-122015841D01*
X125654632Y-121929526D01*
X125582899Y-121912407D01*
X125350000Y-122041244D01*
X125350000Y-123400000D01*
X125370000Y-123400000D01*
X125370000Y-123600000D01*
X125350000Y-123600000D01*
X125350000Y-124958756D01*
X125582899Y-125087593D01*
X125654632Y-125070474D01*
X125887030Y-124984159D01*
X126102052Y-124860770D01*
X126293832Y-124703673D01*
X126457139Y-124517152D01*
X126497899Y-124451234D01*
X126557493Y-124543353D01*
X126723497Y-124725790D01*
X126917068Y-124878663D01*
X127133008Y-124997868D01*
X127365518Y-125080205D01*
X127608354Y-125123460D01*
X127854992Y-125126474D01*
X128098812Y-125089164D01*
X128333264Y-125012533D01*
X128552052Y-124898639D01*
X128749301Y-124750541D01*
X128787275Y-124710804D01*
X128788098Y-124715154D01*
X128886069Y-124884846D01*
X129029706Y-125018121D01*
X129206245Y-125103138D01*
X129400000Y-125132342D01*
X131100000Y-125132342D01*
X131340154Y-125086902D01*
X131509846Y-124988931D01*
X131643121Y-124845294D01*
X131728138Y-124668755D01*
X131757342Y-124475000D01*
X131757342Y-123835090D01*
X134763735Y-123835090D01*
X134818585Y-124076856D01*
X134912481Y-124306296D01*
X135042861Y-124517152D01*
X135206168Y-124703673D01*
X135397948Y-124860770D01*
X135612970Y-124984159D01*
X135845368Y-125070474D01*
X135917101Y-125087593D01*
X136150000Y-124958756D01*
X136150000Y-123600000D01*
X134911668Y-123600000D01*
X134763735Y-123835090D01*
X131757342Y-123835090D01*
X131757342Y-123164910D01*
X134763735Y-123164910D01*
X134911668Y-123400000D01*
X136150000Y-123400000D01*
X136150000Y-122041244D01*
X135917101Y-121912407D01*
X135845368Y-121929526D01*
X135612970Y-122015841D01*
X135397948Y-122139230D01*
X135206168Y-122296327D01*
X135042861Y-122482848D01*
X134912481Y-122693704D01*
X134818585Y-122923144D01*
X134763735Y-123164910D01*
X131757342Y-123164910D01*
X131757342Y-122525000D01*
X131711902Y-122284846D01*
X131613931Y-122115154D01*
X131470294Y-121981879D01*
X131293755Y-121896862D01*
X131150000Y-121875194D01*
X131150000Y-121308982D01*
X131157765Y-121250000D01*
X131150000Y-121191018D01*
X131150000Y-121191011D01*
X131126835Y-121015053D01*
X131046162Y-120820293D01*
X131036148Y-120796116D01*
X130928107Y-120655315D01*
X130928105Y-120655313D01*
X130891887Y-120608113D01*
X130844688Y-120571896D01*
X129928106Y-119655315D01*
X129891887Y-119608113D01*
X129703883Y-119463852D01*
X129484947Y-119373165D01*
X129308989Y-119350000D01*
X129308981Y-119350000D01*
X129250000Y-119342235D01*
X129191019Y-119350000D01*
X127622792Y-119350000D01*
X126940000Y-118667209D01*
X126940000Y-118204381D01*
X126958354Y-118192507D01*
X127140790Y-118026503D01*
X127293663Y-117832932D01*
X127308867Y-117805390D01*
X127454459Y-117999302D01*
X127632785Y-118169713D01*
X127836548Y-118308712D01*
X128060278Y-118412563D01*
X128297965Y-118478480D01*
X128525624Y-118500000D01*
X128642518Y-118500000D01*
X128825828Y-118484929D01*
X129065055Y-118424840D01*
X129291255Y-118326485D01*
X129498354Y-118192507D01*
X129680790Y-118026503D01*
X129833663Y-117832932D01*
X129952868Y-117616992D01*
X130035205Y-117384482D01*
X130078460Y-117141646D01*
X130079177Y-117082899D01*
X133747404Y-117082899D01*
X133822145Y-117319094D01*
X133934743Y-117539766D01*
X134082127Y-117738895D01*
X134260276Y-117911050D01*
X134464332Y-118051534D01*
X134688727Y-118156516D01*
X134877101Y-118212593D01*
X135110000Y-118083756D01*
X135110000Y-116850000D01*
X133875834Y-116850000D01*
X133747404Y-117082899D01*
X130079177Y-117082899D01*
X130081474Y-116895007D01*
X130044164Y-116651187D01*
X129967653Y-116417101D01*
X133747404Y-116417101D01*
X133875834Y-116650000D01*
X135110000Y-116650000D01*
X135110000Y-115416244D01*
X135310000Y-115416244D01*
X135310000Y-116650000D01*
X135330000Y-116650000D01*
X135330000Y-116850000D01*
X135310000Y-116850000D01*
X135310000Y-118083756D01*
X135542899Y-118212593D01*
X135731273Y-118156516D01*
X135955668Y-118051534D01*
X136159724Y-117911050D01*
X136337873Y-117738895D01*
X136476279Y-117551896D01*
X136476361Y-117552053D01*
X136624459Y-117749302D01*
X136802785Y-117919713D01*
X137006548Y-118058712D01*
X137230278Y-118162563D01*
X137467965Y-118228480D01*
X137695624Y-118250000D01*
X137812518Y-118250000D01*
X137995828Y-118234929D01*
X138235055Y-118174840D01*
X138461255Y-118076485D01*
X138668354Y-117942507D01*
X138850790Y-117776503D01*
X139003663Y-117582932D01*
X139018867Y-117555390D01*
X139164459Y-117749302D01*
X139342785Y-117919713D01*
X139546548Y-118058712D01*
X139770278Y-118162563D01*
X140007965Y-118228480D01*
X140235624Y-118250000D01*
X140352518Y-118250000D01*
X140535828Y-118234929D01*
X140775055Y-118174840D01*
X141001255Y-118076485D01*
X141208354Y-117942507D01*
X141361156Y-117803467D01*
X141368098Y-117840154D01*
X141466069Y-118009846D01*
X141609706Y-118143121D01*
X141761154Y-118216055D01*
X140655317Y-119321892D01*
X140608113Y-119358113D01*
X140571893Y-119405316D01*
X140463852Y-119546117D01*
X140448945Y-119582107D01*
X140373165Y-119765054D01*
X140350000Y-119941012D01*
X140350000Y-119941019D01*
X140342235Y-120000000D01*
X140350000Y-120058982D01*
X140350001Y-121877118D01*
X140159846Y-121913098D01*
X139990154Y-122011069D01*
X139856879Y-122154706D01*
X139791429Y-122290614D01*
X139776503Y-122274210D01*
X139582932Y-122121337D01*
X139366992Y-122002132D01*
X139134482Y-121919795D01*
X138891646Y-121876540D01*
X138645008Y-121873526D01*
X138401188Y-121910836D01*
X138166736Y-121987467D01*
X137947948Y-122101361D01*
X137750699Y-122249459D01*
X137580287Y-122427785D01*
X137497832Y-122548658D01*
X137457139Y-122482848D01*
X137293832Y-122296327D01*
X137102052Y-122139230D01*
X136887030Y-122015841D01*
X136654632Y-121929526D01*
X136582899Y-121912407D01*
X136350000Y-122041244D01*
X136350000Y-123400000D01*
X136370000Y-123400000D01*
X136370000Y-123600000D01*
X136350000Y-123600000D01*
X136350000Y-124958756D01*
X136582899Y-125087593D01*
X136654632Y-125070474D01*
X136887030Y-124984159D01*
X137102052Y-124860770D01*
X137293832Y-124703673D01*
X137457139Y-124517152D01*
X137497899Y-124451234D01*
X137557493Y-124543353D01*
X137723497Y-124725790D01*
X137917068Y-124878663D01*
X138133008Y-124997868D01*
X138365518Y-125080205D01*
X138608354Y-125123460D01*
X138854992Y-125126474D01*
X139098812Y-125089164D01*
X139333264Y-125012533D01*
X139552052Y-124898639D01*
X139749301Y-124750541D01*
X139787275Y-124710804D01*
X139788098Y-124715154D01*
X139886069Y-124884846D01*
X140029706Y-125018121D01*
X140206245Y-125103138D01*
X140400000Y-125132342D01*
X142100000Y-125132342D01*
X142340154Y-125086902D01*
X142509846Y-124988931D01*
X142643121Y-124845294D01*
X142728138Y-124668755D01*
X142757342Y-124475000D01*
X142757342Y-123835090D01*
X145763735Y-123835090D01*
X145818585Y-124076856D01*
X145912481Y-124306296D01*
X146042861Y-124517152D01*
X146206168Y-124703673D01*
X146397948Y-124860770D01*
X146612970Y-124984159D01*
X146845368Y-125070474D01*
X146917101Y-125087593D01*
X147150000Y-124958756D01*
X147150000Y-123600000D01*
X145911668Y-123600000D01*
X145763735Y-123835090D01*
X142757342Y-123835090D01*
X142757342Y-123164910D01*
X145763735Y-123164910D01*
X145911668Y-123400000D01*
X147150000Y-123400000D01*
X147150000Y-122041244D01*
X147350000Y-122041244D01*
X147350000Y-123400000D01*
X147370000Y-123400000D01*
X147370000Y-123600000D01*
X147350000Y-123600000D01*
X147350000Y-124958756D01*
X147582899Y-125087593D01*
X147654632Y-125070474D01*
X147887030Y-124984159D01*
X148102052Y-124860770D01*
X148293832Y-124703673D01*
X148457139Y-124517152D01*
X148497899Y-124451234D01*
X148557493Y-124543353D01*
X148723497Y-124725790D01*
X148917068Y-124878663D01*
X149133008Y-124997868D01*
X149365518Y-125080205D01*
X149608354Y-125123460D01*
X149854992Y-125126474D01*
X150098812Y-125089164D01*
X150333264Y-125012533D01*
X150552052Y-124898639D01*
X150749301Y-124750541D01*
X150787275Y-124710804D01*
X150788098Y-124715154D01*
X150886069Y-124884846D01*
X151029706Y-125018121D01*
X151206245Y-125103138D01*
X151400000Y-125132342D01*
X153100000Y-125132342D01*
X153340154Y-125086902D01*
X153509846Y-124988931D01*
X153643121Y-124845294D01*
X153728138Y-124668755D01*
X153757342Y-124475000D01*
X153757342Y-122525000D01*
X153711902Y-122284846D01*
X153613931Y-122115154D01*
X153470294Y-121981879D01*
X153293755Y-121896862D01*
X153100000Y-121867658D01*
X151400000Y-121867658D01*
X151159846Y-121913098D01*
X150990154Y-122011069D01*
X150856879Y-122154706D01*
X150791429Y-122290614D01*
X150776503Y-122274210D01*
X150582932Y-122121337D01*
X150366992Y-122002132D01*
X150134482Y-121919795D01*
X149891646Y-121876540D01*
X149645008Y-121873526D01*
X149401188Y-121910836D01*
X149166736Y-121987467D01*
X148947948Y-122101361D01*
X148750699Y-122249459D01*
X148580287Y-122427785D01*
X148497832Y-122548658D01*
X148457139Y-122482848D01*
X148293832Y-122296327D01*
X148102052Y-122139230D01*
X147887030Y-122015841D01*
X147654632Y-121929526D01*
X147582899Y-121912407D01*
X147350000Y-122041244D01*
X147150000Y-122041244D01*
X146917101Y-121912407D01*
X146845368Y-121929526D01*
X146612970Y-122015841D01*
X146397948Y-122139230D01*
X146206168Y-122296327D01*
X146042861Y-122482848D01*
X145912481Y-122693704D01*
X145818585Y-122923144D01*
X145763735Y-123164910D01*
X142757342Y-123164910D01*
X142757342Y-122525000D01*
X142711902Y-122284846D01*
X142613931Y-122115154D01*
X142470294Y-121981879D01*
X142293755Y-121896862D01*
X142150000Y-121875194D01*
X142150000Y-120372791D01*
X143424687Y-119098105D01*
X143471887Y-119061887D01*
X143508105Y-119014687D01*
X143508107Y-119014685D01*
X143616148Y-118873884D01*
X143670473Y-118742732D01*
X143706835Y-118654947D01*
X143730000Y-118478989D01*
X143730000Y-118478977D01*
X143737764Y-118420001D01*
X143730000Y-118361025D01*
X143730000Y-118247881D01*
X143920154Y-118211902D01*
X144089846Y-118113931D01*
X144223121Y-117970294D01*
X144308138Y-117793755D01*
X144337342Y-117600000D01*
X144337342Y-115900000D01*
X144291902Y-115659846D01*
X144193931Y-115490154D01*
X144050294Y-115356879D01*
X143873755Y-115271862D01*
X143680000Y-115242658D01*
X141980000Y-115242658D01*
X141739846Y-115288098D01*
X141570154Y-115386069D01*
X141436879Y-115529706D01*
X141357271Y-115695014D01*
X141237215Y-115580287D01*
X141033452Y-115441288D01*
X140809722Y-115337437D01*
X140572035Y-115271520D01*
X140344376Y-115250000D01*
X140227482Y-115250000D01*
X140044172Y-115265071D01*
X139804945Y-115325160D01*
X139578745Y-115423515D01*
X139371646Y-115557493D01*
X139189210Y-115723497D01*
X139036337Y-115917068D01*
X139021133Y-115944610D01*
X138875541Y-115750698D01*
X138697215Y-115580287D01*
X138493452Y-115441288D01*
X138269722Y-115337437D01*
X138032035Y-115271520D01*
X137804376Y-115250000D01*
X137687482Y-115250000D01*
X137504172Y-115265071D01*
X137264945Y-115325160D01*
X137038745Y-115423515D01*
X136831646Y-115557493D01*
X136649210Y-115723497D01*
X136496337Y-115917068D01*
X136477955Y-115950368D01*
X136337873Y-115761105D01*
X136159724Y-115588950D01*
X135955668Y-115448466D01*
X135731273Y-115343484D01*
X135542899Y-115287407D01*
X135310000Y-115416244D01*
X135110000Y-115416244D01*
X134877101Y-115287407D01*
X134688727Y-115343484D01*
X134464332Y-115448466D01*
X134260276Y-115588950D01*
X134082127Y-115761105D01*
X133934743Y-115960234D01*
X133822145Y-116180906D01*
X133747404Y-116417101D01*
X129967653Y-116417101D01*
X129967533Y-116416735D01*
X129853639Y-116197947D01*
X129705541Y-116000698D01*
X129527215Y-115830287D01*
X129323452Y-115691288D01*
X129099722Y-115587437D01*
X128862035Y-115521520D01*
X128634376Y-115500000D01*
X128517482Y-115500000D01*
X128334172Y-115515071D01*
X128094945Y-115575160D01*
X127868745Y-115673515D01*
X127661646Y-115807493D01*
X127479210Y-115973497D01*
X127326337Y-116167068D01*
X127311133Y-116194610D01*
X127165541Y-116000698D01*
X126987215Y-115830287D01*
X126783452Y-115691288D01*
X126559722Y-115587437D01*
X126322035Y-115521520D01*
X126094376Y-115500000D01*
X125977482Y-115500000D01*
X125794172Y-115515071D01*
X125554945Y-115575160D01*
X125328745Y-115673515D01*
X125121646Y-115807493D01*
X124968844Y-115946533D01*
X124961902Y-115909846D01*
X124863931Y-115740154D01*
X124720294Y-115606879D01*
X124543755Y-115521862D01*
X124400000Y-115500194D01*
X124400000Y-111739896D01*
X129842216Y-111739896D01*
X129870945Y-112006515D01*
X129960239Y-112259374D01*
X130105307Y-112484909D01*
X130298370Y-112671021D01*
X130529069Y-112807729D01*
X130785030Y-112887697D01*
X131052523Y-112906636D01*
X131317198Y-112863531D01*
X131564858Y-112760694D01*
X131718056Y-112650000D01*
X135691019Y-112650000D01*
X135750000Y-112657765D01*
X135808981Y-112650000D01*
X135808989Y-112650000D01*
X135984947Y-112626835D01*
X136203883Y-112536148D01*
X136391887Y-112391887D01*
X136428108Y-112344683D01*
X137872792Y-110900000D01*
X138526564Y-110900000D01*
X138548370Y-110921021D01*
X138779069Y-111057729D01*
X139035030Y-111137697D01*
X139302523Y-111156636D01*
X139567198Y-111113531D01*
X139814858Y-111010694D01*
X139968056Y-110900000D01*
X140377209Y-110900000D01*
X148357325Y-118880117D01*
X148370945Y-119006515D01*
X148460239Y-119259374D01*
X148605307Y-119484909D01*
X148798370Y-119671021D01*
X149029069Y-119807729D01*
X149285030Y-119887697D01*
X149552523Y-119906636D01*
X149607453Y-119897690D01*
X149625000Y-119900000D01*
X151375000Y-119900000D01*
X151413823Y-119894889D01*
X151476323Y-119878142D01*
X151489287Y-119870657D01*
X154921629Y-123303000D01*
X154985267Y-123372206D01*
X155046342Y-123410074D01*
X155103584Y-123453523D01*
X155139094Y-123467583D01*
X155171552Y-123487707D01*
X155211218Y-123496138D01*
X155307379Y-123534211D01*
X155525364Y-123557122D01*
X155567471Y-123550000D01*
X156278948Y-123550000D01*
X156251862Y-123606245D01*
X156222658Y-123800000D01*
X156222658Y-125500000D01*
X156268098Y-125740154D01*
X156366069Y-125909846D01*
X156509706Y-126043121D01*
X156686245Y-126128138D01*
X156880000Y-126157342D01*
X158580000Y-126157342D01*
X158820154Y-126111902D01*
X158989846Y-126013931D01*
X159123121Y-125870294D01*
X159202729Y-125704986D01*
X159322785Y-125819713D01*
X159526548Y-125958712D01*
X159750278Y-126062563D01*
X159987965Y-126128480D01*
X160215624Y-126150000D01*
X160332518Y-126150000D01*
X160515828Y-126134929D01*
X160755055Y-126074840D01*
X160981255Y-125976485D01*
X161188354Y-125842507D01*
X161370790Y-125676503D01*
X161523663Y-125482932D01*
X161538867Y-125455390D01*
X161684459Y-125649302D01*
X161862785Y-125819713D01*
X162066548Y-125958712D01*
X162290278Y-126062563D01*
X162527965Y-126128480D01*
X162755624Y-126150000D01*
X162872518Y-126150000D01*
X163055828Y-126134929D01*
X163295055Y-126074840D01*
X163521255Y-125976485D01*
X163728354Y-125842507D01*
X163910790Y-125676503D01*
X164063663Y-125482932D01*
X164082045Y-125449632D01*
X164222127Y-125638895D01*
X164400276Y-125811050D01*
X164604332Y-125951534D01*
X164828727Y-126056516D01*
X165017101Y-126112593D01*
X165250000Y-125983756D01*
X165250000Y-124750000D01*
X165450000Y-124750000D01*
X165450000Y-125983756D01*
X165682899Y-126112593D01*
X165871273Y-126056516D01*
X166095668Y-125951534D01*
X166299724Y-125811050D01*
X166477873Y-125638895D01*
X166506660Y-125600000D01*
X167494834Y-125600000D01*
X167515417Y-125762933D01*
X167575874Y-125915629D01*
X167672405Y-126048492D01*
X167798945Y-126153175D01*
X167947543Y-126223100D01*
X168108862Y-126253873D01*
X168737500Y-126250000D01*
X168900000Y-126087500D01*
X168900000Y-124850000D01*
X167662500Y-124850000D01*
X167500000Y-125012500D01*
X167494834Y-125600000D01*
X166506660Y-125600000D01*
X166625257Y-125439766D01*
X166737855Y-125219094D01*
X166812596Y-124982899D01*
X166684166Y-124750000D01*
X165450000Y-124750000D01*
X165250000Y-124750000D01*
X165230000Y-124750000D01*
X165230000Y-124550000D01*
X165250000Y-124550000D01*
X165250000Y-123316244D01*
X165450000Y-123316244D01*
X165450000Y-124550000D01*
X166684166Y-124550000D01*
X166812596Y-124317101D01*
X166737855Y-124080906D01*
X166645548Y-123900000D01*
X167494834Y-123900000D01*
X167500000Y-124487500D01*
X167662500Y-124650000D01*
X168900000Y-124650000D01*
X168900000Y-123412500D01*
X168737500Y-123250000D01*
X168108862Y-123246127D01*
X167947543Y-123276900D01*
X167798945Y-123346825D01*
X167672405Y-123451508D01*
X167575874Y-123584371D01*
X167515417Y-123737067D01*
X167494834Y-123900000D01*
X166645548Y-123900000D01*
X166625257Y-123860234D01*
X166477873Y-123661105D01*
X166299724Y-123488950D01*
X166095668Y-123348466D01*
X165871273Y-123243484D01*
X165682899Y-123187407D01*
X165450000Y-123316244D01*
X165250000Y-123316244D01*
X165017101Y-123187407D01*
X164828727Y-123243484D01*
X164604332Y-123348466D01*
X164400276Y-123488950D01*
X164222127Y-123661105D01*
X164083721Y-123848104D01*
X164083639Y-123847947D01*
X163935541Y-123650698D01*
X163757215Y-123480287D01*
X163610000Y-123379863D01*
X163610000Y-123077934D01*
X163613937Y-122984004D01*
X163597527Y-122914041D01*
X163587774Y-122842842D01*
X163572606Y-122807790D01*
X163563885Y-122770609D01*
X163541800Y-122736601D01*
X163500725Y-122641682D01*
X163362786Y-122471343D01*
X163327975Y-122446604D01*
X162931371Y-122050000D01*
X169168631Y-122050000D01*
X170654724Y-123536094D01*
X170621646Y-123557493D01*
X170468616Y-123696739D01*
X170424126Y-123584371D01*
X170327595Y-123451508D01*
X170201055Y-123346825D01*
X170052457Y-123276900D01*
X169891138Y-123246127D01*
X169262500Y-123250000D01*
X169100000Y-123412500D01*
X169100000Y-124650000D01*
X169120000Y-124650000D01*
X169120000Y-124850000D01*
X169100000Y-124850000D01*
X169100000Y-126087500D01*
X169262500Y-126250000D01*
X169891138Y-126253873D01*
X170052457Y-126223100D01*
X170201055Y-126153175D01*
X170327595Y-126048492D01*
X170424126Y-125915629D01*
X170469250Y-125801661D01*
X170592785Y-125919713D01*
X170796548Y-126058712D01*
X171020278Y-126162563D01*
X171257965Y-126228480D01*
X171485624Y-126250000D01*
X171602518Y-126250000D01*
X171785828Y-126234929D01*
X172025055Y-126174840D01*
X172251255Y-126076485D01*
X172458354Y-125942507D01*
X172640790Y-125776503D01*
X172793663Y-125582932D01*
X172808867Y-125555390D01*
X172954459Y-125749302D01*
X173132785Y-125919713D01*
X173336548Y-126058712D01*
X173560278Y-126162563D01*
X173797965Y-126228480D01*
X174025624Y-126250000D01*
X174142518Y-126250000D01*
X174325828Y-126234929D01*
X174565055Y-126174840D01*
X174791255Y-126076485D01*
X174998354Y-125942507D01*
X175180790Y-125776503D01*
X175333663Y-125582932D01*
X175348867Y-125555390D01*
X175494459Y-125749302D01*
X175672785Y-125919713D01*
X175876548Y-126058712D01*
X176100278Y-126162563D01*
X176337965Y-126228480D01*
X176565624Y-126250000D01*
X176682518Y-126250000D01*
X176865828Y-126234929D01*
X177105055Y-126174840D01*
X177331255Y-126076485D01*
X177538354Y-125942507D01*
X177720790Y-125776503D01*
X177873663Y-125582932D01*
X177888867Y-125555390D01*
X178034459Y-125749302D01*
X178212785Y-125919713D01*
X178416548Y-126058712D01*
X178640278Y-126162563D01*
X178877965Y-126228480D01*
X179105624Y-126250000D01*
X179222518Y-126250000D01*
X179405828Y-126234929D01*
X179645055Y-126174840D01*
X179871255Y-126076485D01*
X180078354Y-125942507D01*
X180260790Y-125776503D01*
X180413663Y-125582932D01*
X180428867Y-125555390D01*
X180574459Y-125749302D01*
X180752785Y-125919713D01*
X180956548Y-126058712D01*
X181180278Y-126162563D01*
X181417965Y-126228480D01*
X181645624Y-126250000D01*
X181762518Y-126250000D01*
X181945828Y-126234929D01*
X182185055Y-126174840D01*
X182411255Y-126076485D01*
X182618354Y-125942507D01*
X182800790Y-125776503D01*
X182953663Y-125582932D01*
X183072868Y-125366992D01*
X183155205Y-125134482D01*
X183198460Y-124891646D01*
X183201474Y-124645007D01*
X183164164Y-124401187D01*
X183087533Y-124166735D01*
X182973639Y-123947947D01*
X182825541Y-123750698D01*
X182647215Y-123580287D01*
X182443452Y-123441288D01*
X182219722Y-123337437D01*
X181982035Y-123271520D01*
X181754376Y-123250000D01*
X181637482Y-123250000D01*
X181454172Y-123265071D01*
X181214945Y-123325160D01*
X180988745Y-123423515D01*
X180781646Y-123557493D01*
X180599210Y-123723497D01*
X180446337Y-123917068D01*
X180431133Y-123944610D01*
X180285541Y-123750698D01*
X180107215Y-123580287D01*
X179903452Y-123441288D01*
X179679722Y-123337437D01*
X179442035Y-123271520D01*
X179214376Y-123250000D01*
X179097482Y-123250000D01*
X178914172Y-123265071D01*
X178700190Y-123318819D01*
X177651254Y-122269883D01*
X177799119Y-122280742D01*
X178007267Y-122238772D01*
X178033264Y-122225526D01*
X178235055Y-122174840D01*
X178461255Y-122076485D01*
X178668354Y-121942507D01*
X178850790Y-121776503D01*
X179003663Y-121582932D01*
X179018867Y-121555390D01*
X179164459Y-121749302D01*
X179342785Y-121919713D01*
X179546548Y-122058712D01*
X179770278Y-122162563D01*
X180007965Y-122228480D01*
X180030473Y-122230608D01*
X180151469Y-122269922D01*
X180363619Y-122278814D01*
X180570346Y-122230326D01*
X180580559Y-122223693D01*
X180775055Y-122174840D01*
X181001255Y-122076485D01*
X181208354Y-121942507D01*
X181390790Y-121776503D01*
X181543663Y-121582932D01*
X181558867Y-121555390D01*
X181704459Y-121749302D01*
X181882785Y-121919713D01*
X182086548Y-122058712D01*
X182310278Y-122162563D01*
X182547965Y-122228480D01*
X182570473Y-122230608D01*
X182691469Y-122269922D01*
X182903619Y-122278814D01*
X183110346Y-122230326D01*
X183120559Y-122223693D01*
X183315055Y-122174840D01*
X183541255Y-122076485D01*
X183748354Y-121942507D01*
X183930790Y-121776503D01*
X184083663Y-121582932D01*
X184098867Y-121555390D01*
X184244459Y-121749302D01*
X184422785Y-121919713D01*
X184626548Y-122058712D01*
X184850278Y-122162563D01*
X185087965Y-122228480D01*
X185111586Y-122230713D01*
X185207354Y-122265191D01*
X185419119Y-122280742D01*
X185627267Y-122238772D01*
X185653264Y-122225526D01*
X185855055Y-122174840D01*
X186081255Y-122076485D01*
X186288354Y-121942507D01*
X186441156Y-121803467D01*
X186448098Y-121840154D01*
X186546069Y-122009846D01*
X186689706Y-122143121D01*
X186866245Y-122228138D01*
X187060000Y-122257342D01*
X187725553Y-122257342D01*
X187747355Y-122265191D01*
X187959120Y-122280742D01*
X188075171Y-122257342D01*
X188760000Y-122257342D01*
X189000154Y-122211902D01*
X189169846Y-122113931D01*
X189303121Y-121970294D01*
X189388138Y-121793755D01*
X189417342Y-121600000D01*
X189417342Y-119900000D01*
X189371902Y-119659846D01*
X189273931Y-119490154D01*
X189130294Y-119356879D01*
X188953755Y-119271862D01*
X188760000Y-119242658D01*
X188685000Y-119242658D01*
X188685000Y-118677377D01*
X188688814Y-118586380D01*
X188672917Y-118518604D01*
X188663469Y-118449628D01*
X188648776Y-118415674D01*
X188640327Y-118379653D01*
X188618929Y-118346703D01*
X188579139Y-118254755D01*
X188445512Y-118089738D01*
X188411787Y-118065771D01*
X187025000Y-116678986D01*
X187025000Y-104821014D01*
X187485551Y-104360464D01*
X187548370Y-104421021D01*
X187779069Y-104557729D01*
X188035030Y-104637697D01*
X188302523Y-104656636D01*
X188567198Y-104613531D01*
X188814858Y-104510694D01*
X189032217Y-104353640D01*
X189207617Y-104150796D01*
X189331648Y-103913041D01*
X189397657Y-103653130D01*
X189400155Y-103366923D01*
X189338692Y-103105899D01*
X189218829Y-102866016D01*
X189046996Y-102660141D01*
X188832411Y-102499318D01*
X188831283Y-102498826D01*
X189032217Y-102353640D01*
X189207617Y-102150796D01*
X189331648Y-101913041D01*
X189397657Y-101653130D01*
X189400155Y-101366923D01*
X189338692Y-101105899D01*
X189218829Y-100866016D01*
X189046996Y-100660141D01*
X189001358Y-100625937D01*
X189032217Y-100603640D01*
X189207617Y-100400796D01*
X189331648Y-100163041D01*
X189397657Y-99903130D01*
X189400155Y-99616923D01*
X189338692Y-99355899D01*
X189218829Y-99116016D01*
X189046996Y-98910141D01*
X189001358Y-98875937D01*
X189032217Y-98853640D01*
X189207617Y-98650796D01*
X189331648Y-98413041D01*
X189397657Y-98153130D01*
X189400155Y-97866923D01*
X189338692Y-97605899D01*
X189218829Y-97366016D01*
X189046996Y-97160141D01*
X188832411Y-96999318D01*
X188586583Y-96892174D01*
X188322701Y-96844457D01*
X188054918Y-96858725D01*
X187797601Y-96934214D01*
X187564551Y-97066874D01*
X187394685Y-97225000D01*
X184267377Y-97225000D01*
X184176380Y-97221186D01*
X184108608Y-97237082D01*
X184039628Y-97246531D01*
X184005670Y-97261226D01*
X183969653Y-97269674D01*
X183936707Y-97291069D01*
X183844755Y-97330861D01*
X183679738Y-97464488D01*
X183655768Y-97498217D01*
X182964300Y-98189686D01*
X182897238Y-98251353D01*
X182860551Y-98310523D01*
X182818462Y-98365973D01*
X182804842Y-98400372D01*
X182785346Y-98431817D01*
X182777178Y-98470246D01*
X182740296Y-98563399D01*
X182718100Y-98774571D01*
X182725000Y-98815367D01*
X182725000Y-99878986D01*
X182310321Y-99464307D01*
X182248648Y-99397238D01*
X182189473Y-99360548D01*
X182134027Y-99318462D01*
X182099630Y-99304843D01*
X182068184Y-99285346D01*
X182029753Y-99277177D01*
X181936601Y-99240296D01*
X181725429Y-99218100D01*
X181684633Y-99225000D01*
X167601130Y-99225000D01*
X167546996Y-99160141D01*
X167332411Y-98999318D01*
X167086583Y-98892174D01*
X166822701Y-98844457D01*
X166554918Y-98858725D01*
X166297601Y-98934214D01*
X166064551Y-99066874D01*
X165868270Y-99249589D01*
X165719287Y-99472557D01*
X165625594Y-99723819D01*
X165592216Y-99989896D01*
X165620945Y-100256515D01*
X165710239Y-100509374D01*
X165855307Y-100734909D01*
X166001402Y-100875744D01*
X165868270Y-100999675D01*
X165719287Y-101222643D01*
X165625594Y-101473905D01*
X165592216Y-101739982D01*
X165620945Y-102006601D01*
X165710239Y-102259460D01*
X165772405Y-102356108D01*
X165618265Y-102499594D01*
X165469282Y-102722562D01*
X165375589Y-102973824D01*
X165342211Y-103239901D01*
X165345763Y-103272866D01*
X164447000Y-104171630D01*
X164377795Y-104235267D01*
X164339928Y-104296340D01*
X164296477Y-104353585D01*
X164282417Y-104389097D01*
X164262294Y-104421552D01*
X164253863Y-104461215D01*
X164215789Y-104557380D01*
X164192878Y-104775364D01*
X164200001Y-104817477D01*
X164200000Y-107537730D01*
X164196063Y-107631660D01*
X164212473Y-107701622D01*
X164222226Y-107772823D01*
X164237395Y-107807876D01*
X164246115Y-107845055D01*
X164268199Y-107879061D01*
X164309275Y-107973983D01*
X164362428Y-108039621D01*
X164314551Y-108066874D01*
X164118270Y-108249589D01*
X163969287Y-108472557D01*
X163875594Y-108723819D01*
X163842216Y-108989896D01*
X163870945Y-109256515D01*
X163960239Y-109509374D01*
X164105307Y-109734909D01*
X164298370Y-109921021D01*
X164529069Y-110057729D01*
X164785030Y-110137697D01*
X165023189Y-110154559D01*
X165171628Y-110302999D01*
X165235267Y-110372206D01*
X165296342Y-110410074D01*
X165353584Y-110453523D01*
X165389094Y-110467583D01*
X165421552Y-110487707D01*
X165461218Y-110496138D01*
X165557379Y-110534211D01*
X165775364Y-110557121D01*
X165817466Y-110550000D01*
X170918630Y-110550000D01*
X171080001Y-110711371D01*
X171080000Y-115344618D01*
X171080000Y-115730927D01*
X170961646Y-115807493D01*
X170779210Y-115973497D01*
X170626337Y-116167068D01*
X170607955Y-116200368D01*
X170467873Y-116011105D01*
X170289724Y-115838950D01*
X170085668Y-115698466D01*
X169861273Y-115593484D01*
X169672899Y-115537407D01*
X169440000Y-115666244D01*
X169440000Y-116900000D01*
X169460000Y-116900000D01*
X169460000Y-117100000D01*
X169440000Y-117100000D01*
X169440000Y-117120000D01*
X169240000Y-117120000D01*
X169240000Y-117100000D01*
X169220000Y-117100000D01*
X169220000Y-116900000D01*
X169240000Y-116900000D01*
X169240000Y-115666244D01*
X169007101Y-115537407D01*
X168818727Y-115593484D01*
X168594332Y-115698466D01*
X168390276Y-115838950D01*
X168270405Y-115954787D01*
X168261902Y-115909846D01*
X168163931Y-115740154D01*
X168020294Y-115606879D01*
X167843755Y-115521862D01*
X167650000Y-115492658D01*
X166050000Y-115492658D01*
X166050000Y-112833075D01*
X166207617Y-112650796D01*
X166331648Y-112413041D01*
X166397657Y-112153130D01*
X166400155Y-111866923D01*
X166338692Y-111605899D01*
X166218829Y-111366016D01*
X166046996Y-111160141D01*
X165832411Y-110999318D01*
X165586583Y-110892174D01*
X165322701Y-110844457D01*
X165054918Y-110858725D01*
X164797601Y-110934214D01*
X164564551Y-111066874D01*
X164517664Y-111110520D01*
X164479263Y-111102882D01*
X164450000Y-111100000D01*
X162814774Y-111100000D01*
X162743722Y-111085867D01*
X162696012Y-111053988D01*
X162664133Y-111006278D01*
X162650000Y-110935226D01*
X162650000Y-109390512D01*
X162646417Y-109357922D01*
X162618094Y-109230676D01*
X162590447Y-109171649D01*
X162510825Y-109068429D01*
X162488083Y-109044813D01*
X161729872Y-108412970D01*
X161751835Y-108359947D01*
X161775000Y-108183989D01*
X161775000Y-108183975D01*
X161782764Y-108125001D01*
X161775000Y-108066027D01*
X161775000Y-102247791D01*
X163878535Y-100144257D01*
X164067198Y-100113531D01*
X164314858Y-100010694D01*
X164532217Y-99853640D01*
X164707617Y-99650796D01*
X164831648Y-99413041D01*
X164897657Y-99153130D01*
X164900155Y-98866923D01*
X164838692Y-98605899D01*
X164718829Y-98366016D01*
X164546996Y-98160141D01*
X164332411Y-97999318D01*
X164086583Y-97892174D01*
X163822701Y-97844457D01*
X163554918Y-97858725D01*
X163297601Y-97934214D01*
X163064551Y-98066874D01*
X162868270Y-98249589D01*
X162719287Y-98472557D01*
X162625594Y-98723819D01*
X162607263Y-98869945D01*
X160280317Y-101196892D01*
X160233113Y-101233113D01*
X160193033Y-101285346D01*
X160088852Y-101421117D01*
X160066987Y-101473905D01*
X159998165Y-101640054D01*
X159975000Y-101816012D01*
X159975000Y-101816019D01*
X159967235Y-101875000D01*
X159975000Y-101933982D01*
X159975001Y-107752207D01*
X159877209Y-107850000D01*
X156308982Y-107850000D01*
X156250000Y-107842235D01*
X156191018Y-107850000D01*
X156191011Y-107850000D01*
X156015053Y-107873165D01*
X155892318Y-107924004D01*
X155796116Y-107963852D01*
X155655315Y-108071893D01*
X155655313Y-108071895D01*
X155608113Y-108108113D01*
X155571895Y-108155313D01*
X153330317Y-110396892D01*
X153283113Y-110433113D01*
X153246893Y-110480316D01*
X153138852Y-110621117D01*
X153138852Y-110621118D01*
X153048165Y-110840054D01*
X153025000Y-111016012D01*
X153025000Y-111016019D01*
X153017235Y-111075000D01*
X153025000Y-111133982D01*
X153025000Y-112100000D01*
X151216750Y-112100000D01*
X151082411Y-111999318D01*
X150836583Y-111892174D01*
X150572701Y-111844457D01*
X150304918Y-111858725D01*
X150047601Y-111934214D01*
X149814551Y-112066874D01*
X149618270Y-112249589D01*
X149469287Y-112472557D01*
X149375594Y-112723819D01*
X149342216Y-112989896D01*
X149370945Y-113256515D01*
X149460239Y-113509374D01*
X149605307Y-113734909D01*
X149798370Y-113921021D01*
X150029069Y-114057729D01*
X150285030Y-114137697D01*
X150552523Y-114156636D01*
X150817198Y-114113531D01*
X151064858Y-114010694D01*
X151247416Y-113878786D01*
X151450001Y-114081371D01*
X151450000Y-115350000D01*
X150250000Y-115350000D01*
X150233040Y-115351670D01*
X149300000Y-114418630D01*
X149300000Y-108017934D01*
X149303937Y-107924004D01*
X149287527Y-107854042D01*
X149277774Y-107782842D01*
X149262605Y-107747789D01*
X149253885Y-107710610D01*
X149231801Y-107676603D01*
X149190725Y-107581682D01*
X149052786Y-107411343D01*
X149017975Y-107386604D01*
X148523841Y-106892471D01*
X148525155Y-106741923D01*
X148463692Y-106480899D01*
X148343829Y-106241016D01*
X148171996Y-106035141D01*
X147957411Y-105874318D01*
X147711583Y-105767174D01*
X147447701Y-105719457D01*
X147179918Y-105733725D01*
X146922601Y-105809214D01*
X146689551Y-105941874D01*
X146493270Y-106124589D01*
X146344287Y-106347557D01*
X146250594Y-106598819D01*
X146217216Y-106864896D01*
X146245945Y-107131515D01*
X146335239Y-107384374D01*
X146393963Y-107475672D01*
X146368270Y-107499589D01*
X146219287Y-107722557D01*
X146125594Y-107973819D01*
X146092216Y-108239896D01*
X146120945Y-108506515D01*
X146210239Y-108759374D01*
X146355307Y-108984909D01*
X146548370Y-109171021D01*
X146779069Y-109307729D01*
X146950001Y-109361132D01*
X146950000Y-114927208D01*
X141428108Y-109405317D01*
X141391887Y-109358113D01*
X141203883Y-109213852D01*
X140984947Y-109123165D01*
X140808989Y-109100000D01*
X140808981Y-109100000D01*
X140750000Y-109092235D01*
X140691019Y-109100000D01*
X139966750Y-109100000D01*
X139832411Y-108999318D01*
X139586583Y-108892174D01*
X139322701Y-108844457D01*
X139054918Y-108858725D01*
X138797601Y-108934214D01*
X138564551Y-109066874D01*
X138528966Y-109100000D01*
X137558982Y-109100000D01*
X137500000Y-109092235D01*
X137441018Y-109100000D01*
X137441011Y-109100000D01*
X137265053Y-109123165D01*
X137110242Y-109187291D01*
X137046116Y-109213852D01*
X136905315Y-109321893D01*
X136905313Y-109321895D01*
X136858113Y-109358113D01*
X136821895Y-109405313D01*
X135377209Y-110850000D01*
X131716750Y-110850000D01*
X131582411Y-110749318D01*
X131336583Y-110642174D01*
X131072701Y-110594457D01*
X130804918Y-110608725D01*
X130547601Y-110684214D01*
X130314551Y-110816874D01*
X130118270Y-110999589D01*
X129969287Y-111222557D01*
X129875594Y-111473819D01*
X129842216Y-111739896D01*
X124400000Y-111739896D01*
X124400000Y-109558981D01*
X124407765Y-109500000D01*
X124400000Y-109441018D01*
X124400000Y-109441011D01*
X124376835Y-109265053D01*
X124298524Y-109075994D01*
X124286148Y-109046116D01*
X124178107Y-108905315D01*
X124178105Y-108905313D01*
X124141887Y-108858113D01*
X124094687Y-108821895D01*
X118650000Y-103377209D01*
X118650000Y-100308981D01*
X118657765Y-100249999D01*
X118650000Y-100191018D01*
X118650000Y-100191011D01*
X118626835Y-100015053D01*
X118536148Y-99796117D01*
X118536148Y-99796116D01*
X118428107Y-99655315D01*
X118428105Y-99655313D01*
X118391887Y-99608113D01*
X118344687Y-99571895D01*
X117678108Y-98905317D01*
X117641887Y-98858113D01*
X117453883Y-98713852D01*
X117234947Y-98623165D01*
X117058989Y-98600000D01*
X117058981Y-98600000D01*
X117000000Y-98592235D01*
X116941019Y-98600000D01*
X115600099Y-98600000D01*
X115525541Y-98500698D01*
X115347215Y-98330287D01*
X115143452Y-98191288D01*
X114919722Y-98087437D01*
X114682035Y-98021520D01*
X114454376Y-98000000D01*
X114037482Y-98000000D01*
X113854172Y-98015071D01*
X113614945Y-98075160D01*
X113388745Y-98173515D01*
X113181646Y-98307493D01*
X112999210Y-98473497D01*
X112846337Y-98667068D01*
X112727132Y-98883008D01*
X112644795Y-99115518D01*
X112601540Y-99358354D01*
X112598526Y-99604993D01*
X112635836Y-99848813D01*
X112712467Y-100083265D01*
X112826361Y-100302053D01*
X112974459Y-100499302D01*
X113017924Y-100540838D01*
X112898945Y-100596825D01*
X112772405Y-100701508D01*
X112675874Y-100834371D01*
X112615417Y-100987067D01*
X112594834Y-101150000D01*
X110900000Y-101150000D01*
X110900000Y-96400000D01*
X132162658Y-96400000D01*
X132162658Y-98100000D01*
X132208098Y-98340154D01*
X132306069Y-98509846D01*
X132449706Y-98643121D01*
X132626245Y-98728138D01*
X132820000Y-98757342D01*
X132895001Y-98757342D01*
X132895000Y-101652622D01*
X132891186Y-101743619D01*
X132907082Y-101811391D01*
X132916531Y-101880371D01*
X132931226Y-101914329D01*
X132939674Y-101950346D01*
X132961069Y-101983292D01*
X133000861Y-102075244D01*
X133134488Y-102240262D01*
X133168220Y-102264234D01*
X133939689Y-103035704D01*
X134001352Y-103102762D01*
X134060522Y-103139449D01*
X134115972Y-103181538D01*
X134150371Y-103195158D01*
X134181816Y-103214654D01*
X134220245Y-103222822D01*
X134313398Y-103259704D01*
X134524571Y-103281900D01*
X134565365Y-103275000D01*
X142095999Y-103275000D01*
X142120945Y-103506515D01*
X142210239Y-103759374D01*
X142355307Y-103984909D01*
X142548370Y-104171021D01*
X142779069Y-104307729D01*
X143035030Y-104387697D01*
X143302523Y-104406636D01*
X143567198Y-104363531D01*
X143814858Y-104260694D01*
X144001498Y-104125836D01*
X144048370Y-104171021D01*
X144279069Y-104307729D01*
X144535030Y-104387697D01*
X144802523Y-104406636D01*
X145067198Y-104363531D01*
X145314858Y-104260694D01*
X145532217Y-104103640D01*
X145620419Y-104001637D01*
X145620945Y-104006515D01*
X145710239Y-104259374D01*
X145855307Y-104484909D01*
X146048370Y-104671021D01*
X146279069Y-104807729D01*
X146535030Y-104887697D01*
X146802523Y-104906636D01*
X147067198Y-104863531D01*
X147314858Y-104760694D01*
X147532217Y-104603640D01*
X147707617Y-104400796D01*
X147831648Y-104163041D01*
X147897657Y-103903130D01*
X147900155Y-103616923D01*
X147838692Y-103355899D01*
X147718829Y-103116016D01*
X147546996Y-102910141D01*
X147332411Y-102749318D01*
X147086583Y-102642174D01*
X146822701Y-102594457D01*
X146554918Y-102608725D01*
X146297601Y-102684214D01*
X146064551Y-102816874D01*
X145871761Y-102996339D01*
X145838692Y-102855899D01*
X145718829Y-102616016D01*
X145546996Y-102410141D01*
X145332411Y-102249318D01*
X145086583Y-102142174D01*
X144822701Y-102094457D01*
X144697161Y-102101146D01*
X144060321Y-101464307D01*
X143998648Y-101397238D01*
X143939473Y-101360548D01*
X143884027Y-101318462D01*
X143849630Y-101304843D01*
X143818184Y-101285346D01*
X143779753Y-101277177D01*
X143686601Y-101240296D01*
X143475429Y-101218100D01*
X143434633Y-101225000D01*
X137321015Y-101225000D01*
X136985000Y-100888985D01*
X136985000Y-98535247D01*
X137128354Y-98442507D01*
X137310790Y-98276503D01*
X137463663Y-98082932D01*
X137478867Y-98055390D01*
X137624459Y-98249302D01*
X137802785Y-98419713D01*
X137975000Y-98537191D01*
X137975000Y-98732622D01*
X137971186Y-98823619D01*
X137987082Y-98891391D01*
X137996531Y-98960371D01*
X138011226Y-98994329D01*
X138019674Y-99030346D01*
X138041069Y-99063292D01*
X138080861Y-99155244D01*
X138214488Y-99320262D01*
X138248220Y-99344234D01*
X138689678Y-99785692D01*
X138751352Y-99852762D01*
X138810524Y-99889450D01*
X138865972Y-99931538D01*
X138900371Y-99945158D01*
X138931816Y-99964654D01*
X138970245Y-99972822D01*
X139063398Y-100009704D01*
X139274572Y-100031900D01*
X139315367Y-100025000D01*
X145119174Y-100025000D01*
X145092216Y-100239896D01*
X145120945Y-100506515D01*
X145210239Y-100759374D01*
X145355307Y-100984909D01*
X145548370Y-101171021D01*
X145779069Y-101307729D01*
X146035030Y-101387697D01*
X146302523Y-101406636D01*
X146567198Y-101363531D01*
X146814858Y-101260694D01*
X147032217Y-101103640D01*
X147078600Y-101050000D01*
X149232065Y-101050000D01*
X149325994Y-101053937D01*
X149395954Y-101037528D01*
X149467158Y-101027774D01*
X149502212Y-101012605D01*
X149539389Y-101003885D01*
X149573393Y-100981802D01*
X149668318Y-100940725D01*
X149838657Y-100802786D01*
X149863401Y-100767969D01*
X150479877Y-100151493D01*
X150552523Y-100156636D01*
X150817198Y-100113531D01*
X151064858Y-100010694D01*
X151282217Y-99853640D01*
X151457617Y-99650796D01*
X151581648Y-99413041D01*
X151647657Y-99153130D01*
X151650155Y-98866923D01*
X151588692Y-98605899D01*
X151468829Y-98366016D01*
X151296996Y-98160141D01*
X151116678Y-98025000D01*
X151396895Y-98025000D01*
X151548370Y-98171021D01*
X151779069Y-98307729D01*
X152035030Y-98387697D01*
X152302523Y-98406636D01*
X152567198Y-98363531D01*
X152814858Y-98260694D01*
X153032217Y-98103640D01*
X153207617Y-97900796D01*
X153331648Y-97663041D01*
X153397657Y-97403130D01*
X153400155Y-97116923D01*
X153338692Y-96855899D01*
X153218829Y-96616016D01*
X153046996Y-96410141D01*
X152832411Y-96249318D01*
X152586583Y-96142174D01*
X152322701Y-96094457D01*
X152054918Y-96108725D01*
X151797601Y-96184214D01*
X151564551Y-96316874D01*
X151394685Y-96475000D01*
X150767377Y-96475000D01*
X150676380Y-96471186D01*
X150608608Y-96487082D01*
X150539628Y-96496531D01*
X150505670Y-96511226D01*
X150469653Y-96519674D01*
X150436707Y-96541069D01*
X150344755Y-96580861D01*
X150179738Y-96714488D01*
X150155768Y-96748217D01*
X148428986Y-98475000D01*
X142158127Y-98475000D01*
X142208354Y-98442507D01*
X142390790Y-98276503D01*
X142543663Y-98082932D01*
X142662868Y-97866992D01*
X142745205Y-97634482D01*
X142788460Y-97391646D01*
X142791474Y-97145007D01*
X142754164Y-96901187D01*
X142677533Y-96666735D01*
X142563639Y-96447947D01*
X142415541Y-96250698D01*
X142237215Y-96080287D01*
X142033452Y-95941288D01*
X141809722Y-95837437D01*
X141572035Y-95771520D01*
X141344376Y-95750000D01*
X141227482Y-95750000D01*
X141044172Y-95765071D01*
X140804945Y-95825160D01*
X140578745Y-95923515D01*
X140371646Y-96057493D01*
X140189210Y-96223497D01*
X140036337Y-96417068D01*
X140021133Y-96444610D01*
X139875541Y-96250698D01*
X139697215Y-96080287D01*
X139493452Y-95941288D01*
X139269722Y-95837437D01*
X139032035Y-95771520D01*
X138804376Y-95750000D01*
X138687482Y-95750000D01*
X138504172Y-95765071D01*
X138264945Y-95825160D01*
X138038745Y-95923515D01*
X137831646Y-96057493D01*
X137649210Y-96223497D01*
X137496337Y-96417068D01*
X137481133Y-96444610D01*
X137335541Y-96250698D01*
X137157215Y-96080287D01*
X136953452Y-95941288D01*
X136729722Y-95837437D01*
X136492035Y-95771520D01*
X136264376Y-95750000D01*
X136147482Y-95750000D01*
X135964172Y-95765071D01*
X135724945Y-95825160D01*
X135498745Y-95923515D01*
X135291646Y-96057493D01*
X135138844Y-96196533D01*
X135131902Y-96159846D01*
X135033931Y-95990154D01*
X134890294Y-95856879D01*
X134713755Y-95771862D01*
X134520000Y-95742658D01*
X132820000Y-95742658D01*
X132579846Y-95788098D01*
X132410154Y-95886069D01*
X132276879Y-96029706D01*
X132191862Y-96206245D01*
X132162658Y-96400000D01*
X110900000Y-96400000D01*
X110900000Y-83750000D01*
X112092658Y-83750000D01*
X112092658Y-87250000D01*
X112138098Y-87490154D01*
X112236069Y-87659846D01*
X112379706Y-87793121D01*
X112556245Y-87878138D01*
X112750000Y-87907342D01*
X116250000Y-87907342D01*
X116490154Y-87861902D01*
X116659846Y-87763931D01*
X116793121Y-87620294D01*
X116878138Y-87443755D01*
X116907342Y-87250000D01*
X116907342Y-87154778D01*
X184986643Y-87154778D01*
X185168536Y-87502734D01*
X185435571Y-87656555D01*
X185720084Y-87774966D01*
X186017403Y-87856023D01*
X186322647Y-87898392D01*
X186630803Y-87901381D01*
X186936811Y-87864938D01*
X187235646Y-87789665D01*
X187522403Y-87676794D01*
X187792371Y-87528181D01*
X187831464Y-87502734D01*
X188013357Y-87154778D01*
X186500000Y-85641421D01*
X184986643Y-87154778D01*
X116907342Y-87154778D01*
X116907342Y-85630803D01*
X184098619Y-85630803D01*
X184135062Y-85936811D01*
X184210335Y-86235646D01*
X184323206Y-86522403D01*
X184471819Y-86792371D01*
X184497266Y-86831464D01*
X184845222Y-87013357D01*
X186358579Y-85500000D01*
X186641421Y-85500000D01*
X188154778Y-87013357D01*
X188502734Y-86831464D01*
X188656555Y-86564429D01*
X188774966Y-86279916D01*
X188856023Y-85982597D01*
X188898392Y-85677353D01*
X188901381Y-85369197D01*
X188864938Y-85063189D01*
X188789665Y-84764354D01*
X188676794Y-84477597D01*
X188528181Y-84207629D01*
X188502734Y-84168536D01*
X188154778Y-83986643D01*
X186641421Y-85500000D01*
X186358579Y-85500000D01*
X184845222Y-83986643D01*
X184497266Y-84168536D01*
X184343445Y-84435571D01*
X184225034Y-84720084D01*
X184143977Y-85017403D01*
X184101608Y-85322647D01*
X184098619Y-85630803D01*
X116907342Y-85630803D01*
X116907342Y-83845222D01*
X184986643Y-83845222D01*
X186500000Y-85358579D01*
X188013357Y-83845222D01*
X187831464Y-83497266D01*
X187564429Y-83343445D01*
X187279916Y-83225034D01*
X186982597Y-83143977D01*
X186677353Y-83101608D01*
X186369197Y-83098619D01*
X186063189Y-83135062D01*
X185764354Y-83210335D01*
X185477597Y-83323206D01*
X185207629Y-83471819D01*
X185168536Y-83497266D01*
X184986643Y-83845222D01*
X116907342Y-83845222D01*
X116907342Y-83750000D01*
X116861902Y-83509846D01*
X116763931Y-83340154D01*
X116620294Y-83206879D01*
X116443755Y-83121862D01*
X116250000Y-83092658D01*
X112750000Y-83092658D01*
X112509846Y-83138098D01*
X112340154Y-83236069D01*
X112206879Y-83379706D01*
X112121862Y-83556245D01*
X112092658Y-83750000D01*
X110900000Y-83750000D01*
X110900000Y-75400000D01*
X190100000Y-75400000D01*
X190100001Y-126600000D01*
X190100001Y-126600000D01*
G37*
X190100001Y-126600000D02*
X110900000Y-126600000D01*
X110900000Y-123835090D01*
X112763735Y-123835090D01*
X112818585Y-124076856D01*
X112912481Y-124306296D01*
X113042861Y-124517152D01*
X113206168Y-124703673D01*
X113397948Y-124860770D01*
X113612970Y-124984159D01*
X113845368Y-125070474D01*
X113917101Y-125087593D01*
X114150000Y-124958756D01*
X114150000Y-123600000D01*
X112911668Y-123600000D01*
X112763735Y-123835090D01*
X110900000Y-123835090D01*
X110900000Y-123164910D01*
X112763735Y-123164910D01*
X112911668Y-123400000D01*
X114150000Y-123400000D01*
X114150000Y-122041244D01*
X114350000Y-122041244D01*
X114350000Y-123400000D01*
X114370000Y-123400000D01*
X114370000Y-123600000D01*
X114350000Y-123600000D01*
X114350000Y-124958756D01*
X114582899Y-125087593D01*
X114654632Y-125070474D01*
X114887030Y-124984159D01*
X115102052Y-124860770D01*
X115293832Y-124703673D01*
X115457139Y-124517152D01*
X115497899Y-124451234D01*
X115557493Y-124543353D01*
X115723497Y-124725790D01*
X115917068Y-124878663D01*
X116133008Y-124997868D01*
X116365518Y-125080205D01*
X116608354Y-125123460D01*
X116854992Y-125126474D01*
X117098812Y-125089164D01*
X117333264Y-125012533D01*
X117552052Y-124898639D01*
X117749301Y-124750541D01*
X117787275Y-124710804D01*
X117788098Y-124715154D01*
X117886069Y-124884846D01*
X118029706Y-125018121D01*
X118206245Y-125103138D01*
X118400000Y-125132342D01*
X120100000Y-125132342D01*
X120340154Y-125086902D01*
X120509846Y-124988931D01*
X120643121Y-124845294D01*
X120728138Y-124668755D01*
X120757342Y-124475000D01*
X120757342Y-123835090D01*
X123763735Y-123835090D01*
X123818585Y-124076856D01*
X123912481Y-124306296D01*
X124042861Y-124517152D01*
X124206168Y-124703673D01*
X124397948Y-124860770D01*
X124612970Y-124984159D01*
X124845368Y-125070474D01*
X124917101Y-125087593D01*
X125150000Y-124958756D01*
X125150000Y-123600000D01*
X123911668Y-123600000D01*
X123763735Y-123835090D01*
X120757342Y-123835090D01*
X120757342Y-123164910D01*
X123763735Y-123164910D01*
X123911668Y-123400000D01*
X125150000Y-123400000D01*
X125150000Y-122041244D01*
X124917101Y-121912407D01*
X124845368Y-121929526D01*
X124612970Y-122015841D01*
X124397948Y-122139230D01*
X124206168Y-122296327D01*
X124042861Y-122482848D01*
X123912481Y-122693704D01*
X123818585Y-122923144D01*
X123763735Y-123164910D01*
X120757342Y-123164910D01*
X120757342Y-122525000D01*
X120711902Y-122284846D01*
X120613931Y-122115154D01*
X120470294Y-121981879D01*
X120293755Y-121896862D01*
X120100000Y-121867658D01*
X118400000Y-121867658D01*
X118159846Y-121913098D01*
X117990154Y-122011069D01*
X117856879Y-122154706D01*
X117791429Y-122290614D01*
X117776503Y-122274210D01*
X117582932Y-122121337D01*
X117366992Y-122002132D01*
X117134482Y-121919795D01*
X116891646Y-121876540D01*
X116645008Y-121873526D01*
X116401188Y-121910836D01*
X116166736Y-121987467D01*
X115947948Y-122101361D01*
X115750699Y-122249459D01*
X115580287Y-122427785D01*
X115497832Y-122548658D01*
X115457139Y-122482848D01*
X115293832Y-122296327D01*
X115102052Y-122139230D01*
X114887030Y-122015841D01*
X114654632Y-121929526D01*
X114582899Y-121912407D01*
X114350000Y-122041244D01*
X114150000Y-122041244D01*
X113917101Y-121912407D01*
X113845368Y-121929526D01*
X113612970Y-122015841D01*
X113397948Y-122139230D01*
X113206168Y-122296327D01*
X113042861Y-122482848D01*
X112912481Y-122693704D01*
X112818585Y-122923144D01*
X112763735Y-123164910D01*
X110900000Y-123164910D01*
X110900000Y-102850000D01*
X112594834Y-102850000D01*
X112615417Y-103012933D01*
X112675874Y-103165629D01*
X112772405Y-103298492D01*
X112898945Y-103403175D01*
X113047543Y-103473100D01*
X113208862Y-103503873D01*
X113987500Y-103500000D01*
X114150000Y-103337500D01*
X114150000Y-102100000D01*
X114350000Y-102100000D01*
X114350000Y-103337500D01*
X114512500Y-103500000D01*
X115291138Y-103503873D01*
X115452457Y-103473100D01*
X115601055Y-103403175D01*
X115727595Y-103298492D01*
X115824126Y-103165629D01*
X115884583Y-103012933D01*
X115905166Y-102850000D01*
X115900000Y-102262500D01*
X115737500Y-102100000D01*
X114350000Y-102100000D01*
X114150000Y-102100000D01*
X112762500Y-102100000D01*
X112600000Y-102262500D01*
X112594834Y-102850000D01*
X110900000Y-102850000D01*
X110900000Y-101150000D01*
X112594834Y-101150000D01*
X112600000Y-101737500D01*
X112762500Y-101900000D01*
X114150000Y-101900000D01*
X114150000Y-101880000D01*
X114350000Y-101880000D01*
X114350000Y-101900000D01*
X115737500Y-101900000D01*
X115900000Y-101737500D01*
X115905166Y-101150000D01*
X115884583Y-100987067D01*
X115824126Y-100834371D01*
X115727595Y-100701508D01*
X115601055Y-100596825D01*
X115484027Y-100541756D01*
X115500790Y-100526503D01*
X115600696Y-100400000D01*
X116627209Y-100400000D01*
X116850001Y-100622793D01*
X116850000Y-103691018D01*
X116842235Y-103750000D01*
X116850000Y-103808981D01*
X116850000Y-103808988D01*
X116873165Y-103984946D01*
X116922330Y-104103640D01*
X116963852Y-104203883D01*
X117019854Y-104276866D01*
X117108113Y-104391887D01*
X117155317Y-104428108D01*
X122600001Y-109872793D01*
X122600000Y-115502119D01*
X122409846Y-115538098D01*
X122240154Y-115636069D01*
X122106879Y-115779706D01*
X122021862Y-115956245D01*
X121992658Y-116150000D01*
X121992658Y-117850000D01*
X122038098Y-118090154D01*
X122136069Y-118259846D01*
X122279706Y-118393121D01*
X122456245Y-118478138D01*
X122650000Y-118507342D01*
X124350000Y-118507342D01*
X124590154Y-118461902D01*
X124759846Y-118363931D01*
X124893121Y-118220294D01*
X124972729Y-118054986D01*
X125092785Y-118169713D01*
X125140001Y-118201922D01*
X125140001Y-118981011D01*
X125132235Y-119040000D01*
X125140001Y-119098989D01*
X125163166Y-119274947D01*
X125180204Y-119316080D01*
X125253852Y-119493883D01*
X125361893Y-119634684D01*
X125361896Y-119634687D01*
X125398114Y-119681887D01*
X125445314Y-119718105D01*
X126571895Y-120844687D01*
X126608113Y-120891887D01*
X126655313Y-120928105D01*
X126655315Y-120928107D01*
X126796116Y-121036148D01*
X126874878Y-121068772D01*
X127015053Y-121126835D01*
X127191011Y-121150000D01*
X127191017Y-121150000D01*
X127249999Y-121157765D01*
X127308981Y-121150000D01*
X128877209Y-121150000D01*
X129350000Y-121622792D01*
X129350000Y-121877119D01*
X129159846Y-121913098D01*
X128990154Y-122011069D01*
X128856879Y-122154706D01*
X128791429Y-122290614D01*
X128776503Y-122274210D01*
X128582932Y-122121337D01*
X128366992Y-122002132D01*
X128134482Y-121919795D01*
X127891646Y-121876540D01*
X127645008Y-121873526D01*
X127401188Y-121910836D01*
X127166736Y-121987467D01*
X126947948Y-122101361D01*
X126750699Y-122249459D01*
X126580287Y-122427785D01*
X126497832Y-122548658D01*
X126457139Y-122482848D01*
X126293832Y-122296327D01*
X126102052Y-122139230D01*
X125887030Y-122015841D01*
X125654632Y-121929526D01*
X125582899Y-121912407D01*
X125350000Y-122041244D01*
X125350000Y-123400000D01*
X125370000Y-123400000D01*
X125370000Y-123600000D01*
X125350000Y-123600000D01*
X125350000Y-124958756D01*
X125582899Y-125087593D01*
X125654632Y-125070474D01*
X125887030Y-124984159D01*
X126102052Y-124860770D01*
X126293832Y-124703673D01*
X126457139Y-124517152D01*
X126497899Y-124451234D01*
X126557493Y-124543353D01*
X126723497Y-124725790D01*
X126917068Y-124878663D01*
X127133008Y-124997868D01*
X127365518Y-125080205D01*
X127608354Y-125123460D01*
X127854992Y-125126474D01*
X128098812Y-125089164D01*
X128333264Y-125012533D01*
X128552052Y-124898639D01*
X128749301Y-124750541D01*
X128787275Y-124710804D01*
X128788098Y-124715154D01*
X128886069Y-124884846D01*
X129029706Y-125018121D01*
X129206245Y-125103138D01*
X129400000Y-125132342D01*
X131100000Y-125132342D01*
X131340154Y-125086902D01*
X131509846Y-124988931D01*
X131643121Y-124845294D01*
X131728138Y-124668755D01*
X131757342Y-124475000D01*
X131757342Y-123835090D01*
X134763735Y-123835090D01*
X134818585Y-124076856D01*
X134912481Y-124306296D01*
X135042861Y-124517152D01*
X135206168Y-124703673D01*
X135397948Y-124860770D01*
X135612970Y-124984159D01*
X135845368Y-125070474D01*
X135917101Y-125087593D01*
X136150000Y-124958756D01*
X136150000Y-123600000D01*
X134911668Y-123600000D01*
X134763735Y-123835090D01*
X131757342Y-123835090D01*
X131757342Y-123164910D01*
X134763735Y-123164910D01*
X134911668Y-123400000D01*
X136150000Y-123400000D01*
X136150000Y-122041244D01*
X135917101Y-121912407D01*
X135845368Y-121929526D01*
X135612970Y-122015841D01*
X135397948Y-122139230D01*
X135206168Y-122296327D01*
X135042861Y-122482848D01*
X134912481Y-122693704D01*
X134818585Y-122923144D01*
X134763735Y-123164910D01*
X131757342Y-123164910D01*
X131757342Y-122525000D01*
X131711902Y-122284846D01*
X131613931Y-122115154D01*
X131470294Y-121981879D01*
X131293755Y-121896862D01*
X131150000Y-121875194D01*
X131150000Y-121308982D01*
X131157765Y-121250000D01*
X131150000Y-121191018D01*
X131150000Y-121191011D01*
X131126835Y-121015053D01*
X131046162Y-120820293D01*
X131036148Y-120796116D01*
X130928107Y-120655315D01*
X130928105Y-120655313D01*
X130891887Y-120608113D01*
X130844688Y-120571896D01*
X129928106Y-119655315D01*
X129891887Y-119608113D01*
X129703883Y-119463852D01*
X129484947Y-119373165D01*
X129308989Y-119350000D01*
X129308981Y-119350000D01*
X129250000Y-119342235D01*
X129191019Y-119350000D01*
X127622792Y-119350000D01*
X126940000Y-118667209D01*
X126940000Y-118204381D01*
X126958354Y-118192507D01*
X127140790Y-118026503D01*
X127293663Y-117832932D01*
X127308867Y-117805390D01*
X127454459Y-117999302D01*
X127632785Y-118169713D01*
X127836548Y-118308712D01*
X128060278Y-118412563D01*
X128297965Y-118478480D01*
X128525624Y-118500000D01*
X128642518Y-118500000D01*
X128825828Y-118484929D01*
X129065055Y-118424840D01*
X129291255Y-118326485D01*
X129498354Y-118192507D01*
X129680790Y-118026503D01*
X129833663Y-117832932D01*
X129952868Y-117616992D01*
X130035205Y-117384482D01*
X130078460Y-117141646D01*
X130079177Y-117082899D01*
X133747404Y-117082899D01*
X133822145Y-117319094D01*
X133934743Y-117539766D01*
X134082127Y-117738895D01*
X134260276Y-117911050D01*
X134464332Y-118051534D01*
X134688727Y-118156516D01*
X134877101Y-118212593D01*
X135110000Y-118083756D01*
X135110000Y-116850000D01*
X133875834Y-116850000D01*
X133747404Y-117082899D01*
X130079177Y-117082899D01*
X130081474Y-116895007D01*
X130044164Y-116651187D01*
X129967653Y-116417101D01*
X133747404Y-116417101D01*
X133875834Y-116650000D01*
X135110000Y-116650000D01*
X135110000Y-115416244D01*
X135310000Y-115416244D01*
X135310000Y-116650000D01*
X135330000Y-116650000D01*
X135330000Y-116850000D01*
X135310000Y-116850000D01*
X135310000Y-118083756D01*
X135542899Y-118212593D01*
X135731273Y-118156516D01*
X135955668Y-118051534D01*
X136159724Y-117911050D01*
X136337873Y-117738895D01*
X136476279Y-117551896D01*
X136476361Y-117552053D01*
X136624459Y-117749302D01*
X136802785Y-117919713D01*
X137006548Y-118058712D01*
X137230278Y-118162563D01*
X137467965Y-118228480D01*
X137695624Y-118250000D01*
X137812518Y-118250000D01*
X137995828Y-118234929D01*
X138235055Y-118174840D01*
X138461255Y-118076485D01*
X138668354Y-117942507D01*
X138850790Y-117776503D01*
X139003663Y-117582932D01*
X139018867Y-117555390D01*
X139164459Y-117749302D01*
X139342785Y-117919713D01*
X139546548Y-118058712D01*
X139770278Y-118162563D01*
X140007965Y-118228480D01*
X140235624Y-118250000D01*
X140352518Y-118250000D01*
X140535828Y-118234929D01*
X140775055Y-118174840D01*
X141001255Y-118076485D01*
X141208354Y-117942507D01*
X141361156Y-117803467D01*
X141368098Y-117840154D01*
X141466069Y-118009846D01*
X141609706Y-118143121D01*
X141761154Y-118216055D01*
X140655317Y-119321892D01*
X140608113Y-119358113D01*
X140571893Y-119405316D01*
X140463852Y-119546117D01*
X140448945Y-119582107D01*
X140373165Y-119765054D01*
X140350000Y-119941012D01*
X140350000Y-119941019D01*
X140342235Y-120000000D01*
X140350000Y-120058982D01*
X140350001Y-121877118D01*
X140159846Y-121913098D01*
X139990154Y-122011069D01*
X139856879Y-122154706D01*
X139791429Y-122290614D01*
X139776503Y-122274210D01*
X139582932Y-122121337D01*
X139366992Y-122002132D01*
X139134482Y-121919795D01*
X138891646Y-121876540D01*
X138645008Y-121873526D01*
X138401188Y-121910836D01*
X138166736Y-121987467D01*
X137947948Y-122101361D01*
X137750699Y-122249459D01*
X137580287Y-122427785D01*
X137497832Y-122548658D01*
X137457139Y-122482848D01*
X137293832Y-122296327D01*
X137102052Y-122139230D01*
X136887030Y-122015841D01*
X136654632Y-121929526D01*
X136582899Y-121912407D01*
X136350000Y-122041244D01*
X136350000Y-123400000D01*
X136370000Y-123400000D01*
X136370000Y-123600000D01*
X136350000Y-123600000D01*
X136350000Y-124958756D01*
X136582899Y-125087593D01*
X136654632Y-125070474D01*
X136887030Y-124984159D01*
X137102052Y-124860770D01*
X137293832Y-124703673D01*
X137457139Y-124517152D01*
X137497899Y-124451234D01*
X137557493Y-124543353D01*
X137723497Y-124725790D01*
X137917068Y-124878663D01*
X138133008Y-124997868D01*
X138365518Y-125080205D01*
X138608354Y-125123460D01*
X138854992Y-125126474D01*
X139098812Y-125089164D01*
X139333264Y-125012533D01*
X139552052Y-124898639D01*
X139749301Y-124750541D01*
X139787275Y-124710804D01*
X139788098Y-124715154D01*
X139886069Y-124884846D01*
X140029706Y-125018121D01*
X140206245Y-125103138D01*
X140400000Y-125132342D01*
X142100000Y-125132342D01*
X142340154Y-125086902D01*
X142509846Y-124988931D01*
X142643121Y-124845294D01*
X142728138Y-124668755D01*
X142757342Y-124475000D01*
X142757342Y-123835090D01*
X145763735Y-123835090D01*
X145818585Y-124076856D01*
X145912481Y-124306296D01*
X146042861Y-124517152D01*
X146206168Y-124703673D01*
X146397948Y-124860770D01*
X146612970Y-124984159D01*
X146845368Y-125070474D01*
X146917101Y-125087593D01*
X147150000Y-124958756D01*
X147150000Y-123600000D01*
X145911668Y-123600000D01*
X145763735Y-123835090D01*
X142757342Y-123835090D01*
X142757342Y-123164910D01*
X145763735Y-123164910D01*
X145911668Y-123400000D01*
X147150000Y-123400000D01*
X147150000Y-122041244D01*
X147350000Y-122041244D01*
X147350000Y-123400000D01*
X147370000Y-123400000D01*
X147370000Y-123600000D01*
X147350000Y-123600000D01*
X147350000Y-124958756D01*
X147582899Y-125087593D01*
X147654632Y-125070474D01*
X147887030Y-124984159D01*
X148102052Y-124860770D01*
X148293832Y-124703673D01*
X148457139Y-124517152D01*
X148497899Y-124451234D01*
X148557493Y-124543353D01*
X148723497Y-124725790D01*
X148917068Y-124878663D01*
X149133008Y-124997868D01*
X149365518Y-125080205D01*
X149608354Y-125123460D01*
X149854992Y-125126474D01*
X150098812Y-125089164D01*
X150333264Y-125012533D01*
X150552052Y-124898639D01*
X150749301Y-124750541D01*
X150787275Y-124710804D01*
X150788098Y-124715154D01*
X150886069Y-124884846D01*
X151029706Y-125018121D01*
X151206245Y-125103138D01*
X151400000Y-125132342D01*
X153100000Y-125132342D01*
X153340154Y-125086902D01*
X153509846Y-124988931D01*
X153643121Y-124845294D01*
X153728138Y-124668755D01*
X153757342Y-124475000D01*
X153757342Y-122525000D01*
X153711902Y-122284846D01*
X153613931Y-122115154D01*
X153470294Y-121981879D01*
X153293755Y-121896862D01*
X153100000Y-121867658D01*
X151400000Y-121867658D01*
X151159846Y-121913098D01*
X150990154Y-122011069D01*
X150856879Y-122154706D01*
X150791429Y-122290614D01*
X150776503Y-122274210D01*
X150582932Y-122121337D01*
X150366992Y-122002132D01*
X150134482Y-121919795D01*
X149891646Y-121876540D01*
X149645008Y-121873526D01*
X149401188Y-121910836D01*
X149166736Y-121987467D01*
X148947948Y-122101361D01*
X148750699Y-122249459D01*
X148580287Y-122427785D01*
X148497832Y-122548658D01*
X148457139Y-122482848D01*
X148293832Y-122296327D01*
X148102052Y-122139230D01*
X147887030Y-122015841D01*
X147654632Y-121929526D01*
X147582899Y-121912407D01*
X147350000Y-122041244D01*
X147150000Y-122041244D01*
X146917101Y-121912407D01*
X146845368Y-121929526D01*
X146612970Y-122015841D01*
X146397948Y-122139230D01*
X146206168Y-122296327D01*
X146042861Y-122482848D01*
X145912481Y-122693704D01*
X145818585Y-122923144D01*
X145763735Y-123164910D01*
X142757342Y-123164910D01*
X142757342Y-122525000D01*
X142711902Y-122284846D01*
X142613931Y-122115154D01*
X142470294Y-121981879D01*
X142293755Y-121896862D01*
X142150000Y-121875194D01*
X142150000Y-120372791D01*
X143424687Y-119098105D01*
X143471887Y-119061887D01*
X143508105Y-119014687D01*
X143508107Y-119014685D01*
X143616148Y-118873884D01*
X143670473Y-118742732D01*
X143706835Y-118654947D01*
X143730000Y-118478989D01*
X143730000Y-118478977D01*
X143737764Y-118420001D01*
X143730000Y-118361025D01*
X143730000Y-118247881D01*
X143920154Y-118211902D01*
X144089846Y-118113931D01*
X144223121Y-117970294D01*
X144308138Y-117793755D01*
X144337342Y-117600000D01*
X144337342Y-115900000D01*
X144291902Y-115659846D01*
X144193931Y-115490154D01*
X144050294Y-115356879D01*
X143873755Y-115271862D01*
X143680000Y-115242658D01*
X141980000Y-115242658D01*
X141739846Y-115288098D01*
X141570154Y-115386069D01*
X141436879Y-115529706D01*
X141357271Y-115695014D01*
X141237215Y-115580287D01*
X141033452Y-115441288D01*
X140809722Y-115337437D01*
X140572035Y-115271520D01*
X140344376Y-115250000D01*
X140227482Y-115250000D01*
X140044172Y-115265071D01*
X139804945Y-115325160D01*
X139578745Y-115423515D01*
X139371646Y-115557493D01*
X139189210Y-115723497D01*
X139036337Y-115917068D01*
X139021133Y-115944610D01*
X138875541Y-115750698D01*
X138697215Y-115580287D01*
X138493452Y-115441288D01*
X138269722Y-115337437D01*
X138032035Y-115271520D01*
X137804376Y-115250000D01*
X137687482Y-115250000D01*
X137504172Y-115265071D01*
X137264945Y-115325160D01*
X137038745Y-115423515D01*
X136831646Y-115557493D01*
X136649210Y-115723497D01*
X136496337Y-115917068D01*
X136477955Y-115950368D01*
X136337873Y-115761105D01*
X136159724Y-115588950D01*
X135955668Y-115448466D01*
X135731273Y-115343484D01*
X135542899Y-115287407D01*
X135310000Y-115416244D01*
X135110000Y-115416244D01*
X134877101Y-115287407D01*
X134688727Y-115343484D01*
X134464332Y-115448466D01*
X134260276Y-115588950D01*
X134082127Y-115761105D01*
X133934743Y-115960234D01*
X133822145Y-116180906D01*
X133747404Y-116417101D01*
X129967653Y-116417101D01*
X129967533Y-116416735D01*
X129853639Y-116197947D01*
X129705541Y-116000698D01*
X129527215Y-115830287D01*
X129323452Y-115691288D01*
X129099722Y-115587437D01*
X128862035Y-115521520D01*
X128634376Y-115500000D01*
X128517482Y-115500000D01*
X128334172Y-115515071D01*
X128094945Y-115575160D01*
X127868745Y-115673515D01*
X127661646Y-115807493D01*
X127479210Y-115973497D01*
X127326337Y-116167068D01*
X127311133Y-116194610D01*
X127165541Y-116000698D01*
X126987215Y-115830287D01*
X126783452Y-115691288D01*
X126559722Y-115587437D01*
X126322035Y-115521520D01*
X126094376Y-115500000D01*
X125977482Y-115500000D01*
X125794172Y-115515071D01*
X125554945Y-115575160D01*
X125328745Y-115673515D01*
X125121646Y-115807493D01*
X124968844Y-115946533D01*
X124961902Y-115909846D01*
X124863931Y-115740154D01*
X124720294Y-115606879D01*
X124543755Y-115521862D01*
X124400000Y-115500194D01*
X124400000Y-111739896D01*
X129842216Y-111739896D01*
X129870945Y-112006515D01*
X129960239Y-112259374D01*
X130105307Y-112484909D01*
X130298370Y-112671021D01*
X130529069Y-112807729D01*
X130785030Y-112887697D01*
X131052523Y-112906636D01*
X131317198Y-112863531D01*
X131564858Y-112760694D01*
X131718056Y-112650000D01*
X135691019Y-112650000D01*
X135750000Y-112657765D01*
X135808981Y-112650000D01*
X135808989Y-112650000D01*
X135984947Y-112626835D01*
X136203883Y-112536148D01*
X136391887Y-112391887D01*
X136428108Y-112344683D01*
X137872792Y-110900000D01*
X138526564Y-110900000D01*
X138548370Y-110921021D01*
X138779069Y-111057729D01*
X139035030Y-111137697D01*
X139302523Y-111156636D01*
X139567198Y-111113531D01*
X139814858Y-111010694D01*
X139968056Y-110900000D01*
X140377209Y-110900000D01*
X148357325Y-118880117D01*
X148370945Y-119006515D01*
X148460239Y-119259374D01*
X148605307Y-119484909D01*
X148798370Y-119671021D01*
X149029069Y-119807729D01*
X149285030Y-119887697D01*
X149552523Y-119906636D01*
X149607453Y-119897690D01*
X149625000Y-119900000D01*
X151375000Y-119900000D01*
X151413823Y-119894889D01*
X151476323Y-119878142D01*
X151489287Y-119870657D01*
X154921629Y-123303000D01*
X154985267Y-123372206D01*
X155046342Y-123410074D01*
X155103584Y-123453523D01*
X155139094Y-123467583D01*
X155171552Y-123487707D01*
X155211218Y-123496138D01*
X155307379Y-123534211D01*
X155525364Y-123557122D01*
X155567471Y-123550000D01*
X156278948Y-123550000D01*
X156251862Y-123606245D01*
X156222658Y-123800000D01*
X156222658Y-125500000D01*
X156268098Y-125740154D01*
X156366069Y-125909846D01*
X156509706Y-126043121D01*
X156686245Y-126128138D01*
X156880000Y-126157342D01*
X158580000Y-126157342D01*
X158820154Y-126111902D01*
X158989846Y-126013931D01*
X159123121Y-125870294D01*
X159202729Y-125704986D01*
X159322785Y-125819713D01*
X159526548Y-125958712D01*
X159750278Y-126062563D01*
X159987965Y-126128480D01*
X160215624Y-126150000D01*
X160332518Y-126150000D01*
X160515828Y-126134929D01*
X160755055Y-126074840D01*
X160981255Y-125976485D01*
X161188354Y-125842507D01*
X161370790Y-125676503D01*
X161523663Y-125482932D01*
X161538867Y-125455390D01*
X161684459Y-125649302D01*
X161862785Y-125819713D01*
X162066548Y-125958712D01*
X162290278Y-126062563D01*
X162527965Y-126128480D01*
X162755624Y-126150000D01*
X162872518Y-126150000D01*
X163055828Y-126134929D01*
X163295055Y-126074840D01*
X163521255Y-125976485D01*
X163728354Y-125842507D01*
X163910790Y-125676503D01*
X164063663Y-125482932D01*
X164082045Y-125449632D01*
X164222127Y-125638895D01*
X164400276Y-125811050D01*
X164604332Y-125951534D01*
X164828727Y-126056516D01*
X165017101Y-126112593D01*
X165250000Y-125983756D01*
X165250000Y-124750000D01*
X165450000Y-124750000D01*
X165450000Y-125983756D01*
X165682899Y-126112593D01*
X165871273Y-126056516D01*
X166095668Y-125951534D01*
X166299724Y-125811050D01*
X166477873Y-125638895D01*
X166506660Y-125600000D01*
X167494834Y-125600000D01*
X167515417Y-125762933D01*
X167575874Y-125915629D01*
X167672405Y-126048492D01*
X167798945Y-126153175D01*
X167947543Y-126223100D01*
X168108862Y-126253873D01*
X168737500Y-126250000D01*
X168900000Y-126087500D01*
X168900000Y-124850000D01*
X167662500Y-124850000D01*
X167500000Y-125012500D01*
X167494834Y-125600000D01*
X166506660Y-125600000D01*
X166625257Y-125439766D01*
X166737855Y-125219094D01*
X166812596Y-124982899D01*
X166684166Y-124750000D01*
X165450000Y-124750000D01*
X165250000Y-124750000D01*
X165230000Y-124750000D01*
X165230000Y-124550000D01*
X165250000Y-124550000D01*
X165250000Y-123316244D01*
X165450000Y-123316244D01*
X165450000Y-124550000D01*
X166684166Y-124550000D01*
X166812596Y-124317101D01*
X166737855Y-124080906D01*
X166645548Y-123900000D01*
X167494834Y-123900000D01*
X167500000Y-124487500D01*
X167662500Y-124650000D01*
X168900000Y-124650000D01*
X168900000Y-123412500D01*
X168737500Y-123250000D01*
X168108862Y-123246127D01*
X167947543Y-123276900D01*
X167798945Y-123346825D01*
X167672405Y-123451508D01*
X167575874Y-123584371D01*
X167515417Y-123737067D01*
X167494834Y-123900000D01*
X166645548Y-123900000D01*
X166625257Y-123860234D01*
X166477873Y-123661105D01*
X166299724Y-123488950D01*
X166095668Y-123348466D01*
X165871273Y-123243484D01*
X165682899Y-123187407D01*
X165450000Y-123316244D01*
X165250000Y-123316244D01*
X165017101Y-123187407D01*
X164828727Y-123243484D01*
X164604332Y-123348466D01*
X164400276Y-123488950D01*
X164222127Y-123661105D01*
X164083721Y-123848104D01*
X164083639Y-123847947D01*
X163935541Y-123650698D01*
X163757215Y-123480287D01*
X163610000Y-123379863D01*
X163610000Y-123077934D01*
X163613937Y-122984004D01*
X163597527Y-122914041D01*
X163587774Y-122842842D01*
X163572606Y-122807790D01*
X163563885Y-122770609D01*
X163541800Y-122736601D01*
X163500725Y-122641682D01*
X163362786Y-122471343D01*
X163327975Y-122446604D01*
X162931371Y-122050000D01*
X169168631Y-122050000D01*
X170654724Y-123536094D01*
X170621646Y-123557493D01*
X170468616Y-123696739D01*
X170424126Y-123584371D01*
X170327595Y-123451508D01*
X170201055Y-123346825D01*
X170052457Y-123276900D01*
X169891138Y-123246127D01*
X169262500Y-123250000D01*
X169100000Y-123412500D01*
X169100000Y-124650000D01*
X169120000Y-124650000D01*
X169120000Y-124850000D01*
X169100000Y-124850000D01*
X169100000Y-126087500D01*
X169262500Y-126250000D01*
X169891138Y-126253873D01*
X170052457Y-126223100D01*
X170201055Y-126153175D01*
X170327595Y-126048492D01*
X170424126Y-125915629D01*
X170469250Y-125801661D01*
X170592785Y-125919713D01*
X170796548Y-126058712D01*
X171020278Y-126162563D01*
X171257965Y-126228480D01*
X171485624Y-126250000D01*
X171602518Y-126250000D01*
X171785828Y-126234929D01*
X172025055Y-126174840D01*
X172251255Y-126076485D01*
X172458354Y-125942507D01*
X172640790Y-125776503D01*
X172793663Y-125582932D01*
X172808867Y-125555390D01*
X172954459Y-125749302D01*
X173132785Y-125919713D01*
X173336548Y-126058712D01*
X173560278Y-126162563D01*
X173797965Y-126228480D01*
X174025624Y-126250000D01*
X174142518Y-126250000D01*
X174325828Y-126234929D01*
X174565055Y-126174840D01*
X174791255Y-126076485D01*
X174998354Y-125942507D01*
X175180790Y-125776503D01*
X175333663Y-125582932D01*
X175348867Y-125555390D01*
X175494459Y-125749302D01*
X175672785Y-125919713D01*
X175876548Y-126058712D01*
X176100278Y-126162563D01*
X176337965Y-126228480D01*
X176565624Y-126250000D01*
X176682518Y-126250000D01*
X176865828Y-126234929D01*
X177105055Y-126174840D01*
X177331255Y-126076485D01*
X177538354Y-125942507D01*
X177720790Y-125776503D01*
X177873663Y-125582932D01*
X177888867Y-125555390D01*
X178034459Y-125749302D01*
X178212785Y-125919713D01*
X178416548Y-126058712D01*
X178640278Y-126162563D01*
X178877965Y-126228480D01*
X179105624Y-126250000D01*
X179222518Y-126250000D01*
X179405828Y-126234929D01*
X179645055Y-126174840D01*
X179871255Y-126076485D01*
X180078354Y-125942507D01*
X180260790Y-125776503D01*
X180413663Y-125582932D01*
X180428867Y-125555390D01*
X180574459Y-125749302D01*
X180752785Y-125919713D01*
X180956548Y-126058712D01*
X181180278Y-126162563D01*
X181417965Y-126228480D01*
X181645624Y-126250000D01*
X181762518Y-126250000D01*
X181945828Y-126234929D01*
X182185055Y-126174840D01*
X182411255Y-126076485D01*
X182618354Y-125942507D01*
X182800790Y-125776503D01*
X182953663Y-125582932D01*
X183072868Y-125366992D01*
X183155205Y-125134482D01*
X183198460Y-124891646D01*
X183201474Y-124645007D01*
X183164164Y-124401187D01*
X183087533Y-124166735D01*
X182973639Y-123947947D01*
X182825541Y-123750698D01*
X182647215Y-123580287D01*
X182443452Y-123441288D01*
X182219722Y-123337437D01*
X181982035Y-123271520D01*
X181754376Y-123250000D01*
X181637482Y-123250000D01*
X181454172Y-123265071D01*
X181214945Y-123325160D01*
X180988745Y-123423515D01*
X180781646Y-123557493D01*
X180599210Y-123723497D01*
X180446337Y-123917068D01*
X180431133Y-123944610D01*
X180285541Y-123750698D01*
X180107215Y-123580287D01*
X179903452Y-123441288D01*
X179679722Y-123337437D01*
X179442035Y-123271520D01*
X179214376Y-123250000D01*
X179097482Y-123250000D01*
X178914172Y-123265071D01*
X178700190Y-123318819D01*
X177651254Y-122269883D01*
X177799119Y-122280742D01*
X178007267Y-122238772D01*
X178033264Y-122225526D01*
X178235055Y-122174840D01*
X178461255Y-122076485D01*
X178668354Y-121942507D01*
X178850790Y-121776503D01*
X179003663Y-121582932D01*
X179018867Y-121555390D01*
X179164459Y-121749302D01*
X179342785Y-121919713D01*
X179546548Y-122058712D01*
X179770278Y-122162563D01*
X180007965Y-122228480D01*
X180030473Y-122230608D01*
X180151469Y-122269922D01*
X180363619Y-122278814D01*
X180570346Y-122230326D01*
X180580559Y-122223693D01*
X180775055Y-122174840D01*
X181001255Y-122076485D01*
X181208354Y-121942507D01*
X181390790Y-121776503D01*
X181543663Y-121582932D01*
X181558867Y-121555390D01*
X181704459Y-121749302D01*
X181882785Y-121919713D01*
X182086548Y-122058712D01*
X182310278Y-122162563D01*
X182547965Y-122228480D01*
X182570473Y-122230608D01*
X182691469Y-122269922D01*
X182903619Y-122278814D01*
X183110346Y-122230326D01*
X183120559Y-122223693D01*
X183315055Y-122174840D01*
X183541255Y-122076485D01*
X183748354Y-121942507D01*
X183930790Y-121776503D01*
X184083663Y-121582932D01*
X184098867Y-121555390D01*
X184244459Y-121749302D01*
X184422785Y-121919713D01*
X184626548Y-122058712D01*
X184850278Y-122162563D01*
X185087965Y-122228480D01*
X185111586Y-122230713D01*
X185207354Y-122265191D01*
X185419119Y-122280742D01*
X185627267Y-122238772D01*
X185653264Y-122225526D01*
X185855055Y-122174840D01*
X186081255Y-122076485D01*
X186288354Y-121942507D01*
X186441156Y-121803467D01*
X186448098Y-121840154D01*
X186546069Y-122009846D01*
X186689706Y-122143121D01*
X186866245Y-122228138D01*
X187060000Y-122257342D01*
X187725553Y-122257342D01*
X187747355Y-122265191D01*
X187959120Y-122280742D01*
X188075171Y-122257342D01*
X188760000Y-122257342D01*
X189000154Y-122211902D01*
X189169846Y-122113931D01*
X189303121Y-121970294D01*
X189388138Y-121793755D01*
X189417342Y-121600000D01*
X189417342Y-119900000D01*
X189371902Y-119659846D01*
X189273931Y-119490154D01*
X189130294Y-119356879D01*
X188953755Y-119271862D01*
X188760000Y-119242658D01*
X188685000Y-119242658D01*
X188685000Y-118677377D01*
X188688814Y-118586380D01*
X188672917Y-118518604D01*
X188663469Y-118449628D01*
X188648776Y-118415674D01*
X188640327Y-118379653D01*
X188618929Y-118346703D01*
X188579139Y-118254755D01*
X188445512Y-118089738D01*
X188411787Y-118065771D01*
X187025000Y-116678986D01*
X187025000Y-104821014D01*
X187485551Y-104360464D01*
X187548370Y-104421021D01*
X187779069Y-104557729D01*
X188035030Y-104637697D01*
X188302523Y-104656636D01*
X188567198Y-104613531D01*
X188814858Y-104510694D01*
X189032217Y-104353640D01*
X189207617Y-104150796D01*
X189331648Y-103913041D01*
X189397657Y-103653130D01*
X189400155Y-103366923D01*
X189338692Y-103105899D01*
X189218829Y-102866016D01*
X189046996Y-102660141D01*
X188832411Y-102499318D01*
X188831283Y-102498826D01*
X189032217Y-102353640D01*
X189207617Y-102150796D01*
X189331648Y-101913041D01*
X189397657Y-101653130D01*
X189400155Y-101366923D01*
X189338692Y-101105899D01*
X189218829Y-100866016D01*
X189046996Y-100660141D01*
X189001358Y-100625937D01*
X189032217Y-100603640D01*
X189207617Y-100400796D01*
X189331648Y-100163041D01*
X189397657Y-99903130D01*
X189400155Y-99616923D01*
X189338692Y-99355899D01*
X189218829Y-99116016D01*
X189046996Y-98910141D01*
X189001358Y-98875937D01*
X189032217Y-98853640D01*
X189207617Y-98650796D01*
X189331648Y-98413041D01*
X189397657Y-98153130D01*
X189400155Y-97866923D01*
X189338692Y-97605899D01*
X189218829Y-97366016D01*
X189046996Y-97160141D01*
X188832411Y-96999318D01*
X188586583Y-96892174D01*
X188322701Y-96844457D01*
X188054918Y-96858725D01*
X187797601Y-96934214D01*
X187564551Y-97066874D01*
X187394685Y-97225000D01*
X184267377Y-97225000D01*
X184176380Y-97221186D01*
X184108608Y-97237082D01*
X184039628Y-97246531D01*
X184005670Y-97261226D01*
X183969653Y-97269674D01*
X183936707Y-97291069D01*
X183844755Y-97330861D01*
X183679738Y-97464488D01*
X183655768Y-97498217D01*
X182964300Y-98189686D01*
X182897238Y-98251353D01*
X182860551Y-98310523D01*
X182818462Y-98365973D01*
X182804842Y-98400372D01*
X182785346Y-98431817D01*
X182777178Y-98470246D01*
X182740296Y-98563399D01*
X182718100Y-98774571D01*
X182725000Y-98815367D01*
X182725000Y-99878986D01*
X182310321Y-99464307D01*
X182248648Y-99397238D01*
X182189473Y-99360548D01*
X182134027Y-99318462D01*
X182099630Y-99304843D01*
X182068184Y-99285346D01*
X182029753Y-99277177D01*
X181936601Y-99240296D01*
X181725429Y-99218100D01*
X181684633Y-99225000D01*
X167601130Y-99225000D01*
X167546996Y-99160141D01*
X167332411Y-98999318D01*
X167086583Y-98892174D01*
X166822701Y-98844457D01*
X166554918Y-98858725D01*
X166297601Y-98934214D01*
X166064551Y-99066874D01*
X165868270Y-99249589D01*
X165719287Y-99472557D01*
X165625594Y-99723819D01*
X165592216Y-99989896D01*
X165620945Y-100256515D01*
X165710239Y-100509374D01*
X165855307Y-100734909D01*
X166001402Y-100875744D01*
X165868270Y-100999675D01*
X165719287Y-101222643D01*
X165625594Y-101473905D01*
X165592216Y-101739982D01*
X165620945Y-102006601D01*
X165710239Y-102259460D01*
X165772405Y-102356108D01*
X165618265Y-102499594D01*
X165469282Y-102722562D01*
X165375589Y-102973824D01*
X165342211Y-103239901D01*
X165345763Y-103272866D01*
X164447000Y-104171630D01*
X164377795Y-104235267D01*
X164339928Y-104296340D01*
X164296477Y-104353585D01*
X164282417Y-104389097D01*
X164262294Y-104421552D01*
X164253863Y-104461215D01*
X164215789Y-104557380D01*
X164192878Y-104775364D01*
X164200001Y-104817477D01*
X164200000Y-107537730D01*
X164196063Y-107631660D01*
X164212473Y-107701622D01*
X164222226Y-107772823D01*
X164237395Y-107807876D01*
X164246115Y-107845055D01*
X164268199Y-107879061D01*
X164309275Y-107973983D01*
X164362428Y-108039621D01*
X164314551Y-108066874D01*
X164118270Y-108249589D01*
X163969287Y-108472557D01*
X163875594Y-108723819D01*
X163842216Y-108989896D01*
X163870945Y-109256515D01*
X163960239Y-109509374D01*
X164105307Y-109734909D01*
X164298370Y-109921021D01*
X164529069Y-110057729D01*
X164785030Y-110137697D01*
X165023189Y-110154559D01*
X165171628Y-110302999D01*
X165235267Y-110372206D01*
X165296342Y-110410074D01*
X165353584Y-110453523D01*
X165389094Y-110467583D01*
X165421552Y-110487707D01*
X165461218Y-110496138D01*
X165557379Y-110534211D01*
X165775364Y-110557121D01*
X165817466Y-110550000D01*
X170918630Y-110550000D01*
X171080001Y-110711371D01*
X171080000Y-115344618D01*
X171080000Y-115730927D01*
X170961646Y-115807493D01*
X170779210Y-115973497D01*
X170626337Y-116167068D01*
X170607955Y-116200368D01*
X170467873Y-116011105D01*
X170289724Y-115838950D01*
X170085668Y-115698466D01*
X169861273Y-115593484D01*
X169672899Y-115537407D01*
X169440000Y-115666244D01*
X169440000Y-116900000D01*
X169460000Y-116900000D01*
X169460000Y-117100000D01*
X169440000Y-117100000D01*
X169440000Y-117120000D01*
X169240000Y-117120000D01*
X169240000Y-117100000D01*
X169220000Y-117100000D01*
X169220000Y-116900000D01*
X169240000Y-116900000D01*
X169240000Y-115666244D01*
X169007101Y-115537407D01*
X168818727Y-115593484D01*
X168594332Y-115698466D01*
X168390276Y-115838950D01*
X168270405Y-115954787D01*
X168261902Y-115909846D01*
X168163931Y-115740154D01*
X168020294Y-115606879D01*
X167843755Y-115521862D01*
X167650000Y-115492658D01*
X166050000Y-115492658D01*
X166050000Y-112833075D01*
X166207617Y-112650796D01*
X166331648Y-112413041D01*
X166397657Y-112153130D01*
X166400155Y-111866923D01*
X166338692Y-111605899D01*
X166218829Y-111366016D01*
X166046996Y-111160141D01*
X165832411Y-110999318D01*
X165586583Y-110892174D01*
X165322701Y-110844457D01*
X165054918Y-110858725D01*
X164797601Y-110934214D01*
X164564551Y-111066874D01*
X164517664Y-111110520D01*
X164479263Y-111102882D01*
X164450000Y-111100000D01*
X162814774Y-111100000D01*
X162743722Y-111085867D01*
X162696012Y-111053988D01*
X162664133Y-111006278D01*
X162650000Y-110935226D01*
X162650000Y-109390512D01*
X162646417Y-109357922D01*
X162618094Y-109230676D01*
X162590447Y-109171649D01*
X162510825Y-109068429D01*
X162488083Y-109044813D01*
X161729872Y-108412970D01*
X161751835Y-108359947D01*
X161775000Y-108183989D01*
X161775000Y-108183975D01*
X161782764Y-108125001D01*
X161775000Y-108066027D01*
X161775000Y-102247791D01*
X163878535Y-100144257D01*
X164067198Y-100113531D01*
X164314858Y-100010694D01*
X164532217Y-99853640D01*
X164707617Y-99650796D01*
X164831648Y-99413041D01*
X164897657Y-99153130D01*
X164900155Y-98866923D01*
X164838692Y-98605899D01*
X164718829Y-98366016D01*
X164546996Y-98160141D01*
X164332411Y-97999318D01*
X164086583Y-97892174D01*
X163822701Y-97844457D01*
X163554918Y-97858725D01*
X163297601Y-97934214D01*
X163064551Y-98066874D01*
X162868270Y-98249589D01*
X162719287Y-98472557D01*
X162625594Y-98723819D01*
X162607263Y-98869945D01*
X160280317Y-101196892D01*
X160233113Y-101233113D01*
X160193033Y-101285346D01*
X160088852Y-101421117D01*
X160066987Y-101473905D01*
X159998165Y-101640054D01*
X159975000Y-101816012D01*
X159975000Y-101816019D01*
X159967235Y-101875000D01*
X159975000Y-101933982D01*
X159975001Y-107752207D01*
X159877209Y-107850000D01*
X156308982Y-107850000D01*
X156250000Y-107842235D01*
X156191018Y-107850000D01*
X156191011Y-107850000D01*
X156015053Y-107873165D01*
X155892318Y-107924004D01*
X155796116Y-107963852D01*
X155655315Y-108071893D01*
X155655313Y-108071895D01*
X155608113Y-108108113D01*
X155571895Y-108155313D01*
X153330317Y-110396892D01*
X153283113Y-110433113D01*
X153246893Y-110480316D01*
X153138852Y-110621117D01*
X153138852Y-110621118D01*
X153048165Y-110840054D01*
X153025000Y-111016012D01*
X153025000Y-111016019D01*
X153017235Y-111075000D01*
X153025000Y-111133982D01*
X153025000Y-112100000D01*
X151216750Y-112100000D01*
X151082411Y-111999318D01*
X150836583Y-111892174D01*
X150572701Y-111844457D01*
X150304918Y-111858725D01*
X150047601Y-111934214D01*
X149814551Y-112066874D01*
X149618270Y-112249589D01*
X149469287Y-112472557D01*
X149375594Y-112723819D01*
X149342216Y-112989896D01*
X149370945Y-113256515D01*
X149460239Y-113509374D01*
X149605307Y-113734909D01*
X149798370Y-113921021D01*
X150029069Y-114057729D01*
X150285030Y-114137697D01*
X150552523Y-114156636D01*
X150817198Y-114113531D01*
X151064858Y-114010694D01*
X151247416Y-113878786D01*
X151450001Y-114081371D01*
X151450000Y-115350000D01*
X150250000Y-115350000D01*
X150233040Y-115351670D01*
X149300000Y-114418630D01*
X149300000Y-108017934D01*
X149303937Y-107924004D01*
X149287527Y-107854042D01*
X149277774Y-107782842D01*
X149262605Y-107747789D01*
X149253885Y-107710610D01*
X149231801Y-107676603D01*
X149190725Y-107581682D01*
X149052786Y-107411343D01*
X149017975Y-107386604D01*
X148523841Y-106892471D01*
X148525155Y-106741923D01*
X148463692Y-106480899D01*
X148343829Y-106241016D01*
X148171996Y-106035141D01*
X147957411Y-105874318D01*
X147711583Y-105767174D01*
X147447701Y-105719457D01*
X147179918Y-105733725D01*
X146922601Y-105809214D01*
X146689551Y-105941874D01*
X146493270Y-106124589D01*
X146344287Y-106347557D01*
X146250594Y-106598819D01*
X146217216Y-106864896D01*
X146245945Y-107131515D01*
X146335239Y-107384374D01*
X146393963Y-107475672D01*
X146368270Y-107499589D01*
X146219287Y-107722557D01*
X146125594Y-107973819D01*
X146092216Y-108239896D01*
X146120945Y-108506515D01*
X146210239Y-108759374D01*
X146355307Y-108984909D01*
X146548370Y-109171021D01*
X146779069Y-109307729D01*
X146950001Y-109361132D01*
X146950000Y-114927208D01*
X141428108Y-109405317D01*
X141391887Y-109358113D01*
X141203883Y-109213852D01*
X140984947Y-109123165D01*
X140808989Y-109100000D01*
X140808981Y-109100000D01*
X140750000Y-109092235D01*
X140691019Y-109100000D01*
X139966750Y-109100000D01*
X139832411Y-108999318D01*
X139586583Y-108892174D01*
X139322701Y-108844457D01*
X139054918Y-108858725D01*
X138797601Y-108934214D01*
X138564551Y-109066874D01*
X138528966Y-109100000D01*
X137558982Y-109100000D01*
X137500000Y-109092235D01*
X137441018Y-109100000D01*
X137441011Y-109100000D01*
X137265053Y-109123165D01*
X137110242Y-109187291D01*
X137046116Y-109213852D01*
X136905315Y-109321893D01*
X136905313Y-109321895D01*
X136858113Y-109358113D01*
X136821895Y-109405313D01*
X135377209Y-110850000D01*
X131716750Y-110850000D01*
X131582411Y-110749318D01*
X131336583Y-110642174D01*
X131072701Y-110594457D01*
X130804918Y-110608725D01*
X130547601Y-110684214D01*
X130314551Y-110816874D01*
X130118270Y-110999589D01*
X129969287Y-111222557D01*
X129875594Y-111473819D01*
X129842216Y-111739896D01*
X124400000Y-111739896D01*
X124400000Y-109558981D01*
X124407765Y-109500000D01*
X124400000Y-109441018D01*
X124400000Y-109441011D01*
X124376835Y-109265053D01*
X124298524Y-109075994D01*
X124286148Y-109046116D01*
X124178107Y-108905315D01*
X124178105Y-108905313D01*
X124141887Y-108858113D01*
X124094687Y-108821895D01*
X118650000Y-103377209D01*
X118650000Y-100308981D01*
X118657765Y-100249999D01*
X118650000Y-100191018D01*
X118650000Y-100191011D01*
X118626835Y-100015053D01*
X118536148Y-99796117D01*
X118536148Y-99796116D01*
X118428107Y-99655315D01*
X118428105Y-99655313D01*
X118391887Y-99608113D01*
X118344687Y-99571895D01*
X117678108Y-98905317D01*
X117641887Y-98858113D01*
X117453883Y-98713852D01*
X117234947Y-98623165D01*
X117058989Y-98600000D01*
X117058981Y-98600000D01*
X117000000Y-98592235D01*
X116941019Y-98600000D01*
X115600099Y-98600000D01*
X115525541Y-98500698D01*
X115347215Y-98330287D01*
X115143452Y-98191288D01*
X114919722Y-98087437D01*
X114682035Y-98021520D01*
X114454376Y-98000000D01*
X114037482Y-98000000D01*
X113854172Y-98015071D01*
X113614945Y-98075160D01*
X113388745Y-98173515D01*
X113181646Y-98307493D01*
X112999210Y-98473497D01*
X112846337Y-98667068D01*
X112727132Y-98883008D01*
X112644795Y-99115518D01*
X112601540Y-99358354D01*
X112598526Y-99604993D01*
X112635836Y-99848813D01*
X112712467Y-100083265D01*
X112826361Y-100302053D01*
X112974459Y-100499302D01*
X113017924Y-100540838D01*
X112898945Y-100596825D01*
X112772405Y-100701508D01*
X112675874Y-100834371D01*
X112615417Y-100987067D01*
X112594834Y-101150000D01*
X110900000Y-101150000D01*
X110900000Y-96400000D01*
X132162658Y-96400000D01*
X132162658Y-98100000D01*
X132208098Y-98340154D01*
X132306069Y-98509846D01*
X132449706Y-98643121D01*
X132626245Y-98728138D01*
X132820000Y-98757342D01*
X132895001Y-98757342D01*
X132895000Y-101652622D01*
X132891186Y-101743619D01*
X132907082Y-101811391D01*
X132916531Y-101880371D01*
X132931226Y-101914329D01*
X132939674Y-101950346D01*
X132961069Y-101983292D01*
X133000861Y-102075244D01*
X133134488Y-102240262D01*
X133168220Y-102264234D01*
X133939689Y-103035704D01*
X134001352Y-103102762D01*
X134060522Y-103139449D01*
X134115972Y-103181538D01*
X134150371Y-103195158D01*
X134181816Y-103214654D01*
X134220245Y-103222822D01*
X134313398Y-103259704D01*
X134524571Y-103281900D01*
X134565365Y-103275000D01*
X142095999Y-103275000D01*
X142120945Y-103506515D01*
X142210239Y-103759374D01*
X142355307Y-103984909D01*
X142548370Y-104171021D01*
X142779069Y-104307729D01*
X143035030Y-104387697D01*
X143302523Y-104406636D01*
X143567198Y-104363531D01*
X143814858Y-104260694D01*
X144001498Y-104125836D01*
X144048370Y-104171021D01*
X144279069Y-104307729D01*
X144535030Y-104387697D01*
X144802523Y-104406636D01*
X145067198Y-104363531D01*
X145314858Y-104260694D01*
X145532217Y-104103640D01*
X145620419Y-104001637D01*
X145620945Y-104006515D01*
X145710239Y-104259374D01*
X145855307Y-104484909D01*
X146048370Y-104671021D01*
X146279069Y-104807729D01*
X146535030Y-104887697D01*
X146802523Y-104906636D01*
X147067198Y-104863531D01*
X147314858Y-104760694D01*
X147532217Y-104603640D01*
X147707617Y-104400796D01*
X147831648Y-104163041D01*
X147897657Y-103903130D01*
X147900155Y-103616923D01*
X147838692Y-103355899D01*
X147718829Y-103116016D01*
X147546996Y-102910141D01*
X147332411Y-102749318D01*
X147086583Y-102642174D01*
X146822701Y-102594457D01*
X146554918Y-102608725D01*
X146297601Y-102684214D01*
X146064551Y-102816874D01*
X145871761Y-102996339D01*
X145838692Y-102855899D01*
X145718829Y-102616016D01*
X145546996Y-102410141D01*
X145332411Y-102249318D01*
X145086583Y-102142174D01*
X144822701Y-102094457D01*
X144697161Y-102101146D01*
X144060321Y-101464307D01*
X143998648Y-101397238D01*
X143939473Y-101360548D01*
X143884027Y-101318462D01*
X143849630Y-101304843D01*
X143818184Y-101285346D01*
X143779753Y-101277177D01*
X143686601Y-101240296D01*
X143475429Y-101218100D01*
X143434633Y-101225000D01*
X137321015Y-101225000D01*
X136985000Y-100888985D01*
X136985000Y-98535247D01*
X137128354Y-98442507D01*
X137310790Y-98276503D01*
X137463663Y-98082932D01*
X137478867Y-98055390D01*
X137624459Y-98249302D01*
X137802785Y-98419713D01*
X137975000Y-98537191D01*
X137975000Y-98732622D01*
X137971186Y-98823619D01*
X137987082Y-98891391D01*
X137996531Y-98960371D01*
X138011226Y-98994329D01*
X138019674Y-99030346D01*
X138041069Y-99063292D01*
X138080861Y-99155244D01*
X138214488Y-99320262D01*
X138248220Y-99344234D01*
X138689678Y-99785692D01*
X138751352Y-99852762D01*
X138810524Y-99889450D01*
X138865972Y-99931538D01*
X138900371Y-99945158D01*
X138931816Y-99964654D01*
X138970245Y-99972822D01*
X139063398Y-100009704D01*
X139274572Y-100031900D01*
X139315367Y-100025000D01*
X145119174Y-100025000D01*
X145092216Y-100239896D01*
X145120945Y-100506515D01*
X145210239Y-100759374D01*
X145355307Y-100984909D01*
X145548370Y-101171021D01*
X145779069Y-101307729D01*
X146035030Y-101387697D01*
X146302523Y-101406636D01*
X146567198Y-101363531D01*
X146814858Y-101260694D01*
X147032217Y-101103640D01*
X147078600Y-101050000D01*
X149232065Y-101050000D01*
X149325994Y-101053937D01*
X149395954Y-101037528D01*
X149467158Y-101027774D01*
X149502212Y-101012605D01*
X149539389Y-101003885D01*
X149573393Y-100981802D01*
X149668318Y-100940725D01*
X149838657Y-100802786D01*
X149863401Y-100767969D01*
X150479877Y-100151493D01*
X150552523Y-100156636D01*
X150817198Y-100113531D01*
X151064858Y-100010694D01*
X151282217Y-99853640D01*
X151457617Y-99650796D01*
X151581648Y-99413041D01*
X151647657Y-99153130D01*
X151650155Y-98866923D01*
X151588692Y-98605899D01*
X151468829Y-98366016D01*
X151296996Y-98160141D01*
X151116678Y-98025000D01*
X151396895Y-98025000D01*
X151548370Y-98171021D01*
X151779069Y-98307729D01*
X152035030Y-98387697D01*
X152302523Y-98406636D01*
X152567198Y-98363531D01*
X152814858Y-98260694D01*
X153032217Y-98103640D01*
X153207617Y-97900796D01*
X153331648Y-97663041D01*
X153397657Y-97403130D01*
X153400155Y-97116923D01*
X153338692Y-96855899D01*
X153218829Y-96616016D01*
X153046996Y-96410141D01*
X152832411Y-96249318D01*
X152586583Y-96142174D01*
X152322701Y-96094457D01*
X152054918Y-96108725D01*
X151797601Y-96184214D01*
X151564551Y-96316874D01*
X151394685Y-96475000D01*
X150767377Y-96475000D01*
X150676380Y-96471186D01*
X150608608Y-96487082D01*
X150539628Y-96496531D01*
X150505670Y-96511226D01*
X150469653Y-96519674D01*
X150436707Y-96541069D01*
X150344755Y-96580861D01*
X150179738Y-96714488D01*
X150155768Y-96748217D01*
X148428986Y-98475000D01*
X142158127Y-98475000D01*
X142208354Y-98442507D01*
X142390790Y-98276503D01*
X142543663Y-98082932D01*
X142662868Y-97866992D01*
X142745205Y-97634482D01*
X142788460Y-97391646D01*
X142791474Y-97145007D01*
X142754164Y-96901187D01*
X142677533Y-96666735D01*
X142563639Y-96447947D01*
X142415541Y-96250698D01*
X142237215Y-96080287D01*
X142033452Y-95941288D01*
X141809722Y-95837437D01*
X141572035Y-95771520D01*
X141344376Y-95750000D01*
X141227482Y-95750000D01*
X141044172Y-95765071D01*
X140804945Y-95825160D01*
X140578745Y-95923515D01*
X140371646Y-96057493D01*
X140189210Y-96223497D01*
X140036337Y-96417068D01*
X140021133Y-96444610D01*
X139875541Y-96250698D01*
X139697215Y-96080287D01*
X139493452Y-95941288D01*
X139269722Y-95837437D01*
X139032035Y-95771520D01*
X138804376Y-95750000D01*
X138687482Y-95750000D01*
X138504172Y-95765071D01*
X138264945Y-95825160D01*
X138038745Y-95923515D01*
X137831646Y-96057493D01*
X137649210Y-96223497D01*
X137496337Y-96417068D01*
X137481133Y-96444610D01*
X137335541Y-96250698D01*
X137157215Y-96080287D01*
X136953452Y-95941288D01*
X136729722Y-95837437D01*
X136492035Y-95771520D01*
X136264376Y-95750000D01*
X136147482Y-95750000D01*
X135964172Y-95765071D01*
X135724945Y-95825160D01*
X135498745Y-95923515D01*
X135291646Y-96057493D01*
X135138844Y-96196533D01*
X135131902Y-96159846D01*
X135033931Y-95990154D01*
X134890294Y-95856879D01*
X134713755Y-95771862D01*
X134520000Y-95742658D01*
X132820000Y-95742658D01*
X132579846Y-95788098D01*
X132410154Y-95886069D01*
X132276879Y-96029706D01*
X132191862Y-96206245D01*
X132162658Y-96400000D01*
X110900000Y-96400000D01*
X110900000Y-83750000D01*
X112092658Y-83750000D01*
X112092658Y-87250000D01*
X112138098Y-87490154D01*
X112236069Y-87659846D01*
X112379706Y-87793121D01*
X112556245Y-87878138D01*
X112750000Y-87907342D01*
X116250000Y-87907342D01*
X116490154Y-87861902D01*
X116659846Y-87763931D01*
X116793121Y-87620294D01*
X116878138Y-87443755D01*
X116907342Y-87250000D01*
X116907342Y-87154778D01*
X184986643Y-87154778D01*
X185168536Y-87502734D01*
X185435571Y-87656555D01*
X185720084Y-87774966D01*
X186017403Y-87856023D01*
X186322647Y-87898392D01*
X186630803Y-87901381D01*
X186936811Y-87864938D01*
X187235646Y-87789665D01*
X187522403Y-87676794D01*
X187792371Y-87528181D01*
X187831464Y-87502734D01*
X188013357Y-87154778D01*
X186500000Y-85641421D01*
X184986643Y-87154778D01*
X116907342Y-87154778D01*
X116907342Y-85630803D01*
X184098619Y-85630803D01*
X184135062Y-85936811D01*
X184210335Y-86235646D01*
X184323206Y-86522403D01*
X184471819Y-86792371D01*
X184497266Y-86831464D01*
X184845222Y-87013357D01*
X186358579Y-85500000D01*
X186641421Y-85500000D01*
X188154778Y-87013357D01*
X188502734Y-86831464D01*
X188656555Y-86564429D01*
X188774966Y-86279916D01*
X188856023Y-85982597D01*
X188898392Y-85677353D01*
X188901381Y-85369197D01*
X188864938Y-85063189D01*
X188789665Y-84764354D01*
X188676794Y-84477597D01*
X188528181Y-84207629D01*
X188502734Y-84168536D01*
X188154778Y-83986643D01*
X186641421Y-85500000D01*
X186358579Y-85500000D01*
X184845222Y-83986643D01*
X184497266Y-84168536D01*
X184343445Y-84435571D01*
X184225034Y-84720084D01*
X184143977Y-85017403D01*
X184101608Y-85322647D01*
X184098619Y-85630803D01*
X116907342Y-85630803D01*
X116907342Y-83845222D01*
X184986643Y-83845222D01*
X186500000Y-85358579D01*
X188013357Y-83845222D01*
X187831464Y-83497266D01*
X187564429Y-83343445D01*
X187279916Y-83225034D01*
X186982597Y-83143977D01*
X186677353Y-83101608D01*
X186369197Y-83098619D01*
X186063189Y-83135062D01*
X185764354Y-83210335D01*
X185477597Y-83323206D01*
X185207629Y-83471819D01*
X185168536Y-83497266D01*
X184986643Y-83845222D01*
X116907342Y-83845222D01*
X116907342Y-83750000D01*
X116861902Y-83509846D01*
X116763931Y-83340154D01*
X116620294Y-83206879D01*
X116443755Y-83121862D01*
X116250000Y-83092658D01*
X112750000Y-83092658D01*
X112509846Y-83138098D01*
X112340154Y-83236069D01*
X112206879Y-83379706D01*
X112121862Y-83556245D01*
X112092658Y-83750000D01*
X110900000Y-83750000D01*
X110900000Y-75400000D01*
X190100000Y-75400000D01*
X190100001Y-126600000D01*
M02*
