G04 #@! TF.GenerationSoftware,KiCad,Pcbnew,6.0.0-unknown*
G04 #@! TF.CreationDate,2019-06-26T08:34:25-07:00*
G04 #@! TF.ProjectId,IOT-LORA,494f542d-4c4f-4524-912e-6b696361645f,rev?*
G04 #@! TF.SameCoordinates,Original*
G04 #@! TF.FileFunction,Soldermask,Top*
G04 #@! TF.FilePolarity,Negative*
%FSLAX46Y46*%
G04 Gerber Fmt 4.6, Leading zero omitted, Abs format (unit mm)*
G04 Created by KiCad (PCBNEW 6.0.0-unknown) date 2019-06-26 08:34:25*
%MOMM*%
%LPD*%
G04 APERTURE LIST*
%ADD10C,0.250000*%
G04 APERTURE END LIST*
D10*
G36*
X181888360Y-123863835D02*
G01*
X181969397Y-123890166D01*
X182056663Y-123917848D01*
X182059655Y-123919493D01*
X182068488Y-123922363D01*
X182140466Y-123963919D01*
X182211499Y-124002970D01*
X182218986Y-124009253D01*
X182232511Y-124017061D01*
X182290259Y-124069057D01*
X182346857Y-124116549D01*
X182356962Y-124129118D01*
X182373261Y-124143793D01*
X182415454Y-124201867D01*
X182457579Y-124254260D01*
X182467994Y-124274182D01*
X182484586Y-124297019D01*
X182511297Y-124357012D01*
X182539439Y-124410843D01*
X182547582Y-124438510D01*
X182561621Y-124470042D01*
X182573992Y-124528241D01*
X182589328Y-124580349D01*
X182592518Y-124615401D01*
X182600999Y-124655301D01*
X182600999Y-124708592D01*
X182605343Y-124756324D01*
X182600999Y-124797653D01*
X182600999Y-124844699D01*
X182591217Y-124890721D01*
X182586873Y-124932047D01*
X182572702Y-124977827D01*
X182561621Y-125029958D01*
X182545028Y-125067226D01*
X182534622Y-125100843D01*
X182508789Y-125148620D01*
X182484586Y-125202981D01*
X182464298Y-125230905D01*
X182450580Y-125256276D01*
X182411859Y-125303082D01*
X182373261Y-125356207D01*
X182352284Y-125375095D01*
X182337952Y-125392419D01*
X182285845Y-125434917D01*
X182232511Y-125482939D01*
X182213524Y-125493901D01*
X182201025Y-125504095D01*
X182135780Y-125538786D01*
X182068488Y-125577637D01*
X182053636Y-125582463D01*
X182045003Y-125587053D01*
X181967430Y-125610473D01*
X181888360Y-125636165D01*
X181879114Y-125637137D01*
X181875851Y-125638122D01*
X181784710Y-125647059D01*
X181747211Y-125651000D01*
X181652789Y-125651000D01*
X181511640Y-125636165D01*
X181430603Y-125609834D01*
X181343337Y-125582152D01*
X181340345Y-125580507D01*
X181331512Y-125577637D01*
X181259534Y-125536081D01*
X181188501Y-125497030D01*
X181181014Y-125490747D01*
X181167489Y-125482939D01*
X181109741Y-125430943D01*
X181053143Y-125383451D01*
X181043038Y-125370882D01*
X181026739Y-125356207D01*
X180984546Y-125298133D01*
X180942421Y-125245740D01*
X180932006Y-125225818D01*
X180915414Y-125202981D01*
X180888703Y-125142988D01*
X180860561Y-125089157D01*
X180852418Y-125061490D01*
X180838379Y-125029958D01*
X180826008Y-124971759D01*
X180810672Y-124919651D01*
X180807482Y-124884599D01*
X180799001Y-124844699D01*
X180799001Y-124791408D01*
X180794657Y-124743676D01*
X180799001Y-124702347D01*
X180799001Y-124655301D01*
X180808783Y-124609279D01*
X180813127Y-124567953D01*
X180827298Y-124522173D01*
X180838379Y-124470042D01*
X180854972Y-124432774D01*
X180865378Y-124399157D01*
X180891211Y-124351380D01*
X180915414Y-124297019D01*
X180935702Y-124269095D01*
X180949420Y-124243724D01*
X180988141Y-124196918D01*
X181026739Y-124143793D01*
X181047716Y-124124905D01*
X181062048Y-124107581D01*
X181114155Y-124065083D01*
X181167489Y-124017061D01*
X181186476Y-124006099D01*
X181198975Y-123995905D01*
X181264220Y-123961214D01*
X181331512Y-123922363D01*
X181346364Y-123917537D01*
X181354997Y-123912947D01*
X181432570Y-123889527D01*
X181511640Y-123863835D01*
X181520886Y-123862863D01*
X181524149Y-123861878D01*
X181615290Y-123852941D01*
X181652789Y-123849000D01*
X181747211Y-123849000D01*
X181888360Y-123863835D01*
X181888360Y-123863835D01*
G37*
G36*
X179348360Y-123863835D02*
G01*
X179429397Y-123890166D01*
X179516663Y-123917848D01*
X179519655Y-123919493D01*
X179528488Y-123922363D01*
X179600466Y-123963919D01*
X179671499Y-124002970D01*
X179678986Y-124009253D01*
X179692511Y-124017061D01*
X179750259Y-124069057D01*
X179806857Y-124116549D01*
X179816962Y-124129118D01*
X179833261Y-124143793D01*
X179875454Y-124201867D01*
X179917579Y-124254260D01*
X179927994Y-124274182D01*
X179944586Y-124297019D01*
X179971297Y-124357012D01*
X179999439Y-124410843D01*
X180007582Y-124438510D01*
X180021621Y-124470042D01*
X180033992Y-124528241D01*
X180049328Y-124580349D01*
X180052518Y-124615401D01*
X180060999Y-124655301D01*
X180060999Y-124708592D01*
X180065343Y-124756324D01*
X180060999Y-124797653D01*
X180060999Y-124844699D01*
X180051217Y-124890721D01*
X180046873Y-124932047D01*
X180032702Y-124977827D01*
X180021621Y-125029958D01*
X180005028Y-125067226D01*
X179994622Y-125100843D01*
X179968789Y-125148620D01*
X179944586Y-125202981D01*
X179924298Y-125230905D01*
X179910580Y-125256276D01*
X179871859Y-125303082D01*
X179833261Y-125356207D01*
X179812284Y-125375095D01*
X179797952Y-125392419D01*
X179745845Y-125434917D01*
X179692511Y-125482939D01*
X179673524Y-125493901D01*
X179661025Y-125504095D01*
X179595780Y-125538786D01*
X179528488Y-125577637D01*
X179513636Y-125582463D01*
X179505003Y-125587053D01*
X179427430Y-125610473D01*
X179348360Y-125636165D01*
X179339114Y-125637137D01*
X179335851Y-125638122D01*
X179244710Y-125647059D01*
X179207211Y-125651000D01*
X179112789Y-125651000D01*
X178971640Y-125636165D01*
X178890603Y-125609834D01*
X178803337Y-125582152D01*
X178800345Y-125580507D01*
X178791512Y-125577637D01*
X178719534Y-125536081D01*
X178648501Y-125497030D01*
X178641014Y-125490747D01*
X178627489Y-125482939D01*
X178569741Y-125430943D01*
X178513143Y-125383451D01*
X178503038Y-125370882D01*
X178486739Y-125356207D01*
X178444546Y-125298133D01*
X178402421Y-125245740D01*
X178392006Y-125225818D01*
X178375414Y-125202981D01*
X178348703Y-125142988D01*
X178320561Y-125089157D01*
X178312418Y-125061490D01*
X178298379Y-125029958D01*
X178286008Y-124971759D01*
X178270672Y-124919651D01*
X178267482Y-124884599D01*
X178259001Y-124844699D01*
X178259001Y-124791408D01*
X178254657Y-124743676D01*
X178259001Y-124702347D01*
X178259001Y-124655301D01*
X178268783Y-124609279D01*
X178273127Y-124567953D01*
X178287298Y-124522173D01*
X178298379Y-124470042D01*
X178314972Y-124432774D01*
X178325378Y-124399157D01*
X178351211Y-124351380D01*
X178375414Y-124297019D01*
X178395702Y-124269095D01*
X178409420Y-124243724D01*
X178448141Y-124196918D01*
X178486739Y-124143793D01*
X178507716Y-124124905D01*
X178522048Y-124107581D01*
X178574155Y-124065083D01*
X178627489Y-124017061D01*
X178646476Y-124006099D01*
X178658975Y-123995905D01*
X178724220Y-123961214D01*
X178791512Y-123922363D01*
X178806364Y-123917537D01*
X178814997Y-123912947D01*
X178892570Y-123889527D01*
X178971640Y-123863835D01*
X178980886Y-123862863D01*
X178984149Y-123861878D01*
X179075290Y-123852941D01*
X179112789Y-123849000D01*
X179207211Y-123849000D01*
X179348360Y-123863835D01*
X179348360Y-123863835D01*
G37*
G36*
X176808360Y-123863835D02*
G01*
X176889397Y-123890166D01*
X176976663Y-123917848D01*
X176979655Y-123919493D01*
X176988488Y-123922363D01*
X177060466Y-123963919D01*
X177131499Y-124002970D01*
X177138986Y-124009253D01*
X177152511Y-124017061D01*
X177210259Y-124069057D01*
X177266857Y-124116549D01*
X177276962Y-124129118D01*
X177293261Y-124143793D01*
X177335454Y-124201867D01*
X177377579Y-124254260D01*
X177387994Y-124274182D01*
X177404586Y-124297019D01*
X177431297Y-124357012D01*
X177459439Y-124410843D01*
X177467582Y-124438510D01*
X177481621Y-124470042D01*
X177493992Y-124528241D01*
X177509328Y-124580349D01*
X177512518Y-124615401D01*
X177520999Y-124655301D01*
X177520999Y-124708592D01*
X177525343Y-124756324D01*
X177520999Y-124797653D01*
X177520999Y-124844699D01*
X177511217Y-124890721D01*
X177506873Y-124932047D01*
X177492702Y-124977827D01*
X177481621Y-125029958D01*
X177465028Y-125067226D01*
X177454622Y-125100843D01*
X177428789Y-125148620D01*
X177404586Y-125202981D01*
X177384298Y-125230905D01*
X177370580Y-125256276D01*
X177331859Y-125303082D01*
X177293261Y-125356207D01*
X177272284Y-125375095D01*
X177257952Y-125392419D01*
X177205845Y-125434917D01*
X177152511Y-125482939D01*
X177133524Y-125493901D01*
X177121025Y-125504095D01*
X177055780Y-125538786D01*
X176988488Y-125577637D01*
X176973636Y-125582463D01*
X176965003Y-125587053D01*
X176887430Y-125610473D01*
X176808360Y-125636165D01*
X176799114Y-125637137D01*
X176795851Y-125638122D01*
X176704710Y-125647059D01*
X176667211Y-125651000D01*
X176572789Y-125651000D01*
X176431640Y-125636165D01*
X176350603Y-125609834D01*
X176263337Y-125582152D01*
X176260345Y-125580507D01*
X176251512Y-125577637D01*
X176179534Y-125536081D01*
X176108501Y-125497030D01*
X176101014Y-125490747D01*
X176087489Y-125482939D01*
X176029741Y-125430943D01*
X175973143Y-125383451D01*
X175963038Y-125370882D01*
X175946739Y-125356207D01*
X175904546Y-125298133D01*
X175862421Y-125245740D01*
X175852006Y-125225818D01*
X175835414Y-125202981D01*
X175808703Y-125142988D01*
X175780561Y-125089157D01*
X175772418Y-125061490D01*
X175758379Y-125029958D01*
X175746008Y-124971759D01*
X175730672Y-124919651D01*
X175727482Y-124884599D01*
X175719001Y-124844699D01*
X175719001Y-124791408D01*
X175714657Y-124743676D01*
X175719001Y-124702347D01*
X175719001Y-124655301D01*
X175728783Y-124609279D01*
X175733127Y-124567953D01*
X175747298Y-124522173D01*
X175758379Y-124470042D01*
X175774972Y-124432774D01*
X175785378Y-124399157D01*
X175811211Y-124351380D01*
X175835414Y-124297019D01*
X175855702Y-124269095D01*
X175869420Y-124243724D01*
X175908141Y-124196918D01*
X175946739Y-124143793D01*
X175967716Y-124124905D01*
X175982048Y-124107581D01*
X176034155Y-124065083D01*
X176087489Y-124017061D01*
X176106476Y-124006099D01*
X176118975Y-123995905D01*
X176184220Y-123961214D01*
X176251512Y-123922363D01*
X176266364Y-123917537D01*
X176274997Y-123912947D01*
X176352570Y-123889527D01*
X176431640Y-123863835D01*
X176440886Y-123862863D01*
X176444149Y-123861878D01*
X176535290Y-123852941D01*
X176572789Y-123849000D01*
X176667211Y-123849000D01*
X176808360Y-123863835D01*
X176808360Y-123863835D01*
G37*
G36*
X174268360Y-123863835D02*
G01*
X174349397Y-123890166D01*
X174436663Y-123917848D01*
X174439655Y-123919493D01*
X174448488Y-123922363D01*
X174520466Y-123963919D01*
X174591499Y-124002970D01*
X174598986Y-124009253D01*
X174612511Y-124017061D01*
X174670259Y-124069057D01*
X174726857Y-124116549D01*
X174736962Y-124129118D01*
X174753261Y-124143793D01*
X174795454Y-124201867D01*
X174837579Y-124254260D01*
X174847994Y-124274182D01*
X174864586Y-124297019D01*
X174891297Y-124357012D01*
X174919439Y-124410843D01*
X174927582Y-124438510D01*
X174941621Y-124470042D01*
X174953992Y-124528241D01*
X174969328Y-124580349D01*
X174972518Y-124615401D01*
X174980999Y-124655301D01*
X174980999Y-124708592D01*
X174985343Y-124756324D01*
X174980999Y-124797653D01*
X174980999Y-124844699D01*
X174971217Y-124890721D01*
X174966873Y-124932047D01*
X174952702Y-124977827D01*
X174941621Y-125029958D01*
X174925028Y-125067226D01*
X174914622Y-125100843D01*
X174888789Y-125148620D01*
X174864586Y-125202981D01*
X174844298Y-125230905D01*
X174830580Y-125256276D01*
X174791859Y-125303082D01*
X174753261Y-125356207D01*
X174732284Y-125375095D01*
X174717952Y-125392419D01*
X174665845Y-125434917D01*
X174612511Y-125482939D01*
X174593524Y-125493901D01*
X174581025Y-125504095D01*
X174515780Y-125538786D01*
X174448488Y-125577637D01*
X174433636Y-125582463D01*
X174425003Y-125587053D01*
X174347430Y-125610473D01*
X174268360Y-125636165D01*
X174259114Y-125637137D01*
X174255851Y-125638122D01*
X174164710Y-125647059D01*
X174127211Y-125651000D01*
X174032789Y-125651000D01*
X173891640Y-125636165D01*
X173810603Y-125609834D01*
X173723337Y-125582152D01*
X173720345Y-125580507D01*
X173711512Y-125577637D01*
X173639534Y-125536081D01*
X173568501Y-125497030D01*
X173561014Y-125490747D01*
X173547489Y-125482939D01*
X173489741Y-125430943D01*
X173433143Y-125383451D01*
X173423038Y-125370882D01*
X173406739Y-125356207D01*
X173364546Y-125298133D01*
X173322421Y-125245740D01*
X173312006Y-125225818D01*
X173295414Y-125202981D01*
X173268703Y-125142988D01*
X173240561Y-125089157D01*
X173232418Y-125061490D01*
X173218379Y-125029958D01*
X173206008Y-124971759D01*
X173190672Y-124919651D01*
X173187482Y-124884599D01*
X173179001Y-124844699D01*
X173179001Y-124791408D01*
X173174657Y-124743676D01*
X173179001Y-124702347D01*
X173179001Y-124655301D01*
X173188783Y-124609279D01*
X173193127Y-124567953D01*
X173207298Y-124522173D01*
X173218379Y-124470042D01*
X173234972Y-124432774D01*
X173245378Y-124399157D01*
X173271211Y-124351380D01*
X173295414Y-124297019D01*
X173315702Y-124269095D01*
X173329420Y-124243724D01*
X173368141Y-124196918D01*
X173406739Y-124143793D01*
X173427716Y-124124905D01*
X173442048Y-124107581D01*
X173494155Y-124065083D01*
X173547489Y-124017061D01*
X173566476Y-124006099D01*
X173578975Y-123995905D01*
X173644220Y-123961214D01*
X173711512Y-123922363D01*
X173726364Y-123917537D01*
X173734997Y-123912947D01*
X173812570Y-123889527D01*
X173891640Y-123863835D01*
X173900886Y-123862863D01*
X173904149Y-123861878D01*
X173995290Y-123852941D01*
X174032789Y-123849000D01*
X174127211Y-123849000D01*
X174268360Y-123863835D01*
X174268360Y-123863835D01*
G37*
G36*
X169901000Y-125651000D02*
G01*
X168099000Y-125651000D01*
X168099000Y-123849000D01*
X169901000Y-123849000D01*
X169901000Y-125651000D01*
X169901000Y-125651000D01*
G37*
G36*
X171728360Y-123863835D02*
G01*
X171809397Y-123890166D01*
X171896663Y-123917848D01*
X171899655Y-123919493D01*
X171908488Y-123922363D01*
X171980466Y-123963919D01*
X172051499Y-124002970D01*
X172058986Y-124009253D01*
X172072511Y-124017061D01*
X172130259Y-124069057D01*
X172186857Y-124116549D01*
X172196962Y-124129118D01*
X172213261Y-124143793D01*
X172255454Y-124201867D01*
X172297579Y-124254260D01*
X172307994Y-124274182D01*
X172324586Y-124297019D01*
X172351297Y-124357012D01*
X172379439Y-124410843D01*
X172387582Y-124438510D01*
X172401621Y-124470042D01*
X172413992Y-124528241D01*
X172429328Y-124580349D01*
X172432518Y-124615401D01*
X172440999Y-124655301D01*
X172440999Y-124708592D01*
X172445343Y-124756324D01*
X172440999Y-124797653D01*
X172440999Y-124844699D01*
X172431217Y-124890721D01*
X172426873Y-124932047D01*
X172412702Y-124977827D01*
X172401621Y-125029958D01*
X172385028Y-125067226D01*
X172374622Y-125100843D01*
X172348789Y-125148620D01*
X172324586Y-125202981D01*
X172304298Y-125230905D01*
X172290580Y-125256276D01*
X172251859Y-125303082D01*
X172213261Y-125356207D01*
X172192284Y-125375095D01*
X172177952Y-125392419D01*
X172125845Y-125434917D01*
X172072511Y-125482939D01*
X172053524Y-125493901D01*
X172041025Y-125504095D01*
X171975780Y-125538786D01*
X171908488Y-125577637D01*
X171893636Y-125582463D01*
X171885003Y-125587053D01*
X171807430Y-125610473D01*
X171728360Y-125636165D01*
X171719114Y-125637137D01*
X171715851Y-125638122D01*
X171624710Y-125647059D01*
X171587211Y-125651000D01*
X171492789Y-125651000D01*
X171351640Y-125636165D01*
X171270603Y-125609834D01*
X171183337Y-125582152D01*
X171180345Y-125580507D01*
X171171512Y-125577637D01*
X171099534Y-125536081D01*
X171028501Y-125497030D01*
X171021014Y-125490747D01*
X171007489Y-125482939D01*
X170949741Y-125430943D01*
X170893143Y-125383451D01*
X170883038Y-125370882D01*
X170866739Y-125356207D01*
X170824546Y-125298133D01*
X170782421Y-125245740D01*
X170772006Y-125225818D01*
X170755414Y-125202981D01*
X170728703Y-125142988D01*
X170700561Y-125089157D01*
X170692418Y-125061490D01*
X170678379Y-125029958D01*
X170666008Y-124971759D01*
X170650672Y-124919651D01*
X170647482Y-124884599D01*
X170639001Y-124844699D01*
X170639001Y-124791408D01*
X170634657Y-124743676D01*
X170639001Y-124702347D01*
X170639001Y-124655301D01*
X170648783Y-124609279D01*
X170653127Y-124567953D01*
X170667298Y-124522173D01*
X170678379Y-124470042D01*
X170694972Y-124432774D01*
X170705378Y-124399157D01*
X170731211Y-124351380D01*
X170755414Y-124297019D01*
X170775702Y-124269095D01*
X170789420Y-124243724D01*
X170828141Y-124196918D01*
X170866739Y-124143793D01*
X170887716Y-124124905D01*
X170902048Y-124107581D01*
X170954155Y-124065083D01*
X171007489Y-124017061D01*
X171026476Y-124006099D01*
X171038975Y-123995905D01*
X171104220Y-123961214D01*
X171171512Y-123922363D01*
X171186364Y-123917537D01*
X171194997Y-123912947D01*
X171272570Y-123889527D01*
X171351640Y-123863835D01*
X171360886Y-123862863D01*
X171364149Y-123861878D01*
X171455290Y-123852941D01*
X171492789Y-123849000D01*
X171587211Y-123849000D01*
X171728360Y-123863835D01*
X171728360Y-123863835D01*
G37*
G36*
X158631000Y-125551000D02*
G01*
X156829000Y-125551000D01*
X156829000Y-123749000D01*
X158631000Y-123749000D01*
X158631000Y-125551000D01*
X158631000Y-125551000D01*
G37*
G36*
X162998360Y-123763835D02*
G01*
X163079397Y-123790166D01*
X163166663Y-123817848D01*
X163169655Y-123819493D01*
X163178488Y-123822363D01*
X163250466Y-123863919D01*
X163321499Y-123902970D01*
X163328986Y-123909253D01*
X163342511Y-123917061D01*
X163400259Y-123969057D01*
X163456857Y-124016549D01*
X163466962Y-124029118D01*
X163483261Y-124043793D01*
X163525454Y-124101867D01*
X163567579Y-124154260D01*
X163577994Y-124174182D01*
X163594586Y-124197019D01*
X163621297Y-124257012D01*
X163649439Y-124310843D01*
X163657582Y-124338510D01*
X163671621Y-124370042D01*
X163683992Y-124428241D01*
X163699328Y-124480349D01*
X163702518Y-124515401D01*
X163710999Y-124555301D01*
X163710999Y-124608592D01*
X163715343Y-124656324D01*
X163710999Y-124697653D01*
X163710999Y-124744699D01*
X163701217Y-124790721D01*
X163696873Y-124832047D01*
X163682702Y-124877827D01*
X163671621Y-124929958D01*
X163655028Y-124967226D01*
X163644622Y-125000843D01*
X163618789Y-125048620D01*
X163594586Y-125102981D01*
X163574298Y-125130905D01*
X163560580Y-125156276D01*
X163521859Y-125203082D01*
X163483261Y-125256207D01*
X163462284Y-125275095D01*
X163447952Y-125292419D01*
X163395845Y-125334917D01*
X163342511Y-125382939D01*
X163323524Y-125393901D01*
X163311025Y-125404095D01*
X163245780Y-125438786D01*
X163178488Y-125477637D01*
X163163636Y-125482463D01*
X163155003Y-125487053D01*
X163077430Y-125510473D01*
X162998360Y-125536165D01*
X162989114Y-125537137D01*
X162985851Y-125538122D01*
X162894710Y-125547059D01*
X162857211Y-125551000D01*
X162762789Y-125551000D01*
X162621640Y-125536165D01*
X162540603Y-125509834D01*
X162453337Y-125482152D01*
X162450345Y-125480507D01*
X162441512Y-125477637D01*
X162369534Y-125436081D01*
X162298501Y-125397030D01*
X162291014Y-125390747D01*
X162277489Y-125382939D01*
X162219741Y-125330943D01*
X162163143Y-125283451D01*
X162153038Y-125270882D01*
X162136739Y-125256207D01*
X162094546Y-125198133D01*
X162052421Y-125145740D01*
X162042006Y-125125818D01*
X162025414Y-125102981D01*
X161998703Y-125042988D01*
X161970561Y-124989157D01*
X161962418Y-124961490D01*
X161948379Y-124929958D01*
X161936008Y-124871759D01*
X161920672Y-124819651D01*
X161917482Y-124784599D01*
X161909001Y-124744699D01*
X161909001Y-124691408D01*
X161904657Y-124643676D01*
X161909001Y-124602347D01*
X161909001Y-124555301D01*
X161918783Y-124509279D01*
X161923127Y-124467953D01*
X161937298Y-124422173D01*
X161948379Y-124370042D01*
X161964972Y-124332774D01*
X161975378Y-124299157D01*
X162001211Y-124251380D01*
X162025414Y-124197019D01*
X162045702Y-124169095D01*
X162059420Y-124143724D01*
X162098141Y-124096918D01*
X162136739Y-124043793D01*
X162157716Y-124024905D01*
X162172048Y-124007581D01*
X162224155Y-123965083D01*
X162277489Y-123917061D01*
X162296476Y-123906099D01*
X162308975Y-123895905D01*
X162374220Y-123861214D01*
X162441512Y-123822363D01*
X162456364Y-123817537D01*
X162464997Y-123812947D01*
X162542570Y-123789527D01*
X162621640Y-123763835D01*
X162630886Y-123762863D01*
X162634149Y-123761878D01*
X162725290Y-123752941D01*
X162762789Y-123749000D01*
X162857211Y-123749000D01*
X162998360Y-123763835D01*
X162998360Y-123763835D01*
G37*
G36*
X160458360Y-123763835D02*
G01*
X160539397Y-123790166D01*
X160626663Y-123817848D01*
X160629655Y-123819493D01*
X160638488Y-123822363D01*
X160710466Y-123863919D01*
X160781499Y-123902970D01*
X160788986Y-123909253D01*
X160802511Y-123917061D01*
X160860259Y-123969057D01*
X160916857Y-124016549D01*
X160926962Y-124029118D01*
X160943261Y-124043793D01*
X160985454Y-124101867D01*
X161027579Y-124154260D01*
X161037994Y-124174182D01*
X161054586Y-124197019D01*
X161081297Y-124257012D01*
X161109439Y-124310843D01*
X161117582Y-124338510D01*
X161131621Y-124370042D01*
X161143992Y-124428241D01*
X161159328Y-124480349D01*
X161162518Y-124515401D01*
X161170999Y-124555301D01*
X161170999Y-124608592D01*
X161175343Y-124656324D01*
X161170999Y-124697653D01*
X161170999Y-124744699D01*
X161161217Y-124790721D01*
X161156873Y-124832047D01*
X161142702Y-124877827D01*
X161131621Y-124929958D01*
X161115028Y-124967226D01*
X161104622Y-125000843D01*
X161078789Y-125048620D01*
X161054586Y-125102981D01*
X161034298Y-125130905D01*
X161020580Y-125156276D01*
X160981859Y-125203082D01*
X160943261Y-125256207D01*
X160922284Y-125275095D01*
X160907952Y-125292419D01*
X160855845Y-125334917D01*
X160802511Y-125382939D01*
X160783524Y-125393901D01*
X160771025Y-125404095D01*
X160705780Y-125438786D01*
X160638488Y-125477637D01*
X160623636Y-125482463D01*
X160615003Y-125487053D01*
X160537430Y-125510473D01*
X160458360Y-125536165D01*
X160449114Y-125537137D01*
X160445851Y-125538122D01*
X160354710Y-125547059D01*
X160317211Y-125551000D01*
X160222789Y-125551000D01*
X160081640Y-125536165D01*
X160000603Y-125509834D01*
X159913337Y-125482152D01*
X159910345Y-125480507D01*
X159901512Y-125477637D01*
X159829534Y-125436081D01*
X159758501Y-125397030D01*
X159751014Y-125390747D01*
X159737489Y-125382939D01*
X159679741Y-125330943D01*
X159623143Y-125283451D01*
X159613038Y-125270882D01*
X159596739Y-125256207D01*
X159554546Y-125198133D01*
X159512421Y-125145740D01*
X159502006Y-125125818D01*
X159485414Y-125102981D01*
X159458703Y-125042988D01*
X159430561Y-124989157D01*
X159422418Y-124961490D01*
X159408379Y-124929958D01*
X159396008Y-124871759D01*
X159380672Y-124819651D01*
X159377482Y-124784599D01*
X159369001Y-124744699D01*
X159369001Y-124691408D01*
X159364657Y-124643676D01*
X159369001Y-124602347D01*
X159369001Y-124555301D01*
X159378783Y-124509279D01*
X159383127Y-124467953D01*
X159397298Y-124422173D01*
X159408379Y-124370042D01*
X159424972Y-124332774D01*
X159435378Y-124299157D01*
X159461211Y-124251380D01*
X159485414Y-124197019D01*
X159505702Y-124169095D01*
X159519420Y-124143724D01*
X159558141Y-124096918D01*
X159596739Y-124043793D01*
X159617716Y-124024905D01*
X159632048Y-124007581D01*
X159684155Y-123965083D01*
X159737489Y-123917061D01*
X159756476Y-123906099D01*
X159768975Y-123895905D01*
X159834220Y-123861214D01*
X159901512Y-123822363D01*
X159916364Y-123817537D01*
X159924997Y-123812947D01*
X160002570Y-123789527D01*
X160081640Y-123763835D01*
X160090886Y-123762863D01*
X160094149Y-123761878D01*
X160185290Y-123752941D01*
X160222789Y-123749000D01*
X160317211Y-123749000D01*
X160458360Y-123763835D01*
X160458360Y-123763835D01*
G37*
G36*
X165538360Y-123763835D02*
G01*
X165619397Y-123790166D01*
X165706663Y-123817848D01*
X165709655Y-123819493D01*
X165718488Y-123822363D01*
X165790466Y-123863919D01*
X165861499Y-123902970D01*
X165868986Y-123909253D01*
X165882511Y-123917061D01*
X165940259Y-123969057D01*
X165996857Y-124016549D01*
X166006962Y-124029118D01*
X166023261Y-124043793D01*
X166065454Y-124101867D01*
X166107579Y-124154260D01*
X166117994Y-124174182D01*
X166134586Y-124197019D01*
X166161297Y-124257012D01*
X166189439Y-124310843D01*
X166197582Y-124338510D01*
X166211621Y-124370042D01*
X166223992Y-124428241D01*
X166239328Y-124480349D01*
X166242518Y-124515401D01*
X166250999Y-124555301D01*
X166250999Y-124608592D01*
X166255343Y-124656324D01*
X166250999Y-124697653D01*
X166250999Y-124744699D01*
X166241217Y-124790721D01*
X166236873Y-124832047D01*
X166222702Y-124877827D01*
X166211621Y-124929958D01*
X166195028Y-124967226D01*
X166184622Y-125000843D01*
X166158789Y-125048620D01*
X166134586Y-125102981D01*
X166114298Y-125130905D01*
X166100580Y-125156276D01*
X166061859Y-125203082D01*
X166023261Y-125256207D01*
X166002284Y-125275095D01*
X165987952Y-125292419D01*
X165935845Y-125334917D01*
X165882511Y-125382939D01*
X165863524Y-125393901D01*
X165851025Y-125404095D01*
X165785780Y-125438786D01*
X165718488Y-125477637D01*
X165703636Y-125482463D01*
X165695003Y-125487053D01*
X165617430Y-125510473D01*
X165538360Y-125536165D01*
X165529114Y-125537137D01*
X165525851Y-125538122D01*
X165434710Y-125547059D01*
X165397211Y-125551000D01*
X165302789Y-125551000D01*
X165161640Y-125536165D01*
X165080603Y-125509834D01*
X164993337Y-125482152D01*
X164990345Y-125480507D01*
X164981512Y-125477637D01*
X164909534Y-125436081D01*
X164838501Y-125397030D01*
X164831014Y-125390747D01*
X164817489Y-125382939D01*
X164759741Y-125330943D01*
X164703143Y-125283451D01*
X164693038Y-125270882D01*
X164676739Y-125256207D01*
X164634546Y-125198133D01*
X164592421Y-125145740D01*
X164582006Y-125125818D01*
X164565414Y-125102981D01*
X164538703Y-125042988D01*
X164510561Y-124989157D01*
X164502418Y-124961490D01*
X164488379Y-124929958D01*
X164476008Y-124871759D01*
X164460672Y-124819651D01*
X164457482Y-124784599D01*
X164449001Y-124744699D01*
X164449001Y-124691408D01*
X164444657Y-124643676D01*
X164449001Y-124602347D01*
X164449001Y-124555301D01*
X164458783Y-124509279D01*
X164463127Y-124467953D01*
X164477298Y-124422173D01*
X164488379Y-124370042D01*
X164504972Y-124332774D01*
X164515378Y-124299157D01*
X164541211Y-124251380D01*
X164565414Y-124197019D01*
X164585702Y-124169095D01*
X164599420Y-124143724D01*
X164638141Y-124096918D01*
X164676739Y-124043793D01*
X164697716Y-124024905D01*
X164712048Y-124007581D01*
X164764155Y-123965083D01*
X164817489Y-123917061D01*
X164836476Y-123906099D01*
X164848975Y-123895905D01*
X164914220Y-123861214D01*
X164981512Y-123822363D01*
X164996364Y-123817537D01*
X165004997Y-123812947D01*
X165082570Y-123789527D01*
X165161640Y-123763835D01*
X165170886Y-123762863D01*
X165174149Y-123761878D01*
X165265290Y-123752941D01*
X165302789Y-123749000D01*
X165397211Y-123749000D01*
X165538360Y-123763835D01*
X165538360Y-123763835D01*
G37*
G36*
X149797645Y-122474001D02*
G01*
X149844699Y-122474001D01*
X149890723Y-122483784D01*
X149932047Y-122488127D01*
X149977827Y-122502298D01*
X150029958Y-122513379D01*
X150067226Y-122529972D01*
X150100843Y-122540378D01*
X150148620Y-122566211D01*
X150202981Y-122590414D01*
X150230905Y-122610702D01*
X150256276Y-122624420D01*
X150303082Y-122663141D01*
X150356207Y-122701739D01*
X150375095Y-122722716D01*
X150392419Y-122737048D01*
X150434915Y-122789153D01*
X150482939Y-122842489D01*
X150493903Y-122861479D01*
X150504096Y-122873977D01*
X150538786Y-122939219D01*
X150577637Y-123006512D01*
X150582463Y-123021364D01*
X150587052Y-123029995D01*
X150610471Y-123107562D01*
X150636165Y-123186641D01*
X150637137Y-123195887D01*
X150638122Y-123199150D01*
X150647059Y-123290291D01*
X150651000Y-123327790D01*
X150651000Y-123672211D01*
X150636165Y-123813360D01*
X150609834Y-123894397D01*
X150582152Y-123981663D01*
X150580507Y-123984655D01*
X150577637Y-123993488D01*
X150536081Y-124065466D01*
X150497030Y-124136499D01*
X150490747Y-124143986D01*
X150482939Y-124157511D01*
X150430943Y-124215259D01*
X150383451Y-124271857D01*
X150370882Y-124281962D01*
X150356207Y-124298261D01*
X150298133Y-124340454D01*
X150245742Y-124382577D01*
X150225819Y-124392992D01*
X150202980Y-124409586D01*
X150142985Y-124436298D01*
X150089154Y-124464440D01*
X150061487Y-124472583D01*
X150029957Y-124486621D01*
X149971760Y-124498991D01*
X149919650Y-124514328D01*
X149884600Y-124517518D01*
X149844698Y-124525999D01*
X149791400Y-124525999D01*
X149743676Y-124530342D01*
X149702355Y-124525999D01*
X149655301Y-124525999D01*
X149609277Y-124516216D01*
X149567953Y-124511873D01*
X149522173Y-124497702D01*
X149470042Y-124486621D01*
X149432774Y-124470028D01*
X149399157Y-124459622D01*
X149351380Y-124433789D01*
X149297019Y-124409586D01*
X149269095Y-124389298D01*
X149243724Y-124375580D01*
X149196918Y-124336859D01*
X149143793Y-124298261D01*
X149124905Y-124277284D01*
X149107581Y-124262952D01*
X149065085Y-124210847D01*
X149017061Y-124157511D01*
X149006098Y-124138521D01*
X148995904Y-124126023D01*
X148961210Y-124060773D01*
X148922363Y-123993487D01*
X148917538Y-123978638D01*
X148912948Y-123970005D01*
X148889528Y-123892432D01*
X148863835Y-123813359D01*
X148862863Y-123804113D01*
X148861878Y-123800850D01*
X148852941Y-123709709D01*
X148849000Y-123672210D01*
X148849000Y-123327789D01*
X148863835Y-123186640D01*
X148890166Y-123105603D01*
X148917848Y-123018337D01*
X148919493Y-123015345D01*
X148922363Y-123006512D01*
X148963925Y-122934524D01*
X149002970Y-122863502D01*
X149009251Y-122856017D01*
X149017061Y-122842489D01*
X149069071Y-122784726D01*
X149116550Y-122728143D01*
X149129115Y-122718040D01*
X149143793Y-122701739D01*
X149201874Y-122659541D01*
X149254261Y-122617421D01*
X149274183Y-122607006D01*
X149297020Y-122590414D01*
X149357013Y-122563703D01*
X149410844Y-122535561D01*
X149438511Y-122527418D01*
X149470043Y-122513379D01*
X149528242Y-122501008D01*
X149580350Y-122485672D01*
X149615400Y-122482482D01*
X149655302Y-122474001D01*
X149708600Y-122474001D01*
X149756324Y-122469658D01*
X149797645Y-122474001D01*
X149797645Y-122474001D01*
G37*
G36*
X147297645Y-122474001D02*
G01*
X147344699Y-122474001D01*
X147390723Y-122483784D01*
X147432047Y-122488127D01*
X147477827Y-122502298D01*
X147529958Y-122513379D01*
X147567226Y-122529972D01*
X147600843Y-122540378D01*
X147648620Y-122566211D01*
X147702981Y-122590414D01*
X147730905Y-122610702D01*
X147756276Y-122624420D01*
X147803082Y-122663141D01*
X147856207Y-122701739D01*
X147875095Y-122722716D01*
X147892419Y-122737048D01*
X147934915Y-122789153D01*
X147982939Y-122842489D01*
X147993903Y-122861479D01*
X148004096Y-122873977D01*
X148038786Y-122939219D01*
X148077637Y-123006512D01*
X148082463Y-123021364D01*
X148087052Y-123029995D01*
X148110471Y-123107562D01*
X148136165Y-123186641D01*
X148137137Y-123195887D01*
X148138122Y-123199150D01*
X148147059Y-123290291D01*
X148151000Y-123327790D01*
X148151000Y-123672211D01*
X148136165Y-123813360D01*
X148109834Y-123894397D01*
X148082152Y-123981663D01*
X148080507Y-123984655D01*
X148077637Y-123993488D01*
X148036081Y-124065466D01*
X147997030Y-124136499D01*
X147990747Y-124143986D01*
X147982939Y-124157511D01*
X147930943Y-124215259D01*
X147883451Y-124271857D01*
X147870882Y-124281962D01*
X147856207Y-124298261D01*
X147798133Y-124340454D01*
X147745742Y-124382577D01*
X147725819Y-124392992D01*
X147702980Y-124409586D01*
X147642985Y-124436298D01*
X147589154Y-124464440D01*
X147561487Y-124472583D01*
X147529957Y-124486621D01*
X147471760Y-124498991D01*
X147419650Y-124514328D01*
X147384600Y-124517518D01*
X147344698Y-124525999D01*
X147291400Y-124525999D01*
X147243676Y-124530342D01*
X147202355Y-124525999D01*
X147155301Y-124525999D01*
X147109277Y-124516216D01*
X147067953Y-124511873D01*
X147022173Y-124497702D01*
X146970042Y-124486621D01*
X146932774Y-124470028D01*
X146899157Y-124459622D01*
X146851380Y-124433789D01*
X146797019Y-124409586D01*
X146769095Y-124389298D01*
X146743724Y-124375580D01*
X146696918Y-124336859D01*
X146643793Y-124298261D01*
X146624905Y-124277284D01*
X146607581Y-124262952D01*
X146565085Y-124210847D01*
X146517061Y-124157511D01*
X146506098Y-124138521D01*
X146495904Y-124126023D01*
X146461210Y-124060773D01*
X146422363Y-123993487D01*
X146417538Y-123978638D01*
X146412948Y-123970005D01*
X146389528Y-123892432D01*
X146363835Y-123813359D01*
X146362863Y-123804113D01*
X146361878Y-123800850D01*
X146352941Y-123709709D01*
X146349000Y-123672210D01*
X146349000Y-123327789D01*
X146363835Y-123186640D01*
X146390166Y-123105603D01*
X146417848Y-123018337D01*
X146419493Y-123015345D01*
X146422363Y-123006512D01*
X146463925Y-122934524D01*
X146502970Y-122863502D01*
X146509251Y-122856017D01*
X146517061Y-122842489D01*
X146569071Y-122784726D01*
X146616550Y-122728143D01*
X146629115Y-122718040D01*
X146643793Y-122701739D01*
X146701874Y-122659541D01*
X146754261Y-122617421D01*
X146774183Y-122607006D01*
X146797020Y-122590414D01*
X146857013Y-122563703D01*
X146910844Y-122535561D01*
X146938511Y-122527418D01*
X146970043Y-122513379D01*
X147028242Y-122501008D01*
X147080350Y-122485672D01*
X147115400Y-122482482D01*
X147155302Y-122474001D01*
X147208600Y-122474001D01*
X147256324Y-122469658D01*
X147297645Y-122474001D01*
X147297645Y-122474001D01*
G37*
G36*
X138797645Y-122474001D02*
G01*
X138844699Y-122474001D01*
X138890723Y-122483784D01*
X138932047Y-122488127D01*
X138977827Y-122502298D01*
X139029958Y-122513379D01*
X139067226Y-122529972D01*
X139100843Y-122540378D01*
X139148620Y-122566211D01*
X139202981Y-122590414D01*
X139230905Y-122610702D01*
X139256276Y-122624420D01*
X139303082Y-122663141D01*
X139356207Y-122701739D01*
X139375095Y-122722716D01*
X139392419Y-122737048D01*
X139434915Y-122789153D01*
X139482939Y-122842489D01*
X139493903Y-122861479D01*
X139504096Y-122873977D01*
X139538786Y-122939219D01*
X139577637Y-123006512D01*
X139582463Y-123021364D01*
X139587052Y-123029995D01*
X139610471Y-123107562D01*
X139636165Y-123186641D01*
X139637137Y-123195887D01*
X139638122Y-123199150D01*
X139647059Y-123290291D01*
X139651000Y-123327790D01*
X139651000Y-123672211D01*
X139636165Y-123813360D01*
X139609834Y-123894397D01*
X139582152Y-123981663D01*
X139580507Y-123984655D01*
X139577637Y-123993488D01*
X139536081Y-124065466D01*
X139497030Y-124136499D01*
X139490747Y-124143986D01*
X139482939Y-124157511D01*
X139430943Y-124215259D01*
X139383451Y-124271857D01*
X139370882Y-124281962D01*
X139356207Y-124298261D01*
X139298133Y-124340454D01*
X139245742Y-124382577D01*
X139225819Y-124392992D01*
X139202980Y-124409586D01*
X139142985Y-124436298D01*
X139089154Y-124464440D01*
X139061487Y-124472583D01*
X139029957Y-124486621D01*
X138971760Y-124498991D01*
X138919650Y-124514328D01*
X138884600Y-124517518D01*
X138844698Y-124525999D01*
X138791400Y-124525999D01*
X138743676Y-124530342D01*
X138702355Y-124525999D01*
X138655301Y-124525999D01*
X138609277Y-124516216D01*
X138567953Y-124511873D01*
X138522173Y-124497702D01*
X138470042Y-124486621D01*
X138432774Y-124470028D01*
X138399157Y-124459622D01*
X138351380Y-124433789D01*
X138297019Y-124409586D01*
X138269095Y-124389298D01*
X138243724Y-124375580D01*
X138196918Y-124336859D01*
X138143793Y-124298261D01*
X138124905Y-124277284D01*
X138107581Y-124262952D01*
X138065085Y-124210847D01*
X138017061Y-124157511D01*
X138006098Y-124138521D01*
X137995904Y-124126023D01*
X137961210Y-124060773D01*
X137922363Y-123993487D01*
X137917538Y-123978638D01*
X137912948Y-123970005D01*
X137889528Y-123892432D01*
X137863835Y-123813359D01*
X137862863Y-123804113D01*
X137861878Y-123800850D01*
X137852941Y-123709709D01*
X137849000Y-123672210D01*
X137849000Y-123327789D01*
X137863835Y-123186640D01*
X137890166Y-123105603D01*
X137917848Y-123018337D01*
X137919493Y-123015345D01*
X137922363Y-123006512D01*
X137963925Y-122934524D01*
X138002970Y-122863502D01*
X138009251Y-122856017D01*
X138017061Y-122842489D01*
X138069071Y-122784726D01*
X138116550Y-122728143D01*
X138129115Y-122718040D01*
X138143793Y-122701739D01*
X138201874Y-122659541D01*
X138254261Y-122617421D01*
X138274183Y-122607006D01*
X138297020Y-122590414D01*
X138357013Y-122563703D01*
X138410844Y-122535561D01*
X138438511Y-122527418D01*
X138470043Y-122513379D01*
X138528242Y-122501008D01*
X138580350Y-122485672D01*
X138615400Y-122482482D01*
X138655302Y-122474001D01*
X138708600Y-122474001D01*
X138756324Y-122469658D01*
X138797645Y-122474001D01*
X138797645Y-122474001D01*
G37*
G36*
X136297645Y-122474001D02*
G01*
X136344699Y-122474001D01*
X136390723Y-122483784D01*
X136432047Y-122488127D01*
X136477827Y-122502298D01*
X136529958Y-122513379D01*
X136567226Y-122529972D01*
X136600843Y-122540378D01*
X136648620Y-122566211D01*
X136702981Y-122590414D01*
X136730905Y-122610702D01*
X136756276Y-122624420D01*
X136803082Y-122663141D01*
X136856207Y-122701739D01*
X136875095Y-122722716D01*
X136892419Y-122737048D01*
X136934915Y-122789153D01*
X136982939Y-122842489D01*
X136993903Y-122861479D01*
X137004096Y-122873977D01*
X137038786Y-122939219D01*
X137077637Y-123006512D01*
X137082463Y-123021364D01*
X137087052Y-123029995D01*
X137110471Y-123107562D01*
X137136165Y-123186641D01*
X137137137Y-123195887D01*
X137138122Y-123199150D01*
X137147059Y-123290291D01*
X137151000Y-123327790D01*
X137151000Y-123672211D01*
X137136165Y-123813360D01*
X137109834Y-123894397D01*
X137082152Y-123981663D01*
X137080507Y-123984655D01*
X137077637Y-123993488D01*
X137036081Y-124065466D01*
X136997030Y-124136499D01*
X136990747Y-124143986D01*
X136982939Y-124157511D01*
X136930943Y-124215259D01*
X136883451Y-124271857D01*
X136870882Y-124281962D01*
X136856207Y-124298261D01*
X136798133Y-124340454D01*
X136745742Y-124382577D01*
X136725819Y-124392992D01*
X136702980Y-124409586D01*
X136642985Y-124436298D01*
X136589154Y-124464440D01*
X136561487Y-124472583D01*
X136529957Y-124486621D01*
X136471760Y-124498991D01*
X136419650Y-124514328D01*
X136384600Y-124517518D01*
X136344698Y-124525999D01*
X136291400Y-124525999D01*
X136243676Y-124530342D01*
X136202355Y-124525999D01*
X136155301Y-124525999D01*
X136109277Y-124516216D01*
X136067953Y-124511873D01*
X136022173Y-124497702D01*
X135970042Y-124486621D01*
X135932774Y-124470028D01*
X135899157Y-124459622D01*
X135851380Y-124433789D01*
X135797019Y-124409586D01*
X135769095Y-124389298D01*
X135743724Y-124375580D01*
X135696918Y-124336859D01*
X135643793Y-124298261D01*
X135624905Y-124277284D01*
X135607581Y-124262952D01*
X135565085Y-124210847D01*
X135517061Y-124157511D01*
X135506098Y-124138521D01*
X135495904Y-124126023D01*
X135461210Y-124060773D01*
X135422363Y-123993487D01*
X135417538Y-123978638D01*
X135412948Y-123970005D01*
X135389528Y-123892432D01*
X135363835Y-123813359D01*
X135362863Y-123804113D01*
X135361878Y-123800850D01*
X135352941Y-123709709D01*
X135349000Y-123672210D01*
X135349000Y-123327789D01*
X135363835Y-123186640D01*
X135390166Y-123105603D01*
X135417848Y-123018337D01*
X135419493Y-123015345D01*
X135422363Y-123006512D01*
X135463925Y-122934524D01*
X135502970Y-122863502D01*
X135509251Y-122856017D01*
X135517061Y-122842489D01*
X135569071Y-122784726D01*
X135616550Y-122728143D01*
X135629115Y-122718040D01*
X135643793Y-122701739D01*
X135701874Y-122659541D01*
X135754261Y-122617421D01*
X135774183Y-122607006D01*
X135797020Y-122590414D01*
X135857013Y-122563703D01*
X135910844Y-122535561D01*
X135938511Y-122527418D01*
X135970043Y-122513379D01*
X136028242Y-122501008D01*
X136080350Y-122485672D01*
X136115400Y-122482482D01*
X136155302Y-122474001D01*
X136208600Y-122474001D01*
X136256324Y-122469658D01*
X136297645Y-122474001D01*
X136297645Y-122474001D01*
G37*
G36*
X127797645Y-122474001D02*
G01*
X127844699Y-122474001D01*
X127890723Y-122483784D01*
X127932047Y-122488127D01*
X127977827Y-122502298D01*
X128029958Y-122513379D01*
X128067226Y-122529972D01*
X128100843Y-122540378D01*
X128148620Y-122566211D01*
X128202981Y-122590414D01*
X128230905Y-122610702D01*
X128256276Y-122624420D01*
X128303082Y-122663141D01*
X128356207Y-122701739D01*
X128375095Y-122722716D01*
X128392419Y-122737048D01*
X128434915Y-122789153D01*
X128482939Y-122842489D01*
X128493903Y-122861479D01*
X128504096Y-122873977D01*
X128538786Y-122939219D01*
X128577637Y-123006512D01*
X128582463Y-123021364D01*
X128587052Y-123029995D01*
X128610471Y-123107562D01*
X128636165Y-123186641D01*
X128637137Y-123195887D01*
X128638122Y-123199150D01*
X128647059Y-123290291D01*
X128651000Y-123327790D01*
X128651000Y-123672211D01*
X128636165Y-123813360D01*
X128609834Y-123894397D01*
X128582152Y-123981663D01*
X128580507Y-123984655D01*
X128577637Y-123993488D01*
X128536081Y-124065466D01*
X128497030Y-124136499D01*
X128490747Y-124143986D01*
X128482939Y-124157511D01*
X128430943Y-124215259D01*
X128383451Y-124271857D01*
X128370882Y-124281962D01*
X128356207Y-124298261D01*
X128298133Y-124340454D01*
X128245742Y-124382577D01*
X128225819Y-124392992D01*
X128202980Y-124409586D01*
X128142985Y-124436298D01*
X128089154Y-124464440D01*
X128061487Y-124472583D01*
X128029957Y-124486621D01*
X127971760Y-124498991D01*
X127919650Y-124514328D01*
X127884600Y-124517518D01*
X127844698Y-124525999D01*
X127791400Y-124525999D01*
X127743676Y-124530342D01*
X127702355Y-124525999D01*
X127655301Y-124525999D01*
X127609277Y-124516216D01*
X127567953Y-124511873D01*
X127522173Y-124497702D01*
X127470042Y-124486621D01*
X127432774Y-124470028D01*
X127399157Y-124459622D01*
X127351380Y-124433789D01*
X127297019Y-124409586D01*
X127269095Y-124389298D01*
X127243724Y-124375580D01*
X127196918Y-124336859D01*
X127143793Y-124298261D01*
X127124905Y-124277284D01*
X127107581Y-124262952D01*
X127065085Y-124210847D01*
X127017061Y-124157511D01*
X127006098Y-124138521D01*
X126995904Y-124126023D01*
X126961210Y-124060773D01*
X126922363Y-123993487D01*
X126917538Y-123978638D01*
X126912948Y-123970005D01*
X126889528Y-123892432D01*
X126863835Y-123813359D01*
X126862863Y-123804113D01*
X126861878Y-123800850D01*
X126852941Y-123709709D01*
X126849000Y-123672210D01*
X126849000Y-123327789D01*
X126863835Y-123186640D01*
X126890166Y-123105603D01*
X126917848Y-123018337D01*
X126919493Y-123015345D01*
X126922363Y-123006512D01*
X126963925Y-122934524D01*
X127002970Y-122863502D01*
X127009251Y-122856017D01*
X127017061Y-122842489D01*
X127069071Y-122784726D01*
X127116550Y-122728143D01*
X127129115Y-122718040D01*
X127143793Y-122701739D01*
X127201874Y-122659541D01*
X127254261Y-122617421D01*
X127274183Y-122607006D01*
X127297020Y-122590414D01*
X127357013Y-122563703D01*
X127410844Y-122535561D01*
X127438511Y-122527418D01*
X127470043Y-122513379D01*
X127528242Y-122501008D01*
X127580350Y-122485672D01*
X127615400Y-122482482D01*
X127655302Y-122474001D01*
X127708600Y-122474001D01*
X127756324Y-122469658D01*
X127797645Y-122474001D01*
X127797645Y-122474001D01*
G37*
G36*
X125297645Y-122474001D02*
G01*
X125344699Y-122474001D01*
X125390723Y-122483784D01*
X125432047Y-122488127D01*
X125477827Y-122502298D01*
X125529958Y-122513379D01*
X125567226Y-122529972D01*
X125600843Y-122540378D01*
X125648620Y-122566211D01*
X125702981Y-122590414D01*
X125730905Y-122610702D01*
X125756276Y-122624420D01*
X125803082Y-122663141D01*
X125856207Y-122701739D01*
X125875095Y-122722716D01*
X125892419Y-122737048D01*
X125934915Y-122789153D01*
X125982939Y-122842489D01*
X125993903Y-122861479D01*
X126004096Y-122873977D01*
X126038786Y-122939219D01*
X126077637Y-123006512D01*
X126082463Y-123021364D01*
X126087052Y-123029995D01*
X126110471Y-123107562D01*
X126136165Y-123186641D01*
X126137137Y-123195887D01*
X126138122Y-123199150D01*
X126147059Y-123290291D01*
X126151000Y-123327790D01*
X126151000Y-123672211D01*
X126136165Y-123813360D01*
X126109834Y-123894397D01*
X126082152Y-123981663D01*
X126080507Y-123984655D01*
X126077637Y-123993488D01*
X126036081Y-124065466D01*
X125997030Y-124136499D01*
X125990747Y-124143986D01*
X125982939Y-124157511D01*
X125930943Y-124215259D01*
X125883451Y-124271857D01*
X125870882Y-124281962D01*
X125856207Y-124298261D01*
X125798133Y-124340454D01*
X125745742Y-124382577D01*
X125725819Y-124392992D01*
X125702980Y-124409586D01*
X125642985Y-124436298D01*
X125589154Y-124464440D01*
X125561487Y-124472583D01*
X125529957Y-124486621D01*
X125471760Y-124498991D01*
X125419650Y-124514328D01*
X125384600Y-124517518D01*
X125344698Y-124525999D01*
X125291400Y-124525999D01*
X125243676Y-124530342D01*
X125202355Y-124525999D01*
X125155301Y-124525999D01*
X125109277Y-124516216D01*
X125067953Y-124511873D01*
X125022173Y-124497702D01*
X124970042Y-124486621D01*
X124932774Y-124470028D01*
X124899157Y-124459622D01*
X124851380Y-124433789D01*
X124797019Y-124409586D01*
X124769095Y-124389298D01*
X124743724Y-124375580D01*
X124696918Y-124336859D01*
X124643793Y-124298261D01*
X124624905Y-124277284D01*
X124607581Y-124262952D01*
X124565085Y-124210847D01*
X124517061Y-124157511D01*
X124506098Y-124138521D01*
X124495904Y-124126023D01*
X124461210Y-124060773D01*
X124422363Y-123993487D01*
X124417538Y-123978638D01*
X124412948Y-123970005D01*
X124389528Y-123892432D01*
X124363835Y-123813359D01*
X124362863Y-123804113D01*
X124361878Y-123800850D01*
X124352941Y-123709709D01*
X124349000Y-123672210D01*
X124349000Y-123327789D01*
X124363835Y-123186640D01*
X124390166Y-123105603D01*
X124417848Y-123018337D01*
X124419493Y-123015345D01*
X124422363Y-123006512D01*
X124463925Y-122934524D01*
X124502970Y-122863502D01*
X124509251Y-122856017D01*
X124517061Y-122842489D01*
X124569071Y-122784726D01*
X124616550Y-122728143D01*
X124629115Y-122718040D01*
X124643793Y-122701739D01*
X124701874Y-122659541D01*
X124754261Y-122617421D01*
X124774183Y-122607006D01*
X124797020Y-122590414D01*
X124857013Y-122563703D01*
X124910844Y-122535561D01*
X124938511Y-122527418D01*
X124970043Y-122513379D01*
X125028242Y-122501008D01*
X125080350Y-122485672D01*
X125115400Y-122482482D01*
X125155302Y-122474001D01*
X125208600Y-122474001D01*
X125256324Y-122469658D01*
X125297645Y-122474001D01*
X125297645Y-122474001D01*
G37*
G36*
X116797645Y-122474001D02*
G01*
X116844699Y-122474001D01*
X116890723Y-122483784D01*
X116932047Y-122488127D01*
X116977827Y-122502298D01*
X117029958Y-122513379D01*
X117067226Y-122529972D01*
X117100843Y-122540378D01*
X117148620Y-122566211D01*
X117202981Y-122590414D01*
X117230905Y-122610702D01*
X117256276Y-122624420D01*
X117303082Y-122663141D01*
X117356207Y-122701739D01*
X117375095Y-122722716D01*
X117392419Y-122737048D01*
X117434915Y-122789153D01*
X117482939Y-122842489D01*
X117493903Y-122861479D01*
X117504096Y-122873977D01*
X117538786Y-122939219D01*
X117577637Y-123006512D01*
X117582463Y-123021364D01*
X117587052Y-123029995D01*
X117610471Y-123107562D01*
X117636165Y-123186641D01*
X117637137Y-123195887D01*
X117638122Y-123199150D01*
X117647059Y-123290291D01*
X117651000Y-123327790D01*
X117651000Y-123672211D01*
X117636165Y-123813360D01*
X117609834Y-123894397D01*
X117582152Y-123981663D01*
X117580507Y-123984655D01*
X117577637Y-123993488D01*
X117536081Y-124065466D01*
X117497030Y-124136499D01*
X117490747Y-124143986D01*
X117482939Y-124157511D01*
X117430943Y-124215259D01*
X117383451Y-124271857D01*
X117370882Y-124281962D01*
X117356207Y-124298261D01*
X117298133Y-124340454D01*
X117245742Y-124382577D01*
X117225819Y-124392992D01*
X117202980Y-124409586D01*
X117142985Y-124436298D01*
X117089154Y-124464440D01*
X117061487Y-124472583D01*
X117029957Y-124486621D01*
X116971760Y-124498991D01*
X116919650Y-124514328D01*
X116884600Y-124517518D01*
X116844698Y-124525999D01*
X116791400Y-124525999D01*
X116743676Y-124530342D01*
X116702355Y-124525999D01*
X116655301Y-124525999D01*
X116609277Y-124516216D01*
X116567953Y-124511873D01*
X116522173Y-124497702D01*
X116470042Y-124486621D01*
X116432774Y-124470028D01*
X116399157Y-124459622D01*
X116351380Y-124433789D01*
X116297019Y-124409586D01*
X116269095Y-124389298D01*
X116243724Y-124375580D01*
X116196918Y-124336859D01*
X116143793Y-124298261D01*
X116124905Y-124277284D01*
X116107581Y-124262952D01*
X116065085Y-124210847D01*
X116017061Y-124157511D01*
X116006098Y-124138521D01*
X115995904Y-124126023D01*
X115961210Y-124060773D01*
X115922363Y-123993487D01*
X115917538Y-123978638D01*
X115912948Y-123970005D01*
X115889528Y-123892432D01*
X115863835Y-123813359D01*
X115862863Y-123804113D01*
X115861878Y-123800850D01*
X115852941Y-123709709D01*
X115849000Y-123672210D01*
X115849000Y-123327789D01*
X115863835Y-123186640D01*
X115890166Y-123105603D01*
X115917848Y-123018337D01*
X115919493Y-123015345D01*
X115922363Y-123006512D01*
X115963925Y-122934524D01*
X116002970Y-122863502D01*
X116009251Y-122856017D01*
X116017061Y-122842489D01*
X116069071Y-122784726D01*
X116116550Y-122728143D01*
X116129115Y-122718040D01*
X116143793Y-122701739D01*
X116201874Y-122659541D01*
X116254261Y-122617421D01*
X116274183Y-122607006D01*
X116297020Y-122590414D01*
X116357013Y-122563703D01*
X116410844Y-122535561D01*
X116438511Y-122527418D01*
X116470043Y-122513379D01*
X116528242Y-122501008D01*
X116580350Y-122485672D01*
X116615400Y-122482482D01*
X116655302Y-122474001D01*
X116708600Y-122474001D01*
X116756324Y-122469658D01*
X116797645Y-122474001D01*
X116797645Y-122474001D01*
G37*
G36*
X114297645Y-122474001D02*
G01*
X114344699Y-122474001D01*
X114390723Y-122483784D01*
X114432047Y-122488127D01*
X114477827Y-122502298D01*
X114529958Y-122513379D01*
X114567226Y-122529972D01*
X114600843Y-122540378D01*
X114648620Y-122566211D01*
X114702981Y-122590414D01*
X114730905Y-122610702D01*
X114756276Y-122624420D01*
X114803082Y-122663141D01*
X114856207Y-122701739D01*
X114875095Y-122722716D01*
X114892419Y-122737048D01*
X114934915Y-122789153D01*
X114982939Y-122842489D01*
X114993903Y-122861479D01*
X115004096Y-122873977D01*
X115038786Y-122939219D01*
X115077637Y-123006512D01*
X115082463Y-123021364D01*
X115087052Y-123029995D01*
X115110471Y-123107562D01*
X115136165Y-123186641D01*
X115137137Y-123195887D01*
X115138122Y-123199150D01*
X115147059Y-123290291D01*
X115151000Y-123327790D01*
X115151000Y-123672211D01*
X115136165Y-123813360D01*
X115109834Y-123894397D01*
X115082152Y-123981663D01*
X115080507Y-123984655D01*
X115077637Y-123993488D01*
X115036081Y-124065466D01*
X114997030Y-124136499D01*
X114990747Y-124143986D01*
X114982939Y-124157511D01*
X114930943Y-124215259D01*
X114883451Y-124271857D01*
X114870882Y-124281962D01*
X114856207Y-124298261D01*
X114798133Y-124340454D01*
X114745742Y-124382577D01*
X114725819Y-124392992D01*
X114702980Y-124409586D01*
X114642985Y-124436298D01*
X114589154Y-124464440D01*
X114561487Y-124472583D01*
X114529957Y-124486621D01*
X114471760Y-124498991D01*
X114419650Y-124514328D01*
X114384600Y-124517518D01*
X114344698Y-124525999D01*
X114291400Y-124525999D01*
X114243676Y-124530342D01*
X114202355Y-124525999D01*
X114155301Y-124525999D01*
X114109277Y-124516216D01*
X114067953Y-124511873D01*
X114022173Y-124497702D01*
X113970042Y-124486621D01*
X113932774Y-124470028D01*
X113899157Y-124459622D01*
X113851380Y-124433789D01*
X113797019Y-124409586D01*
X113769095Y-124389298D01*
X113743724Y-124375580D01*
X113696918Y-124336859D01*
X113643793Y-124298261D01*
X113624905Y-124277284D01*
X113607581Y-124262952D01*
X113565085Y-124210847D01*
X113517061Y-124157511D01*
X113506098Y-124138521D01*
X113495904Y-124126023D01*
X113461210Y-124060773D01*
X113422363Y-123993487D01*
X113417538Y-123978638D01*
X113412948Y-123970005D01*
X113389528Y-123892432D01*
X113363835Y-123813359D01*
X113362863Y-123804113D01*
X113361878Y-123800850D01*
X113352941Y-123709709D01*
X113349000Y-123672210D01*
X113349000Y-123327789D01*
X113363835Y-123186640D01*
X113390166Y-123105603D01*
X113417848Y-123018337D01*
X113419493Y-123015345D01*
X113422363Y-123006512D01*
X113463925Y-122934524D01*
X113502970Y-122863502D01*
X113509251Y-122856017D01*
X113517061Y-122842489D01*
X113569071Y-122784726D01*
X113616550Y-122728143D01*
X113629115Y-122718040D01*
X113643793Y-122701739D01*
X113701874Y-122659541D01*
X113754261Y-122617421D01*
X113774183Y-122607006D01*
X113797020Y-122590414D01*
X113857013Y-122563703D01*
X113910844Y-122535561D01*
X113938511Y-122527418D01*
X113970043Y-122513379D01*
X114028242Y-122501008D01*
X114080350Y-122485672D01*
X114115400Y-122482482D01*
X114155302Y-122474001D01*
X114208600Y-122474001D01*
X114256324Y-122469658D01*
X114297645Y-122474001D01*
X114297645Y-122474001D01*
G37*
G36*
X142151000Y-124526000D02*
G01*
X140349000Y-124526000D01*
X140349000Y-122474000D01*
X142151000Y-122474000D01*
X142151000Y-124526000D01*
X142151000Y-124526000D01*
G37*
G36*
X120151000Y-124526000D02*
G01*
X118349000Y-124526000D01*
X118349000Y-122474000D01*
X120151000Y-122474000D01*
X120151000Y-124526000D01*
X120151000Y-124526000D01*
G37*
G36*
X131151000Y-124526000D02*
G01*
X129349000Y-124526000D01*
X129349000Y-122474000D01*
X131151000Y-122474000D01*
X131151000Y-124526000D01*
X131151000Y-124526000D01*
G37*
G36*
X153151000Y-124526000D02*
G01*
X151349000Y-124526000D01*
X151349000Y-122474000D01*
X153151000Y-122474000D01*
X153151000Y-124526000D01*
X153151000Y-124526000D01*
G37*
G36*
X183018360Y-119863835D02*
G01*
X183099397Y-119890166D01*
X183186663Y-119917848D01*
X183189655Y-119919493D01*
X183198488Y-119922363D01*
X183270466Y-119963919D01*
X183341499Y-120002970D01*
X183348986Y-120009253D01*
X183362511Y-120017061D01*
X183420259Y-120069057D01*
X183476857Y-120116549D01*
X183486962Y-120129118D01*
X183503261Y-120143793D01*
X183545454Y-120201867D01*
X183587579Y-120254260D01*
X183597994Y-120274182D01*
X183614586Y-120297019D01*
X183641297Y-120357012D01*
X183669439Y-120410843D01*
X183677582Y-120438510D01*
X183691621Y-120470042D01*
X183703992Y-120528241D01*
X183719328Y-120580349D01*
X183722518Y-120615401D01*
X183730999Y-120655301D01*
X183730999Y-120708592D01*
X183735343Y-120756324D01*
X183730999Y-120797653D01*
X183730999Y-120844699D01*
X183721217Y-120890721D01*
X183716873Y-120932047D01*
X183702702Y-120977827D01*
X183691621Y-121029958D01*
X183675028Y-121067226D01*
X183664622Y-121100843D01*
X183638789Y-121148620D01*
X183614586Y-121202981D01*
X183594298Y-121230905D01*
X183580580Y-121256276D01*
X183541859Y-121303082D01*
X183503261Y-121356207D01*
X183482284Y-121375095D01*
X183467952Y-121392419D01*
X183415845Y-121434917D01*
X183362511Y-121482939D01*
X183343524Y-121493901D01*
X183331025Y-121504095D01*
X183265780Y-121538786D01*
X183198488Y-121577637D01*
X183183636Y-121582463D01*
X183175003Y-121587053D01*
X183097430Y-121610473D01*
X183018360Y-121636165D01*
X183009114Y-121637137D01*
X183005851Y-121638122D01*
X182914710Y-121647059D01*
X182877211Y-121651000D01*
X182782789Y-121651000D01*
X182641640Y-121636165D01*
X182560603Y-121609834D01*
X182473337Y-121582152D01*
X182470345Y-121580507D01*
X182461512Y-121577637D01*
X182389534Y-121536081D01*
X182318501Y-121497030D01*
X182311014Y-121490747D01*
X182297489Y-121482939D01*
X182239741Y-121430943D01*
X182183143Y-121383451D01*
X182173038Y-121370882D01*
X182156739Y-121356207D01*
X182114546Y-121298133D01*
X182072421Y-121245740D01*
X182062006Y-121225818D01*
X182045414Y-121202981D01*
X182018703Y-121142988D01*
X181990561Y-121089157D01*
X181982418Y-121061490D01*
X181968379Y-121029958D01*
X181956008Y-120971759D01*
X181940672Y-120919651D01*
X181937482Y-120884599D01*
X181929001Y-120844699D01*
X181929001Y-120791408D01*
X181924657Y-120743676D01*
X181929001Y-120702347D01*
X181929001Y-120655301D01*
X181938783Y-120609279D01*
X181943127Y-120567953D01*
X181957298Y-120522173D01*
X181968379Y-120470042D01*
X181984972Y-120432774D01*
X181995378Y-120399157D01*
X182021211Y-120351380D01*
X182045414Y-120297019D01*
X182065702Y-120269095D01*
X182079420Y-120243724D01*
X182118141Y-120196918D01*
X182156739Y-120143793D01*
X182177716Y-120124905D01*
X182192048Y-120107581D01*
X182244155Y-120065083D01*
X182297489Y-120017061D01*
X182316476Y-120006099D01*
X182328975Y-119995905D01*
X182394220Y-119961214D01*
X182461512Y-119922363D01*
X182476364Y-119917537D01*
X182484997Y-119912947D01*
X182562570Y-119889527D01*
X182641640Y-119863835D01*
X182650886Y-119862863D01*
X182654149Y-119861878D01*
X182745290Y-119852941D01*
X182782789Y-119849000D01*
X182877211Y-119849000D01*
X183018360Y-119863835D01*
X183018360Y-119863835D01*
G37*
G36*
X188811000Y-121651000D02*
G01*
X187009000Y-121651000D01*
X187009000Y-119849000D01*
X188811000Y-119849000D01*
X188811000Y-121651000D01*
X188811000Y-121651000D01*
G37*
G36*
X175398360Y-119863835D02*
G01*
X175479397Y-119890166D01*
X175566663Y-119917848D01*
X175569655Y-119919493D01*
X175578488Y-119922363D01*
X175650466Y-119963919D01*
X175721499Y-120002970D01*
X175728986Y-120009253D01*
X175742511Y-120017061D01*
X175800259Y-120069057D01*
X175856857Y-120116549D01*
X175866962Y-120129118D01*
X175883261Y-120143793D01*
X175925454Y-120201867D01*
X175967579Y-120254260D01*
X175977994Y-120274182D01*
X175994586Y-120297019D01*
X176021297Y-120357012D01*
X176049439Y-120410843D01*
X176057582Y-120438510D01*
X176071621Y-120470042D01*
X176083992Y-120528241D01*
X176099328Y-120580349D01*
X176102518Y-120615401D01*
X176110999Y-120655301D01*
X176110999Y-120708592D01*
X176115343Y-120756324D01*
X176110999Y-120797653D01*
X176110999Y-120844699D01*
X176101217Y-120890721D01*
X176096873Y-120932047D01*
X176082702Y-120977827D01*
X176071621Y-121029958D01*
X176055028Y-121067226D01*
X176044622Y-121100843D01*
X176018789Y-121148620D01*
X175994586Y-121202981D01*
X175974298Y-121230905D01*
X175960580Y-121256276D01*
X175921859Y-121303082D01*
X175883261Y-121356207D01*
X175862284Y-121375095D01*
X175847952Y-121392419D01*
X175795845Y-121434917D01*
X175742511Y-121482939D01*
X175723524Y-121493901D01*
X175711025Y-121504095D01*
X175645780Y-121538786D01*
X175578488Y-121577637D01*
X175563636Y-121582463D01*
X175555003Y-121587053D01*
X175477430Y-121610473D01*
X175398360Y-121636165D01*
X175389114Y-121637137D01*
X175385851Y-121638122D01*
X175294710Y-121647059D01*
X175257211Y-121651000D01*
X175162789Y-121651000D01*
X175021640Y-121636165D01*
X174940603Y-121609834D01*
X174853337Y-121582152D01*
X174850345Y-121580507D01*
X174841512Y-121577637D01*
X174769534Y-121536081D01*
X174698501Y-121497030D01*
X174691014Y-121490747D01*
X174677489Y-121482939D01*
X174619741Y-121430943D01*
X174563143Y-121383451D01*
X174553038Y-121370882D01*
X174536739Y-121356207D01*
X174494546Y-121298133D01*
X174452421Y-121245740D01*
X174442006Y-121225818D01*
X174425414Y-121202981D01*
X174398703Y-121142988D01*
X174370561Y-121089157D01*
X174362418Y-121061490D01*
X174348379Y-121029958D01*
X174336008Y-120971759D01*
X174320672Y-120919651D01*
X174317482Y-120884599D01*
X174309001Y-120844699D01*
X174309001Y-120791408D01*
X174304657Y-120743676D01*
X174309001Y-120702347D01*
X174309001Y-120655301D01*
X174318783Y-120609279D01*
X174323127Y-120567953D01*
X174337298Y-120522173D01*
X174348379Y-120470042D01*
X174364972Y-120432774D01*
X174375378Y-120399157D01*
X174401211Y-120351380D01*
X174425414Y-120297019D01*
X174445702Y-120269095D01*
X174459420Y-120243724D01*
X174498141Y-120196918D01*
X174536739Y-120143793D01*
X174557716Y-120124905D01*
X174572048Y-120107581D01*
X174624155Y-120065083D01*
X174677489Y-120017061D01*
X174696476Y-120006099D01*
X174708975Y-119995905D01*
X174774220Y-119961214D01*
X174841512Y-119922363D01*
X174856364Y-119917537D01*
X174864997Y-119912947D01*
X174942570Y-119889527D01*
X175021640Y-119863835D01*
X175030886Y-119862863D01*
X175034149Y-119861878D01*
X175125290Y-119852941D01*
X175162789Y-119849000D01*
X175257211Y-119849000D01*
X175398360Y-119863835D01*
X175398360Y-119863835D01*
G37*
G36*
X177938360Y-119863835D02*
G01*
X178019397Y-119890166D01*
X178106663Y-119917848D01*
X178109655Y-119919493D01*
X178118488Y-119922363D01*
X178190466Y-119963919D01*
X178261499Y-120002970D01*
X178268986Y-120009253D01*
X178282511Y-120017061D01*
X178340259Y-120069057D01*
X178396857Y-120116549D01*
X178406962Y-120129118D01*
X178423261Y-120143793D01*
X178465454Y-120201867D01*
X178507579Y-120254260D01*
X178517994Y-120274182D01*
X178534586Y-120297019D01*
X178561297Y-120357012D01*
X178589439Y-120410843D01*
X178597582Y-120438510D01*
X178611621Y-120470042D01*
X178623992Y-120528241D01*
X178639328Y-120580349D01*
X178642518Y-120615401D01*
X178650999Y-120655301D01*
X178650999Y-120708592D01*
X178655343Y-120756324D01*
X178650999Y-120797653D01*
X178650999Y-120844699D01*
X178641217Y-120890721D01*
X178636873Y-120932047D01*
X178622702Y-120977827D01*
X178611621Y-121029958D01*
X178595028Y-121067226D01*
X178584622Y-121100843D01*
X178558789Y-121148620D01*
X178534586Y-121202981D01*
X178514298Y-121230905D01*
X178500580Y-121256276D01*
X178461859Y-121303082D01*
X178423261Y-121356207D01*
X178402284Y-121375095D01*
X178387952Y-121392419D01*
X178335845Y-121434917D01*
X178282511Y-121482939D01*
X178263524Y-121493901D01*
X178251025Y-121504095D01*
X178185780Y-121538786D01*
X178118488Y-121577637D01*
X178103636Y-121582463D01*
X178095003Y-121587053D01*
X178017430Y-121610473D01*
X177938360Y-121636165D01*
X177929114Y-121637137D01*
X177925851Y-121638122D01*
X177834710Y-121647059D01*
X177797211Y-121651000D01*
X177702789Y-121651000D01*
X177561640Y-121636165D01*
X177480603Y-121609834D01*
X177393337Y-121582152D01*
X177390345Y-121580507D01*
X177381512Y-121577637D01*
X177309534Y-121536081D01*
X177238501Y-121497030D01*
X177231014Y-121490747D01*
X177217489Y-121482939D01*
X177159741Y-121430943D01*
X177103143Y-121383451D01*
X177093038Y-121370882D01*
X177076739Y-121356207D01*
X177034546Y-121298133D01*
X176992421Y-121245740D01*
X176982006Y-121225818D01*
X176965414Y-121202981D01*
X176938703Y-121142988D01*
X176910561Y-121089157D01*
X176902418Y-121061490D01*
X176888379Y-121029958D01*
X176876008Y-120971759D01*
X176860672Y-120919651D01*
X176857482Y-120884599D01*
X176849001Y-120844699D01*
X176849001Y-120791408D01*
X176844657Y-120743676D01*
X176849001Y-120702347D01*
X176849001Y-120655301D01*
X176858783Y-120609279D01*
X176863127Y-120567953D01*
X176877298Y-120522173D01*
X176888379Y-120470042D01*
X176904972Y-120432774D01*
X176915378Y-120399157D01*
X176941211Y-120351380D01*
X176965414Y-120297019D01*
X176985702Y-120269095D01*
X176999420Y-120243724D01*
X177038141Y-120196918D01*
X177076739Y-120143793D01*
X177097716Y-120124905D01*
X177112048Y-120107581D01*
X177164155Y-120065083D01*
X177217489Y-120017061D01*
X177236476Y-120006099D01*
X177248975Y-119995905D01*
X177314220Y-119961214D01*
X177381512Y-119922363D01*
X177396364Y-119917537D01*
X177404997Y-119912947D01*
X177482570Y-119889527D01*
X177561640Y-119863835D01*
X177570886Y-119862863D01*
X177574149Y-119861878D01*
X177665290Y-119852941D01*
X177702789Y-119849000D01*
X177797211Y-119849000D01*
X177938360Y-119863835D01*
X177938360Y-119863835D01*
G37*
G36*
X180478360Y-119863835D02*
G01*
X180559397Y-119890166D01*
X180646663Y-119917848D01*
X180649655Y-119919493D01*
X180658488Y-119922363D01*
X180730466Y-119963919D01*
X180801499Y-120002970D01*
X180808986Y-120009253D01*
X180822511Y-120017061D01*
X180880259Y-120069057D01*
X180936857Y-120116549D01*
X180946962Y-120129118D01*
X180963261Y-120143793D01*
X181005454Y-120201867D01*
X181047579Y-120254260D01*
X181057994Y-120274182D01*
X181074586Y-120297019D01*
X181101297Y-120357012D01*
X181129439Y-120410843D01*
X181137582Y-120438510D01*
X181151621Y-120470042D01*
X181163992Y-120528241D01*
X181179328Y-120580349D01*
X181182518Y-120615401D01*
X181190999Y-120655301D01*
X181190999Y-120708592D01*
X181195343Y-120756324D01*
X181190999Y-120797653D01*
X181190999Y-120844699D01*
X181181217Y-120890721D01*
X181176873Y-120932047D01*
X181162702Y-120977827D01*
X181151621Y-121029958D01*
X181135028Y-121067226D01*
X181124622Y-121100843D01*
X181098789Y-121148620D01*
X181074586Y-121202981D01*
X181054298Y-121230905D01*
X181040580Y-121256276D01*
X181001859Y-121303082D01*
X180963261Y-121356207D01*
X180942284Y-121375095D01*
X180927952Y-121392419D01*
X180875845Y-121434917D01*
X180822511Y-121482939D01*
X180803524Y-121493901D01*
X180791025Y-121504095D01*
X180725780Y-121538786D01*
X180658488Y-121577637D01*
X180643636Y-121582463D01*
X180635003Y-121587053D01*
X180557430Y-121610473D01*
X180478360Y-121636165D01*
X180469114Y-121637137D01*
X180465851Y-121638122D01*
X180374710Y-121647059D01*
X180337211Y-121651000D01*
X180242789Y-121651000D01*
X180101640Y-121636165D01*
X180020603Y-121609834D01*
X179933337Y-121582152D01*
X179930345Y-121580507D01*
X179921512Y-121577637D01*
X179849534Y-121536081D01*
X179778501Y-121497030D01*
X179771014Y-121490747D01*
X179757489Y-121482939D01*
X179699741Y-121430943D01*
X179643143Y-121383451D01*
X179633038Y-121370882D01*
X179616739Y-121356207D01*
X179574546Y-121298133D01*
X179532421Y-121245740D01*
X179522006Y-121225818D01*
X179505414Y-121202981D01*
X179478703Y-121142988D01*
X179450561Y-121089157D01*
X179442418Y-121061490D01*
X179428379Y-121029958D01*
X179416008Y-120971759D01*
X179400672Y-120919651D01*
X179397482Y-120884599D01*
X179389001Y-120844699D01*
X179389001Y-120791408D01*
X179384657Y-120743676D01*
X179389001Y-120702347D01*
X179389001Y-120655301D01*
X179398783Y-120609279D01*
X179403127Y-120567953D01*
X179417298Y-120522173D01*
X179428379Y-120470042D01*
X179444972Y-120432774D01*
X179455378Y-120399157D01*
X179481211Y-120351380D01*
X179505414Y-120297019D01*
X179525702Y-120269095D01*
X179539420Y-120243724D01*
X179578141Y-120196918D01*
X179616739Y-120143793D01*
X179637716Y-120124905D01*
X179652048Y-120107581D01*
X179704155Y-120065083D01*
X179757489Y-120017061D01*
X179776476Y-120006099D01*
X179788975Y-119995905D01*
X179854220Y-119961214D01*
X179921512Y-119922363D01*
X179936364Y-119917537D01*
X179944997Y-119912947D01*
X180022570Y-119889527D01*
X180101640Y-119863835D01*
X180110886Y-119862863D01*
X180114149Y-119861878D01*
X180205290Y-119852941D01*
X180242789Y-119849000D01*
X180337211Y-119849000D01*
X180478360Y-119863835D01*
X180478360Y-119863835D01*
G37*
G36*
X185558360Y-119863835D02*
G01*
X185639397Y-119890166D01*
X185726663Y-119917848D01*
X185729655Y-119919493D01*
X185738488Y-119922363D01*
X185810466Y-119963919D01*
X185881499Y-120002970D01*
X185888986Y-120009253D01*
X185902511Y-120017061D01*
X185960259Y-120069057D01*
X186016857Y-120116549D01*
X186026962Y-120129118D01*
X186043261Y-120143793D01*
X186085454Y-120201867D01*
X186127579Y-120254260D01*
X186137994Y-120274182D01*
X186154586Y-120297019D01*
X186181297Y-120357012D01*
X186209439Y-120410843D01*
X186217582Y-120438510D01*
X186231621Y-120470042D01*
X186243992Y-120528241D01*
X186259328Y-120580349D01*
X186262518Y-120615401D01*
X186270999Y-120655301D01*
X186270999Y-120708592D01*
X186275343Y-120756324D01*
X186270999Y-120797653D01*
X186270999Y-120844699D01*
X186261217Y-120890721D01*
X186256873Y-120932047D01*
X186242702Y-120977827D01*
X186231621Y-121029958D01*
X186215028Y-121067226D01*
X186204622Y-121100843D01*
X186178789Y-121148620D01*
X186154586Y-121202981D01*
X186134298Y-121230905D01*
X186120580Y-121256276D01*
X186081859Y-121303082D01*
X186043261Y-121356207D01*
X186022284Y-121375095D01*
X186007952Y-121392419D01*
X185955845Y-121434917D01*
X185902511Y-121482939D01*
X185883524Y-121493901D01*
X185871025Y-121504095D01*
X185805780Y-121538786D01*
X185738488Y-121577637D01*
X185723636Y-121582463D01*
X185715003Y-121587053D01*
X185637430Y-121610473D01*
X185558360Y-121636165D01*
X185549114Y-121637137D01*
X185545851Y-121638122D01*
X185454710Y-121647059D01*
X185417211Y-121651000D01*
X185322789Y-121651000D01*
X185181640Y-121636165D01*
X185100603Y-121609834D01*
X185013337Y-121582152D01*
X185010345Y-121580507D01*
X185001512Y-121577637D01*
X184929534Y-121536081D01*
X184858501Y-121497030D01*
X184851014Y-121490747D01*
X184837489Y-121482939D01*
X184779741Y-121430943D01*
X184723143Y-121383451D01*
X184713038Y-121370882D01*
X184696739Y-121356207D01*
X184654546Y-121298133D01*
X184612421Y-121245740D01*
X184602006Y-121225818D01*
X184585414Y-121202981D01*
X184558703Y-121142988D01*
X184530561Y-121089157D01*
X184522418Y-121061490D01*
X184508379Y-121029958D01*
X184496008Y-120971759D01*
X184480672Y-120919651D01*
X184477482Y-120884599D01*
X184469001Y-120844699D01*
X184469001Y-120791408D01*
X184464657Y-120743676D01*
X184469001Y-120702347D01*
X184469001Y-120655301D01*
X184478783Y-120609279D01*
X184483127Y-120567953D01*
X184497298Y-120522173D01*
X184508379Y-120470042D01*
X184524972Y-120432774D01*
X184535378Y-120399157D01*
X184561211Y-120351380D01*
X184585414Y-120297019D01*
X184605702Y-120269095D01*
X184619420Y-120243724D01*
X184658141Y-120196918D01*
X184696739Y-120143793D01*
X184717716Y-120124905D01*
X184732048Y-120107581D01*
X184784155Y-120065083D01*
X184837489Y-120017061D01*
X184856476Y-120006099D01*
X184868975Y-119995905D01*
X184934220Y-119961214D01*
X185001512Y-119922363D01*
X185016364Y-119917537D01*
X185024997Y-119912947D01*
X185102570Y-119889527D01*
X185181640Y-119863835D01*
X185190886Y-119862863D01*
X185194149Y-119861878D01*
X185285290Y-119852941D01*
X185322789Y-119849000D01*
X185417211Y-119849000D01*
X185558360Y-119863835D01*
X185558360Y-119863835D01*
G37*
G36*
X126228360Y-116113835D02*
G01*
X126309397Y-116140166D01*
X126396663Y-116167848D01*
X126399655Y-116169493D01*
X126408488Y-116172363D01*
X126480466Y-116213919D01*
X126551499Y-116252970D01*
X126558986Y-116259253D01*
X126572511Y-116267061D01*
X126630259Y-116319057D01*
X126686857Y-116366549D01*
X126696962Y-116379118D01*
X126713261Y-116393793D01*
X126755454Y-116451867D01*
X126797579Y-116504260D01*
X126807994Y-116524182D01*
X126824586Y-116547019D01*
X126851297Y-116607012D01*
X126879439Y-116660843D01*
X126887582Y-116688510D01*
X126901621Y-116720042D01*
X126913992Y-116778241D01*
X126929328Y-116830349D01*
X126932518Y-116865401D01*
X126940999Y-116905301D01*
X126940999Y-116958592D01*
X126945343Y-117006324D01*
X126940999Y-117047653D01*
X126940999Y-117094699D01*
X126931217Y-117140721D01*
X126926873Y-117182047D01*
X126912702Y-117227827D01*
X126901621Y-117279958D01*
X126885028Y-117317226D01*
X126874622Y-117350843D01*
X126848789Y-117398620D01*
X126824586Y-117452981D01*
X126804298Y-117480905D01*
X126790580Y-117506276D01*
X126751859Y-117553082D01*
X126713261Y-117606207D01*
X126692284Y-117625095D01*
X126677952Y-117642419D01*
X126625845Y-117684917D01*
X126572511Y-117732939D01*
X126553524Y-117743901D01*
X126541025Y-117754095D01*
X126475780Y-117788786D01*
X126408488Y-117827637D01*
X126393636Y-117832463D01*
X126385003Y-117837053D01*
X126307430Y-117860473D01*
X126228360Y-117886165D01*
X126219114Y-117887137D01*
X126215851Y-117888122D01*
X126124710Y-117897059D01*
X126087211Y-117901000D01*
X125992789Y-117901000D01*
X125851640Y-117886165D01*
X125770603Y-117859834D01*
X125683337Y-117832152D01*
X125680345Y-117830507D01*
X125671512Y-117827637D01*
X125599534Y-117786081D01*
X125528501Y-117747030D01*
X125521014Y-117740747D01*
X125507489Y-117732939D01*
X125449741Y-117680943D01*
X125393143Y-117633451D01*
X125383038Y-117620882D01*
X125366739Y-117606207D01*
X125324546Y-117548133D01*
X125282421Y-117495740D01*
X125272006Y-117475818D01*
X125255414Y-117452981D01*
X125228703Y-117392988D01*
X125200561Y-117339157D01*
X125192418Y-117311490D01*
X125178379Y-117279958D01*
X125166008Y-117221759D01*
X125150672Y-117169651D01*
X125147482Y-117134599D01*
X125139001Y-117094699D01*
X125139001Y-117041408D01*
X125134657Y-116993676D01*
X125139001Y-116952347D01*
X125139001Y-116905301D01*
X125148783Y-116859279D01*
X125153127Y-116817953D01*
X125167298Y-116772173D01*
X125178379Y-116720042D01*
X125194972Y-116682774D01*
X125205378Y-116649157D01*
X125231211Y-116601380D01*
X125255414Y-116547019D01*
X125275702Y-116519095D01*
X125289420Y-116493724D01*
X125328141Y-116446918D01*
X125366739Y-116393793D01*
X125387716Y-116374905D01*
X125402048Y-116357581D01*
X125454155Y-116315083D01*
X125507489Y-116267061D01*
X125526476Y-116256099D01*
X125538975Y-116245905D01*
X125604220Y-116211214D01*
X125671512Y-116172363D01*
X125686364Y-116167537D01*
X125694997Y-116162947D01*
X125772570Y-116139527D01*
X125851640Y-116113835D01*
X125860886Y-116112863D01*
X125864149Y-116111878D01*
X125955290Y-116102941D01*
X125992789Y-116099000D01*
X126087211Y-116099000D01*
X126228360Y-116113835D01*
X126228360Y-116113835D01*
G37*
G36*
X124401000Y-117901000D02*
G01*
X122599000Y-117901000D01*
X122599000Y-116099000D01*
X124401000Y-116099000D01*
X124401000Y-117901000D01*
X124401000Y-117901000D01*
G37*
G36*
X128768360Y-116113835D02*
G01*
X128849397Y-116140166D01*
X128936663Y-116167848D01*
X128939655Y-116169493D01*
X128948488Y-116172363D01*
X129020466Y-116213919D01*
X129091499Y-116252970D01*
X129098986Y-116259253D01*
X129112511Y-116267061D01*
X129170259Y-116319057D01*
X129226857Y-116366549D01*
X129236962Y-116379118D01*
X129253261Y-116393793D01*
X129295454Y-116451867D01*
X129337579Y-116504260D01*
X129347994Y-116524182D01*
X129364586Y-116547019D01*
X129391297Y-116607012D01*
X129419439Y-116660843D01*
X129427582Y-116688510D01*
X129441621Y-116720042D01*
X129453992Y-116778241D01*
X129469328Y-116830349D01*
X129472518Y-116865401D01*
X129480999Y-116905301D01*
X129480999Y-116958592D01*
X129485343Y-117006324D01*
X129480999Y-117047653D01*
X129480999Y-117094699D01*
X129471217Y-117140721D01*
X129466873Y-117182047D01*
X129452702Y-117227827D01*
X129441621Y-117279958D01*
X129425028Y-117317226D01*
X129414622Y-117350843D01*
X129388789Y-117398620D01*
X129364586Y-117452981D01*
X129344298Y-117480905D01*
X129330580Y-117506276D01*
X129291859Y-117553082D01*
X129253261Y-117606207D01*
X129232284Y-117625095D01*
X129217952Y-117642419D01*
X129165845Y-117684917D01*
X129112511Y-117732939D01*
X129093524Y-117743901D01*
X129081025Y-117754095D01*
X129015780Y-117788786D01*
X128948488Y-117827637D01*
X128933636Y-117832463D01*
X128925003Y-117837053D01*
X128847430Y-117860473D01*
X128768360Y-117886165D01*
X128759114Y-117887137D01*
X128755851Y-117888122D01*
X128664710Y-117897059D01*
X128627211Y-117901000D01*
X128532789Y-117901000D01*
X128391640Y-117886165D01*
X128310603Y-117859834D01*
X128223337Y-117832152D01*
X128220345Y-117830507D01*
X128211512Y-117827637D01*
X128139534Y-117786081D01*
X128068501Y-117747030D01*
X128061014Y-117740747D01*
X128047489Y-117732939D01*
X127989741Y-117680943D01*
X127933143Y-117633451D01*
X127923038Y-117620882D01*
X127906739Y-117606207D01*
X127864546Y-117548133D01*
X127822421Y-117495740D01*
X127812006Y-117475818D01*
X127795414Y-117452981D01*
X127768703Y-117392988D01*
X127740561Y-117339157D01*
X127732418Y-117311490D01*
X127718379Y-117279958D01*
X127706008Y-117221759D01*
X127690672Y-117169651D01*
X127687482Y-117134599D01*
X127679001Y-117094699D01*
X127679001Y-117041408D01*
X127674657Y-116993676D01*
X127679001Y-116952347D01*
X127679001Y-116905301D01*
X127688783Y-116859279D01*
X127693127Y-116817953D01*
X127707298Y-116772173D01*
X127718379Y-116720042D01*
X127734972Y-116682774D01*
X127745378Y-116649157D01*
X127771211Y-116601380D01*
X127795414Y-116547019D01*
X127815702Y-116519095D01*
X127829420Y-116493724D01*
X127868141Y-116446918D01*
X127906739Y-116393793D01*
X127927716Y-116374905D01*
X127942048Y-116357581D01*
X127994155Y-116315083D01*
X128047489Y-116267061D01*
X128066476Y-116256099D01*
X128078975Y-116245905D01*
X128144220Y-116211214D01*
X128211512Y-116172363D01*
X128226364Y-116167537D01*
X128234997Y-116162947D01*
X128312570Y-116139527D01*
X128391640Y-116113835D01*
X128400886Y-116112863D01*
X128404149Y-116111878D01*
X128495290Y-116102941D01*
X128532789Y-116099000D01*
X128627211Y-116099000D01*
X128768360Y-116113835D01*
X128768360Y-116113835D01*
G37*
G36*
X179688360Y-116113835D02*
G01*
X179769397Y-116140166D01*
X179856663Y-116167848D01*
X179859655Y-116169493D01*
X179868488Y-116172363D01*
X179940466Y-116213919D01*
X180011499Y-116252970D01*
X180018986Y-116259253D01*
X180032511Y-116267061D01*
X180090259Y-116319057D01*
X180146857Y-116366549D01*
X180156962Y-116379118D01*
X180173261Y-116393793D01*
X180215454Y-116451867D01*
X180257579Y-116504260D01*
X180267994Y-116524182D01*
X180284586Y-116547019D01*
X180311297Y-116607012D01*
X180339439Y-116660843D01*
X180347582Y-116688510D01*
X180361621Y-116720042D01*
X180373992Y-116778241D01*
X180389328Y-116830349D01*
X180392518Y-116865401D01*
X180400999Y-116905301D01*
X180400999Y-116958592D01*
X180405343Y-117006324D01*
X180400999Y-117047653D01*
X180400999Y-117094699D01*
X180391217Y-117140721D01*
X180386873Y-117182047D01*
X180372702Y-117227827D01*
X180361621Y-117279958D01*
X180345028Y-117317226D01*
X180334622Y-117350843D01*
X180308789Y-117398620D01*
X180284586Y-117452981D01*
X180264298Y-117480905D01*
X180250580Y-117506276D01*
X180211859Y-117553082D01*
X180173261Y-117606207D01*
X180152284Y-117625095D01*
X180137952Y-117642419D01*
X180085845Y-117684917D01*
X180032511Y-117732939D01*
X180013524Y-117743901D01*
X180001025Y-117754095D01*
X179935780Y-117788786D01*
X179868488Y-117827637D01*
X179853636Y-117832463D01*
X179845003Y-117837053D01*
X179767430Y-117860473D01*
X179688360Y-117886165D01*
X179679114Y-117887137D01*
X179675851Y-117888122D01*
X179584710Y-117897059D01*
X179547211Y-117901000D01*
X179452789Y-117901000D01*
X179311640Y-117886165D01*
X179230603Y-117859834D01*
X179143337Y-117832152D01*
X179140345Y-117830507D01*
X179131512Y-117827637D01*
X179059534Y-117786081D01*
X178988501Y-117747030D01*
X178981014Y-117740747D01*
X178967489Y-117732939D01*
X178909741Y-117680943D01*
X178853143Y-117633451D01*
X178843038Y-117620882D01*
X178826739Y-117606207D01*
X178784546Y-117548133D01*
X178742421Y-117495740D01*
X178732006Y-117475818D01*
X178715414Y-117452981D01*
X178688703Y-117392988D01*
X178660561Y-117339157D01*
X178652418Y-117311490D01*
X178638379Y-117279958D01*
X178626008Y-117221759D01*
X178610672Y-117169651D01*
X178607482Y-117134599D01*
X178599001Y-117094699D01*
X178599001Y-117041408D01*
X178594657Y-116993676D01*
X178599001Y-116952347D01*
X178599001Y-116905301D01*
X178608783Y-116859279D01*
X178613127Y-116817953D01*
X178627298Y-116772173D01*
X178638379Y-116720042D01*
X178654972Y-116682774D01*
X178665378Y-116649157D01*
X178691211Y-116601380D01*
X178715414Y-116547019D01*
X178735702Y-116519095D01*
X178749420Y-116493724D01*
X178788141Y-116446918D01*
X178826739Y-116393793D01*
X178847716Y-116374905D01*
X178862048Y-116357581D01*
X178914155Y-116315083D01*
X178967489Y-116267061D01*
X178986476Y-116256099D01*
X178998975Y-116245905D01*
X179064220Y-116211214D01*
X179131512Y-116172363D01*
X179146364Y-116167537D01*
X179154997Y-116162947D01*
X179232570Y-116139527D01*
X179311640Y-116113835D01*
X179320886Y-116112863D01*
X179324149Y-116111878D01*
X179415290Y-116102941D01*
X179452789Y-116099000D01*
X179547211Y-116099000D01*
X179688360Y-116113835D01*
X179688360Y-116113835D01*
G37*
G36*
X177148360Y-116113835D02*
G01*
X177229397Y-116140166D01*
X177316663Y-116167848D01*
X177319655Y-116169493D01*
X177328488Y-116172363D01*
X177400466Y-116213919D01*
X177471499Y-116252970D01*
X177478986Y-116259253D01*
X177492511Y-116267061D01*
X177550259Y-116319057D01*
X177606857Y-116366549D01*
X177616962Y-116379118D01*
X177633261Y-116393793D01*
X177675454Y-116451867D01*
X177717579Y-116504260D01*
X177727994Y-116524182D01*
X177744586Y-116547019D01*
X177771297Y-116607012D01*
X177799439Y-116660843D01*
X177807582Y-116688510D01*
X177821621Y-116720042D01*
X177833992Y-116778241D01*
X177849328Y-116830349D01*
X177852518Y-116865401D01*
X177860999Y-116905301D01*
X177860999Y-116958592D01*
X177865343Y-117006324D01*
X177860999Y-117047653D01*
X177860999Y-117094699D01*
X177851217Y-117140721D01*
X177846873Y-117182047D01*
X177832702Y-117227827D01*
X177821621Y-117279958D01*
X177805028Y-117317226D01*
X177794622Y-117350843D01*
X177768789Y-117398620D01*
X177744586Y-117452981D01*
X177724298Y-117480905D01*
X177710580Y-117506276D01*
X177671859Y-117553082D01*
X177633261Y-117606207D01*
X177612284Y-117625095D01*
X177597952Y-117642419D01*
X177545845Y-117684917D01*
X177492511Y-117732939D01*
X177473524Y-117743901D01*
X177461025Y-117754095D01*
X177395780Y-117788786D01*
X177328488Y-117827637D01*
X177313636Y-117832463D01*
X177305003Y-117837053D01*
X177227430Y-117860473D01*
X177148360Y-117886165D01*
X177139114Y-117887137D01*
X177135851Y-117888122D01*
X177044710Y-117897059D01*
X177007211Y-117901000D01*
X176912789Y-117901000D01*
X176771640Y-117886165D01*
X176690603Y-117859834D01*
X176603337Y-117832152D01*
X176600345Y-117830507D01*
X176591512Y-117827637D01*
X176519534Y-117786081D01*
X176448501Y-117747030D01*
X176441014Y-117740747D01*
X176427489Y-117732939D01*
X176369741Y-117680943D01*
X176313143Y-117633451D01*
X176303038Y-117620882D01*
X176286739Y-117606207D01*
X176244546Y-117548133D01*
X176202421Y-117495740D01*
X176192006Y-117475818D01*
X176175414Y-117452981D01*
X176148703Y-117392988D01*
X176120561Y-117339157D01*
X176112418Y-117311490D01*
X176098379Y-117279958D01*
X176086008Y-117221759D01*
X176070672Y-117169651D01*
X176067482Y-117134599D01*
X176059001Y-117094699D01*
X176059001Y-117041408D01*
X176054657Y-116993676D01*
X176059001Y-116952347D01*
X176059001Y-116905301D01*
X176068783Y-116859279D01*
X176073127Y-116817953D01*
X176087298Y-116772173D01*
X176098379Y-116720042D01*
X176114972Y-116682774D01*
X176125378Y-116649157D01*
X176151211Y-116601380D01*
X176175414Y-116547019D01*
X176195702Y-116519095D01*
X176209420Y-116493724D01*
X176248141Y-116446918D01*
X176286739Y-116393793D01*
X176307716Y-116374905D01*
X176322048Y-116357581D01*
X176374155Y-116315083D01*
X176427489Y-116267061D01*
X176446476Y-116256099D01*
X176458975Y-116245905D01*
X176524220Y-116211214D01*
X176591512Y-116172363D01*
X176606364Y-116167537D01*
X176614997Y-116162947D01*
X176692570Y-116139527D01*
X176771640Y-116113835D01*
X176780886Y-116112863D01*
X176784149Y-116111878D01*
X176875290Y-116102941D01*
X176912789Y-116099000D01*
X177007211Y-116099000D01*
X177148360Y-116113835D01*
X177148360Y-116113835D01*
G37*
G36*
X174608360Y-116113835D02*
G01*
X174689397Y-116140166D01*
X174776663Y-116167848D01*
X174779655Y-116169493D01*
X174788488Y-116172363D01*
X174860466Y-116213919D01*
X174931499Y-116252970D01*
X174938986Y-116259253D01*
X174952511Y-116267061D01*
X175010259Y-116319057D01*
X175066857Y-116366549D01*
X175076962Y-116379118D01*
X175093261Y-116393793D01*
X175135454Y-116451867D01*
X175177579Y-116504260D01*
X175187994Y-116524182D01*
X175204586Y-116547019D01*
X175231297Y-116607012D01*
X175259439Y-116660843D01*
X175267582Y-116688510D01*
X175281621Y-116720042D01*
X175293992Y-116778241D01*
X175309328Y-116830349D01*
X175312518Y-116865401D01*
X175320999Y-116905301D01*
X175320999Y-116958592D01*
X175325343Y-117006324D01*
X175320999Y-117047653D01*
X175320999Y-117094699D01*
X175311217Y-117140721D01*
X175306873Y-117182047D01*
X175292702Y-117227827D01*
X175281621Y-117279958D01*
X175265028Y-117317226D01*
X175254622Y-117350843D01*
X175228789Y-117398620D01*
X175204586Y-117452981D01*
X175184298Y-117480905D01*
X175170580Y-117506276D01*
X175131859Y-117553082D01*
X175093261Y-117606207D01*
X175072284Y-117625095D01*
X175057952Y-117642419D01*
X175005845Y-117684917D01*
X174952511Y-117732939D01*
X174933524Y-117743901D01*
X174921025Y-117754095D01*
X174855780Y-117788786D01*
X174788488Y-117827637D01*
X174773636Y-117832463D01*
X174765003Y-117837053D01*
X174687430Y-117860473D01*
X174608360Y-117886165D01*
X174599114Y-117887137D01*
X174595851Y-117888122D01*
X174504710Y-117897059D01*
X174467211Y-117901000D01*
X174372789Y-117901000D01*
X174231640Y-117886165D01*
X174150603Y-117859834D01*
X174063337Y-117832152D01*
X174060345Y-117830507D01*
X174051512Y-117827637D01*
X173979534Y-117786081D01*
X173908501Y-117747030D01*
X173901014Y-117740747D01*
X173887489Y-117732939D01*
X173829741Y-117680943D01*
X173773143Y-117633451D01*
X173763038Y-117620882D01*
X173746739Y-117606207D01*
X173704546Y-117548133D01*
X173662421Y-117495740D01*
X173652006Y-117475818D01*
X173635414Y-117452981D01*
X173608703Y-117392988D01*
X173580561Y-117339157D01*
X173572418Y-117311490D01*
X173558379Y-117279958D01*
X173546008Y-117221759D01*
X173530672Y-117169651D01*
X173527482Y-117134599D01*
X173519001Y-117094699D01*
X173519001Y-117041408D01*
X173514657Y-116993676D01*
X173519001Y-116952347D01*
X173519001Y-116905301D01*
X173528783Y-116859279D01*
X173533127Y-116817953D01*
X173547298Y-116772173D01*
X173558379Y-116720042D01*
X173574972Y-116682774D01*
X173585378Y-116649157D01*
X173611211Y-116601380D01*
X173635414Y-116547019D01*
X173655702Y-116519095D01*
X173669420Y-116493724D01*
X173708141Y-116446918D01*
X173746739Y-116393793D01*
X173767716Y-116374905D01*
X173782048Y-116357581D01*
X173834155Y-116315083D01*
X173887489Y-116267061D01*
X173906476Y-116256099D01*
X173918975Y-116245905D01*
X173984220Y-116211214D01*
X174051512Y-116172363D01*
X174066364Y-116167537D01*
X174074997Y-116162947D01*
X174152570Y-116139527D01*
X174231640Y-116113835D01*
X174240886Y-116112863D01*
X174244149Y-116111878D01*
X174335290Y-116102941D01*
X174372789Y-116099000D01*
X174467211Y-116099000D01*
X174608360Y-116113835D01*
X174608360Y-116113835D01*
G37*
G36*
X169528360Y-116113835D02*
G01*
X169609397Y-116140166D01*
X169696663Y-116167848D01*
X169699655Y-116169493D01*
X169708488Y-116172363D01*
X169780466Y-116213919D01*
X169851499Y-116252970D01*
X169858986Y-116259253D01*
X169872511Y-116267061D01*
X169930259Y-116319057D01*
X169986857Y-116366549D01*
X169996962Y-116379118D01*
X170013261Y-116393793D01*
X170055454Y-116451867D01*
X170097579Y-116504260D01*
X170107994Y-116524182D01*
X170124586Y-116547019D01*
X170151297Y-116607012D01*
X170179439Y-116660843D01*
X170187582Y-116688510D01*
X170201621Y-116720042D01*
X170213992Y-116778241D01*
X170229328Y-116830349D01*
X170232518Y-116865401D01*
X170240999Y-116905301D01*
X170240999Y-116958592D01*
X170245343Y-117006324D01*
X170240999Y-117047653D01*
X170240999Y-117094699D01*
X170231217Y-117140721D01*
X170226873Y-117182047D01*
X170212702Y-117227827D01*
X170201621Y-117279958D01*
X170185028Y-117317226D01*
X170174622Y-117350843D01*
X170148789Y-117398620D01*
X170124586Y-117452981D01*
X170104298Y-117480905D01*
X170090580Y-117506276D01*
X170051859Y-117553082D01*
X170013261Y-117606207D01*
X169992284Y-117625095D01*
X169977952Y-117642419D01*
X169925845Y-117684917D01*
X169872511Y-117732939D01*
X169853524Y-117743901D01*
X169841025Y-117754095D01*
X169775780Y-117788786D01*
X169708488Y-117827637D01*
X169693636Y-117832463D01*
X169685003Y-117837053D01*
X169607430Y-117860473D01*
X169528360Y-117886165D01*
X169519114Y-117887137D01*
X169515851Y-117888122D01*
X169424710Y-117897059D01*
X169387211Y-117901000D01*
X169292789Y-117901000D01*
X169151640Y-117886165D01*
X169070603Y-117859834D01*
X168983337Y-117832152D01*
X168980345Y-117830507D01*
X168971512Y-117827637D01*
X168899534Y-117786081D01*
X168828501Y-117747030D01*
X168821014Y-117740747D01*
X168807489Y-117732939D01*
X168749741Y-117680943D01*
X168693143Y-117633451D01*
X168683038Y-117620882D01*
X168666739Y-117606207D01*
X168624546Y-117548133D01*
X168582421Y-117495740D01*
X168572006Y-117475818D01*
X168555414Y-117452981D01*
X168528703Y-117392988D01*
X168500561Y-117339157D01*
X168492418Y-117311490D01*
X168478379Y-117279958D01*
X168466008Y-117221759D01*
X168450672Y-117169651D01*
X168447482Y-117134599D01*
X168439001Y-117094699D01*
X168439001Y-117041408D01*
X168434657Y-116993676D01*
X168439001Y-116952347D01*
X168439001Y-116905301D01*
X168448783Y-116859279D01*
X168453127Y-116817953D01*
X168467298Y-116772173D01*
X168478379Y-116720042D01*
X168494972Y-116682774D01*
X168505378Y-116649157D01*
X168531211Y-116601380D01*
X168555414Y-116547019D01*
X168575702Y-116519095D01*
X168589420Y-116493724D01*
X168628141Y-116446918D01*
X168666739Y-116393793D01*
X168687716Y-116374905D01*
X168702048Y-116357581D01*
X168754155Y-116315083D01*
X168807489Y-116267061D01*
X168826476Y-116256099D01*
X168838975Y-116245905D01*
X168904220Y-116211214D01*
X168971512Y-116172363D01*
X168986364Y-116167537D01*
X168994997Y-116162947D01*
X169072570Y-116139527D01*
X169151640Y-116113835D01*
X169160886Y-116112863D01*
X169164149Y-116111878D01*
X169255290Y-116102941D01*
X169292789Y-116099000D01*
X169387211Y-116099000D01*
X169528360Y-116113835D01*
X169528360Y-116113835D01*
G37*
G36*
X167701000Y-117901000D02*
G01*
X165899000Y-117901000D01*
X165899000Y-116099000D01*
X167701000Y-116099000D01*
X167701000Y-117901000D01*
X167701000Y-117901000D01*
G37*
G36*
X172068360Y-116113835D02*
G01*
X172149397Y-116140166D01*
X172236663Y-116167848D01*
X172239655Y-116169493D01*
X172248488Y-116172363D01*
X172320466Y-116213919D01*
X172391499Y-116252970D01*
X172398986Y-116259253D01*
X172412511Y-116267061D01*
X172470259Y-116319057D01*
X172526857Y-116366549D01*
X172536962Y-116379118D01*
X172553261Y-116393793D01*
X172595454Y-116451867D01*
X172637579Y-116504260D01*
X172647994Y-116524182D01*
X172664586Y-116547019D01*
X172691297Y-116607012D01*
X172719439Y-116660843D01*
X172727582Y-116688510D01*
X172741621Y-116720042D01*
X172753992Y-116778241D01*
X172769328Y-116830349D01*
X172772518Y-116865401D01*
X172780999Y-116905301D01*
X172780999Y-116958592D01*
X172785343Y-117006324D01*
X172780999Y-117047653D01*
X172780999Y-117094699D01*
X172771217Y-117140721D01*
X172766873Y-117182047D01*
X172752702Y-117227827D01*
X172741621Y-117279958D01*
X172725028Y-117317226D01*
X172714622Y-117350843D01*
X172688789Y-117398620D01*
X172664586Y-117452981D01*
X172644298Y-117480905D01*
X172630580Y-117506276D01*
X172591859Y-117553082D01*
X172553261Y-117606207D01*
X172532284Y-117625095D01*
X172517952Y-117642419D01*
X172465845Y-117684917D01*
X172412511Y-117732939D01*
X172393524Y-117743901D01*
X172381025Y-117754095D01*
X172315780Y-117788786D01*
X172248488Y-117827637D01*
X172233636Y-117832463D01*
X172225003Y-117837053D01*
X172147430Y-117860473D01*
X172068360Y-117886165D01*
X172059114Y-117887137D01*
X172055851Y-117888122D01*
X171964710Y-117897059D01*
X171927211Y-117901000D01*
X171832789Y-117901000D01*
X171691640Y-117886165D01*
X171610603Y-117859834D01*
X171523337Y-117832152D01*
X171520345Y-117830507D01*
X171511512Y-117827637D01*
X171439534Y-117786081D01*
X171368501Y-117747030D01*
X171361014Y-117740747D01*
X171347489Y-117732939D01*
X171289741Y-117680943D01*
X171233143Y-117633451D01*
X171223038Y-117620882D01*
X171206739Y-117606207D01*
X171164546Y-117548133D01*
X171122421Y-117495740D01*
X171112006Y-117475818D01*
X171095414Y-117452981D01*
X171068703Y-117392988D01*
X171040561Y-117339157D01*
X171032418Y-117311490D01*
X171018379Y-117279958D01*
X171006008Y-117221759D01*
X170990672Y-117169651D01*
X170987482Y-117134599D01*
X170979001Y-117094699D01*
X170979001Y-117041408D01*
X170974657Y-116993676D01*
X170979001Y-116952347D01*
X170979001Y-116905301D01*
X170988783Y-116859279D01*
X170993127Y-116817953D01*
X171007298Y-116772173D01*
X171018379Y-116720042D01*
X171034972Y-116682774D01*
X171045378Y-116649157D01*
X171071211Y-116601380D01*
X171095414Y-116547019D01*
X171115702Y-116519095D01*
X171129420Y-116493724D01*
X171168141Y-116446918D01*
X171206739Y-116393793D01*
X171227716Y-116374905D01*
X171242048Y-116357581D01*
X171294155Y-116315083D01*
X171347489Y-116267061D01*
X171366476Y-116256099D01*
X171378975Y-116245905D01*
X171444220Y-116211214D01*
X171511512Y-116172363D01*
X171526364Y-116167537D01*
X171534997Y-116162947D01*
X171612570Y-116139527D01*
X171691640Y-116113835D01*
X171700886Y-116112863D01*
X171704149Y-116111878D01*
X171795290Y-116102941D01*
X171832789Y-116099000D01*
X171927211Y-116099000D01*
X172068360Y-116113835D01*
X172068360Y-116113835D01*
G37*
G36*
X140478360Y-115863835D02*
G01*
X140559397Y-115890166D01*
X140646663Y-115917848D01*
X140649655Y-115919493D01*
X140658488Y-115922363D01*
X140730466Y-115963919D01*
X140801499Y-116002970D01*
X140808986Y-116009253D01*
X140822511Y-116017061D01*
X140880259Y-116069057D01*
X140936857Y-116116549D01*
X140946962Y-116129118D01*
X140963261Y-116143793D01*
X141005454Y-116201867D01*
X141047579Y-116254260D01*
X141057994Y-116274182D01*
X141074586Y-116297019D01*
X141101297Y-116357012D01*
X141129439Y-116410843D01*
X141137582Y-116438510D01*
X141151621Y-116470042D01*
X141163992Y-116528241D01*
X141179328Y-116580349D01*
X141182518Y-116615401D01*
X141190999Y-116655301D01*
X141190999Y-116708592D01*
X141195343Y-116756324D01*
X141190999Y-116797653D01*
X141190999Y-116844699D01*
X141181217Y-116890721D01*
X141176873Y-116932047D01*
X141162702Y-116977827D01*
X141151621Y-117029958D01*
X141135028Y-117067226D01*
X141124622Y-117100843D01*
X141098789Y-117148620D01*
X141074586Y-117202981D01*
X141054298Y-117230905D01*
X141040580Y-117256276D01*
X141001859Y-117303082D01*
X140963261Y-117356207D01*
X140942284Y-117375095D01*
X140927952Y-117392419D01*
X140875845Y-117434917D01*
X140822511Y-117482939D01*
X140803524Y-117493901D01*
X140791025Y-117504095D01*
X140725780Y-117538786D01*
X140658488Y-117577637D01*
X140643636Y-117582463D01*
X140635003Y-117587053D01*
X140557430Y-117610473D01*
X140478360Y-117636165D01*
X140469114Y-117637137D01*
X140465851Y-117638122D01*
X140374710Y-117647059D01*
X140337211Y-117651000D01*
X140242789Y-117651000D01*
X140101640Y-117636165D01*
X140020603Y-117609834D01*
X139933337Y-117582152D01*
X139930345Y-117580507D01*
X139921512Y-117577637D01*
X139849534Y-117536081D01*
X139778501Y-117497030D01*
X139771014Y-117490747D01*
X139757489Y-117482939D01*
X139699741Y-117430943D01*
X139643143Y-117383451D01*
X139633038Y-117370882D01*
X139616739Y-117356207D01*
X139574546Y-117298133D01*
X139532421Y-117245740D01*
X139522006Y-117225818D01*
X139505414Y-117202981D01*
X139478703Y-117142988D01*
X139450561Y-117089157D01*
X139442418Y-117061490D01*
X139428379Y-117029958D01*
X139416008Y-116971759D01*
X139400672Y-116919651D01*
X139397482Y-116884599D01*
X139389001Y-116844699D01*
X139389001Y-116791408D01*
X139384657Y-116743676D01*
X139389001Y-116702347D01*
X139389001Y-116655301D01*
X139398783Y-116609279D01*
X139403127Y-116567953D01*
X139417298Y-116522173D01*
X139428379Y-116470042D01*
X139444972Y-116432774D01*
X139455378Y-116399157D01*
X139481211Y-116351380D01*
X139505414Y-116297019D01*
X139525702Y-116269095D01*
X139539420Y-116243724D01*
X139578141Y-116196918D01*
X139616739Y-116143793D01*
X139637716Y-116124905D01*
X139652048Y-116107581D01*
X139704155Y-116065083D01*
X139757489Y-116017061D01*
X139776476Y-116006099D01*
X139788975Y-115995905D01*
X139854220Y-115961214D01*
X139921512Y-115922363D01*
X139936364Y-115917537D01*
X139944997Y-115912947D01*
X140022570Y-115889527D01*
X140101640Y-115863835D01*
X140110886Y-115862863D01*
X140114149Y-115861878D01*
X140205290Y-115852941D01*
X140242789Y-115849000D01*
X140337211Y-115849000D01*
X140478360Y-115863835D01*
X140478360Y-115863835D01*
G37*
G36*
X137938360Y-115863835D02*
G01*
X138019397Y-115890166D01*
X138106663Y-115917848D01*
X138109655Y-115919493D01*
X138118488Y-115922363D01*
X138190466Y-115963919D01*
X138261499Y-116002970D01*
X138268986Y-116009253D01*
X138282511Y-116017061D01*
X138340259Y-116069057D01*
X138396857Y-116116549D01*
X138406962Y-116129118D01*
X138423261Y-116143793D01*
X138465454Y-116201867D01*
X138507579Y-116254260D01*
X138517994Y-116274182D01*
X138534586Y-116297019D01*
X138561297Y-116357012D01*
X138589439Y-116410843D01*
X138597582Y-116438510D01*
X138611621Y-116470042D01*
X138623992Y-116528241D01*
X138639328Y-116580349D01*
X138642518Y-116615401D01*
X138650999Y-116655301D01*
X138650999Y-116708592D01*
X138655343Y-116756324D01*
X138650999Y-116797653D01*
X138650999Y-116844699D01*
X138641217Y-116890721D01*
X138636873Y-116932047D01*
X138622702Y-116977827D01*
X138611621Y-117029958D01*
X138595028Y-117067226D01*
X138584622Y-117100843D01*
X138558789Y-117148620D01*
X138534586Y-117202981D01*
X138514298Y-117230905D01*
X138500580Y-117256276D01*
X138461859Y-117303082D01*
X138423261Y-117356207D01*
X138402284Y-117375095D01*
X138387952Y-117392419D01*
X138335845Y-117434917D01*
X138282511Y-117482939D01*
X138263524Y-117493901D01*
X138251025Y-117504095D01*
X138185780Y-117538786D01*
X138118488Y-117577637D01*
X138103636Y-117582463D01*
X138095003Y-117587053D01*
X138017430Y-117610473D01*
X137938360Y-117636165D01*
X137929114Y-117637137D01*
X137925851Y-117638122D01*
X137834710Y-117647059D01*
X137797211Y-117651000D01*
X137702789Y-117651000D01*
X137561640Y-117636165D01*
X137480603Y-117609834D01*
X137393337Y-117582152D01*
X137390345Y-117580507D01*
X137381512Y-117577637D01*
X137309534Y-117536081D01*
X137238501Y-117497030D01*
X137231014Y-117490747D01*
X137217489Y-117482939D01*
X137159741Y-117430943D01*
X137103143Y-117383451D01*
X137093038Y-117370882D01*
X137076739Y-117356207D01*
X137034546Y-117298133D01*
X136992421Y-117245740D01*
X136982006Y-117225818D01*
X136965414Y-117202981D01*
X136938703Y-117142988D01*
X136910561Y-117089157D01*
X136902418Y-117061490D01*
X136888379Y-117029958D01*
X136876008Y-116971759D01*
X136860672Y-116919651D01*
X136857482Y-116884599D01*
X136849001Y-116844699D01*
X136849001Y-116791408D01*
X136844657Y-116743676D01*
X136849001Y-116702347D01*
X136849001Y-116655301D01*
X136858783Y-116609279D01*
X136863127Y-116567953D01*
X136877298Y-116522173D01*
X136888379Y-116470042D01*
X136904972Y-116432774D01*
X136915378Y-116399157D01*
X136941211Y-116351380D01*
X136965414Y-116297019D01*
X136985702Y-116269095D01*
X136999420Y-116243724D01*
X137038141Y-116196918D01*
X137076739Y-116143793D01*
X137097716Y-116124905D01*
X137112048Y-116107581D01*
X137164155Y-116065083D01*
X137217489Y-116017061D01*
X137236476Y-116006099D01*
X137248975Y-115995905D01*
X137314220Y-115961214D01*
X137381512Y-115922363D01*
X137396364Y-115917537D01*
X137404997Y-115912947D01*
X137482570Y-115889527D01*
X137561640Y-115863835D01*
X137570886Y-115862863D01*
X137574149Y-115861878D01*
X137665290Y-115852941D01*
X137702789Y-115849000D01*
X137797211Y-115849000D01*
X137938360Y-115863835D01*
X137938360Y-115863835D01*
G37*
G36*
X135398360Y-115863835D02*
G01*
X135479397Y-115890166D01*
X135566663Y-115917848D01*
X135569655Y-115919493D01*
X135578488Y-115922363D01*
X135650466Y-115963919D01*
X135721499Y-116002970D01*
X135728986Y-116009253D01*
X135742511Y-116017061D01*
X135800259Y-116069057D01*
X135856857Y-116116549D01*
X135866962Y-116129118D01*
X135883261Y-116143793D01*
X135925454Y-116201867D01*
X135967579Y-116254260D01*
X135977994Y-116274182D01*
X135994586Y-116297019D01*
X136021297Y-116357012D01*
X136049439Y-116410843D01*
X136057582Y-116438510D01*
X136071621Y-116470042D01*
X136083992Y-116528241D01*
X136099328Y-116580349D01*
X136102518Y-116615401D01*
X136110999Y-116655301D01*
X136110999Y-116708592D01*
X136115343Y-116756324D01*
X136110999Y-116797653D01*
X136110999Y-116844699D01*
X136101217Y-116890721D01*
X136096873Y-116932047D01*
X136082702Y-116977827D01*
X136071621Y-117029958D01*
X136055028Y-117067226D01*
X136044622Y-117100843D01*
X136018789Y-117148620D01*
X135994586Y-117202981D01*
X135974298Y-117230905D01*
X135960580Y-117256276D01*
X135921859Y-117303082D01*
X135883261Y-117356207D01*
X135862284Y-117375095D01*
X135847952Y-117392419D01*
X135795845Y-117434917D01*
X135742511Y-117482939D01*
X135723524Y-117493901D01*
X135711025Y-117504095D01*
X135645780Y-117538786D01*
X135578488Y-117577637D01*
X135563636Y-117582463D01*
X135555003Y-117587053D01*
X135477430Y-117610473D01*
X135398360Y-117636165D01*
X135389114Y-117637137D01*
X135385851Y-117638122D01*
X135294710Y-117647059D01*
X135257211Y-117651000D01*
X135162789Y-117651000D01*
X135021640Y-117636165D01*
X134940603Y-117609834D01*
X134853337Y-117582152D01*
X134850345Y-117580507D01*
X134841512Y-117577637D01*
X134769534Y-117536081D01*
X134698501Y-117497030D01*
X134691014Y-117490747D01*
X134677489Y-117482939D01*
X134619741Y-117430943D01*
X134563143Y-117383451D01*
X134553038Y-117370882D01*
X134536739Y-117356207D01*
X134494546Y-117298133D01*
X134452421Y-117245740D01*
X134442006Y-117225818D01*
X134425414Y-117202981D01*
X134398703Y-117142988D01*
X134370561Y-117089157D01*
X134362418Y-117061490D01*
X134348379Y-117029958D01*
X134336008Y-116971759D01*
X134320672Y-116919651D01*
X134317482Y-116884599D01*
X134309001Y-116844699D01*
X134309001Y-116791408D01*
X134304657Y-116743676D01*
X134309001Y-116702347D01*
X134309001Y-116655301D01*
X134318783Y-116609279D01*
X134323127Y-116567953D01*
X134337298Y-116522173D01*
X134348379Y-116470042D01*
X134364972Y-116432774D01*
X134375378Y-116399157D01*
X134401211Y-116351380D01*
X134425414Y-116297019D01*
X134445702Y-116269095D01*
X134459420Y-116243724D01*
X134498141Y-116196918D01*
X134536739Y-116143793D01*
X134557716Y-116124905D01*
X134572048Y-116107581D01*
X134624155Y-116065083D01*
X134677489Y-116017061D01*
X134696476Y-116006099D01*
X134708975Y-115995905D01*
X134774220Y-115961214D01*
X134841512Y-115922363D01*
X134856364Y-115917537D01*
X134864997Y-115912947D01*
X134942570Y-115889527D01*
X135021640Y-115863835D01*
X135030886Y-115862863D01*
X135034149Y-115861878D01*
X135125290Y-115852941D01*
X135162789Y-115849000D01*
X135257211Y-115849000D01*
X135398360Y-115863835D01*
X135398360Y-115863835D01*
G37*
G36*
X143731000Y-117651000D02*
G01*
X141929000Y-117651000D01*
X141929000Y-115849000D01*
X143731000Y-115849000D01*
X143731000Y-117651000D01*
X143731000Y-117651000D01*
G37*
G36*
X117150125Y-115963205D02*
G01*
X117211354Y-115998556D01*
X117253153Y-116048371D01*
X117286000Y-116170957D01*
X117286000Y-117334563D01*
X117271795Y-117415125D01*
X117236444Y-117476354D01*
X117186630Y-117518153D01*
X117064043Y-117551000D01*
X116430437Y-117551000D01*
X116349875Y-117536795D01*
X116288646Y-117501444D01*
X116246847Y-117451630D01*
X116214000Y-117329043D01*
X116214000Y-116165437D01*
X116228205Y-116084875D01*
X116263556Y-116023646D01*
X116313371Y-115981847D01*
X116435957Y-115949000D01*
X117069563Y-115949000D01*
X117150125Y-115963205D01*
X117150125Y-115963205D01*
G37*
G36*
X119060125Y-115963205D02*
G01*
X119121354Y-115998556D01*
X119163153Y-116048371D01*
X119196000Y-116170957D01*
X119196000Y-117334563D01*
X119181795Y-117415125D01*
X119146444Y-117476354D01*
X119096630Y-117518153D01*
X118974043Y-117551000D01*
X118340437Y-117551000D01*
X118259875Y-117536795D01*
X118198646Y-117501444D01*
X118156847Y-117451630D01*
X118124000Y-117329043D01*
X118124000Y-116165437D01*
X118138205Y-116084875D01*
X118173556Y-116023646D01*
X118223371Y-115981847D01*
X118345957Y-115949000D01*
X118979563Y-115949000D01*
X119060125Y-115963205D01*
X119060125Y-115963205D01*
G37*
G36*
X157763940Y-116108135D02*
G01*
X157784742Y-116124724D01*
X157799450Y-116155267D01*
X157801000Y-116169022D01*
X157801000Y-117323916D01*
X157791865Y-117363940D01*
X157775276Y-117384742D01*
X157744733Y-117399450D01*
X157730978Y-117401000D01*
X157376084Y-117401000D01*
X157336060Y-117391865D01*
X157315258Y-117375276D01*
X157300550Y-117344733D01*
X157299000Y-117330978D01*
X157299000Y-116176084D01*
X157308135Y-116136060D01*
X157324724Y-116115258D01*
X157355267Y-116100550D01*
X157369022Y-116099000D01*
X157723916Y-116099000D01*
X157763940Y-116108135D01*
X157763940Y-116108135D01*
G37*
G36*
X159663940Y-116108135D02*
G01*
X159684742Y-116124724D01*
X159699450Y-116155267D01*
X159701000Y-116169022D01*
X159701000Y-117323916D01*
X159691865Y-117363940D01*
X159675276Y-117384742D01*
X159644733Y-117399450D01*
X159630978Y-117401000D01*
X159276084Y-117401000D01*
X159236060Y-117391865D01*
X159215258Y-117375276D01*
X159200550Y-117344733D01*
X159199000Y-117330978D01*
X159199000Y-116176084D01*
X159208135Y-116136060D01*
X159224724Y-116115258D01*
X159255267Y-116100550D01*
X159269022Y-116099000D01*
X159623916Y-116099000D01*
X159663940Y-116108135D01*
X159663940Y-116108135D01*
G37*
G36*
X158713940Y-116108135D02*
G01*
X158734742Y-116124724D01*
X158749450Y-116155267D01*
X158751000Y-116169022D01*
X158751000Y-117323916D01*
X158741865Y-117363940D01*
X158725276Y-117384742D01*
X158694733Y-117399450D01*
X158680978Y-117401000D01*
X158326084Y-117401000D01*
X158286060Y-117391865D01*
X158265258Y-117375276D01*
X158250550Y-117344733D01*
X158249000Y-117330978D01*
X158249000Y-116176084D01*
X158258135Y-116136060D01*
X158274724Y-116115258D01*
X158305267Y-116100550D01*
X158319022Y-116099000D01*
X158673916Y-116099000D01*
X158713940Y-116108135D01*
X158713940Y-116108135D01*
G37*
G36*
X115111414Y-116212787D02*
G01*
X115165184Y-116246079D01*
X115201485Y-116294149D01*
X115223500Y-116387752D01*
X115223500Y-117115165D01*
X115209713Y-117188914D01*
X115176421Y-117242684D01*
X115128351Y-117278985D01*
X115034748Y-117301000D01*
X114462335Y-117301000D01*
X114388586Y-117287213D01*
X114334816Y-117253921D01*
X114298515Y-117205851D01*
X114276500Y-117112248D01*
X114276500Y-116384835D01*
X114290287Y-116311086D01*
X114323579Y-116257316D01*
X114371649Y-116221015D01*
X114465252Y-116199000D01*
X115037665Y-116199000D01*
X115111414Y-116212787D01*
X115111414Y-116212787D01*
G37*
G36*
X113186414Y-116212787D02*
G01*
X113240184Y-116246079D01*
X113276485Y-116294149D01*
X113298500Y-116387752D01*
X113298500Y-117115165D01*
X113284713Y-117188914D01*
X113251421Y-117242684D01*
X113203351Y-117278985D01*
X113109748Y-117301000D01*
X112537335Y-117301000D01*
X112463586Y-117287213D01*
X112409816Y-117253921D01*
X112373515Y-117205851D01*
X112351500Y-117112248D01*
X112351500Y-116384835D01*
X112365287Y-116311086D01*
X112398579Y-116257316D01*
X112446649Y-116221015D01*
X112540252Y-116199000D01*
X113112665Y-116199000D01*
X113186414Y-116212787D01*
X113186414Y-116212787D01*
G37*
G36*
X148438914Y-115790287D02*
G01*
X148492684Y-115823579D01*
X148528985Y-115871649D01*
X148551000Y-115965252D01*
X148551000Y-116537665D01*
X148537213Y-116611414D01*
X148503921Y-116665184D01*
X148455851Y-116701485D01*
X148362248Y-116723500D01*
X147634835Y-116723500D01*
X147561086Y-116709713D01*
X147507316Y-116676421D01*
X147471015Y-116628351D01*
X147449000Y-116534748D01*
X147449000Y-115962335D01*
X147462787Y-115888586D01*
X147496079Y-115834816D01*
X147544149Y-115798515D01*
X147637752Y-115776500D01*
X148365165Y-115776500D01*
X148438914Y-115790287D01*
X148438914Y-115790287D01*
G37*
G36*
X157267381Y-114196783D02*
G01*
X157290734Y-114195314D01*
X157341992Y-114206209D01*
X157385218Y-114211670D01*
X157406974Y-114220021D01*
X157438399Y-114226701D01*
X157477154Y-114246961D01*
X157509724Y-114259464D01*
X157535993Y-114277721D01*
X157572185Y-114296642D01*
X157597727Y-114320628D01*
X157619239Y-114335579D01*
X157646135Y-114366086D01*
X157682233Y-114399985D01*
X157695865Y-114422493D01*
X157707433Y-114435615D01*
X157730289Y-114479334D01*
X157760437Y-114529114D01*
X157765164Y-114546043D01*
X157769220Y-114553802D01*
X157783047Y-114610095D01*
X157801034Y-114674518D01*
X157799333Y-114837006D01*
X157779987Y-114901082D01*
X157764997Y-114957026D01*
X157760781Y-114964695D01*
X157755699Y-114981527D01*
X157724508Y-115030676D01*
X157700747Y-115073898D01*
X157688908Y-115086772D01*
X157674808Y-115108991D01*
X157638006Y-115142128D01*
X157610478Y-115172064D01*
X157588657Y-115186562D01*
X157562620Y-115210006D01*
X157526045Y-115228162D01*
X157499394Y-115245869D01*
X157466565Y-115257688D01*
X157427399Y-115277130D01*
X157395839Y-115283150D01*
X157373916Y-115291043D01*
X157330593Y-115295597D01*
X157279108Y-115305418D01*
X157255787Y-115303460D01*
X157241284Y-115304984D01*
X157189548Y-115297897D01*
X157128673Y-115292785D01*
X157114937Y-115287677D01*
X157109150Y-115286884D01*
X157052595Y-115264492D01*
X156987177Y-115240163D01*
X156928252Y-115197352D01*
X156876441Y-115160532D01*
X156874537Y-115158326D01*
X156865044Y-115151429D01*
X156825302Y-115101287D01*
X156789300Y-115059579D01*
X156784001Y-115049179D01*
X156771272Y-115033119D01*
X156749838Y-114982129D01*
X156728754Y-114940749D01*
X156724096Y-114920892D01*
X156712771Y-114893950D01*
X156706928Y-114847696D01*
X156698299Y-114810909D01*
X156698604Y-114781808D01*
X156693850Y-114744176D01*
X156699392Y-114706647D01*
X156699697Y-114677552D01*
X156709092Y-114640961D01*
X156715904Y-114594831D01*
X156727791Y-114568132D01*
X156732864Y-114548375D01*
X156754815Y-114507436D01*
X156777307Y-114456918D01*
X156790366Y-114441132D01*
X156795883Y-114430843D01*
X156832753Y-114389895D01*
X156873535Y-114340598D01*
X156883171Y-114333901D01*
X156885122Y-114331734D01*
X156937700Y-114296002D01*
X156997500Y-114254440D01*
X157063435Y-114231479D01*
X157120424Y-114210285D01*
X157126223Y-114209614D01*
X157140067Y-114204793D01*
X157201037Y-114200957D01*
X157252909Y-114194955D01*
X157267381Y-114196783D01*
X157267381Y-114196783D01*
G37*
G36*
X159267381Y-114196783D02*
G01*
X159290734Y-114195314D01*
X159341992Y-114206209D01*
X159385218Y-114211670D01*
X159406974Y-114220021D01*
X159438399Y-114226701D01*
X159477154Y-114246961D01*
X159509724Y-114259464D01*
X159535993Y-114277721D01*
X159572185Y-114296642D01*
X159597727Y-114320628D01*
X159619239Y-114335579D01*
X159646135Y-114366086D01*
X159682233Y-114399985D01*
X159695865Y-114422493D01*
X159707433Y-114435615D01*
X159730289Y-114479334D01*
X159760437Y-114529114D01*
X159765164Y-114546043D01*
X159769220Y-114553802D01*
X159783047Y-114610095D01*
X159801034Y-114674518D01*
X159799333Y-114837006D01*
X159779987Y-114901082D01*
X159764997Y-114957026D01*
X159760781Y-114964695D01*
X159755699Y-114981527D01*
X159724508Y-115030676D01*
X159700747Y-115073898D01*
X159688908Y-115086772D01*
X159674808Y-115108991D01*
X159638006Y-115142128D01*
X159610478Y-115172064D01*
X159588657Y-115186562D01*
X159562620Y-115210006D01*
X159526045Y-115228162D01*
X159499394Y-115245869D01*
X159466565Y-115257688D01*
X159427399Y-115277130D01*
X159395839Y-115283150D01*
X159373916Y-115291043D01*
X159330593Y-115295597D01*
X159279108Y-115305418D01*
X159255787Y-115303460D01*
X159241284Y-115304984D01*
X159189548Y-115297897D01*
X159128673Y-115292785D01*
X159114937Y-115287677D01*
X159109150Y-115286884D01*
X159052595Y-115264492D01*
X158987177Y-115240163D01*
X158928252Y-115197352D01*
X158876441Y-115160532D01*
X158874537Y-115158326D01*
X158865044Y-115151429D01*
X158825302Y-115101287D01*
X158789300Y-115059579D01*
X158784001Y-115049179D01*
X158771272Y-115033119D01*
X158749838Y-114982129D01*
X158728754Y-114940749D01*
X158724096Y-114920892D01*
X158712771Y-114893950D01*
X158706928Y-114847696D01*
X158698299Y-114810909D01*
X158698604Y-114781808D01*
X158693850Y-114744176D01*
X158699392Y-114706647D01*
X158699697Y-114677552D01*
X158709092Y-114640961D01*
X158715904Y-114594831D01*
X158727791Y-114568132D01*
X158732864Y-114548375D01*
X158754815Y-114507436D01*
X158777307Y-114456918D01*
X158790366Y-114441132D01*
X158795883Y-114430843D01*
X158832753Y-114389895D01*
X158873535Y-114340598D01*
X158883171Y-114333901D01*
X158885122Y-114331734D01*
X158937700Y-114296002D01*
X158997500Y-114254440D01*
X159063435Y-114231479D01*
X159120424Y-114210285D01*
X159126223Y-114209614D01*
X159140067Y-114204793D01*
X159201037Y-114200957D01*
X159252909Y-114194955D01*
X159267381Y-114196783D01*
X159267381Y-114196783D01*
G37*
G36*
X148438914Y-113865287D02*
G01*
X148492684Y-113898579D01*
X148528985Y-113946649D01*
X148551000Y-114040252D01*
X148551000Y-114612665D01*
X148537213Y-114686414D01*
X148503921Y-114740184D01*
X148455851Y-114776485D01*
X148362248Y-114798500D01*
X147634835Y-114798500D01*
X147561086Y-114784713D01*
X147507316Y-114751421D01*
X147471015Y-114703351D01*
X147449000Y-114609748D01*
X147449000Y-114037335D01*
X147462787Y-113963586D01*
X147496079Y-113909816D01*
X147544149Y-113873515D01*
X147637752Y-113851500D01*
X148365165Y-113851500D01*
X148438914Y-113865287D01*
X148438914Y-113865287D01*
G37*
G36*
X120462210Y-112765366D02*
G01*
X120552609Y-112808899D01*
X120626154Y-112877139D01*
X120675123Y-112961954D01*
X120701000Y-113098722D01*
X120701000Y-114003632D01*
X120684634Y-114112210D01*
X120641101Y-114202609D01*
X120572861Y-114276154D01*
X120488046Y-114325123D01*
X120351278Y-114351000D01*
X118946368Y-114351000D01*
X118837790Y-114334634D01*
X118747391Y-114291101D01*
X118673846Y-114222861D01*
X118624877Y-114138046D01*
X118599000Y-114001278D01*
X118599000Y-113096368D01*
X118615366Y-112987790D01*
X118658899Y-112897391D01*
X118727139Y-112823846D01*
X118811954Y-112774877D01*
X118948722Y-112749000D01*
X120353632Y-112749000D01*
X120462210Y-112765366D01*
X120462210Y-112765366D01*
G37*
G36*
X129767381Y-112946783D02*
G01*
X129790734Y-112945314D01*
X129841992Y-112956209D01*
X129885218Y-112961670D01*
X129906974Y-112970021D01*
X129938399Y-112976701D01*
X129977154Y-112996961D01*
X130009724Y-113009464D01*
X130035993Y-113027721D01*
X130072185Y-113046642D01*
X130097727Y-113070628D01*
X130119239Y-113085579D01*
X130146135Y-113116086D01*
X130182233Y-113149985D01*
X130195865Y-113172493D01*
X130207433Y-113185615D01*
X130230289Y-113229334D01*
X130260437Y-113279114D01*
X130265164Y-113296043D01*
X130269220Y-113303802D01*
X130283047Y-113360095D01*
X130301034Y-113424518D01*
X130299333Y-113587006D01*
X130279987Y-113651082D01*
X130264997Y-113707026D01*
X130260781Y-113714695D01*
X130255699Y-113731527D01*
X130224508Y-113780676D01*
X130200747Y-113823898D01*
X130188908Y-113836772D01*
X130174808Y-113858991D01*
X130138006Y-113892128D01*
X130110478Y-113922064D01*
X130088657Y-113936562D01*
X130062620Y-113960006D01*
X130026045Y-113978162D01*
X129999394Y-113995869D01*
X129966565Y-114007688D01*
X129927399Y-114027130D01*
X129895839Y-114033150D01*
X129873916Y-114041043D01*
X129830593Y-114045597D01*
X129779108Y-114055418D01*
X129755787Y-114053460D01*
X129741284Y-114054984D01*
X129689548Y-114047897D01*
X129628673Y-114042785D01*
X129614937Y-114037677D01*
X129609150Y-114036884D01*
X129552595Y-114014492D01*
X129487177Y-113990163D01*
X129428252Y-113947352D01*
X129376441Y-113910532D01*
X129374537Y-113908326D01*
X129365044Y-113901429D01*
X129325302Y-113851287D01*
X129289300Y-113809579D01*
X129284001Y-113799179D01*
X129271272Y-113783119D01*
X129249838Y-113732129D01*
X129228754Y-113690749D01*
X129224096Y-113670892D01*
X129212771Y-113643950D01*
X129206928Y-113597696D01*
X129198299Y-113560909D01*
X129198604Y-113531808D01*
X129193850Y-113494176D01*
X129199392Y-113456647D01*
X129199697Y-113427552D01*
X129209092Y-113390961D01*
X129215904Y-113344831D01*
X129227791Y-113318132D01*
X129232864Y-113298375D01*
X129254815Y-113257436D01*
X129277307Y-113206918D01*
X129290366Y-113191132D01*
X129295883Y-113180843D01*
X129332753Y-113139895D01*
X129373535Y-113090598D01*
X129383171Y-113083901D01*
X129385122Y-113081734D01*
X129437700Y-113046002D01*
X129497500Y-113004440D01*
X129563435Y-112981479D01*
X129620424Y-112960285D01*
X129626223Y-112959614D01*
X129640067Y-112954793D01*
X129701037Y-112950957D01*
X129752909Y-112944955D01*
X129767381Y-112946783D01*
X129767381Y-112946783D01*
G37*
G36*
X142910189Y-112713658D02*
G01*
X142973675Y-112750310D01*
X143017148Y-112802121D01*
X143051000Y-112928457D01*
X143051000Y-113577064D01*
X143036342Y-113660189D01*
X142999689Y-113723675D01*
X142947880Y-113767148D01*
X142821543Y-113801000D01*
X142172936Y-113801000D01*
X142089811Y-113786342D01*
X142026325Y-113749689D01*
X141982852Y-113697880D01*
X141949000Y-113571543D01*
X141949000Y-112922936D01*
X141963658Y-112839811D01*
X142000310Y-112776325D01*
X142052121Y-112732852D01*
X142178457Y-112699000D01*
X142827064Y-112699000D01*
X142910189Y-112713658D01*
X142910189Y-112713658D01*
G37*
G36*
X170312210Y-111965366D02*
G01*
X170402609Y-112008899D01*
X170476154Y-112077139D01*
X170525123Y-112161954D01*
X170551000Y-112298722D01*
X170551000Y-113203632D01*
X170534634Y-113312210D01*
X170491101Y-113402609D01*
X170422861Y-113476154D01*
X170338046Y-113525123D01*
X170201278Y-113551000D01*
X168796368Y-113551000D01*
X168687790Y-113534634D01*
X168597391Y-113491101D01*
X168523846Y-113422861D01*
X168474877Y-113338046D01*
X168449000Y-113201278D01*
X168449000Y-112296368D01*
X168465366Y-112187790D01*
X168508899Y-112097391D01*
X168577139Y-112023846D01*
X168661954Y-111974877D01*
X168798722Y-111949000D01*
X170203632Y-111949000D01*
X170312210Y-111965366D01*
X170312210Y-111965366D01*
G37*
G36*
X152361414Y-112462787D02*
G01*
X152415184Y-112496079D01*
X152451485Y-112544149D01*
X152473500Y-112637752D01*
X152473500Y-113365165D01*
X152459713Y-113438914D01*
X152426421Y-113492684D01*
X152378351Y-113528985D01*
X152284748Y-113551000D01*
X151712335Y-113551000D01*
X151638586Y-113537213D01*
X151584816Y-113503921D01*
X151548515Y-113455851D01*
X151526500Y-113362248D01*
X151526500Y-112634835D01*
X151540287Y-112561086D01*
X151573579Y-112507316D01*
X151621649Y-112471015D01*
X151715252Y-112449000D01*
X152287665Y-112449000D01*
X152361414Y-112462787D01*
X152361414Y-112462787D01*
G37*
G36*
X154286414Y-112462787D02*
G01*
X154340184Y-112496079D01*
X154376485Y-112544149D01*
X154398500Y-112637752D01*
X154398500Y-113365165D01*
X154384713Y-113438914D01*
X154351421Y-113492684D01*
X154303351Y-113528985D01*
X154209748Y-113551000D01*
X153637335Y-113551000D01*
X153563586Y-113537213D01*
X153509816Y-113503921D01*
X153473515Y-113455851D01*
X153451500Y-113362248D01*
X153451500Y-112634835D01*
X153465287Y-112561086D01*
X153498579Y-112507316D01*
X153546649Y-112471015D01*
X153640252Y-112449000D01*
X154212665Y-112449000D01*
X154286414Y-112462787D01*
X154286414Y-112462787D01*
G37*
G36*
X186312210Y-111965366D02*
G01*
X186402609Y-112008899D01*
X186476154Y-112077139D01*
X186525123Y-112161954D01*
X186551000Y-112298722D01*
X186551000Y-113203632D01*
X186534634Y-113312210D01*
X186491101Y-113402609D01*
X186422861Y-113476154D01*
X186338046Y-113525123D01*
X186201278Y-113551000D01*
X184796368Y-113551000D01*
X184687790Y-113534634D01*
X184597391Y-113491101D01*
X184523846Y-113422861D01*
X184474877Y-113338046D01*
X184449000Y-113201278D01*
X184449000Y-112296368D01*
X184465366Y-112187790D01*
X184508899Y-112097391D01*
X184577139Y-112023846D01*
X184661954Y-111974877D01*
X184798722Y-111949000D01*
X186203632Y-111949000D01*
X186312210Y-111965366D01*
X186312210Y-111965366D01*
G37*
G36*
X159560125Y-111713205D02*
G01*
X159621354Y-111748556D01*
X159663153Y-111798371D01*
X159696000Y-111920957D01*
X159696000Y-113084563D01*
X159681795Y-113165125D01*
X159646444Y-113226354D01*
X159596630Y-113268153D01*
X159474043Y-113301000D01*
X158840437Y-113301000D01*
X158759875Y-113286795D01*
X158698646Y-113251444D01*
X158656847Y-113201630D01*
X158624000Y-113079043D01*
X158624000Y-111915437D01*
X158638205Y-111834875D01*
X158673556Y-111773646D01*
X158723371Y-111731847D01*
X158845957Y-111699000D01*
X159479563Y-111699000D01*
X159560125Y-111713205D01*
X159560125Y-111713205D01*
G37*
G36*
X157650125Y-111713205D02*
G01*
X157711354Y-111748556D01*
X157753153Y-111798371D01*
X157786000Y-111920957D01*
X157786000Y-113084563D01*
X157771795Y-113165125D01*
X157736444Y-113226354D01*
X157686630Y-113268153D01*
X157564043Y-113301000D01*
X156930437Y-113301000D01*
X156849875Y-113286795D01*
X156788646Y-113251444D01*
X156746847Y-113201630D01*
X156714000Y-113079043D01*
X156714000Y-111915437D01*
X156728205Y-111834875D01*
X156763556Y-111773646D01*
X156813371Y-111731847D01*
X156935957Y-111699000D01*
X157569563Y-111699000D01*
X157650125Y-111713205D01*
X157650125Y-111713205D01*
G37*
G36*
X114057555Y-109315819D02*
G01*
X114168961Y-109361964D01*
X114264629Y-109435374D01*
X114338035Y-109531037D01*
X114384181Y-109642445D01*
X114401000Y-109770196D01*
X114401000Y-112729804D01*
X114384181Y-112857555D01*
X114338036Y-112968961D01*
X114264628Y-113064628D01*
X114168961Y-113138036D01*
X114057555Y-113184181D01*
X113929804Y-113201000D01*
X112770196Y-113201000D01*
X112642445Y-113184181D01*
X112531037Y-113138035D01*
X112435374Y-113064629D01*
X112361964Y-112968961D01*
X112315819Y-112857555D01*
X112299000Y-112729804D01*
X112299000Y-109770196D01*
X112315819Y-109642445D01*
X112361965Y-109531037D01*
X112435372Y-109435372D01*
X112531037Y-109361965D01*
X112642445Y-109315819D01*
X112770196Y-109299000D01*
X113929804Y-109299000D01*
X114057555Y-109315819D01*
X114057555Y-109315819D01*
G37*
G36*
X123649107Y-110465446D02*
G01*
X123751978Y-110510130D01*
X123838979Y-110580910D01*
X123903651Y-110672530D01*
X123941937Y-110780257D01*
X123951000Y-110868412D01*
X123951000Y-112629449D01*
X123934554Y-112749107D01*
X123889870Y-112851978D01*
X123819090Y-112938979D01*
X123727470Y-113003651D01*
X123619743Y-113041937D01*
X123531588Y-113051000D01*
X122470551Y-113051000D01*
X122350893Y-113034554D01*
X122248022Y-112989870D01*
X122161021Y-112919090D01*
X122096349Y-112827470D01*
X122058063Y-112719743D01*
X122049000Y-112631588D01*
X122049000Y-110870551D01*
X122065446Y-110750893D01*
X122110130Y-110648022D01*
X122180910Y-110561021D01*
X122272530Y-110496349D01*
X122380257Y-110458063D01*
X122468412Y-110449000D01*
X123529449Y-110449000D01*
X123649107Y-110465446D01*
X123649107Y-110465446D01*
G37*
G36*
X148438914Y-111752787D02*
G01*
X148492684Y-111786079D01*
X148528985Y-111834149D01*
X148551000Y-111927752D01*
X148551000Y-112500165D01*
X148537213Y-112573914D01*
X148503921Y-112627684D01*
X148455851Y-112663985D01*
X148362248Y-112686000D01*
X147634835Y-112686000D01*
X147561086Y-112672213D01*
X147507316Y-112638921D01*
X147471015Y-112590851D01*
X147449000Y-112497248D01*
X147449000Y-111924835D01*
X147462787Y-111851086D01*
X147496079Y-111797316D01*
X147544149Y-111761015D01*
X147637752Y-111739000D01*
X148365165Y-111739000D01*
X148438914Y-111752787D01*
X148438914Y-111752787D01*
G37*
G36*
X120462210Y-110465366D02*
G01*
X120552609Y-110508899D01*
X120626154Y-110577139D01*
X120675123Y-110661954D01*
X120701000Y-110798722D01*
X120701000Y-111703632D01*
X120684634Y-111812210D01*
X120641101Y-111902609D01*
X120572861Y-111976154D01*
X120488046Y-112025123D01*
X120351278Y-112051000D01*
X118946368Y-112051000D01*
X118837790Y-112034634D01*
X118747391Y-111991101D01*
X118673846Y-111922861D01*
X118624877Y-111838046D01*
X118599000Y-111701278D01*
X118599000Y-110796368D01*
X118615366Y-110687790D01*
X118658899Y-110597391D01*
X118727139Y-110523846D01*
X118811954Y-110474877D01*
X118948722Y-110449000D01*
X120353632Y-110449000D01*
X120462210Y-110465366D01*
X120462210Y-110465366D01*
G37*
G36*
X127839907Y-109214937D02*
G01*
X127933557Y-109257706D01*
X128011365Y-109325127D01*
X128064552Y-109407888D01*
X128101000Y-109575436D01*
X128101000Y-111529058D01*
X128085063Y-111639907D01*
X128042294Y-111733557D01*
X127974873Y-111811365D01*
X127892112Y-111864552D01*
X127724564Y-111901000D01*
X126770942Y-111901000D01*
X126660093Y-111885063D01*
X126566443Y-111842294D01*
X126488635Y-111774873D01*
X126435448Y-111692112D01*
X126399000Y-111524564D01*
X126399000Y-109570942D01*
X126414937Y-109460093D01*
X126457706Y-109366443D01*
X126525127Y-109288635D01*
X126607888Y-109235448D01*
X126775436Y-109199000D01*
X127729058Y-109199000D01*
X127839907Y-109214937D01*
X127839907Y-109214937D01*
G37*
G36*
X188438914Y-110965287D02*
G01*
X188492684Y-110998579D01*
X188528985Y-111046649D01*
X188551000Y-111140252D01*
X188551000Y-111712665D01*
X188537213Y-111786414D01*
X188503921Y-111840184D01*
X188455851Y-111876485D01*
X188362248Y-111898500D01*
X187634835Y-111898500D01*
X187561086Y-111884713D01*
X187507316Y-111851421D01*
X187471015Y-111803351D01*
X187449000Y-111709748D01*
X187449000Y-111137335D01*
X187462787Y-111063586D01*
X187496079Y-111009816D01*
X187544149Y-110973515D01*
X187637752Y-110951500D01*
X188365165Y-110951500D01*
X188438914Y-110965287D01*
X188438914Y-110965287D01*
G37*
G36*
X186312210Y-109965366D02*
G01*
X186402609Y-110008899D01*
X186476154Y-110077139D01*
X186525123Y-110161954D01*
X186551000Y-110298722D01*
X186551000Y-111203632D01*
X186534634Y-111312210D01*
X186491101Y-111402609D01*
X186422861Y-111476154D01*
X186338046Y-111525123D01*
X186201278Y-111551000D01*
X184796368Y-111551000D01*
X184687790Y-111534634D01*
X184597391Y-111491101D01*
X184523846Y-111422861D01*
X184474877Y-111338046D01*
X184449000Y-111201278D01*
X184449000Y-110296368D01*
X184465366Y-110187790D01*
X184508899Y-110097391D01*
X184577139Y-110023846D01*
X184661954Y-109974877D01*
X184798722Y-109949000D01*
X186203632Y-109949000D01*
X186312210Y-109965366D01*
X186312210Y-109965366D01*
G37*
G36*
X170312210Y-109965366D02*
G01*
X170402609Y-110008899D01*
X170476154Y-110077139D01*
X170525123Y-110161954D01*
X170551000Y-110298722D01*
X170551000Y-111203632D01*
X170534634Y-111312210D01*
X170491101Y-111402609D01*
X170422861Y-111476154D01*
X170338046Y-111525123D01*
X170201278Y-111551000D01*
X168796368Y-111551000D01*
X168687790Y-111534634D01*
X168597391Y-111491101D01*
X168523846Y-111422861D01*
X168474877Y-111338046D01*
X168449000Y-111201278D01*
X168449000Y-110296368D01*
X168465366Y-110187790D01*
X168508899Y-110097391D01*
X168577139Y-110023846D01*
X168661954Y-109974877D01*
X168798722Y-109949000D01*
X170203632Y-109949000D01*
X170312210Y-109965366D01*
X170312210Y-109965366D01*
G37*
G36*
X148438914Y-109827787D02*
G01*
X148492684Y-109861079D01*
X148528985Y-109909149D01*
X148551000Y-110002752D01*
X148551000Y-110575165D01*
X148537213Y-110648914D01*
X148503921Y-110702684D01*
X148455851Y-110738985D01*
X148362248Y-110761000D01*
X147634835Y-110761000D01*
X147561086Y-110747213D01*
X147507316Y-110713921D01*
X147471015Y-110665851D01*
X147449000Y-110572248D01*
X147449000Y-109999835D01*
X147462787Y-109926086D01*
X147496079Y-109872316D01*
X147544149Y-109836015D01*
X147637752Y-109814000D01*
X148365165Y-109814000D01*
X148438914Y-109827787D01*
X148438914Y-109827787D01*
G37*
G36*
X157376000Y-110601000D02*
G01*
X151124000Y-110601000D01*
X151124000Y-108899000D01*
X157376000Y-108899000D01*
X157376000Y-110601000D01*
X157376000Y-110601000D01*
G37*
G36*
X131438914Y-109252787D02*
G01*
X131492684Y-109286079D01*
X131528985Y-109334149D01*
X131551000Y-109427752D01*
X131551000Y-110000165D01*
X131537213Y-110073914D01*
X131503921Y-110127684D01*
X131455851Y-110163985D01*
X131362248Y-110186000D01*
X130634835Y-110186000D01*
X130561086Y-110172213D01*
X130507316Y-110138921D01*
X130471015Y-110090851D01*
X130449000Y-109997248D01*
X130449000Y-109424835D01*
X130462787Y-109351086D01*
X130496079Y-109297316D01*
X130544149Y-109261015D01*
X130637752Y-109239000D01*
X131365165Y-109239000D01*
X131438914Y-109252787D01*
X131438914Y-109252787D01*
G37*
G36*
X188438914Y-109040287D02*
G01*
X188492684Y-109073579D01*
X188528985Y-109121649D01*
X188551000Y-109215252D01*
X188551000Y-109787665D01*
X188537213Y-109861414D01*
X188503921Y-109915184D01*
X188455851Y-109951485D01*
X188362248Y-109973500D01*
X187634835Y-109973500D01*
X187561086Y-109959713D01*
X187507316Y-109926421D01*
X187471015Y-109878351D01*
X187449000Y-109784748D01*
X187449000Y-109212335D01*
X187462787Y-109138586D01*
X187496079Y-109084816D01*
X187544149Y-109048515D01*
X187637752Y-109026500D01*
X188365165Y-109026500D01*
X188438914Y-109040287D01*
X188438914Y-109040287D01*
G37*
G36*
X120462210Y-108165366D02*
G01*
X120552609Y-108208899D01*
X120626154Y-108277139D01*
X120675123Y-108361954D01*
X120701000Y-108498722D01*
X120701000Y-109403632D01*
X120684634Y-109512210D01*
X120641101Y-109602609D01*
X120572861Y-109676154D01*
X120488046Y-109725123D01*
X120351278Y-109751000D01*
X118946368Y-109751000D01*
X118837790Y-109734634D01*
X118747391Y-109691101D01*
X118673846Y-109622861D01*
X118624877Y-109538046D01*
X118599000Y-109401278D01*
X118599000Y-108496368D01*
X118615366Y-108387790D01*
X118658899Y-108297391D01*
X118727139Y-108223846D01*
X118811954Y-108174877D01*
X118948722Y-108149000D01*
X120353632Y-108149000D01*
X120462210Y-108165366D01*
X120462210Y-108165366D01*
G37*
G36*
X186312210Y-107965366D02*
G01*
X186402609Y-108008899D01*
X186476154Y-108077139D01*
X186525123Y-108161954D01*
X186551000Y-108298722D01*
X186551000Y-109203632D01*
X186534634Y-109312210D01*
X186491101Y-109402609D01*
X186422861Y-109476154D01*
X186338046Y-109525123D01*
X186201278Y-109551000D01*
X184796368Y-109551000D01*
X184687790Y-109534634D01*
X184597391Y-109491101D01*
X184523846Y-109422861D01*
X184474877Y-109338046D01*
X184449000Y-109201278D01*
X184449000Y-108296368D01*
X184465366Y-108187790D01*
X184508899Y-108097391D01*
X184577139Y-108023846D01*
X184661954Y-107974877D01*
X184798722Y-107949000D01*
X186203632Y-107949000D01*
X186312210Y-107965366D01*
X186312210Y-107965366D01*
G37*
G36*
X170312210Y-107965366D02*
G01*
X170402609Y-108008899D01*
X170476154Y-108077139D01*
X170525123Y-108161954D01*
X170551000Y-108298722D01*
X170551000Y-109203632D01*
X170534634Y-109312210D01*
X170491101Y-109402609D01*
X170422861Y-109476154D01*
X170338046Y-109525123D01*
X170201278Y-109551000D01*
X168796368Y-109551000D01*
X168687790Y-109534634D01*
X168597391Y-109491101D01*
X168523846Y-109422861D01*
X168474877Y-109338046D01*
X168449000Y-109201278D01*
X168449000Y-108296368D01*
X168465366Y-108187790D01*
X168508899Y-108097391D01*
X168577139Y-108023846D01*
X168661954Y-107974877D01*
X168798722Y-107949000D01*
X170203632Y-107949000D01*
X170312210Y-107965366D01*
X170312210Y-107965366D01*
G37*
G36*
X123649107Y-106465446D02*
G01*
X123751978Y-106510130D01*
X123838979Y-106580910D01*
X123903651Y-106672530D01*
X123941937Y-106780257D01*
X123951000Y-106868412D01*
X123951000Y-108629449D01*
X123934554Y-108749107D01*
X123889870Y-108851978D01*
X123819090Y-108938979D01*
X123727470Y-109003651D01*
X123619743Y-109041937D01*
X123531588Y-109051000D01*
X122470551Y-109051000D01*
X122350893Y-109034554D01*
X122248022Y-108989870D01*
X122161021Y-108919090D01*
X122096349Y-108827470D01*
X122058063Y-108719743D01*
X122049000Y-108631588D01*
X122049000Y-106870551D01*
X122065446Y-106750893D01*
X122110130Y-106648022D01*
X122180910Y-106561021D01*
X122272530Y-106496349D01*
X122380257Y-106458063D01*
X122468412Y-106449000D01*
X123529449Y-106449000D01*
X123649107Y-106465446D01*
X123649107Y-106465446D01*
G37*
G36*
X139688914Y-107752787D02*
G01*
X139742684Y-107786079D01*
X139778985Y-107834149D01*
X139801000Y-107927752D01*
X139801000Y-108500165D01*
X139787213Y-108573914D01*
X139753921Y-108627684D01*
X139705851Y-108663985D01*
X139612248Y-108686000D01*
X138884835Y-108686000D01*
X138811086Y-108672213D01*
X138757316Y-108638921D01*
X138721015Y-108590851D01*
X138699000Y-108497248D01*
X138699000Y-107924835D01*
X138712787Y-107851086D01*
X138746079Y-107797316D01*
X138794149Y-107761015D01*
X138887752Y-107739000D01*
X139615165Y-107739000D01*
X139688914Y-107752787D01*
X139688914Y-107752787D01*
G37*
G36*
X150790240Y-102385240D02*
G01*
X150823111Y-102409122D01*
X150845126Y-102447253D01*
X150851000Y-102484338D01*
X150851000Y-102912361D01*
X150839760Y-102965242D01*
X150832287Y-102975528D01*
X150808618Y-103041865D01*
X150824571Y-103110467D01*
X150851000Y-103136152D01*
X150851000Y-108626000D01*
X149149000Y-108626000D01*
X149149000Y-103136488D01*
X149179813Y-103100927D01*
X149189837Y-103031212D01*
X149174362Y-102986501D01*
X149154874Y-102952747D01*
X149149000Y-102915662D01*
X149149000Y-102487639D01*
X149160240Y-102434760D01*
X149184122Y-102401889D01*
X149222253Y-102379874D01*
X149259338Y-102374000D01*
X150737361Y-102374000D01*
X150790240Y-102385240D01*
X150790240Y-102385240D01*
G37*
G36*
X159290240Y-102385240D02*
G01*
X159323111Y-102409122D01*
X159345126Y-102447253D01*
X159351000Y-102484338D01*
X159351000Y-102912361D01*
X159339760Y-102965240D01*
X159303079Y-103015727D01*
X159276166Y-103043954D01*
X159262838Y-103113115D01*
X159313798Y-103202355D01*
X159323110Y-103209121D01*
X159345126Y-103247253D01*
X159351000Y-103284338D01*
X159351000Y-103712361D01*
X159339760Y-103765240D01*
X159303079Y-103815727D01*
X159276166Y-103843954D01*
X159262838Y-103913115D01*
X159313798Y-104002355D01*
X159323110Y-104009121D01*
X159345126Y-104047253D01*
X159351000Y-104084338D01*
X159351000Y-104512361D01*
X159339760Y-104565242D01*
X159332287Y-104575528D01*
X159308618Y-104641865D01*
X159324571Y-104710467D01*
X159351000Y-104736152D01*
X159351000Y-105463512D01*
X159320187Y-105499073D01*
X159310163Y-105568788D01*
X159325638Y-105613499D01*
X159345126Y-105647253D01*
X159351000Y-105684338D01*
X159351000Y-106112361D01*
X159339760Y-106165242D01*
X159332287Y-106175528D01*
X159308618Y-106241865D01*
X159324571Y-106310467D01*
X159351000Y-106336152D01*
X159351000Y-108626000D01*
X157649000Y-108626000D01*
X157649000Y-106336488D01*
X157679813Y-106300927D01*
X157689837Y-106231212D01*
X157674362Y-106186501D01*
X157654874Y-106152747D01*
X157649000Y-106115662D01*
X157649000Y-105687639D01*
X157660240Y-105634758D01*
X157667713Y-105624472D01*
X157691382Y-105558135D01*
X157675429Y-105489533D01*
X157649000Y-105463848D01*
X157649000Y-104736488D01*
X157679813Y-104700927D01*
X157689837Y-104631212D01*
X157674362Y-104586501D01*
X157654874Y-104552747D01*
X157649000Y-104515662D01*
X157649000Y-104087639D01*
X157660240Y-104034760D01*
X157696921Y-103984273D01*
X157723834Y-103956046D01*
X157737162Y-103886885D01*
X157686202Y-103797645D01*
X157676890Y-103790879D01*
X157654874Y-103752747D01*
X157649000Y-103715662D01*
X157649000Y-103287639D01*
X157660240Y-103234760D01*
X157696921Y-103184273D01*
X157723834Y-103156046D01*
X157737162Y-103086885D01*
X157686202Y-102997645D01*
X157676890Y-102990879D01*
X157654874Y-102952747D01*
X157649000Y-102915662D01*
X157649000Y-102487639D01*
X157660240Y-102434760D01*
X157684122Y-102401889D01*
X157722253Y-102379874D01*
X157759338Y-102374000D01*
X159237361Y-102374000D01*
X159290240Y-102385240D01*
X159290240Y-102385240D01*
G37*
G36*
X145938914Y-107502787D02*
G01*
X145992684Y-107536079D01*
X146028985Y-107584149D01*
X146051000Y-107677752D01*
X146051000Y-108250165D01*
X146037213Y-108323914D01*
X146003921Y-108377684D01*
X145955851Y-108413985D01*
X145862248Y-108436000D01*
X145134835Y-108436000D01*
X145061086Y-108422213D01*
X145007316Y-108388921D01*
X144971015Y-108340851D01*
X144949000Y-108247248D01*
X144949000Y-107674835D01*
X144962787Y-107601086D01*
X144996079Y-107547316D01*
X145044149Y-107511015D01*
X145137752Y-107489000D01*
X145865165Y-107489000D01*
X145938914Y-107502787D01*
X145938914Y-107502787D01*
G37*
G36*
X162517381Y-107196783D02*
G01*
X162540734Y-107195314D01*
X162591992Y-107206209D01*
X162635218Y-107211670D01*
X162656974Y-107220021D01*
X162688399Y-107226701D01*
X162727154Y-107246961D01*
X162759724Y-107259464D01*
X162785993Y-107277721D01*
X162822185Y-107296642D01*
X162847727Y-107320628D01*
X162869239Y-107335579D01*
X162896135Y-107366086D01*
X162932233Y-107399985D01*
X162945865Y-107422493D01*
X162957433Y-107435615D01*
X162980289Y-107479334D01*
X163010437Y-107529114D01*
X163015164Y-107546043D01*
X163019220Y-107553802D01*
X163033047Y-107610095D01*
X163051034Y-107674518D01*
X163049333Y-107837006D01*
X163029987Y-107901082D01*
X163014997Y-107957026D01*
X163010781Y-107964695D01*
X163005699Y-107981527D01*
X162974508Y-108030676D01*
X162950747Y-108073898D01*
X162938908Y-108086772D01*
X162924808Y-108108991D01*
X162888006Y-108142128D01*
X162860478Y-108172064D01*
X162838657Y-108186562D01*
X162812620Y-108210006D01*
X162776045Y-108228162D01*
X162749394Y-108245869D01*
X162716565Y-108257688D01*
X162677399Y-108277130D01*
X162645839Y-108283150D01*
X162623916Y-108291043D01*
X162580593Y-108295597D01*
X162529108Y-108305418D01*
X162505787Y-108303460D01*
X162491284Y-108304984D01*
X162439548Y-108297897D01*
X162378673Y-108292785D01*
X162364937Y-108287677D01*
X162359150Y-108286884D01*
X162302595Y-108264492D01*
X162237177Y-108240163D01*
X162178252Y-108197352D01*
X162126441Y-108160532D01*
X162124537Y-108158326D01*
X162115044Y-108151429D01*
X162075302Y-108101287D01*
X162039300Y-108059579D01*
X162034001Y-108049179D01*
X162021272Y-108033119D01*
X161999838Y-107982129D01*
X161978754Y-107940749D01*
X161974096Y-107920892D01*
X161962771Y-107893950D01*
X161956928Y-107847696D01*
X161948299Y-107810909D01*
X161948604Y-107781808D01*
X161943850Y-107744176D01*
X161949392Y-107706647D01*
X161949697Y-107677552D01*
X161959092Y-107640961D01*
X161965904Y-107594831D01*
X161977791Y-107568132D01*
X161982864Y-107548375D01*
X162004815Y-107507436D01*
X162027307Y-107456918D01*
X162040366Y-107441132D01*
X162045883Y-107430843D01*
X162082753Y-107389895D01*
X162123535Y-107340598D01*
X162133171Y-107333901D01*
X162135122Y-107331734D01*
X162187700Y-107296002D01*
X162247500Y-107254440D01*
X162313435Y-107231479D01*
X162370424Y-107210285D01*
X162376223Y-107209614D01*
X162390067Y-107204793D01*
X162451037Y-107200957D01*
X162502909Y-107194955D01*
X162517381Y-107196783D01*
X162517381Y-107196783D01*
G37*
G36*
X127839907Y-105614937D02*
G01*
X127933557Y-105657706D01*
X128011365Y-105725127D01*
X128064552Y-105807888D01*
X128101000Y-105975436D01*
X128101000Y-107929058D01*
X128085063Y-108039907D01*
X128042294Y-108133557D01*
X127974873Y-108211365D01*
X127892112Y-108264552D01*
X127724564Y-108301000D01*
X126770942Y-108301000D01*
X126660093Y-108285063D01*
X126566443Y-108242294D01*
X126488635Y-108174873D01*
X126435448Y-108092112D01*
X126399000Y-107924564D01*
X126399000Y-105970942D01*
X126414937Y-105860093D01*
X126457706Y-105766443D01*
X126525127Y-105688635D01*
X126607888Y-105635448D01*
X126775436Y-105599000D01*
X127729058Y-105599000D01*
X127839907Y-105614937D01*
X127839907Y-105614937D01*
G37*
G36*
X131438914Y-107327787D02*
G01*
X131492684Y-107361079D01*
X131528985Y-107409149D01*
X131551000Y-107502752D01*
X131551000Y-108075165D01*
X131537213Y-108148914D01*
X131503921Y-108202684D01*
X131455851Y-108238985D01*
X131362248Y-108261000D01*
X130634835Y-108261000D01*
X130561086Y-108247213D01*
X130507316Y-108213921D01*
X130471015Y-108165851D01*
X130449000Y-108072248D01*
X130449000Y-107499835D01*
X130462787Y-107426086D01*
X130496079Y-107372316D01*
X130544149Y-107336015D01*
X130637752Y-107314000D01*
X131365165Y-107314000D01*
X131438914Y-107327787D01*
X131438914Y-107327787D01*
G37*
G36*
X188438914Y-107290287D02*
G01*
X188492684Y-107323579D01*
X188528985Y-107371649D01*
X188551000Y-107465252D01*
X188551000Y-108037665D01*
X188537213Y-108111414D01*
X188503921Y-108165184D01*
X188455851Y-108201485D01*
X188362248Y-108223500D01*
X187634835Y-108223500D01*
X187561086Y-108209713D01*
X187507316Y-108176421D01*
X187471015Y-108128351D01*
X187449000Y-108034748D01*
X187449000Y-107462335D01*
X187462787Y-107388586D01*
X187496079Y-107334816D01*
X187544149Y-107298515D01*
X187637752Y-107276500D01*
X188365165Y-107276500D01*
X188438914Y-107290287D01*
X188438914Y-107290287D01*
G37*
G36*
X165017381Y-106696783D02*
G01*
X165040734Y-106695314D01*
X165091992Y-106706209D01*
X165135218Y-106711670D01*
X165156974Y-106720021D01*
X165188399Y-106726701D01*
X165227154Y-106746961D01*
X165259724Y-106759464D01*
X165285993Y-106777721D01*
X165322185Y-106796642D01*
X165347727Y-106820628D01*
X165369239Y-106835579D01*
X165396135Y-106866086D01*
X165432233Y-106899985D01*
X165445865Y-106922493D01*
X165457433Y-106935615D01*
X165480289Y-106979334D01*
X165510437Y-107029114D01*
X165515164Y-107046043D01*
X165519220Y-107053802D01*
X165533047Y-107110095D01*
X165551034Y-107174518D01*
X165549333Y-107337006D01*
X165529987Y-107401082D01*
X165514997Y-107457026D01*
X165510781Y-107464695D01*
X165505699Y-107481527D01*
X165474508Y-107530676D01*
X165450747Y-107573898D01*
X165438908Y-107586772D01*
X165424808Y-107608991D01*
X165388006Y-107642128D01*
X165360478Y-107672064D01*
X165338657Y-107686562D01*
X165312620Y-107710006D01*
X165276045Y-107728162D01*
X165249394Y-107745869D01*
X165216565Y-107757688D01*
X165177399Y-107777130D01*
X165145839Y-107783150D01*
X165123916Y-107791043D01*
X165080593Y-107795597D01*
X165029108Y-107805418D01*
X165005787Y-107803460D01*
X164991284Y-107804984D01*
X164939548Y-107797897D01*
X164878673Y-107792785D01*
X164864937Y-107787677D01*
X164859150Y-107786884D01*
X164802595Y-107764492D01*
X164737177Y-107740163D01*
X164678252Y-107697352D01*
X164626441Y-107660532D01*
X164624537Y-107658326D01*
X164615044Y-107651429D01*
X164575302Y-107601287D01*
X164539300Y-107559579D01*
X164534001Y-107549179D01*
X164521272Y-107533119D01*
X164499838Y-107482129D01*
X164478754Y-107440749D01*
X164474096Y-107420892D01*
X164462771Y-107393950D01*
X164456928Y-107347696D01*
X164448299Y-107310909D01*
X164448604Y-107281808D01*
X164443850Y-107244176D01*
X164449392Y-107206647D01*
X164449697Y-107177552D01*
X164459092Y-107140961D01*
X164465904Y-107094831D01*
X164477791Y-107068132D01*
X164482864Y-107048375D01*
X164504815Y-107007436D01*
X164527307Y-106956918D01*
X164540366Y-106941132D01*
X164545883Y-106930843D01*
X164582753Y-106889895D01*
X164623535Y-106840598D01*
X164633171Y-106833901D01*
X164635122Y-106831734D01*
X164687700Y-106796002D01*
X164747500Y-106754440D01*
X164813435Y-106731479D01*
X164870424Y-106710285D01*
X164876223Y-106709614D01*
X164890067Y-106704793D01*
X164951037Y-106700957D01*
X165002909Y-106694955D01*
X165017381Y-106696783D01*
X165017381Y-106696783D01*
G37*
G36*
X170312210Y-105965366D02*
G01*
X170402609Y-106008899D01*
X170476154Y-106077139D01*
X170525123Y-106161954D01*
X170551000Y-106298722D01*
X170551000Y-107203632D01*
X170534634Y-107312210D01*
X170491101Y-107402609D01*
X170422861Y-107476154D01*
X170338046Y-107525123D01*
X170201278Y-107551000D01*
X168796368Y-107551000D01*
X168687790Y-107534634D01*
X168597391Y-107491101D01*
X168523846Y-107422861D01*
X168474877Y-107338046D01*
X168449000Y-107201278D01*
X168449000Y-106296368D01*
X168465366Y-106187790D01*
X168508899Y-106097391D01*
X168577139Y-106023846D01*
X168661954Y-105974877D01*
X168798722Y-105949000D01*
X170203632Y-105949000D01*
X170312210Y-105965366D01*
X170312210Y-105965366D01*
G37*
G36*
X186312210Y-105965366D02*
G01*
X186402609Y-106008899D01*
X186476154Y-106077139D01*
X186525123Y-106161954D01*
X186551000Y-106298722D01*
X186551000Y-107203632D01*
X186534634Y-107312210D01*
X186491101Y-107402609D01*
X186422861Y-107476154D01*
X186338046Y-107525123D01*
X186201278Y-107551000D01*
X184796368Y-107551000D01*
X184687790Y-107534634D01*
X184597391Y-107491101D01*
X184523846Y-107422861D01*
X184474877Y-107338046D01*
X184449000Y-107201278D01*
X184449000Y-106296368D01*
X184465366Y-106187790D01*
X184508899Y-106097391D01*
X184577139Y-106023846D01*
X184661954Y-105974877D01*
X184798722Y-105949000D01*
X186203632Y-105949000D01*
X186312210Y-105965366D01*
X186312210Y-105965366D01*
G37*
G36*
X142910189Y-105713658D02*
G01*
X142973675Y-105750310D01*
X143017148Y-105802121D01*
X143051000Y-105928457D01*
X143051000Y-106577064D01*
X143036342Y-106660189D01*
X142999689Y-106723675D01*
X142947880Y-106767148D01*
X142821543Y-106801000D01*
X142172936Y-106801000D01*
X142089811Y-106786342D01*
X142026325Y-106749689D01*
X141982852Y-106697880D01*
X141949000Y-106571543D01*
X141949000Y-105922936D01*
X141963658Y-105839811D01*
X142000310Y-105776325D01*
X142052121Y-105732852D01*
X142178457Y-105699000D01*
X142827064Y-105699000D01*
X142910189Y-105713658D01*
X142910189Y-105713658D01*
G37*
G36*
X120611414Y-105712787D02*
G01*
X120665184Y-105746079D01*
X120701485Y-105794149D01*
X120723500Y-105887752D01*
X120723500Y-106615165D01*
X120709713Y-106688914D01*
X120676421Y-106742684D01*
X120628351Y-106778985D01*
X120534748Y-106801000D01*
X119962335Y-106801000D01*
X119888586Y-106787213D01*
X119834816Y-106753921D01*
X119798515Y-106705851D01*
X119776500Y-106612248D01*
X119776500Y-105884835D01*
X119790287Y-105811086D01*
X119823579Y-105757316D01*
X119871649Y-105721015D01*
X119965252Y-105699000D01*
X120537665Y-105699000D01*
X120611414Y-105712787D01*
X120611414Y-105712787D01*
G37*
G36*
X118686414Y-105712787D02*
G01*
X118740184Y-105746079D01*
X118776485Y-105794149D01*
X118798500Y-105887752D01*
X118798500Y-106615165D01*
X118784713Y-106688914D01*
X118751421Y-106742684D01*
X118703351Y-106778985D01*
X118609748Y-106801000D01*
X118037335Y-106801000D01*
X117963586Y-106787213D01*
X117909816Y-106753921D01*
X117873515Y-106705851D01*
X117851500Y-106612248D01*
X117851500Y-105884835D01*
X117865287Y-105811086D01*
X117898579Y-105757316D01*
X117946649Y-105721015D01*
X118040252Y-105699000D01*
X118612665Y-105699000D01*
X118686414Y-105712787D01*
X118686414Y-105712787D01*
G37*
G36*
X139688914Y-105827787D02*
G01*
X139742684Y-105861079D01*
X139778985Y-105909149D01*
X139801000Y-106002752D01*
X139801000Y-106575165D01*
X139787213Y-106648914D01*
X139753921Y-106702684D01*
X139705851Y-106738985D01*
X139612248Y-106761000D01*
X138884835Y-106761000D01*
X138811086Y-106747213D01*
X138757316Y-106713921D01*
X138721015Y-106665851D01*
X138699000Y-106572248D01*
X138699000Y-105999835D01*
X138712787Y-105926086D01*
X138746079Y-105872316D01*
X138794149Y-105836015D01*
X138887752Y-105814000D01*
X139615165Y-105814000D01*
X139688914Y-105827787D01*
X139688914Y-105827787D01*
G37*
G36*
X145938914Y-105577787D02*
G01*
X145992684Y-105611079D01*
X146028985Y-105659149D01*
X146051000Y-105752752D01*
X146051000Y-106325165D01*
X146037213Y-106398914D01*
X146003921Y-106452684D01*
X145955851Y-106488985D01*
X145862248Y-106511000D01*
X145134835Y-106511000D01*
X145061086Y-106497213D01*
X145007316Y-106463921D01*
X144971015Y-106415851D01*
X144949000Y-106322248D01*
X144949000Y-105749835D01*
X144962787Y-105676086D01*
X144996079Y-105622316D01*
X145044149Y-105586015D01*
X145137752Y-105564000D01*
X145865165Y-105564000D01*
X145938914Y-105577787D01*
X145938914Y-105577787D01*
G37*
G36*
X188438914Y-105365287D02*
G01*
X188492684Y-105398579D01*
X188528985Y-105446649D01*
X188551000Y-105540252D01*
X188551000Y-106112665D01*
X188537213Y-106186414D01*
X188503921Y-106240184D01*
X188455851Y-106276485D01*
X188362248Y-106298500D01*
X187634835Y-106298500D01*
X187561086Y-106284713D01*
X187507316Y-106251421D01*
X187471015Y-106203351D01*
X187449000Y-106109748D01*
X187449000Y-105537335D01*
X187462787Y-105463586D01*
X187496079Y-105409816D01*
X187544149Y-105373515D01*
X187637752Y-105351500D01*
X188365165Y-105351500D01*
X188438914Y-105365287D01*
X188438914Y-105365287D01*
G37*
G36*
X164767381Y-104446783D02*
G01*
X164790734Y-104445314D01*
X164841992Y-104456209D01*
X164885218Y-104461670D01*
X164906974Y-104470021D01*
X164938399Y-104476701D01*
X164977154Y-104496961D01*
X165009724Y-104509464D01*
X165035993Y-104527721D01*
X165072185Y-104546642D01*
X165097727Y-104570628D01*
X165119239Y-104585579D01*
X165146135Y-104616086D01*
X165182233Y-104649985D01*
X165195865Y-104672493D01*
X165207433Y-104685615D01*
X165230289Y-104729334D01*
X165260437Y-104779114D01*
X165265164Y-104796043D01*
X165269220Y-104803802D01*
X165283047Y-104860095D01*
X165301034Y-104924518D01*
X165299333Y-105087006D01*
X165279987Y-105151082D01*
X165264997Y-105207026D01*
X165260781Y-105214695D01*
X165255699Y-105231527D01*
X165224508Y-105280676D01*
X165200747Y-105323898D01*
X165188908Y-105336772D01*
X165174808Y-105358991D01*
X165138006Y-105392128D01*
X165110478Y-105422064D01*
X165088657Y-105436562D01*
X165062620Y-105460006D01*
X165026045Y-105478162D01*
X164999394Y-105495869D01*
X164966565Y-105507688D01*
X164927399Y-105527130D01*
X164895839Y-105533150D01*
X164873916Y-105541043D01*
X164830593Y-105545597D01*
X164779108Y-105555418D01*
X164755787Y-105553460D01*
X164741284Y-105554984D01*
X164689548Y-105547897D01*
X164628673Y-105542785D01*
X164614937Y-105537677D01*
X164609150Y-105536884D01*
X164552595Y-105514492D01*
X164487177Y-105490163D01*
X164428252Y-105447352D01*
X164376441Y-105410532D01*
X164374537Y-105408326D01*
X164365044Y-105401429D01*
X164325302Y-105351287D01*
X164289300Y-105309579D01*
X164284001Y-105299179D01*
X164271272Y-105283119D01*
X164249838Y-105232129D01*
X164228754Y-105190749D01*
X164224096Y-105170892D01*
X164212771Y-105143950D01*
X164206928Y-105097696D01*
X164198299Y-105060909D01*
X164198604Y-105031808D01*
X164193850Y-104994176D01*
X164199392Y-104956647D01*
X164199697Y-104927552D01*
X164209092Y-104890961D01*
X164215904Y-104844831D01*
X164227791Y-104818132D01*
X164232864Y-104798375D01*
X164254815Y-104757436D01*
X164277307Y-104706918D01*
X164290366Y-104691132D01*
X164295883Y-104680843D01*
X164332753Y-104639895D01*
X164373535Y-104590598D01*
X164383171Y-104583901D01*
X164385122Y-104581734D01*
X164437700Y-104546002D01*
X164497500Y-104504440D01*
X164563435Y-104481479D01*
X164620424Y-104460285D01*
X164626223Y-104459614D01*
X164640067Y-104454793D01*
X164701037Y-104450957D01*
X164752909Y-104444955D01*
X164767381Y-104446783D01*
X164767381Y-104446783D01*
G37*
G36*
X186312210Y-103965366D02*
G01*
X186402609Y-104008899D01*
X186476154Y-104077139D01*
X186525123Y-104161954D01*
X186551000Y-104298722D01*
X186551000Y-105203632D01*
X186534634Y-105312210D01*
X186491101Y-105402609D01*
X186422861Y-105476154D01*
X186338046Y-105525123D01*
X186201278Y-105551000D01*
X184796368Y-105551000D01*
X184687790Y-105534634D01*
X184597391Y-105491101D01*
X184523846Y-105422861D01*
X184474877Y-105338046D01*
X184449000Y-105201278D01*
X184449000Y-104296368D01*
X184465366Y-104187790D01*
X184508899Y-104097391D01*
X184577139Y-104023846D01*
X184661954Y-103974877D01*
X184798722Y-103949000D01*
X186203632Y-103949000D01*
X186312210Y-103965366D01*
X186312210Y-103965366D01*
G37*
G36*
X170312210Y-103965366D02*
G01*
X170402609Y-104008899D01*
X170476154Y-104077139D01*
X170525123Y-104161954D01*
X170551000Y-104298722D01*
X170551000Y-105203632D01*
X170534634Y-105312210D01*
X170491101Y-105402609D01*
X170422861Y-105476154D01*
X170338046Y-105525123D01*
X170201278Y-105551000D01*
X168796368Y-105551000D01*
X168687790Y-105534634D01*
X168597391Y-105491101D01*
X168523846Y-105422861D01*
X168474877Y-105338046D01*
X168449000Y-105201278D01*
X168449000Y-104296368D01*
X168465366Y-104187790D01*
X168508899Y-104097391D01*
X168577139Y-104023846D01*
X168661954Y-103974877D01*
X168798722Y-103949000D01*
X170203632Y-103949000D01*
X170312210Y-103965366D01*
X170312210Y-103965366D01*
G37*
G36*
X186312210Y-101965366D02*
G01*
X186402609Y-102008899D01*
X186476154Y-102077139D01*
X186525123Y-102161954D01*
X186551000Y-102298722D01*
X186551000Y-103203632D01*
X186534634Y-103312210D01*
X186491101Y-103402609D01*
X186422861Y-103476154D01*
X186338046Y-103525123D01*
X186201278Y-103551000D01*
X184796368Y-103551000D01*
X184687790Y-103534634D01*
X184597391Y-103491101D01*
X184523846Y-103422861D01*
X184474877Y-103338046D01*
X184449000Y-103201278D01*
X184449000Y-102296368D01*
X184465366Y-102187790D01*
X184508899Y-102097391D01*
X184577139Y-102023846D01*
X184661954Y-101974877D01*
X184798722Y-101949000D01*
X186203632Y-101949000D01*
X186312210Y-101965366D01*
X186312210Y-101965366D01*
G37*
G36*
X170312210Y-101965366D02*
G01*
X170402609Y-102008899D01*
X170476154Y-102077139D01*
X170525123Y-102161954D01*
X170551000Y-102298722D01*
X170551000Y-103203632D01*
X170534634Y-103312210D01*
X170491101Y-103402609D01*
X170422861Y-103476154D01*
X170338046Y-103525123D01*
X170201278Y-103551000D01*
X168796368Y-103551000D01*
X168687790Y-103534634D01*
X168597391Y-103491101D01*
X168523846Y-103422861D01*
X168474877Y-103338046D01*
X168449000Y-103201278D01*
X168449000Y-102296368D01*
X168465366Y-102187790D01*
X168508899Y-102097391D01*
X168577139Y-102023846D01*
X168661954Y-101974877D01*
X168798722Y-101949000D01*
X170203632Y-101949000D01*
X170312210Y-101965366D01*
X170312210Y-101965366D01*
G37*
G36*
X164267381Y-102196783D02*
G01*
X164290734Y-102195314D01*
X164341992Y-102206209D01*
X164385218Y-102211670D01*
X164406974Y-102220021D01*
X164438399Y-102226701D01*
X164477154Y-102246961D01*
X164509724Y-102259464D01*
X164535993Y-102277721D01*
X164572185Y-102296642D01*
X164597727Y-102320628D01*
X164619239Y-102335579D01*
X164646135Y-102366086D01*
X164682233Y-102399985D01*
X164695865Y-102422493D01*
X164707433Y-102435615D01*
X164730289Y-102479334D01*
X164760437Y-102529114D01*
X164765164Y-102546043D01*
X164769220Y-102553802D01*
X164783047Y-102610095D01*
X164801034Y-102674518D01*
X164799333Y-102837006D01*
X164779987Y-102901082D01*
X164764997Y-102957026D01*
X164760781Y-102964695D01*
X164755699Y-102981527D01*
X164724508Y-103030676D01*
X164700747Y-103073898D01*
X164688908Y-103086772D01*
X164674808Y-103108991D01*
X164638006Y-103142128D01*
X164610478Y-103172064D01*
X164588657Y-103186562D01*
X164562620Y-103210006D01*
X164526045Y-103228162D01*
X164499394Y-103245869D01*
X164466565Y-103257688D01*
X164427399Y-103277130D01*
X164395839Y-103283150D01*
X164373916Y-103291043D01*
X164330593Y-103295597D01*
X164279108Y-103305418D01*
X164255787Y-103303460D01*
X164241284Y-103304984D01*
X164189548Y-103297897D01*
X164128673Y-103292785D01*
X164114937Y-103287677D01*
X164109150Y-103286884D01*
X164052595Y-103264492D01*
X163987177Y-103240163D01*
X163928252Y-103197352D01*
X163876441Y-103160532D01*
X163874537Y-103158326D01*
X163865044Y-103151429D01*
X163825302Y-103101287D01*
X163789300Y-103059579D01*
X163784001Y-103049179D01*
X163771272Y-103033119D01*
X163749838Y-102982129D01*
X163728754Y-102940749D01*
X163724096Y-102920892D01*
X163712771Y-102893950D01*
X163706928Y-102847696D01*
X163698299Y-102810909D01*
X163698604Y-102781808D01*
X163693850Y-102744176D01*
X163699392Y-102706647D01*
X163699697Y-102677552D01*
X163709092Y-102640961D01*
X163715904Y-102594831D01*
X163727791Y-102568132D01*
X163732864Y-102548375D01*
X163754815Y-102507436D01*
X163777307Y-102456918D01*
X163790366Y-102441132D01*
X163795883Y-102430843D01*
X163832753Y-102389895D01*
X163873535Y-102340598D01*
X163883171Y-102333901D01*
X163885122Y-102331734D01*
X163937700Y-102296002D01*
X163997500Y-102254440D01*
X164063435Y-102231479D01*
X164120424Y-102210285D01*
X164126223Y-102209614D01*
X164140067Y-102204793D01*
X164201037Y-102200957D01*
X164252909Y-102194955D01*
X164267381Y-102196783D01*
X164267381Y-102196783D01*
G37*
G36*
X115301000Y-102901000D02*
G01*
X113199000Y-102901000D01*
X113199000Y-101099000D01*
X115301000Y-101099000D01*
X115301000Y-102901000D01*
X115301000Y-102901000D01*
G37*
G36*
X122289907Y-100664937D02*
G01*
X122383557Y-100707706D01*
X122461365Y-100775127D01*
X122514552Y-100857888D01*
X122551000Y-101025436D01*
X122551000Y-101979058D01*
X122535063Y-102089907D01*
X122492294Y-102183557D01*
X122424873Y-102261365D01*
X122342112Y-102314552D01*
X122174564Y-102351000D01*
X119320942Y-102351000D01*
X119210093Y-102335063D01*
X119116443Y-102292294D01*
X119038635Y-102224873D01*
X118985448Y-102142112D01*
X118949000Y-101974564D01*
X118949000Y-101020942D01*
X118964937Y-100910093D01*
X119007706Y-100816443D01*
X119075127Y-100738635D01*
X119157888Y-100685448D01*
X119325436Y-100649000D01*
X122179058Y-100649000D01*
X122289907Y-100664937D01*
X122289907Y-100664937D01*
G37*
G36*
X127689907Y-100664937D02*
G01*
X127783557Y-100707706D01*
X127861365Y-100775127D01*
X127914552Y-100857888D01*
X127951000Y-101025436D01*
X127951000Y-101979058D01*
X127935063Y-102089907D01*
X127892294Y-102183557D01*
X127824873Y-102261365D01*
X127742112Y-102314552D01*
X127574564Y-102351000D01*
X124720942Y-102351000D01*
X124610093Y-102335063D01*
X124516443Y-102292294D01*
X124438635Y-102224873D01*
X124385448Y-102142112D01*
X124349000Y-101974564D01*
X124349000Y-101020942D01*
X124364937Y-100910093D01*
X124407706Y-100816443D01*
X124475127Y-100738635D01*
X124557888Y-100685448D01*
X124725436Y-100649000D01*
X127579058Y-100649000D01*
X127689907Y-100664937D01*
X127689907Y-100664937D01*
G37*
G36*
X156649073Y-100429813D02*
G01*
X156718788Y-100439837D01*
X156763499Y-100424362D01*
X156797253Y-100404874D01*
X156834338Y-100399000D01*
X157262361Y-100399000D01*
X157315240Y-100410240D01*
X157348111Y-100434122D01*
X157370126Y-100472253D01*
X157376000Y-100509338D01*
X157376000Y-101987361D01*
X157364760Y-102040240D01*
X157340878Y-102073111D01*
X157302747Y-102095126D01*
X157265662Y-102101000D01*
X156837639Y-102101000D01*
X156784758Y-102089760D01*
X156774472Y-102082287D01*
X156708135Y-102058618D01*
X156639533Y-102074571D01*
X156613848Y-102101000D01*
X151124000Y-102101000D01*
X151124000Y-100399000D01*
X156613512Y-100399000D01*
X156649073Y-100429813D01*
X156649073Y-100429813D01*
G37*
G36*
X186312210Y-99965366D02*
G01*
X186402609Y-100008899D01*
X186476154Y-100077139D01*
X186525123Y-100161954D01*
X186551000Y-100298722D01*
X186551000Y-101203632D01*
X186534634Y-101312210D01*
X186491101Y-101402609D01*
X186422861Y-101476154D01*
X186338046Y-101525123D01*
X186201278Y-101551000D01*
X184796368Y-101551000D01*
X184687790Y-101534634D01*
X184597391Y-101491101D01*
X184523846Y-101422861D01*
X184474877Y-101338046D01*
X184449000Y-101201278D01*
X184449000Y-100296368D01*
X184465366Y-100187790D01*
X184508899Y-100097391D01*
X184577139Y-100023846D01*
X184661954Y-99974877D01*
X184798722Y-99949000D01*
X186203632Y-99949000D01*
X186312210Y-99965366D01*
X186312210Y-99965366D01*
G37*
G36*
X170312210Y-99965366D02*
G01*
X170402609Y-100008899D01*
X170476154Y-100077139D01*
X170525123Y-100161954D01*
X170551000Y-100298722D01*
X170551000Y-101203632D01*
X170534634Y-101312210D01*
X170491101Y-101402609D01*
X170422861Y-101476154D01*
X170338046Y-101525123D01*
X170201278Y-101551000D01*
X168796368Y-101551000D01*
X168687790Y-101534634D01*
X168597391Y-101491101D01*
X168523846Y-101422861D01*
X168474877Y-101338046D01*
X168449000Y-101201278D01*
X168449000Y-100296368D01*
X168465366Y-100187790D01*
X168508899Y-100097391D01*
X168577139Y-100023846D01*
X168661954Y-99974877D01*
X168798722Y-99949000D01*
X170203632Y-99949000D01*
X170312210Y-99965366D01*
X170312210Y-99965366D01*
G37*
G36*
X165267381Y-99946783D02*
G01*
X165290734Y-99945314D01*
X165341992Y-99956209D01*
X165385218Y-99961670D01*
X165406974Y-99970021D01*
X165438399Y-99976701D01*
X165477154Y-99996961D01*
X165509724Y-100009464D01*
X165535993Y-100027721D01*
X165572185Y-100046642D01*
X165597727Y-100070628D01*
X165619239Y-100085579D01*
X165646135Y-100116086D01*
X165682233Y-100149985D01*
X165695865Y-100172493D01*
X165707433Y-100185615D01*
X165730289Y-100229334D01*
X165760437Y-100279114D01*
X165765164Y-100296043D01*
X165769220Y-100303802D01*
X165783047Y-100360095D01*
X165801034Y-100424518D01*
X165799333Y-100587006D01*
X165779987Y-100651082D01*
X165764997Y-100707026D01*
X165760781Y-100714695D01*
X165755699Y-100731527D01*
X165724508Y-100780676D01*
X165700747Y-100823898D01*
X165688908Y-100836772D01*
X165674808Y-100858991D01*
X165638006Y-100892128D01*
X165610478Y-100922064D01*
X165588657Y-100936562D01*
X165562620Y-100960006D01*
X165526045Y-100978162D01*
X165499394Y-100995869D01*
X165466565Y-101007688D01*
X165427399Y-101027130D01*
X165395839Y-101033150D01*
X165373916Y-101041043D01*
X165330593Y-101045597D01*
X165279108Y-101055418D01*
X165255787Y-101053460D01*
X165241284Y-101054984D01*
X165189548Y-101047897D01*
X165128673Y-101042785D01*
X165114937Y-101037677D01*
X165109150Y-101036884D01*
X165052595Y-101014492D01*
X164987177Y-100990163D01*
X164928252Y-100947352D01*
X164876441Y-100910532D01*
X164874537Y-100908326D01*
X164865044Y-100901429D01*
X164825302Y-100851287D01*
X164789300Y-100809579D01*
X164784001Y-100799179D01*
X164771272Y-100783119D01*
X164749838Y-100732129D01*
X164728754Y-100690749D01*
X164724096Y-100670892D01*
X164712771Y-100643950D01*
X164706928Y-100597696D01*
X164698299Y-100560909D01*
X164698604Y-100531808D01*
X164693850Y-100494176D01*
X164699392Y-100456647D01*
X164699697Y-100427552D01*
X164709092Y-100390961D01*
X164715904Y-100344831D01*
X164727791Y-100318132D01*
X164732864Y-100298375D01*
X164754815Y-100257436D01*
X164777307Y-100206918D01*
X164790366Y-100191132D01*
X164795883Y-100180843D01*
X164832753Y-100139895D01*
X164873535Y-100090598D01*
X164883171Y-100083901D01*
X164885122Y-100081734D01*
X164937700Y-100046002D01*
X164997500Y-100004440D01*
X165063435Y-99981479D01*
X165120424Y-99960285D01*
X165126223Y-99959614D01*
X165140067Y-99954793D01*
X165201037Y-99950957D01*
X165252909Y-99944955D01*
X165267381Y-99946783D01*
X165267381Y-99946783D01*
G37*
G36*
X144938914Y-99752787D02*
G01*
X144992684Y-99786079D01*
X145028985Y-99834149D01*
X145051000Y-99927752D01*
X145051000Y-100500165D01*
X145037213Y-100573914D01*
X145003921Y-100627684D01*
X144955851Y-100663985D01*
X144862248Y-100686000D01*
X144134835Y-100686000D01*
X144061086Y-100672213D01*
X144007316Y-100638921D01*
X143971015Y-100590851D01*
X143949000Y-100497248D01*
X143949000Y-99924835D01*
X143962787Y-99851086D01*
X143996079Y-99797316D01*
X144044149Y-99761015D01*
X144137752Y-99739000D01*
X144865165Y-99739000D01*
X144938914Y-99752787D01*
X144938914Y-99752787D01*
G37*
G36*
X148438914Y-99715287D02*
G01*
X148492684Y-99748579D01*
X148528985Y-99796649D01*
X148551000Y-99890252D01*
X148551000Y-100462665D01*
X148537213Y-100536414D01*
X148503921Y-100590184D01*
X148455851Y-100626485D01*
X148362248Y-100648500D01*
X147634835Y-100648500D01*
X147561086Y-100634713D01*
X147507316Y-100601421D01*
X147471015Y-100553351D01*
X147449000Y-100459748D01*
X147449000Y-99887335D01*
X147462787Y-99813586D01*
X147496079Y-99759816D01*
X147544149Y-99723515D01*
X147637752Y-99701500D01*
X148365165Y-99701500D01*
X148438914Y-99715287D01*
X148438914Y-99715287D01*
G37*
G36*
X114588360Y-98613835D02*
G01*
X114669397Y-98640166D01*
X114756663Y-98667848D01*
X114759655Y-98669493D01*
X114768488Y-98672363D01*
X114840466Y-98713919D01*
X114911499Y-98752970D01*
X114918986Y-98759253D01*
X114932511Y-98767061D01*
X114990259Y-98819057D01*
X115046857Y-98866549D01*
X115056962Y-98879118D01*
X115073261Y-98893793D01*
X115115454Y-98951867D01*
X115157579Y-99004260D01*
X115167994Y-99024182D01*
X115184586Y-99047019D01*
X115211297Y-99107012D01*
X115239439Y-99160843D01*
X115247582Y-99188510D01*
X115261621Y-99220042D01*
X115273992Y-99278241D01*
X115289328Y-99330349D01*
X115292518Y-99365401D01*
X115300999Y-99405301D01*
X115300999Y-99458592D01*
X115305343Y-99506324D01*
X115300999Y-99547653D01*
X115300999Y-99594699D01*
X115291217Y-99640721D01*
X115286873Y-99682047D01*
X115272702Y-99727827D01*
X115261621Y-99779958D01*
X115245028Y-99817226D01*
X115234622Y-99850843D01*
X115208789Y-99898620D01*
X115184586Y-99952981D01*
X115164298Y-99980905D01*
X115150580Y-100006276D01*
X115111859Y-100053082D01*
X115073261Y-100106207D01*
X115052284Y-100125095D01*
X115037952Y-100142419D01*
X114985845Y-100184917D01*
X114932511Y-100232939D01*
X114913524Y-100243901D01*
X114901025Y-100254095D01*
X114835780Y-100288786D01*
X114768488Y-100327637D01*
X114753636Y-100332463D01*
X114745003Y-100337053D01*
X114667430Y-100360473D01*
X114588360Y-100386165D01*
X114579114Y-100387137D01*
X114575851Y-100388122D01*
X114484710Y-100397059D01*
X114447211Y-100401000D01*
X114052789Y-100401000D01*
X113911640Y-100386165D01*
X113830603Y-100359834D01*
X113743337Y-100332152D01*
X113740345Y-100330507D01*
X113731512Y-100327637D01*
X113659534Y-100286081D01*
X113588501Y-100247030D01*
X113581014Y-100240747D01*
X113567489Y-100232939D01*
X113509741Y-100180943D01*
X113453143Y-100133451D01*
X113443038Y-100120882D01*
X113426739Y-100106207D01*
X113384546Y-100048133D01*
X113342421Y-99995740D01*
X113332006Y-99975818D01*
X113315414Y-99952981D01*
X113288703Y-99892988D01*
X113260561Y-99839157D01*
X113252418Y-99811490D01*
X113238379Y-99779958D01*
X113226008Y-99721759D01*
X113210672Y-99669651D01*
X113207482Y-99634599D01*
X113199001Y-99594699D01*
X113199001Y-99541408D01*
X113194657Y-99493676D01*
X113199001Y-99452347D01*
X113199001Y-99405301D01*
X113208783Y-99359279D01*
X113213127Y-99317953D01*
X113227298Y-99272173D01*
X113238379Y-99220042D01*
X113254972Y-99182774D01*
X113265378Y-99149157D01*
X113291211Y-99101380D01*
X113315414Y-99047019D01*
X113335702Y-99019095D01*
X113349420Y-98993724D01*
X113388141Y-98946918D01*
X113426739Y-98893793D01*
X113447716Y-98874905D01*
X113462048Y-98857581D01*
X113514155Y-98815083D01*
X113567489Y-98767061D01*
X113586476Y-98756099D01*
X113598975Y-98745905D01*
X113664220Y-98711214D01*
X113731512Y-98672363D01*
X113746364Y-98667537D01*
X113754997Y-98662947D01*
X113832570Y-98639527D01*
X113911640Y-98613835D01*
X113920886Y-98612863D01*
X113924149Y-98611878D01*
X114015290Y-98602941D01*
X114052789Y-98599000D01*
X114447211Y-98599000D01*
X114588360Y-98613835D01*
X114588360Y-98613835D01*
G37*
G36*
X154767381Y-98446783D02*
G01*
X154790734Y-98445314D01*
X154841992Y-98456209D01*
X154885218Y-98461670D01*
X154906974Y-98470021D01*
X154938399Y-98476701D01*
X154977154Y-98496961D01*
X155009724Y-98509464D01*
X155035993Y-98527721D01*
X155072185Y-98546642D01*
X155097727Y-98570628D01*
X155119239Y-98585579D01*
X155146135Y-98616086D01*
X155182233Y-98649985D01*
X155195865Y-98672493D01*
X155207433Y-98685615D01*
X155230289Y-98729334D01*
X155260437Y-98779114D01*
X155265164Y-98796043D01*
X155269220Y-98803802D01*
X155283047Y-98860095D01*
X155301034Y-98924518D01*
X155299333Y-99087006D01*
X155279987Y-99151082D01*
X155264997Y-99207026D01*
X155260781Y-99214695D01*
X155255699Y-99231527D01*
X155224508Y-99280676D01*
X155200747Y-99323898D01*
X155188908Y-99336772D01*
X155174808Y-99358991D01*
X155138006Y-99392128D01*
X155110478Y-99422064D01*
X155088657Y-99436562D01*
X155062620Y-99460006D01*
X155026045Y-99478162D01*
X154999394Y-99495869D01*
X154966565Y-99507688D01*
X154927399Y-99527130D01*
X154895839Y-99533150D01*
X154873916Y-99541043D01*
X154830593Y-99545597D01*
X154779108Y-99555418D01*
X154755787Y-99553460D01*
X154741284Y-99554984D01*
X154689548Y-99547897D01*
X154628673Y-99542785D01*
X154614937Y-99537677D01*
X154609150Y-99536884D01*
X154552595Y-99514492D01*
X154487177Y-99490163D01*
X154428252Y-99447352D01*
X154376441Y-99410532D01*
X154374537Y-99408326D01*
X154365044Y-99401429D01*
X154325302Y-99351287D01*
X154289300Y-99309579D01*
X154284001Y-99299179D01*
X154271272Y-99283119D01*
X154249838Y-99232129D01*
X154228754Y-99190749D01*
X154224096Y-99170892D01*
X154212771Y-99143950D01*
X154206928Y-99097696D01*
X154198299Y-99060909D01*
X154198604Y-99031808D01*
X154193850Y-98994176D01*
X154199392Y-98956647D01*
X154199697Y-98927552D01*
X154209092Y-98890961D01*
X154215904Y-98844831D01*
X154227791Y-98818132D01*
X154232864Y-98798375D01*
X154254815Y-98757436D01*
X154277307Y-98706918D01*
X154290366Y-98691132D01*
X154295883Y-98680843D01*
X154332753Y-98639895D01*
X154373535Y-98590598D01*
X154383171Y-98583901D01*
X154385122Y-98581734D01*
X154437700Y-98546002D01*
X154497500Y-98504440D01*
X154563435Y-98481479D01*
X154620424Y-98460285D01*
X154626223Y-98459614D01*
X154640067Y-98454793D01*
X154701037Y-98450957D01*
X154752909Y-98444955D01*
X154767381Y-98446783D01*
X154767381Y-98446783D01*
G37*
G36*
X186312210Y-97965366D02*
G01*
X186402609Y-98008899D01*
X186476154Y-98077139D01*
X186525123Y-98161954D01*
X186551000Y-98298722D01*
X186551000Y-99203632D01*
X186534634Y-99312210D01*
X186491101Y-99402609D01*
X186422861Y-99476154D01*
X186338046Y-99525123D01*
X186201278Y-99551000D01*
X184796368Y-99551000D01*
X184687790Y-99534634D01*
X184597391Y-99491101D01*
X184523846Y-99422861D01*
X184474877Y-99338046D01*
X184449000Y-99201278D01*
X184449000Y-98296368D01*
X184465366Y-98187790D01*
X184508899Y-98097391D01*
X184577139Y-98023846D01*
X184661954Y-97974877D01*
X184798722Y-97949000D01*
X186203632Y-97949000D01*
X186312210Y-97965366D01*
X186312210Y-97965366D01*
G37*
G36*
X170312210Y-97965366D02*
G01*
X170402609Y-98008899D01*
X170476154Y-98077139D01*
X170525123Y-98161954D01*
X170551000Y-98298722D01*
X170551000Y-99203632D01*
X170534634Y-99312210D01*
X170491101Y-99402609D01*
X170422861Y-99476154D01*
X170338046Y-99525123D01*
X170201278Y-99551000D01*
X168796368Y-99551000D01*
X168687790Y-99534634D01*
X168597391Y-99491101D01*
X168523846Y-99422861D01*
X168474877Y-99338046D01*
X168449000Y-99201278D01*
X168449000Y-98296368D01*
X168465366Y-98187790D01*
X168508899Y-98097391D01*
X168577139Y-98023846D01*
X168661954Y-97974877D01*
X168798722Y-97949000D01*
X170203632Y-97949000D01*
X170312210Y-97965366D01*
X170312210Y-97965366D01*
G37*
G36*
X160398914Y-98462787D02*
G01*
X160452684Y-98496079D01*
X160488985Y-98544149D01*
X160511000Y-98637752D01*
X160511000Y-99365165D01*
X160497213Y-99438914D01*
X160463921Y-99492684D01*
X160415851Y-99528985D01*
X160322248Y-99551000D01*
X159749835Y-99551000D01*
X159676086Y-99537213D01*
X159622316Y-99503921D01*
X159586015Y-99455851D01*
X159564000Y-99362248D01*
X159564000Y-98634835D01*
X159577787Y-98561086D01*
X159611079Y-98507316D01*
X159659149Y-98471015D01*
X159752752Y-98449000D01*
X160325165Y-98449000D01*
X160398914Y-98462787D01*
X160398914Y-98462787D01*
G37*
G36*
X162323914Y-98462787D02*
G01*
X162377684Y-98496079D01*
X162413985Y-98544149D01*
X162436000Y-98637752D01*
X162436000Y-99365165D01*
X162422213Y-99438914D01*
X162388921Y-99492684D01*
X162340851Y-99528985D01*
X162247248Y-99551000D01*
X161674835Y-99551000D01*
X161601086Y-99537213D01*
X161547316Y-99503921D01*
X161511015Y-99455851D01*
X161489000Y-99362248D01*
X161489000Y-98634835D01*
X161502787Y-98561086D01*
X161536079Y-98507316D01*
X161584149Y-98471015D01*
X161677752Y-98449000D01*
X162250165Y-98449000D01*
X162323914Y-98462787D01*
X162323914Y-98462787D01*
G37*
G36*
X144938914Y-97827787D02*
G01*
X144992684Y-97861079D01*
X145028985Y-97909149D01*
X145051000Y-98002752D01*
X145051000Y-98575165D01*
X145037213Y-98648914D01*
X145003921Y-98702684D01*
X144955851Y-98738985D01*
X144862248Y-98761000D01*
X144134835Y-98761000D01*
X144061086Y-98747213D01*
X144007316Y-98713921D01*
X143971015Y-98665851D01*
X143949000Y-98572248D01*
X143949000Y-97999835D01*
X143962787Y-97926086D01*
X143996079Y-97872316D01*
X144044149Y-97836015D01*
X144137752Y-97814000D01*
X144865165Y-97814000D01*
X144938914Y-97827787D01*
X144938914Y-97827787D01*
G37*
G36*
X148438914Y-97790287D02*
G01*
X148492684Y-97823579D01*
X148528985Y-97871649D01*
X148551000Y-97965252D01*
X148551000Y-98537665D01*
X148537213Y-98611414D01*
X148503921Y-98665184D01*
X148455851Y-98701485D01*
X148362248Y-98723500D01*
X147634835Y-98723500D01*
X147561086Y-98709713D01*
X147507316Y-98676421D01*
X147471015Y-98628351D01*
X147449000Y-98534748D01*
X147449000Y-97962335D01*
X147462787Y-97888586D01*
X147496079Y-97834816D01*
X147544149Y-97798515D01*
X147637752Y-97776500D01*
X148365165Y-97776500D01*
X148438914Y-97790287D01*
X148438914Y-97790287D01*
G37*
G36*
X136398360Y-96363835D02*
G01*
X136479397Y-96390166D01*
X136566663Y-96417848D01*
X136569655Y-96419493D01*
X136578488Y-96422363D01*
X136650466Y-96463919D01*
X136721499Y-96502970D01*
X136728986Y-96509253D01*
X136742511Y-96517061D01*
X136800259Y-96569057D01*
X136856857Y-96616549D01*
X136866962Y-96629118D01*
X136883261Y-96643793D01*
X136925454Y-96701867D01*
X136967579Y-96754260D01*
X136977994Y-96774182D01*
X136994586Y-96797019D01*
X137021297Y-96857012D01*
X137049439Y-96910843D01*
X137057582Y-96938510D01*
X137071621Y-96970042D01*
X137083992Y-97028241D01*
X137099328Y-97080349D01*
X137102518Y-97115401D01*
X137110999Y-97155301D01*
X137110999Y-97208592D01*
X137115343Y-97256324D01*
X137110999Y-97297653D01*
X137110999Y-97344699D01*
X137101217Y-97390721D01*
X137096873Y-97432047D01*
X137082702Y-97477827D01*
X137071621Y-97529958D01*
X137055028Y-97567226D01*
X137044622Y-97600843D01*
X137018789Y-97648620D01*
X136994586Y-97702981D01*
X136974298Y-97730905D01*
X136960580Y-97756276D01*
X136921859Y-97803082D01*
X136883261Y-97856207D01*
X136862284Y-97875095D01*
X136847952Y-97892419D01*
X136795845Y-97934917D01*
X136742511Y-97982939D01*
X136723524Y-97993901D01*
X136711025Y-98004095D01*
X136645780Y-98038786D01*
X136578488Y-98077637D01*
X136563636Y-98082463D01*
X136555003Y-98087053D01*
X136477430Y-98110473D01*
X136398360Y-98136165D01*
X136389114Y-98137137D01*
X136385851Y-98138122D01*
X136294710Y-98147059D01*
X136257211Y-98151000D01*
X136162789Y-98151000D01*
X136021640Y-98136165D01*
X135940603Y-98109834D01*
X135853337Y-98082152D01*
X135850345Y-98080507D01*
X135841512Y-98077637D01*
X135769534Y-98036081D01*
X135698501Y-97997030D01*
X135691014Y-97990747D01*
X135677489Y-97982939D01*
X135619741Y-97930943D01*
X135563143Y-97883451D01*
X135553038Y-97870882D01*
X135536739Y-97856207D01*
X135494546Y-97798133D01*
X135452421Y-97745740D01*
X135442006Y-97725818D01*
X135425414Y-97702981D01*
X135398703Y-97642988D01*
X135370561Y-97589157D01*
X135362418Y-97561490D01*
X135348379Y-97529958D01*
X135336008Y-97471759D01*
X135320672Y-97419651D01*
X135317482Y-97384599D01*
X135309001Y-97344699D01*
X135309001Y-97291408D01*
X135304657Y-97243676D01*
X135309001Y-97202347D01*
X135309001Y-97155301D01*
X135318783Y-97109279D01*
X135323127Y-97067953D01*
X135337298Y-97022173D01*
X135348379Y-96970042D01*
X135364972Y-96932774D01*
X135375378Y-96899157D01*
X135401211Y-96851380D01*
X135425414Y-96797019D01*
X135445702Y-96769095D01*
X135459420Y-96743724D01*
X135498141Y-96696918D01*
X135536739Y-96643793D01*
X135557716Y-96624905D01*
X135572048Y-96607581D01*
X135624155Y-96565083D01*
X135677489Y-96517061D01*
X135696476Y-96506099D01*
X135708975Y-96495905D01*
X135774220Y-96461214D01*
X135841512Y-96422363D01*
X135856364Y-96417537D01*
X135864997Y-96412947D01*
X135942570Y-96389527D01*
X136021640Y-96363835D01*
X136030886Y-96362863D01*
X136034149Y-96361878D01*
X136125290Y-96352941D01*
X136162789Y-96349000D01*
X136257211Y-96349000D01*
X136398360Y-96363835D01*
X136398360Y-96363835D01*
G37*
G36*
X134571000Y-98151000D02*
G01*
X132769000Y-98151000D01*
X132769000Y-96349000D01*
X134571000Y-96349000D01*
X134571000Y-98151000D01*
X134571000Y-98151000D01*
G37*
G36*
X138938360Y-96363835D02*
G01*
X139019397Y-96390166D01*
X139106663Y-96417848D01*
X139109655Y-96419493D01*
X139118488Y-96422363D01*
X139190466Y-96463919D01*
X139261499Y-96502970D01*
X139268986Y-96509253D01*
X139282511Y-96517061D01*
X139340259Y-96569057D01*
X139396857Y-96616549D01*
X139406962Y-96629118D01*
X139423261Y-96643793D01*
X139465454Y-96701867D01*
X139507579Y-96754260D01*
X139517994Y-96774182D01*
X139534586Y-96797019D01*
X139561297Y-96857012D01*
X139589439Y-96910843D01*
X139597582Y-96938510D01*
X139611621Y-96970042D01*
X139623992Y-97028241D01*
X139639328Y-97080349D01*
X139642518Y-97115401D01*
X139650999Y-97155301D01*
X139650999Y-97208592D01*
X139655343Y-97256324D01*
X139650999Y-97297653D01*
X139650999Y-97344699D01*
X139641217Y-97390721D01*
X139636873Y-97432047D01*
X139622702Y-97477827D01*
X139611621Y-97529958D01*
X139595028Y-97567226D01*
X139584622Y-97600843D01*
X139558789Y-97648620D01*
X139534586Y-97702981D01*
X139514298Y-97730905D01*
X139500580Y-97756276D01*
X139461859Y-97803082D01*
X139423261Y-97856207D01*
X139402284Y-97875095D01*
X139387952Y-97892419D01*
X139335845Y-97934917D01*
X139282511Y-97982939D01*
X139263524Y-97993901D01*
X139251025Y-98004095D01*
X139185780Y-98038786D01*
X139118488Y-98077637D01*
X139103636Y-98082463D01*
X139095003Y-98087053D01*
X139017430Y-98110473D01*
X138938360Y-98136165D01*
X138929114Y-98137137D01*
X138925851Y-98138122D01*
X138834710Y-98147059D01*
X138797211Y-98151000D01*
X138702789Y-98151000D01*
X138561640Y-98136165D01*
X138480603Y-98109834D01*
X138393337Y-98082152D01*
X138390345Y-98080507D01*
X138381512Y-98077637D01*
X138309534Y-98036081D01*
X138238501Y-97997030D01*
X138231014Y-97990747D01*
X138217489Y-97982939D01*
X138159741Y-97930943D01*
X138103143Y-97883451D01*
X138093038Y-97870882D01*
X138076739Y-97856207D01*
X138034546Y-97798133D01*
X137992421Y-97745740D01*
X137982006Y-97725818D01*
X137965414Y-97702981D01*
X137938703Y-97642988D01*
X137910561Y-97589157D01*
X137902418Y-97561490D01*
X137888379Y-97529958D01*
X137876008Y-97471759D01*
X137860672Y-97419651D01*
X137857482Y-97384599D01*
X137849001Y-97344699D01*
X137849001Y-97291408D01*
X137844657Y-97243676D01*
X137849001Y-97202347D01*
X137849001Y-97155301D01*
X137858783Y-97109279D01*
X137863127Y-97067953D01*
X137877298Y-97022173D01*
X137888379Y-96970042D01*
X137904972Y-96932774D01*
X137915378Y-96899157D01*
X137941211Y-96851380D01*
X137965414Y-96797019D01*
X137985702Y-96769095D01*
X137999420Y-96743724D01*
X138038141Y-96696918D01*
X138076739Y-96643793D01*
X138097716Y-96624905D01*
X138112048Y-96607581D01*
X138164155Y-96565083D01*
X138217489Y-96517061D01*
X138236476Y-96506099D01*
X138248975Y-96495905D01*
X138314220Y-96461214D01*
X138381512Y-96422363D01*
X138396364Y-96417537D01*
X138404997Y-96412947D01*
X138482570Y-96389527D01*
X138561640Y-96363835D01*
X138570886Y-96362863D01*
X138574149Y-96361878D01*
X138665290Y-96352941D01*
X138702789Y-96349000D01*
X138797211Y-96349000D01*
X138938360Y-96363835D01*
X138938360Y-96363835D01*
G37*
G36*
X141478360Y-96363835D02*
G01*
X141559397Y-96390166D01*
X141646663Y-96417848D01*
X141649655Y-96419493D01*
X141658488Y-96422363D01*
X141730466Y-96463919D01*
X141801499Y-96502970D01*
X141808986Y-96509253D01*
X141822511Y-96517061D01*
X141880259Y-96569057D01*
X141936857Y-96616549D01*
X141946962Y-96629118D01*
X141963261Y-96643793D01*
X142005454Y-96701867D01*
X142047579Y-96754260D01*
X142057994Y-96774182D01*
X142074586Y-96797019D01*
X142101297Y-96857012D01*
X142129439Y-96910843D01*
X142137582Y-96938510D01*
X142151621Y-96970042D01*
X142163992Y-97028241D01*
X142179328Y-97080349D01*
X142182518Y-97115401D01*
X142190999Y-97155301D01*
X142190999Y-97208592D01*
X142195343Y-97256324D01*
X142190999Y-97297653D01*
X142190999Y-97344699D01*
X142181217Y-97390721D01*
X142176873Y-97432047D01*
X142162702Y-97477827D01*
X142151621Y-97529958D01*
X142135028Y-97567226D01*
X142124622Y-97600843D01*
X142098789Y-97648620D01*
X142074586Y-97702981D01*
X142054298Y-97730905D01*
X142040580Y-97756276D01*
X142001859Y-97803082D01*
X141963261Y-97856207D01*
X141942284Y-97875095D01*
X141927952Y-97892419D01*
X141875845Y-97934917D01*
X141822511Y-97982939D01*
X141803524Y-97993901D01*
X141791025Y-98004095D01*
X141725780Y-98038786D01*
X141658488Y-98077637D01*
X141643636Y-98082463D01*
X141635003Y-98087053D01*
X141557430Y-98110473D01*
X141478360Y-98136165D01*
X141469114Y-98137137D01*
X141465851Y-98138122D01*
X141374710Y-98147059D01*
X141337211Y-98151000D01*
X141242789Y-98151000D01*
X141101640Y-98136165D01*
X141020603Y-98109834D01*
X140933337Y-98082152D01*
X140930345Y-98080507D01*
X140921512Y-98077637D01*
X140849534Y-98036081D01*
X140778501Y-97997030D01*
X140771014Y-97990747D01*
X140757489Y-97982939D01*
X140699741Y-97930943D01*
X140643143Y-97883451D01*
X140633038Y-97870882D01*
X140616739Y-97856207D01*
X140574546Y-97798133D01*
X140532421Y-97745740D01*
X140522006Y-97725818D01*
X140505414Y-97702981D01*
X140478703Y-97642988D01*
X140450561Y-97589157D01*
X140442418Y-97561490D01*
X140428379Y-97529958D01*
X140416008Y-97471759D01*
X140400672Y-97419651D01*
X140397482Y-97384599D01*
X140389001Y-97344699D01*
X140389001Y-97291408D01*
X140384657Y-97243676D01*
X140389001Y-97202347D01*
X140389001Y-97155301D01*
X140398783Y-97109279D01*
X140403127Y-97067953D01*
X140417298Y-97022173D01*
X140428379Y-96970042D01*
X140444972Y-96932774D01*
X140455378Y-96899157D01*
X140481211Y-96851380D01*
X140505414Y-96797019D01*
X140525702Y-96769095D01*
X140539420Y-96743724D01*
X140578141Y-96696918D01*
X140616739Y-96643793D01*
X140637716Y-96624905D01*
X140652048Y-96607581D01*
X140704155Y-96565083D01*
X140757489Y-96517061D01*
X140776476Y-96506099D01*
X140788975Y-96495905D01*
X140854220Y-96461214D01*
X140921512Y-96422363D01*
X140936364Y-96417537D01*
X140944997Y-96412947D01*
X141022570Y-96389527D01*
X141101640Y-96363835D01*
X141110886Y-96362863D01*
X141114149Y-96361878D01*
X141205290Y-96352941D01*
X141242789Y-96349000D01*
X141337211Y-96349000D01*
X141478360Y-96363835D01*
X141478360Y-96363835D01*
G37*
G36*
X160581000Y-97801000D02*
G01*
X159334000Y-97801000D01*
X159334000Y-96199000D01*
X160581000Y-96199000D01*
X160581000Y-97801000D01*
X160581000Y-97801000D01*
G37*
G36*
X162666000Y-97801000D02*
G01*
X161419000Y-97801000D01*
X161419000Y-96199000D01*
X162666000Y-96199000D01*
X162666000Y-97801000D01*
X162666000Y-97801000D01*
G37*
G36*
X157767381Y-96446783D02*
G01*
X157790734Y-96445314D01*
X157841992Y-96456209D01*
X157885218Y-96461670D01*
X157906974Y-96470021D01*
X157938399Y-96476701D01*
X157977154Y-96496961D01*
X158009724Y-96509464D01*
X158035993Y-96527721D01*
X158072185Y-96546642D01*
X158097727Y-96570628D01*
X158119239Y-96585579D01*
X158146135Y-96616086D01*
X158182233Y-96649985D01*
X158195865Y-96672493D01*
X158207433Y-96685615D01*
X158230289Y-96729334D01*
X158260437Y-96779114D01*
X158265164Y-96796043D01*
X158269220Y-96803802D01*
X158283047Y-96860095D01*
X158301034Y-96924518D01*
X158299333Y-97087006D01*
X158279987Y-97151082D01*
X158264997Y-97207026D01*
X158260781Y-97214695D01*
X158255699Y-97231527D01*
X158224508Y-97280676D01*
X158200747Y-97323898D01*
X158188908Y-97336772D01*
X158174808Y-97358991D01*
X158138006Y-97392128D01*
X158110478Y-97422064D01*
X158088657Y-97436562D01*
X158062620Y-97460006D01*
X158026045Y-97478162D01*
X157999394Y-97495869D01*
X157966565Y-97507688D01*
X157927399Y-97527130D01*
X157895839Y-97533150D01*
X157873916Y-97541043D01*
X157830593Y-97545597D01*
X157779108Y-97555418D01*
X157755787Y-97553460D01*
X157741284Y-97554984D01*
X157689548Y-97547897D01*
X157628673Y-97542785D01*
X157614937Y-97537677D01*
X157609150Y-97536884D01*
X157552595Y-97514492D01*
X157487177Y-97490163D01*
X157428252Y-97447352D01*
X157376441Y-97410532D01*
X157374537Y-97408326D01*
X157365044Y-97401429D01*
X157325302Y-97351287D01*
X157289300Y-97309579D01*
X157284001Y-97299179D01*
X157271272Y-97283119D01*
X157249838Y-97232129D01*
X157228754Y-97190749D01*
X157224096Y-97170892D01*
X157212771Y-97143950D01*
X157206928Y-97097696D01*
X157198299Y-97060909D01*
X157198604Y-97031808D01*
X157193850Y-96994176D01*
X157199392Y-96956647D01*
X157199697Y-96927552D01*
X157209092Y-96890961D01*
X157215904Y-96844831D01*
X157227791Y-96818132D01*
X157232864Y-96798375D01*
X157254815Y-96757436D01*
X157277307Y-96706918D01*
X157290366Y-96691132D01*
X157295883Y-96680843D01*
X157332753Y-96639895D01*
X157373535Y-96590598D01*
X157383171Y-96583901D01*
X157385122Y-96581734D01*
X157437700Y-96546002D01*
X157497500Y-96504440D01*
X157563435Y-96481479D01*
X157620424Y-96460285D01*
X157626223Y-96459614D01*
X157640067Y-96454793D01*
X157701037Y-96450957D01*
X157752909Y-96444955D01*
X157767381Y-96446783D01*
X157767381Y-96446783D01*
G37*
G36*
X119267381Y-96446783D02*
G01*
X119290734Y-96445314D01*
X119341992Y-96456209D01*
X119385218Y-96461670D01*
X119406974Y-96470021D01*
X119438399Y-96476701D01*
X119477154Y-96496961D01*
X119509724Y-96509464D01*
X119535993Y-96527721D01*
X119572185Y-96546642D01*
X119597727Y-96570628D01*
X119619239Y-96585579D01*
X119646135Y-96616086D01*
X119682233Y-96649985D01*
X119695865Y-96672493D01*
X119707433Y-96685615D01*
X119730289Y-96729334D01*
X119760437Y-96779114D01*
X119765164Y-96796043D01*
X119769220Y-96803802D01*
X119783047Y-96860095D01*
X119801034Y-96924518D01*
X119799333Y-97087006D01*
X119779987Y-97151082D01*
X119764997Y-97207026D01*
X119760781Y-97214695D01*
X119755699Y-97231527D01*
X119724508Y-97280676D01*
X119700747Y-97323898D01*
X119688908Y-97336772D01*
X119674808Y-97358991D01*
X119638006Y-97392128D01*
X119610478Y-97422064D01*
X119588657Y-97436562D01*
X119562620Y-97460006D01*
X119526045Y-97478162D01*
X119499394Y-97495869D01*
X119466565Y-97507688D01*
X119427399Y-97527130D01*
X119395839Y-97533150D01*
X119373916Y-97541043D01*
X119330593Y-97545597D01*
X119279108Y-97555418D01*
X119255787Y-97553460D01*
X119241284Y-97554984D01*
X119189548Y-97547897D01*
X119128673Y-97542785D01*
X119114937Y-97537677D01*
X119109150Y-97536884D01*
X119052595Y-97514492D01*
X118987177Y-97490163D01*
X118928252Y-97447352D01*
X118876441Y-97410532D01*
X118874537Y-97408326D01*
X118865044Y-97401429D01*
X118825302Y-97351287D01*
X118789300Y-97309579D01*
X118784001Y-97299179D01*
X118771272Y-97283119D01*
X118749838Y-97232129D01*
X118728754Y-97190749D01*
X118724096Y-97170892D01*
X118712771Y-97143950D01*
X118706928Y-97097696D01*
X118698299Y-97060909D01*
X118698604Y-97031808D01*
X118693850Y-96994176D01*
X118699392Y-96956647D01*
X118699697Y-96927552D01*
X118709092Y-96890961D01*
X118715904Y-96844831D01*
X118727791Y-96818132D01*
X118732864Y-96798375D01*
X118754815Y-96757436D01*
X118777307Y-96706918D01*
X118790366Y-96691132D01*
X118795883Y-96680843D01*
X118832753Y-96639895D01*
X118873535Y-96590598D01*
X118883171Y-96583901D01*
X118885122Y-96581734D01*
X118937700Y-96546002D01*
X118997500Y-96504440D01*
X119063435Y-96481479D01*
X119120424Y-96460285D01*
X119126223Y-96459614D01*
X119140067Y-96454793D01*
X119201037Y-96450957D01*
X119252909Y-96444955D01*
X119267381Y-96446783D01*
X119267381Y-96446783D01*
G37*
G36*
X186594141Y-83700217D02*
G01*
X186657370Y-83701265D01*
X186721381Y-83711461D01*
X186791865Y-83717689D01*
X186853022Y-83732428D01*
X186909244Y-83741383D01*
X186977222Y-83762361D01*
X187052101Y-83780407D01*
X187104580Y-83801663D01*
X187152950Y-83816590D01*
X187223007Y-83849631D01*
X187300209Y-83880901D01*
X187343559Y-83906487D01*
X187383635Y-83925388D01*
X187453619Y-83971447D01*
X187530737Y-84016963D01*
X187564943Y-84044712D01*
X187596680Y-84065599D01*
X187664229Y-84125256D01*
X187738622Y-84185606D01*
X187764098Y-84213457D01*
X187787850Y-84234434D01*
X187850445Y-84307854D01*
X187919297Y-84383124D01*
X187936862Y-84409215D01*
X187953318Y-84428516D01*
X188008346Y-84515393D01*
X188068792Y-84605177D01*
X188079601Y-84627889D01*
X188089799Y-84643990D01*
X188134708Y-84743684D01*
X188183823Y-84846888D01*
X188189315Y-84864906D01*
X188194548Y-84876524D01*
X188226801Y-84987902D01*
X188261864Y-85102947D01*
X188263706Y-85115345D01*
X188265492Y-85121513D01*
X188282746Y-85243512D01*
X188301200Y-85367728D01*
X188291411Y-85729485D01*
X188289007Y-85741247D01*
X188288923Y-85743859D01*
X188263236Y-85867356D01*
X188237814Y-85991752D01*
X188194259Y-86111093D01*
X188150782Y-86231525D01*
X188149259Y-86234395D01*
X188146040Y-86243216D01*
X188087171Y-86351414D01*
X188031240Y-86456827D01*
X188025602Y-86464572D01*
X188018105Y-86478352D01*
X187947415Y-86571991D01*
X187881148Y-86663033D01*
X187870074Y-86674441D01*
X187856821Y-86691996D01*
X187777386Y-86769920D01*
X187703496Y-86846036D01*
X187685931Y-86859636D01*
X187665729Y-86879454D01*
X187580628Y-86941170D01*
X187501829Y-87002182D01*
X187477038Y-87016294D01*
X187449028Y-87036607D01*
X187361263Y-87082198D01*
X187280176Y-87128355D01*
X187247768Y-87141154D01*
X187211479Y-87160004D01*
X187123823Y-87190101D01*
X187042960Y-87222035D01*
X187002945Y-87231605D01*
X186958300Y-87246934D01*
X186873299Y-87262611D01*
X186794896Y-87281362D01*
X186747635Y-87285788D01*
X186695052Y-87295486D01*
X186614955Y-87298213D01*
X186540967Y-87305142D01*
X186487244Y-87302562D01*
X186427520Y-87304595D01*
X186354117Y-87296167D01*
X186286207Y-87292905D01*
X186227189Y-87281593D01*
X186161580Y-87274060D01*
X186096284Y-87256503D01*
X186035721Y-87244895D01*
X185972924Y-87223333D01*
X185903074Y-87204552D01*
X185846842Y-87180043D01*
X185794496Y-87162070D01*
X185729735Y-87129002D01*
X185657682Y-87097597D01*
X185611022Y-87068384D01*
X185567344Y-87046081D01*
X185502721Y-87000579D01*
X185430795Y-86955547D01*
X185393738Y-86923842D01*
X185358803Y-86899243D01*
X185296633Y-86840760D01*
X185227395Y-86781520D01*
X185199556Y-86749438D01*
X185173034Y-86724489D01*
X185115760Y-86652872D01*
X185051953Y-86579341D01*
X185032545Y-86548818D01*
X185013738Y-86525301D01*
X184963883Y-86440832D01*
X184908322Y-86353450D01*
X184896195Y-86326148D01*
X184884102Y-86305659D01*
X184844213Y-86209121D01*
X184799657Y-86108811D01*
X184793376Y-86086087D01*
X184786703Y-86069936D01*
X184759212Y-85962474D01*
X184728346Y-85850797D01*
X184726256Y-85833651D01*
X184723492Y-85822847D01*
X184710690Y-85705959D01*
X184695955Y-85585077D01*
X184696251Y-85574121D01*
X184695725Y-85569314D01*
X184699774Y-85443943D01*
X184703196Y-85317487D01*
X184724964Y-85194660D01*
X184748030Y-85063180D01*
X184748546Y-85061595D01*
X184749909Y-85053907D01*
X184789515Y-84935880D01*
X184827052Y-84820694D01*
X184830576Y-84813517D01*
X184835069Y-84800127D01*
X184889136Y-84694243D01*
X184939462Y-84591742D01*
X184947518Y-84579910D01*
X184956805Y-84561723D01*
X185022396Y-84469937D01*
X185083001Y-84380927D01*
X185096900Y-84365679D01*
X185112442Y-84343930D01*
X185186617Y-84267253D01*
X185254822Y-84192428D01*
X185275600Y-84175270D01*
X185298561Y-84151534D01*
X185378318Y-84090445D01*
X185451478Y-84030029D01*
X185479853Y-84012675D01*
X185511073Y-83988762D01*
X185593535Y-83943147D01*
X185669059Y-83896956D01*
X185705391Y-83881271D01*
X185745311Y-83859189D01*
X185827761Y-83828444D01*
X185903226Y-83795866D01*
X185947494Y-83783797D01*
X185996128Y-83765662D01*
X186076080Y-83748740D01*
X186149287Y-83728782D01*
X186201078Y-83722285D01*
X186258014Y-83710235D01*
X186333345Y-83705693D01*
X186402353Y-83697037D01*
X186460845Y-83698007D01*
X186525216Y-83694126D01*
X186594141Y-83700217D01*
X186594141Y-83700217D01*
G37*
G36*
X116301000Y-87301000D02*
G01*
X112699000Y-87301000D01*
X112699000Y-83699000D01*
X116301000Y-83699000D01*
X116301000Y-87301000D01*
X116301000Y-87301000D01*
G37*
M02*
