G04 #@! TF.GenerationSoftware,KiCad,Pcbnew,6.0.0-unknown*
G04 #@! TF.CreationDate,2019-06-26T08:34:24-07:00*
G04 #@! TF.ProjectId,IOT-LORA,494f542d-4c4f-4524-912e-6b696361645f,rev?*
G04 #@! TF.SameCoordinates,Original*
G04 #@! TF.FileFunction,Copper,L1,Top*
G04 #@! TF.FilePolarity,Positive*
%FSLAX46Y46*%
G04 Gerber Fmt 4.6, Leading zero omitted, Abs format (unit mm)*
G04 Created by KiCad (PCBNEW 6.0.0-unknown) date 2019-06-26 08:34:24*
%MOMM*%
%LPD*%
G04 APERTURE LIST*
%ADD10O,1.700000X1.700000*%
%ADD11R,1.700000X1.700000*%
%ADD12C,0.250000*%
%ADD13C,0.845000*%
%ADD14C,1.500000*%
%ADD15C,2.000000*%
%ADD16O,1.700000X1.950000*%
%ADD17R,1.700000X1.950000*%
%ADD18O,2.000000X1.700000*%
%ADD19R,2.000000X1.700000*%
%ADD20C,1.000000*%
%ADD21C,0.970000*%
%ADD22C,1.800000*%
%ADD23C,1.600000*%
%ADD24R,1.145000X1.500000*%
%ADD25R,3.500000X3.500000*%
%ADD26C,3.500000*%
%ADD27R,1.600000X0.550000*%
%ADD28C,0.550000*%
%ADD29R,0.550000X1.600000*%
%ADD30C,0.400000*%
%ADD31C,0.300000*%
%ADD32C,0.500000*%
%ADD33C,1.000000*%
%ADD34C,0.254000*%
G04 APERTURE END LIST*
D10*
X128580000Y-117000000D03*
X126040000Y-117000000D03*
D11*
X123500000Y-117000000D03*
D12*
G36*
X152302908Y-112520920D02*
G01*
X152376412Y-112579538D01*
X152417204Y-112664242D01*
X152422500Y-112711250D01*
X152422500Y-113288750D01*
X152401580Y-113380408D01*
X152342962Y-113453912D01*
X152258258Y-113494704D01*
X152211250Y-113500000D01*
X151788750Y-113500000D01*
X151697092Y-113479080D01*
X151623588Y-113420462D01*
X151582796Y-113335758D01*
X151577500Y-113288750D01*
X151577500Y-112711250D01*
X151598420Y-112619592D01*
X151657038Y-112546088D01*
X151741742Y-112505296D01*
X151788750Y-112500000D01*
X152211250Y-112500000D01*
X152302908Y-112520920D01*
X152302908Y-112520920D01*
G37*
D13*
X152000000Y-113000000D03*
D12*
G36*
X154227908Y-112520920D02*
G01*
X154301412Y-112579538D01*
X154342204Y-112664242D01*
X154347500Y-112711250D01*
X154347500Y-113288750D01*
X154326580Y-113380408D01*
X154267962Y-113453912D01*
X154183258Y-113494704D01*
X154136250Y-113500000D01*
X153713750Y-113500000D01*
X153622092Y-113479080D01*
X153548588Y-113420462D01*
X153507796Y-113335758D01*
X153502500Y-113288750D01*
X153502500Y-112711250D01*
X153523420Y-112619592D01*
X153582038Y-112546088D01*
X153666742Y-112505296D01*
X153713750Y-112500000D01*
X154136250Y-112500000D01*
X154227908Y-112520920D01*
X154227908Y-112520920D01*
G37*
D13*
X153925000Y-113000000D03*
D12*
G36*
X148380408Y-115848420D02*
G01*
X148453912Y-115907038D01*
X148494704Y-115991742D01*
X148500000Y-116038750D01*
X148500000Y-116461250D01*
X148479080Y-116552908D01*
X148420462Y-116626412D01*
X148335758Y-116667204D01*
X148288750Y-116672500D01*
X147711250Y-116672500D01*
X147619592Y-116651580D01*
X147546088Y-116592962D01*
X147505296Y-116508258D01*
X147500000Y-116461250D01*
X147500000Y-116038750D01*
X147520920Y-115947092D01*
X147579538Y-115873588D01*
X147664242Y-115832796D01*
X147711250Y-115827500D01*
X148288750Y-115827500D01*
X148380408Y-115848420D01*
X148380408Y-115848420D01*
G37*
D13*
X148000000Y-116250000D03*
D12*
G36*
X148380408Y-113923420D02*
G01*
X148453912Y-113982038D01*
X148494704Y-114066742D01*
X148500000Y-114113750D01*
X148500000Y-114536250D01*
X148479080Y-114627908D01*
X148420462Y-114701412D01*
X148335758Y-114742204D01*
X148288750Y-114747500D01*
X147711250Y-114747500D01*
X147619592Y-114726580D01*
X147546088Y-114667962D01*
X147505296Y-114583258D01*
X147500000Y-114536250D01*
X147500000Y-114113750D01*
X147520920Y-114022092D01*
X147579538Y-113948588D01*
X147664242Y-113907796D01*
X147711250Y-113902500D01*
X148288750Y-113902500D01*
X148380408Y-113923420D01*
X148380408Y-113923420D01*
G37*
D13*
X148000000Y-114325000D03*
D12*
G36*
X120396762Y-112820319D02*
G01*
X120505330Y-112879072D01*
X120588937Y-112969894D01*
X120638525Y-113082943D01*
X120650000Y-113175000D01*
X120650000Y-113925000D01*
X120629681Y-114046762D01*
X120570928Y-114155330D01*
X120480106Y-114238937D01*
X120367057Y-114288525D01*
X120275000Y-114300000D01*
X119025000Y-114300000D01*
X118903238Y-114279681D01*
X118794670Y-114220928D01*
X118711063Y-114130106D01*
X118661475Y-114017057D01*
X118650000Y-113925000D01*
X118650000Y-113175000D01*
X118670319Y-113053238D01*
X118729072Y-112944670D01*
X118819894Y-112861063D01*
X118932943Y-112811475D01*
X119025000Y-112800000D01*
X120275000Y-112800000D01*
X120396762Y-112820319D01*
X120396762Y-112820319D01*
G37*
D14*
X119650000Y-113550000D03*
D12*
G36*
X120396762Y-108220319D02*
G01*
X120505330Y-108279072D01*
X120588937Y-108369894D01*
X120638525Y-108482943D01*
X120650000Y-108575000D01*
X120650000Y-109325000D01*
X120629681Y-109446762D01*
X120570928Y-109555330D01*
X120480106Y-109638937D01*
X120367057Y-109688525D01*
X120275000Y-109700000D01*
X119025000Y-109700000D01*
X118903238Y-109679681D01*
X118794670Y-109620928D01*
X118711063Y-109530106D01*
X118661475Y-109417057D01*
X118650000Y-109325000D01*
X118650000Y-108575000D01*
X118670319Y-108453238D01*
X118729072Y-108344670D01*
X118819894Y-108261063D01*
X118932943Y-108211475D01*
X119025000Y-108200000D01*
X120275000Y-108200000D01*
X120396762Y-108220319D01*
X120396762Y-108220319D01*
G37*
D14*
X119650000Y-108950000D03*
D12*
G36*
X120396762Y-110520319D02*
G01*
X120505330Y-110579072D01*
X120588937Y-110669894D01*
X120638525Y-110782943D01*
X120650000Y-110875000D01*
X120650000Y-111625000D01*
X120629681Y-111746762D01*
X120570928Y-111855330D01*
X120480106Y-111938937D01*
X120367057Y-111988525D01*
X120275000Y-112000000D01*
X119025000Y-112000000D01*
X118903238Y-111979681D01*
X118794670Y-111920928D01*
X118711063Y-111830106D01*
X118661475Y-111717057D01*
X118650000Y-111625000D01*
X118650000Y-110875000D01*
X118670319Y-110753238D01*
X118729072Y-110644670D01*
X118819894Y-110561063D01*
X118932943Y-110511475D01*
X119025000Y-110500000D01*
X120275000Y-110500000D01*
X120396762Y-110520319D01*
X120396762Y-110520319D01*
G37*
D14*
X119650000Y-111250000D03*
D12*
G36*
X113990866Y-109370254D02*
G01*
X114120320Y-109429373D01*
X114227875Y-109522570D01*
X114304816Y-109642292D01*
X114350000Y-109850000D01*
X114350000Y-112650000D01*
X114329746Y-112790866D01*
X114270627Y-112920320D01*
X114177430Y-113027875D01*
X114057708Y-113104816D01*
X113850000Y-113150000D01*
X112850000Y-113150000D01*
X112709134Y-113129746D01*
X112579680Y-113070627D01*
X112472125Y-112977430D01*
X112395184Y-112857708D01*
X112350000Y-112650000D01*
X112350000Y-109850000D01*
X112370254Y-109709134D01*
X112429373Y-109579680D01*
X112522570Y-109472125D01*
X112642292Y-109395184D01*
X112850000Y-109350000D01*
X113850000Y-109350000D01*
X113990866Y-109370254D01*
X113990866Y-109370254D01*
G37*
D15*
X113350000Y-111250000D03*
D10*
X141290000Y-97250000D03*
X138750000Y-97250000D03*
X136210000Y-97250000D03*
D11*
X133670000Y-97250000D03*
D16*
X114250000Y-123500000D03*
X116750000Y-123500000D03*
D17*
X119250000Y-123500000D03*
D16*
X125250000Y-123500000D03*
X127750000Y-123500000D03*
D17*
X130250000Y-123500000D03*
D16*
X136250000Y-123500000D03*
X138750000Y-123500000D03*
D17*
X141250000Y-123500000D03*
D16*
X147250000Y-123500000D03*
X149750000Y-123500000D03*
D17*
X152250000Y-123500000D03*
D18*
X114250000Y-99500000D03*
D19*
X114250000Y-102000000D03*
D20*
X154750000Y-99000000D03*
X164750000Y-105000000D03*
X164250000Y-102750000D03*
X165250000Y-100500000D03*
X165000000Y-107250000D03*
X157750000Y-97000000D03*
X129750000Y-113500000D03*
X162500000Y-107750000D03*
X159250000Y-114750000D03*
D10*
X165350000Y-124650000D03*
X162810000Y-124650000D03*
X160270000Y-124650000D03*
D11*
X157730000Y-124650000D03*
D10*
X135210000Y-116750000D03*
X137750000Y-116750000D03*
X140290000Y-116750000D03*
D11*
X142830000Y-116750000D03*
D10*
X179500000Y-117000000D03*
X176960000Y-117000000D03*
X174420000Y-117000000D03*
X171880000Y-117000000D03*
X169340000Y-117000000D03*
D11*
X166800000Y-117000000D03*
D12*
G36*
X117091134Y-116020965D02*
G01*
X117172713Y-116080236D01*
X117223131Y-116167563D01*
X117235000Y-116242500D01*
X117235000Y-117257500D01*
X117214035Y-117356134D01*
X117154764Y-117437713D01*
X117067437Y-117488131D01*
X116992500Y-117500000D01*
X116507500Y-117500000D01*
X116408866Y-117479035D01*
X116327287Y-117419764D01*
X116276869Y-117332437D01*
X116265000Y-117257500D01*
X116265000Y-116242500D01*
X116285965Y-116143866D01*
X116345236Y-116062287D01*
X116432563Y-116011869D01*
X116507500Y-116000000D01*
X116992500Y-116000000D01*
X117091134Y-116020965D01*
X117091134Y-116020965D01*
G37*
D21*
X116750000Y-116750000D03*
D12*
G36*
X119001134Y-116020965D02*
G01*
X119082713Y-116080236D01*
X119133131Y-116167563D01*
X119145000Y-116242500D01*
X119145000Y-117257500D01*
X119124035Y-117356134D01*
X119064764Y-117437713D01*
X118977437Y-117488131D01*
X118902500Y-117500000D01*
X118417500Y-117500000D01*
X118318866Y-117479035D01*
X118237287Y-117419764D01*
X118186869Y-117332437D01*
X118175000Y-117257500D01*
X118175000Y-116242500D01*
X118195965Y-116143866D01*
X118255236Y-116062287D01*
X118342563Y-116011869D01*
X118417500Y-116000000D01*
X118902500Y-116000000D01*
X119001134Y-116020965D01*
X119001134Y-116020965D01*
G37*
D21*
X118660000Y-116750000D03*
D12*
G36*
X123582640Y-110519992D02*
G01*
X123703494Y-110578193D01*
X123801824Y-110669430D01*
X123868893Y-110785597D01*
X123900000Y-110950000D01*
X123900000Y-112550000D01*
X123880008Y-112682640D01*
X123821807Y-112803494D01*
X123730570Y-112901824D01*
X123614403Y-112968893D01*
X123450000Y-113000000D01*
X122550000Y-113000000D01*
X122417360Y-112980008D01*
X122296506Y-112921807D01*
X122198176Y-112830570D01*
X122131107Y-112714403D01*
X122100000Y-112550000D01*
X122100000Y-110950000D01*
X122119992Y-110817360D01*
X122178193Y-110696506D01*
X122269430Y-110598176D01*
X122385597Y-110531107D01*
X122550000Y-110500000D01*
X123450000Y-110500000D01*
X123582640Y-110519992D01*
X123582640Y-110519992D01*
G37*
D22*
X123000000Y-111750000D03*
D12*
G36*
X123582640Y-106519992D02*
G01*
X123703494Y-106578193D01*
X123801824Y-106669430D01*
X123868893Y-106785597D01*
X123900000Y-106950000D01*
X123900000Y-108550000D01*
X123880008Y-108682640D01*
X123821807Y-108803494D01*
X123730570Y-108901824D01*
X123614403Y-108968893D01*
X123450000Y-109000000D01*
X122550000Y-109000000D01*
X122417360Y-108980008D01*
X122296506Y-108921807D01*
X122198176Y-108830570D01*
X122131107Y-108714403D01*
X122100000Y-108550000D01*
X122100000Y-106950000D01*
X122119992Y-106817360D01*
X122178193Y-106696506D01*
X122269430Y-106598176D01*
X122385597Y-106531107D01*
X122550000Y-106500000D01*
X123450000Y-106500000D01*
X123582640Y-106519992D01*
X123582640Y-106519992D01*
G37*
D22*
X123000000Y-107750000D03*
D12*
G36*
X118627908Y-105770920D02*
G01*
X118701412Y-105829538D01*
X118742204Y-105914242D01*
X118747500Y-105961250D01*
X118747500Y-106538750D01*
X118726580Y-106630408D01*
X118667962Y-106703912D01*
X118583258Y-106744704D01*
X118536250Y-106750000D01*
X118113750Y-106750000D01*
X118022092Y-106729080D01*
X117948588Y-106670462D01*
X117907796Y-106585758D01*
X117902500Y-106538750D01*
X117902500Y-105961250D01*
X117923420Y-105869592D01*
X117982038Y-105796088D01*
X118066742Y-105755296D01*
X118113750Y-105750000D01*
X118536250Y-105750000D01*
X118627908Y-105770920D01*
X118627908Y-105770920D01*
G37*
D13*
X118325000Y-106250000D03*
D12*
G36*
X120552908Y-105770920D02*
G01*
X120626412Y-105829538D01*
X120667204Y-105914242D01*
X120672500Y-105961250D01*
X120672500Y-106538750D01*
X120651580Y-106630408D01*
X120592962Y-106703912D01*
X120508258Y-106744704D01*
X120461250Y-106750000D01*
X120038750Y-106750000D01*
X119947092Y-106729080D01*
X119873588Y-106670462D01*
X119832796Y-106585758D01*
X119827500Y-106538750D01*
X119827500Y-105961250D01*
X119848420Y-105869592D01*
X119907038Y-105796088D01*
X119991742Y-105755296D01*
X120038750Y-105750000D01*
X120461250Y-105750000D01*
X120552908Y-105770920D01*
X120552908Y-105770920D01*
G37*
D13*
X120250000Y-106250000D03*
D10*
X175210000Y-120750000D03*
X177750000Y-120750000D03*
X180290000Y-120750000D03*
X182830000Y-120750000D03*
X185370000Y-120750000D03*
D11*
X187910000Y-120750000D03*
D10*
X181700000Y-124750000D03*
X179160000Y-124750000D03*
X176620000Y-124750000D03*
X174080000Y-124750000D03*
X171540000Y-124750000D03*
D11*
X169000000Y-124750000D03*
D12*
G36*
X159501134Y-111770965D02*
G01*
X159582713Y-111830236D01*
X159633131Y-111917563D01*
X159645000Y-111992500D01*
X159645000Y-113007500D01*
X159624035Y-113106134D01*
X159564764Y-113187713D01*
X159477437Y-113238131D01*
X159402500Y-113250000D01*
X158917500Y-113250000D01*
X158818866Y-113229035D01*
X158737287Y-113169764D01*
X158686869Y-113082437D01*
X158675000Y-113007500D01*
X158675000Y-111992500D01*
X158695965Y-111893866D01*
X158755236Y-111812287D01*
X158842563Y-111761869D01*
X158917500Y-111750000D01*
X159402500Y-111750000D01*
X159501134Y-111770965D01*
X159501134Y-111770965D01*
G37*
D21*
X159160000Y-112500000D03*
D12*
G36*
X157591134Y-111770965D02*
G01*
X157672713Y-111830236D01*
X157723131Y-111917563D01*
X157735000Y-111992500D01*
X157735000Y-113007500D01*
X157714035Y-113106134D01*
X157654764Y-113187713D01*
X157567437Y-113238131D01*
X157492500Y-113250000D01*
X157007500Y-113250000D01*
X156908866Y-113229035D01*
X156827287Y-113169764D01*
X156776869Y-113082437D01*
X156765000Y-113007500D01*
X156765000Y-111992500D01*
X156785965Y-111893866D01*
X156845236Y-111812287D01*
X156932563Y-111761869D01*
X157007500Y-111750000D01*
X157492500Y-111750000D01*
X157591134Y-111770965D01*
X157591134Y-111770965D01*
G37*
D21*
X157250000Y-112500000D03*
D12*
G36*
X127773607Y-105669577D02*
G01*
X127885114Y-105726393D01*
X127973607Y-105814886D01*
X128030423Y-105926393D01*
X128050000Y-106050000D01*
X128050000Y-107850000D01*
X128030423Y-107973607D01*
X127973607Y-108085114D01*
X127885114Y-108173607D01*
X127773607Y-108230423D01*
X127650000Y-108250000D01*
X126850000Y-108250000D01*
X126726393Y-108230423D01*
X126614886Y-108173607D01*
X126526393Y-108085114D01*
X126469577Y-107973607D01*
X126450000Y-107850000D01*
X126450000Y-106050000D01*
X126469577Y-105926393D01*
X126526393Y-105814886D01*
X126614886Y-105726393D01*
X126726393Y-105669577D01*
X126850000Y-105650000D01*
X127650000Y-105650000D01*
X127773607Y-105669577D01*
X127773607Y-105669577D01*
G37*
D23*
X127250000Y-106950000D03*
D12*
G36*
X127773607Y-109269577D02*
G01*
X127885114Y-109326393D01*
X127973607Y-109414886D01*
X128030423Y-109526393D01*
X128050000Y-109650000D01*
X128050000Y-111450000D01*
X128030423Y-111573607D01*
X127973607Y-111685114D01*
X127885114Y-111773607D01*
X127773607Y-111830423D01*
X127650000Y-111850000D01*
X126850000Y-111850000D01*
X126726393Y-111830423D01*
X126614886Y-111773607D01*
X126526393Y-111685114D01*
X126469577Y-111573607D01*
X126450000Y-111450000D01*
X126450000Y-109650000D01*
X126469577Y-109526393D01*
X126526393Y-109414886D01*
X126614886Y-109326393D01*
X126726393Y-109269577D01*
X126850000Y-109250000D01*
X127650000Y-109250000D01*
X127773607Y-109269577D01*
X127773607Y-109269577D01*
G37*
D23*
X127250000Y-110550000D03*
D12*
G36*
X186246762Y-112020319D02*
G01*
X186355330Y-112079072D01*
X186438937Y-112169894D01*
X186488525Y-112282943D01*
X186500000Y-112375000D01*
X186500000Y-113125000D01*
X186479681Y-113246762D01*
X186420928Y-113355330D01*
X186330106Y-113438937D01*
X186217057Y-113488525D01*
X186125000Y-113500000D01*
X184875000Y-113500000D01*
X184753238Y-113479681D01*
X184644670Y-113420928D01*
X184561063Y-113330106D01*
X184511475Y-113217057D01*
X184500000Y-113125000D01*
X184500000Y-112375000D01*
X184520319Y-112253238D01*
X184579072Y-112144670D01*
X184669894Y-112061063D01*
X184782943Y-112011475D01*
X184875000Y-112000000D01*
X186125000Y-112000000D01*
X186246762Y-112020319D01*
X186246762Y-112020319D01*
G37*
D14*
X185500000Y-112750000D03*
D12*
G36*
X186246762Y-110020319D02*
G01*
X186355330Y-110079072D01*
X186438937Y-110169894D01*
X186488525Y-110282943D01*
X186500000Y-110375000D01*
X186500000Y-111125000D01*
X186479681Y-111246762D01*
X186420928Y-111355330D01*
X186330106Y-111438937D01*
X186217057Y-111488525D01*
X186125000Y-111500000D01*
X184875000Y-111500000D01*
X184753238Y-111479681D01*
X184644670Y-111420928D01*
X184561063Y-111330106D01*
X184511475Y-111217057D01*
X184500000Y-111125000D01*
X184500000Y-110375000D01*
X184520319Y-110253238D01*
X184579072Y-110144670D01*
X184669894Y-110061063D01*
X184782943Y-110011475D01*
X184875000Y-110000000D01*
X186125000Y-110000000D01*
X186246762Y-110020319D01*
X186246762Y-110020319D01*
G37*
D14*
X185500000Y-110750000D03*
D12*
G36*
X186246762Y-108020319D02*
G01*
X186355330Y-108079072D01*
X186438937Y-108169894D01*
X186488525Y-108282943D01*
X186500000Y-108375000D01*
X186500000Y-109125000D01*
X186479681Y-109246762D01*
X186420928Y-109355330D01*
X186330106Y-109438937D01*
X186217057Y-109488525D01*
X186125000Y-109500000D01*
X184875000Y-109500000D01*
X184753238Y-109479681D01*
X184644670Y-109420928D01*
X184561063Y-109330106D01*
X184511475Y-109217057D01*
X184500000Y-109125000D01*
X184500000Y-108375000D01*
X184520319Y-108253238D01*
X184579072Y-108144670D01*
X184669894Y-108061063D01*
X184782943Y-108011475D01*
X184875000Y-108000000D01*
X186125000Y-108000000D01*
X186246762Y-108020319D01*
X186246762Y-108020319D01*
G37*
D14*
X185500000Y-108750000D03*
D12*
G36*
X186246762Y-106020319D02*
G01*
X186355330Y-106079072D01*
X186438937Y-106169894D01*
X186488525Y-106282943D01*
X186500000Y-106375000D01*
X186500000Y-107125000D01*
X186479681Y-107246762D01*
X186420928Y-107355330D01*
X186330106Y-107438937D01*
X186217057Y-107488525D01*
X186125000Y-107500000D01*
X184875000Y-107500000D01*
X184753238Y-107479681D01*
X184644670Y-107420928D01*
X184561063Y-107330106D01*
X184511475Y-107217057D01*
X184500000Y-107125000D01*
X184500000Y-106375000D01*
X184520319Y-106253238D01*
X184579072Y-106144670D01*
X184669894Y-106061063D01*
X184782943Y-106011475D01*
X184875000Y-106000000D01*
X186125000Y-106000000D01*
X186246762Y-106020319D01*
X186246762Y-106020319D01*
G37*
D14*
X185500000Y-106750000D03*
D12*
G36*
X186246762Y-104020319D02*
G01*
X186355330Y-104079072D01*
X186438937Y-104169894D01*
X186488525Y-104282943D01*
X186500000Y-104375000D01*
X186500000Y-105125000D01*
X186479681Y-105246762D01*
X186420928Y-105355330D01*
X186330106Y-105438937D01*
X186217057Y-105488525D01*
X186125000Y-105500000D01*
X184875000Y-105500000D01*
X184753238Y-105479681D01*
X184644670Y-105420928D01*
X184561063Y-105330106D01*
X184511475Y-105217057D01*
X184500000Y-105125000D01*
X184500000Y-104375000D01*
X184520319Y-104253238D01*
X184579072Y-104144670D01*
X184669894Y-104061063D01*
X184782943Y-104011475D01*
X184875000Y-104000000D01*
X186125000Y-104000000D01*
X186246762Y-104020319D01*
X186246762Y-104020319D01*
G37*
D14*
X185500000Y-104750000D03*
D12*
G36*
X186246762Y-102020319D02*
G01*
X186355330Y-102079072D01*
X186438937Y-102169894D01*
X186488525Y-102282943D01*
X186500000Y-102375000D01*
X186500000Y-103125000D01*
X186479681Y-103246762D01*
X186420928Y-103355330D01*
X186330106Y-103438937D01*
X186217057Y-103488525D01*
X186125000Y-103500000D01*
X184875000Y-103500000D01*
X184753238Y-103479681D01*
X184644670Y-103420928D01*
X184561063Y-103330106D01*
X184511475Y-103217057D01*
X184500000Y-103125000D01*
X184500000Y-102375000D01*
X184520319Y-102253238D01*
X184579072Y-102144670D01*
X184669894Y-102061063D01*
X184782943Y-102011475D01*
X184875000Y-102000000D01*
X186125000Y-102000000D01*
X186246762Y-102020319D01*
X186246762Y-102020319D01*
G37*
D14*
X185500000Y-102750000D03*
D12*
G36*
X186246762Y-100020319D02*
G01*
X186355330Y-100079072D01*
X186438937Y-100169894D01*
X186488525Y-100282943D01*
X186500000Y-100375000D01*
X186500000Y-101125000D01*
X186479681Y-101246762D01*
X186420928Y-101355330D01*
X186330106Y-101438937D01*
X186217057Y-101488525D01*
X186125000Y-101500000D01*
X184875000Y-101500000D01*
X184753238Y-101479681D01*
X184644670Y-101420928D01*
X184561063Y-101330106D01*
X184511475Y-101217057D01*
X184500000Y-101125000D01*
X184500000Y-100375000D01*
X184520319Y-100253238D01*
X184579072Y-100144670D01*
X184669894Y-100061063D01*
X184782943Y-100011475D01*
X184875000Y-100000000D01*
X186125000Y-100000000D01*
X186246762Y-100020319D01*
X186246762Y-100020319D01*
G37*
D14*
X185500000Y-100750000D03*
D12*
G36*
X186246762Y-98020319D02*
G01*
X186355330Y-98079072D01*
X186438937Y-98169894D01*
X186488525Y-98282943D01*
X186500000Y-98375000D01*
X186500000Y-99125000D01*
X186479681Y-99246762D01*
X186420928Y-99355330D01*
X186330106Y-99438937D01*
X186217057Y-99488525D01*
X186125000Y-99500000D01*
X184875000Y-99500000D01*
X184753238Y-99479681D01*
X184644670Y-99420928D01*
X184561063Y-99330106D01*
X184511475Y-99217057D01*
X184500000Y-99125000D01*
X184500000Y-98375000D01*
X184520319Y-98253238D01*
X184579072Y-98144670D01*
X184669894Y-98061063D01*
X184782943Y-98011475D01*
X184875000Y-98000000D01*
X186125000Y-98000000D01*
X186246762Y-98020319D01*
X186246762Y-98020319D01*
G37*
D14*
X185500000Y-98750000D03*
D12*
G36*
X170246762Y-98020319D02*
G01*
X170355330Y-98079072D01*
X170438937Y-98169894D01*
X170488525Y-98282943D01*
X170500000Y-98375000D01*
X170500000Y-99125000D01*
X170479681Y-99246762D01*
X170420928Y-99355330D01*
X170330106Y-99438937D01*
X170217057Y-99488525D01*
X170125000Y-99500000D01*
X168875000Y-99500000D01*
X168753238Y-99479681D01*
X168644670Y-99420928D01*
X168561063Y-99330106D01*
X168511475Y-99217057D01*
X168500000Y-99125000D01*
X168500000Y-98375000D01*
X168520319Y-98253238D01*
X168579072Y-98144670D01*
X168669894Y-98061063D01*
X168782943Y-98011475D01*
X168875000Y-98000000D01*
X170125000Y-98000000D01*
X170246762Y-98020319D01*
X170246762Y-98020319D01*
G37*
D14*
X169500000Y-98750000D03*
D12*
G36*
X170246762Y-100020319D02*
G01*
X170355330Y-100079072D01*
X170438937Y-100169894D01*
X170488525Y-100282943D01*
X170500000Y-100375000D01*
X170500000Y-101125000D01*
X170479681Y-101246762D01*
X170420928Y-101355330D01*
X170330106Y-101438937D01*
X170217057Y-101488525D01*
X170125000Y-101500000D01*
X168875000Y-101500000D01*
X168753238Y-101479681D01*
X168644670Y-101420928D01*
X168561063Y-101330106D01*
X168511475Y-101217057D01*
X168500000Y-101125000D01*
X168500000Y-100375000D01*
X168520319Y-100253238D01*
X168579072Y-100144670D01*
X168669894Y-100061063D01*
X168782943Y-100011475D01*
X168875000Y-100000000D01*
X170125000Y-100000000D01*
X170246762Y-100020319D01*
X170246762Y-100020319D01*
G37*
D14*
X169500000Y-100750000D03*
D12*
G36*
X170246762Y-102020319D02*
G01*
X170355330Y-102079072D01*
X170438937Y-102169894D01*
X170488525Y-102282943D01*
X170500000Y-102375000D01*
X170500000Y-103125000D01*
X170479681Y-103246762D01*
X170420928Y-103355330D01*
X170330106Y-103438937D01*
X170217057Y-103488525D01*
X170125000Y-103500000D01*
X168875000Y-103500000D01*
X168753238Y-103479681D01*
X168644670Y-103420928D01*
X168561063Y-103330106D01*
X168511475Y-103217057D01*
X168500000Y-103125000D01*
X168500000Y-102375000D01*
X168520319Y-102253238D01*
X168579072Y-102144670D01*
X168669894Y-102061063D01*
X168782943Y-102011475D01*
X168875000Y-102000000D01*
X170125000Y-102000000D01*
X170246762Y-102020319D01*
X170246762Y-102020319D01*
G37*
D14*
X169500000Y-102750000D03*
D12*
G36*
X170246762Y-104020319D02*
G01*
X170355330Y-104079072D01*
X170438937Y-104169894D01*
X170488525Y-104282943D01*
X170500000Y-104375000D01*
X170500000Y-105125000D01*
X170479681Y-105246762D01*
X170420928Y-105355330D01*
X170330106Y-105438937D01*
X170217057Y-105488525D01*
X170125000Y-105500000D01*
X168875000Y-105500000D01*
X168753238Y-105479681D01*
X168644670Y-105420928D01*
X168561063Y-105330106D01*
X168511475Y-105217057D01*
X168500000Y-105125000D01*
X168500000Y-104375000D01*
X168520319Y-104253238D01*
X168579072Y-104144670D01*
X168669894Y-104061063D01*
X168782943Y-104011475D01*
X168875000Y-104000000D01*
X170125000Y-104000000D01*
X170246762Y-104020319D01*
X170246762Y-104020319D01*
G37*
D14*
X169500000Y-104750000D03*
D12*
G36*
X170246762Y-106020319D02*
G01*
X170355330Y-106079072D01*
X170438937Y-106169894D01*
X170488525Y-106282943D01*
X170500000Y-106375000D01*
X170500000Y-107125000D01*
X170479681Y-107246762D01*
X170420928Y-107355330D01*
X170330106Y-107438937D01*
X170217057Y-107488525D01*
X170125000Y-107500000D01*
X168875000Y-107500000D01*
X168753238Y-107479681D01*
X168644670Y-107420928D01*
X168561063Y-107330106D01*
X168511475Y-107217057D01*
X168500000Y-107125000D01*
X168500000Y-106375000D01*
X168520319Y-106253238D01*
X168579072Y-106144670D01*
X168669894Y-106061063D01*
X168782943Y-106011475D01*
X168875000Y-106000000D01*
X170125000Y-106000000D01*
X170246762Y-106020319D01*
X170246762Y-106020319D01*
G37*
D14*
X169500000Y-106750000D03*
D12*
G36*
X170246762Y-108020319D02*
G01*
X170355330Y-108079072D01*
X170438937Y-108169894D01*
X170488525Y-108282943D01*
X170500000Y-108375000D01*
X170500000Y-109125000D01*
X170479681Y-109246762D01*
X170420928Y-109355330D01*
X170330106Y-109438937D01*
X170217057Y-109488525D01*
X170125000Y-109500000D01*
X168875000Y-109500000D01*
X168753238Y-109479681D01*
X168644670Y-109420928D01*
X168561063Y-109330106D01*
X168511475Y-109217057D01*
X168500000Y-109125000D01*
X168500000Y-108375000D01*
X168520319Y-108253238D01*
X168579072Y-108144670D01*
X168669894Y-108061063D01*
X168782943Y-108011475D01*
X168875000Y-108000000D01*
X170125000Y-108000000D01*
X170246762Y-108020319D01*
X170246762Y-108020319D01*
G37*
D14*
X169500000Y-108750000D03*
D12*
G36*
X170246762Y-110020319D02*
G01*
X170355330Y-110079072D01*
X170438937Y-110169894D01*
X170488525Y-110282943D01*
X170500000Y-110375000D01*
X170500000Y-111125000D01*
X170479681Y-111246762D01*
X170420928Y-111355330D01*
X170330106Y-111438937D01*
X170217057Y-111488525D01*
X170125000Y-111500000D01*
X168875000Y-111500000D01*
X168753238Y-111479681D01*
X168644670Y-111420928D01*
X168561063Y-111330106D01*
X168511475Y-111217057D01*
X168500000Y-111125000D01*
X168500000Y-110375000D01*
X168520319Y-110253238D01*
X168579072Y-110144670D01*
X168669894Y-110061063D01*
X168782943Y-110011475D01*
X168875000Y-110000000D01*
X170125000Y-110000000D01*
X170246762Y-110020319D01*
X170246762Y-110020319D01*
G37*
D14*
X169500000Y-110750000D03*
D12*
G36*
X170246762Y-112020319D02*
G01*
X170355330Y-112079072D01*
X170438937Y-112169894D01*
X170488525Y-112282943D01*
X170500000Y-112375000D01*
X170500000Y-113125000D01*
X170479681Y-113246762D01*
X170420928Y-113355330D01*
X170330106Y-113438937D01*
X170217057Y-113488525D01*
X170125000Y-113500000D01*
X168875000Y-113500000D01*
X168753238Y-113479681D01*
X168644670Y-113420928D01*
X168561063Y-113330106D01*
X168511475Y-113217057D01*
X168500000Y-113125000D01*
X168500000Y-112375000D01*
X168520319Y-112253238D01*
X168579072Y-112144670D01*
X168669894Y-112061063D01*
X168782943Y-112011475D01*
X168875000Y-112000000D01*
X170125000Y-112000000D01*
X170246762Y-112020319D01*
X170246762Y-112020319D01*
G37*
D14*
X169500000Y-112750000D03*
D12*
G36*
X145880408Y-105635920D02*
G01*
X145953912Y-105694538D01*
X145994704Y-105779242D01*
X146000000Y-105826250D01*
X146000000Y-106248750D01*
X145979080Y-106340408D01*
X145920462Y-106413912D01*
X145835758Y-106454704D01*
X145788750Y-106460000D01*
X145211250Y-106460000D01*
X145119592Y-106439080D01*
X145046088Y-106380462D01*
X145005296Y-106295758D01*
X145000000Y-106248750D01*
X145000000Y-105826250D01*
X145020920Y-105734592D01*
X145079538Y-105661088D01*
X145164242Y-105620296D01*
X145211250Y-105615000D01*
X145788750Y-105615000D01*
X145880408Y-105635920D01*
X145880408Y-105635920D01*
G37*
D13*
X145500000Y-106037500D03*
D12*
G36*
X145880408Y-107560920D02*
G01*
X145953912Y-107619538D01*
X145994704Y-107704242D01*
X146000000Y-107751250D01*
X146000000Y-108173750D01*
X145979080Y-108265408D01*
X145920462Y-108338912D01*
X145835758Y-108379704D01*
X145788750Y-108385000D01*
X145211250Y-108385000D01*
X145119592Y-108364080D01*
X145046088Y-108305462D01*
X145005296Y-108220758D01*
X145000000Y-108173750D01*
X145000000Y-107751250D01*
X145020920Y-107659592D01*
X145079538Y-107586088D01*
X145164242Y-107545296D01*
X145211250Y-107540000D01*
X145788750Y-107540000D01*
X145880408Y-107560920D01*
X145880408Y-107560920D01*
G37*
D13*
X145500000Y-107962500D03*
D12*
G36*
X188380408Y-109098420D02*
G01*
X188453912Y-109157038D01*
X188494704Y-109241742D01*
X188500000Y-109288750D01*
X188500000Y-109711250D01*
X188479080Y-109802908D01*
X188420462Y-109876412D01*
X188335758Y-109917204D01*
X188288750Y-109922500D01*
X187711250Y-109922500D01*
X187619592Y-109901580D01*
X187546088Y-109842962D01*
X187505296Y-109758258D01*
X187500000Y-109711250D01*
X187500000Y-109288750D01*
X187520920Y-109197092D01*
X187579538Y-109123588D01*
X187664242Y-109082796D01*
X187711250Y-109077500D01*
X188288750Y-109077500D01*
X188380408Y-109098420D01*
X188380408Y-109098420D01*
G37*
D13*
X188000000Y-109500000D03*
D12*
G36*
X188380408Y-111023420D02*
G01*
X188453912Y-111082038D01*
X188494704Y-111166742D01*
X188500000Y-111213750D01*
X188500000Y-111636250D01*
X188479080Y-111727908D01*
X188420462Y-111801412D01*
X188335758Y-111842204D01*
X188288750Y-111847500D01*
X187711250Y-111847500D01*
X187619592Y-111826580D01*
X187546088Y-111767962D01*
X187505296Y-111683258D01*
X187500000Y-111636250D01*
X187500000Y-111213750D01*
X187520920Y-111122092D01*
X187579538Y-111048588D01*
X187664242Y-111007796D01*
X187711250Y-111002500D01*
X188288750Y-111002500D01*
X188380408Y-111023420D01*
X188380408Y-111023420D01*
G37*
D13*
X188000000Y-111425000D03*
D12*
G36*
X188380408Y-105423420D02*
G01*
X188453912Y-105482038D01*
X188494704Y-105566742D01*
X188500000Y-105613750D01*
X188500000Y-106036250D01*
X188479080Y-106127908D01*
X188420462Y-106201412D01*
X188335758Y-106242204D01*
X188288750Y-106247500D01*
X187711250Y-106247500D01*
X187619592Y-106226580D01*
X187546088Y-106167962D01*
X187505296Y-106083258D01*
X187500000Y-106036250D01*
X187500000Y-105613750D01*
X187520920Y-105522092D01*
X187579538Y-105448588D01*
X187664242Y-105407796D01*
X187711250Y-105402500D01*
X188288750Y-105402500D01*
X188380408Y-105423420D01*
X188380408Y-105423420D01*
G37*
D13*
X188000000Y-105825000D03*
D12*
G36*
X188380408Y-107348420D02*
G01*
X188453912Y-107407038D01*
X188494704Y-107491742D01*
X188500000Y-107538750D01*
X188500000Y-107961250D01*
X188479080Y-108052908D01*
X188420462Y-108126412D01*
X188335758Y-108167204D01*
X188288750Y-108172500D01*
X187711250Y-108172500D01*
X187619592Y-108151580D01*
X187546088Y-108092962D01*
X187505296Y-108008258D01*
X187500000Y-107961250D01*
X187500000Y-107538750D01*
X187520920Y-107447092D01*
X187579538Y-107373588D01*
X187664242Y-107332796D01*
X187711250Y-107327500D01*
X188288750Y-107327500D01*
X188380408Y-107348420D01*
X188380408Y-107348420D01*
G37*
D13*
X188000000Y-107750000D03*
D12*
G36*
X131380408Y-107385920D02*
G01*
X131453912Y-107444538D01*
X131494704Y-107529242D01*
X131500000Y-107576250D01*
X131500000Y-107998750D01*
X131479080Y-108090408D01*
X131420462Y-108163912D01*
X131335758Y-108204704D01*
X131288750Y-108210000D01*
X130711250Y-108210000D01*
X130619592Y-108189080D01*
X130546088Y-108130462D01*
X130505296Y-108045758D01*
X130500000Y-107998750D01*
X130500000Y-107576250D01*
X130520920Y-107484592D01*
X130579538Y-107411088D01*
X130664242Y-107370296D01*
X130711250Y-107365000D01*
X131288750Y-107365000D01*
X131380408Y-107385920D01*
X131380408Y-107385920D01*
G37*
D13*
X131000000Y-107787500D03*
D12*
G36*
X131380408Y-109310920D02*
G01*
X131453912Y-109369538D01*
X131494704Y-109454242D01*
X131500000Y-109501250D01*
X131500000Y-109923750D01*
X131479080Y-110015408D01*
X131420462Y-110088912D01*
X131335758Y-110129704D01*
X131288750Y-110135000D01*
X130711250Y-110135000D01*
X130619592Y-110114080D01*
X130546088Y-110055462D01*
X130505296Y-109970758D01*
X130500000Y-109923750D01*
X130500000Y-109501250D01*
X130520920Y-109409592D01*
X130579538Y-109336088D01*
X130664242Y-109295296D01*
X130711250Y-109290000D01*
X131288750Y-109290000D01*
X131380408Y-109310920D01*
X131380408Y-109310920D01*
G37*
D13*
X131000000Y-109712500D03*
D12*
G36*
X115052908Y-116270920D02*
G01*
X115126412Y-116329538D01*
X115167204Y-116414242D01*
X115172500Y-116461250D01*
X115172500Y-117038750D01*
X115151580Y-117130408D01*
X115092962Y-117203912D01*
X115008258Y-117244704D01*
X114961250Y-117250000D01*
X114538750Y-117250000D01*
X114447092Y-117229080D01*
X114373588Y-117170462D01*
X114332796Y-117085758D01*
X114327500Y-117038750D01*
X114327500Y-116461250D01*
X114348420Y-116369592D01*
X114407038Y-116296088D01*
X114491742Y-116255296D01*
X114538750Y-116250000D01*
X114961250Y-116250000D01*
X115052908Y-116270920D01*
X115052908Y-116270920D01*
G37*
D13*
X114750000Y-116750000D03*
D12*
G36*
X113127908Y-116270920D02*
G01*
X113201412Y-116329538D01*
X113242204Y-116414242D01*
X113247500Y-116461250D01*
X113247500Y-117038750D01*
X113226580Y-117130408D01*
X113167962Y-117203912D01*
X113083258Y-117244704D01*
X113036250Y-117250000D01*
X112613750Y-117250000D01*
X112522092Y-117229080D01*
X112448588Y-117170462D01*
X112407796Y-117085758D01*
X112402500Y-117038750D01*
X112402500Y-116461250D01*
X112423420Y-116369592D01*
X112482038Y-116296088D01*
X112566742Y-116255296D01*
X112613750Y-116250000D01*
X113036250Y-116250000D01*
X113127908Y-116270920D01*
X113127908Y-116270920D01*
G37*
D13*
X112825000Y-116750000D03*
D24*
X162042500Y-97000000D03*
X159957500Y-97000000D03*
D12*
G36*
X162265408Y-98520920D02*
G01*
X162338912Y-98579538D01*
X162379704Y-98664242D01*
X162385000Y-98711250D01*
X162385000Y-99288750D01*
X162364080Y-99380408D01*
X162305462Y-99453912D01*
X162220758Y-99494704D01*
X162173750Y-99500000D01*
X161751250Y-99500000D01*
X161659592Y-99479080D01*
X161586088Y-99420462D01*
X161545296Y-99335758D01*
X161540000Y-99288750D01*
X161540000Y-98711250D01*
X161560920Y-98619592D01*
X161619538Y-98546088D01*
X161704242Y-98505296D01*
X161751250Y-98500000D01*
X162173750Y-98500000D01*
X162265408Y-98520920D01*
X162265408Y-98520920D01*
G37*
D13*
X161962500Y-99000000D03*
D12*
G36*
X160340408Y-98520920D02*
G01*
X160413912Y-98579538D01*
X160454704Y-98664242D01*
X160460000Y-98711250D01*
X160460000Y-99288750D01*
X160439080Y-99380408D01*
X160380462Y-99453912D01*
X160295758Y-99494704D01*
X160248750Y-99500000D01*
X159826250Y-99500000D01*
X159734592Y-99479080D01*
X159661088Y-99420462D01*
X159620296Y-99335758D01*
X159615000Y-99288750D01*
X159615000Y-98711250D01*
X159635920Y-98619592D01*
X159694538Y-98546088D01*
X159779242Y-98505296D01*
X159826250Y-98500000D01*
X160248750Y-98500000D01*
X160340408Y-98520920D01*
X160340408Y-98520920D01*
G37*
D13*
X160037500Y-99000000D03*
D12*
G36*
X148380408Y-99773420D02*
G01*
X148453912Y-99832038D01*
X148494704Y-99916742D01*
X148500000Y-99963750D01*
X148500000Y-100386250D01*
X148479080Y-100477908D01*
X148420462Y-100551412D01*
X148335758Y-100592204D01*
X148288750Y-100597500D01*
X147711250Y-100597500D01*
X147619592Y-100576580D01*
X147546088Y-100517962D01*
X147505296Y-100433258D01*
X147500000Y-100386250D01*
X147500000Y-99963750D01*
X147520920Y-99872092D01*
X147579538Y-99798588D01*
X147664242Y-99757796D01*
X147711250Y-99752500D01*
X148288750Y-99752500D01*
X148380408Y-99773420D01*
X148380408Y-99773420D01*
G37*
D13*
X148000000Y-100175000D03*
D12*
G36*
X148380408Y-97848420D02*
G01*
X148453912Y-97907038D01*
X148494704Y-97991742D01*
X148500000Y-98038750D01*
X148500000Y-98461250D01*
X148479080Y-98552908D01*
X148420462Y-98626412D01*
X148335758Y-98667204D01*
X148288750Y-98672500D01*
X147711250Y-98672500D01*
X147619592Y-98651580D01*
X147546088Y-98592962D01*
X147505296Y-98508258D01*
X147500000Y-98461250D01*
X147500000Y-98038750D01*
X147520920Y-97947092D01*
X147579538Y-97873588D01*
X147664242Y-97832796D01*
X147711250Y-97827500D01*
X148288750Y-97827500D01*
X148380408Y-97848420D01*
X148380408Y-97848420D01*
G37*
D13*
X148000000Y-98250000D03*
D12*
G36*
X144880408Y-99810920D02*
G01*
X144953912Y-99869538D01*
X144994704Y-99954242D01*
X145000000Y-100001250D01*
X145000000Y-100423750D01*
X144979080Y-100515408D01*
X144920462Y-100588912D01*
X144835758Y-100629704D01*
X144788750Y-100635000D01*
X144211250Y-100635000D01*
X144119592Y-100614080D01*
X144046088Y-100555462D01*
X144005296Y-100470758D01*
X144000000Y-100423750D01*
X144000000Y-100001250D01*
X144020920Y-99909592D01*
X144079538Y-99836088D01*
X144164242Y-99795296D01*
X144211250Y-99790000D01*
X144788750Y-99790000D01*
X144880408Y-99810920D01*
X144880408Y-99810920D01*
G37*
D13*
X144500000Y-100212500D03*
D12*
G36*
X144880408Y-97885920D02*
G01*
X144953912Y-97944538D01*
X144994704Y-98029242D01*
X145000000Y-98076250D01*
X145000000Y-98498750D01*
X144979080Y-98590408D01*
X144920462Y-98663912D01*
X144835758Y-98704704D01*
X144788750Y-98710000D01*
X144211250Y-98710000D01*
X144119592Y-98689080D01*
X144046088Y-98630462D01*
X144005296Y-98545758D01*
X144000000Y-98498750D01*
X144000000Y-98076250D01*
X144020920Y-97984592D01*
X144079538Y-97911088D01*
X144164242Y-97870296D01*
X144211250Y-97865000D01*
X144788750Y-97865000D01*
X144880408Y-97885920D01*
X144880408Y-97885920D01*
G37*
D13*
X144500000Y-98287500D03*
D12*
G36*
X139630408Y-105885920D02*
G01*
X139703912Y-105944538D01*
X139744704Y-106029242D01*
X139750000Y-106076250D01*
X139750000Y-106498750D01*
X139729080Y-106590408D01*
X139670462Y-106663912D01*
X139585758Y-106704704D01*
X139538750Y-106710000D01*
X138961250Y-106710000D01*
X138869592Y-106689080D01*
X138796088Y-106630462D01*
X138755296Y-106545758D01*
X138750000Y-106498750D01*
X138750000Y-106076250D01*
X138770920Y-105984592D01*
X138829538Y-105911088D01*
X138914242Y-105870296D01*
X138961250Y-105865000D01*
X139538750Y-105865000D01*
X139630408Y-105885920D01*
X139630408Y-105885920D01*
G37*
D13*
X139250000Y-106287500D03*
D12*
G36*
X139630408Y-107810920D02*
G01*
X139703912Y-107869538D01*
X139744704Y-107954242D01*
X139750000Y-108001250D01*
X139750000Y-108423750D01*
X139729080Y-108515408D01*
X139670462Y-108588912D01*
X139585758Y-108629704D01*
X139538750Y-108635000D01*
X138961250Y-108635000D01*
X138869592Y-108614080D01*
X138796088Y-108555462D01*
X138755296Y-108470758D01*
X138750000Y-108423750D01*
X138750000Y-108001250D01*
X138770920Y-107909592D01*
X138829538Y-107836088D01*
X138914242Y-107795296D01*
X138961250Y-107790000D01*
X139538750Y-107790000D01*
X139630408Y-107810920D01*
X139630408Y-107810920D01*
G37*
D13*
X139250000Y-108212500D03*
D12*
G36*
X148380408Y-109885920D02*
G01*
X148453912Y-109944538D01*
X148494704Y-110029242D01*
X148500000Y-110076250D01*
X148500000Y-110498750D01*
X148479080Y-110590408D01*
X148420462Y-110663912D01*
X148335758Y-110704704D01*
X148288750Y-110710000D01*
X147711250Y-110710000D01*
X147619592Y-110689080D01*
X147546088Y-110630462D01*
X147505296Y-110545758D01*
X147500000Y-110498750D01*
X147500000Y-110076250D01*
X147520920Y-109984592D01*
X147579538Y-109911088D01*
X147664242Y-109870296D01*
X147711250Y-109865000D01*
X148288750Y-109865000D01*
X148380408Y-109885920D01*
X148380408Y-109885920D01*
G37*
D13*
X148000000Y-110287500D03*
D12*
G36*
X148380408Y-111810920D02*
G01*
X148453912Y-111869538D01*
X148494704Y-111954242D01*
X148500000Y-112001250D01*
X148500000Y-112423750D01*
X148479080Y-112515408D01*
X148420462Y-112588912D01*
X148335758Y-112629704D01*
X148288750Y-112635000D01*
X147711250Y-112635000D01*
X147619592Y-112614080D01*
X147546088Y-112555462D01*
X147505296Y-112470758D01*
X147500000Y-112423750D01*
X147500000Y-112001250D01*
X147520920Y-111909592D01*
X147579538Y-111836088D01*
X147664242Y-111795296D01*
X147711250Y-111790000D01*
X148288750Y-111790000D01*
X148380408Y-111810920D01*
X148380408Y-111810920D01*
G37*
D13*
X148000000Y-112212500D03*
D25*
X114500000Y-85500000D03*
D26*
X186500000Y-85500000D03*
D12*
G36*
X127623607Y-100719577D02*
G01*
X127735114Y-100776393D01*
X127823607Y-100864886D01*
X127880423Y-100976393D01*
X127900000Y-101100000D01*
X127900000Y-101900000D01*
X127880423Y-102023607D01*
X127823607Y-102135114D01*
X127735114Y-102223607D01*
X127623607Y-102280423D01*
X127500000Y-102300000D01*
X124800000Y-102300000D01*
X124676393Y-102280423D01*
X124564886Y-102223607D01*
X124476393Y-102135114D01*
X124419577Y-102023607D01*
X124400000Y-101900000D01*
X124400000Y-101100000D01*
X124419577Y-100976393D01*
X124476393Y-100864886D01*
X124564886Y-100776393D01*
X124676393Y-100719577D01*
X124800000Y-100700000D01*
X127500000Y-100700000D01*
X127623607Y-100719577D01*
X127623607Y-100719577D01*
G37*
D23*
X126150000Y-101500000D03*
D12*
G36*
X122223607Y-100719577D02*
G01*
X122335114Y-100776393D01*
X122423607Y-100864886D01*
X122480423Y-100976393D01*
X122500000Y-101100000D01*
X122500000Y-101900000D01*
X122480423Y-102023607D01*
X122423607Y-102135114D01*
X122335114Y-102223607D01*
X122223607Y-102280423D01*
X122100000Y-102300000D01*
X119400000Y-102300000D01*
X119276393Y-102280423D01*
X119164886Y-102223607D01*
X119076393Y-102135114D01*
X119019577Y-102023607D01*
X119000000Y-101900000D01*
X119000000Y-101100000D01*
X119019577Y-100976393D01*
X119076393Y-100864886D01*
X119164886Y-100776393D01*
X119276393Y-100719577D01*
X119400000Y-100700000D01*
X122100000Y-100700000D01*
X122223607Y-100719577D01*
X122223607Y-100719577D01*
G37*
D23*
X120750000Y-101500000D03*
D12*
G36*
X142845671Y-112769030D02*
G01*
X142926777Y-112823223D01*
X142980970Y-112904329D01*
X143000000Y-113000000D01*
X143000000Y-113500000D01*
X142980970Y-113595671D01*
X142926777Y-113676777D01*
X142845671Y-113730970D01*
X142750000Y-113750000D01*
X142250000Y-113750000D01*
X142154329Y-113730970D01*
X142073223Y-113676777D01*
X142019030Y-113595671D01*
X142000000Y-113500000D01*
X142000000Y-113000000D01*
X142019030Y-112904329D01*
X142073223Y-112823223D01*
X142154329Y-112769030D01*
X142250000Y-112750000D01*
X142750000Y-112750000D01*
X142845671Y-112769030D01*
X142845671Y-112769030D01*
G37*
D20*
X142500000Y-113250000D03*
D12*
G36*
X142845671Y-105769030D02*
G01*
X142926777Y-105823223D01*
X142980970Y-105904329D01*
X143000000Y-106000000D01*
X143000000Y-106500000D01*
X142980970Y-106595671D01*
X142926777Y-106676777D01*
X142845671Y-106730970D01*
X142750000Y-106750000D01*
X142250000Y-106750000D01*
X142154329Y-106730970D01*
X142073223Y-106676777D01*
X142019030Y-106595671D01*
X142000000Y-106500000D01*
X142000000Y-106000000D01*
X142019030Y-105904329D01*
X142073223Y-105823223D01*
X142154329Y-105769030D01*
X142250000Y-105750000D01*
X142750000Y-105750000D01*
X142845671Y-105769030D01*
X142845671Y-105769030D01*
G37*
D20*
X142500000Y-106250000D03*
X119250000Y-97000000D03*
X157250000Y-114750000D03*
D27*
X150000000Y-108300000D03*
X150000000Y-107500000D03*
X150000000Y-106700000D03*
X150000000Y-105900000D03*
X150000000Y-105100000D03*
X150000000Y-104300000D03*
X150000000Y-103500000D03*
D12*
G36*
X150731250Y-102443422D02*
G01*
X150781578Y-102493750D01*
X150800000Y-102562500D01*
X150800000Y-102837500D01*
X150781578Y-102906250D01*
X150731250Y-102956578D01*
X150662500Y-102975000D01*
X149337500Y-102975000D01*
X149268750Y-102956578D01*
X149218422Y-102906250D01*
X149200000Y-102837500D01*
X149200000Y-102562500D01*
X149218422Y-102493750D01*
X149268750Y-102443422D01*
X149337500Y-102425000D01*
X150662500Y-102425000D01*
X150731250Y-102443422D01*
X150731250Y-102443422D01*
G37*
D28*
X150000000Y-102700000D03*
D29*
X151450000Y-101250000D03*
X152250000Y-101250000D03*
X153050000Y-101250000D03*
X153850000Y-101250000D03*
X154650000Y-101250000D03*
X155450000Y-101250000D03*
X156250000Y-101250000D03*
D12*
G36*
X157256250Y-100468422D02*
G01*
X157306578Y-100518750D01*
X157325000Y-100587500D01*
X157325000Y-101912500D01*
X157306578Y-101981250D01*
X157256250Y-102031578D01*
X157187500Y-102050000D01*
X156912500Y-102050000D01*
X156843750Y-102031578D01*
X156793422Y-101981250D01*
X156775000Y-101912500D01*
X156775000Y-100587500D01*
X156793422Y-100518750D01*
X156843750Y-100468422D01*
X156912500Y-100450000D01*
X157187500Y-100450000D01*
X157256250Y-100468422D01*
X157256250Y-100468422D01*
G37*
D28*
X157050000Y-101250000D03*
D12*
G36*
X159231250Y-102443422D02*
G01*
X159281578Y-102493750D01*
X159300000Y-102562500D01*
X159300000Y-102837500D01*
X159281578Y-102906250D01*
X159231250Y-102956578D01*
X159162500Y-102975000D01*
X157837500Y-102975000D01*
X157768750Y-102956578D01*
X157718422Y-102906250D01*
X157700000Y-102837500D01*
X157700000Y-102562500D01*
X157718422Y-102493750D01*
X157768750Y-102443422D01*
X157837500Y-102425000D01*
X159162500Y-102425000D01*
X159231250Y-102443422D01*
X159231250Y-102443422D01*
G37*
D28*
X158500000Y-102700000D03*
D12*
G36*
X159231250Y-103243422D02*
G01*
X159281578Y-103293750D01*
X159300000Y-103362500D01*
X159300000Y-103637500D01*
X159281578Y-103706250D01*
X159231250Y-103756578D01*
X159162500Y-103775000D01*
X157837500Y-103775000D01*
X157768750Y-103756578D01*
X157718422Y-103706250D01*
X157700000Y-103637500D01*
X157700000Y-103362500D01*
X157718422Y-103293750D01*
X157768750Y-103243422D01*
X157837500Y-103225000D01*
X159162500Y-103225000D01*
X159231250Y-103243422D01*
X159231250Y-103243422D01*
G37*
D28*
X158500000Y-103500000D03*
D12*
G36*
X159231250Y-104043422D02*
G01*
X159281578Y-104093750D01*
X159300000Y-104162500D01*
X159300000Y-104437500D01*
X159281578Y-104506250D01*
X159231250Y-104556578D01*
X159162500Y-104575000D01*
X157837500Y-104575000D01*
X157768750Y-104556578D01*
X157718422Y-104506250D01*
X157700000Y-104437500D01*
X157700000Y-104162500D01*
X157718422Y-104093750D01*
X157768750Y-104043422D01*
X157837500Y-104025000D01*
X159162500Y-104025000D01*
X159231250Y-104043422D01*
X159231250Y-104043422D01*
G37*
D28*
X158500000Y-104300000D03*
D27*
X158500000Y-105100000D03*
D12*
G36*
X159231250Y-105643422D02*
G01*
X159281578Y-105693750D01*
X159300000Y-105762500D01*
X159300000Y-106037500D01*
X159281578Y-106106250D01*
X159231250Y-106156578D01*
X159162500Y-106175000D01*
X157837500Y-106175000D01*
X157768750Y-106156578D01*
X157718422Y-106106250D01*
X157700000Y-106037500D01*
X157700000Y-105762500D01*
X157718422Y-105693750D01*
X157768750Y-105643422D01*
X157837500Y-105625000D01*
X159162500Y-105625000D01*
X159231250Y-105643422D01*
X159231250Y-105643422D01*
G37*
D28*
X158500000Y-105900000D03*
D27*
X158500000Y-106700000D03*
X158500000Y-107500000D03*
X158500000Y-108300000D03*
D29*
X157050000Y-109750000D03*
X156250000Y-109750000D03*
X155450000Y-109750000D03*
X154650000Y-109750000D03*
X153850000Y-109750000D03*
X153050000Y-109750000D03*
X152250000Y-109750000D03*
X151450000Y-109750000D03*
D12*
G36*
X159608779Y-116169098D02*
G01*
X159650000Y-116250000D01*
X159650000Y-117250000D01*
X159630902Y-117308779D01*
X159550000Y-117350000D01*
X159350000Y-117350000D01*
X159291221Y-117330902D01*
X159250000Y-117250000D01*
X159250000Y-116250000D01*
X159269098Y-116191221D01*
X159350000Y-116150000D01*
X159550000Y-116150000D01*
X159608779Y-116169098D01*
X159608779Y-116169098D01*
G37*
D30*
X159450000Y-116750000D03*
D12*
G36*
X157708779Y-116169098D02*
G01*
X157750000Y-116250000D01*
X157750000Y-117250000D01*
X157730902Y-117308779D01*
X157650000Y-117350000D01*
X157450000Y-117350000D01*
X157391221Y-117330902D01*
X157350000Y-117250000D01*
X157350000Y-116250000D01*
X157369098Y-116191221D01*
X157450000Y-116150000D01*
X157650000Y-116150000D01*
X157708779Y-116169098D01*
X157708779Y-116169098D01*
G37*
D30*
X157550000Y-116750000D03*
D12*
G36*
X158658779Y-116169098D02*
G01*
X158700000Y-116250000D01*
X158700000Y-117250000D01*
X158680902Y-117308779D01*
X158600000Y-117350000D01*
X158400000Y-117350000D01*
X158341221Y-117330902D01*
X158300000Y-117250000D01*
X158300000Y-116250000D01*
X158319098Y-116191221D01*
X158400000Y-116150000D01*
X158600000Y-116150000D01*
X158658779Y-116169098D01*
X158658779Y-116169098D01*
G37*
D30*
X158500000Y-116750000D03*
D20*
X150500000Y-114750000D03*
X146500000Y-113250000D03*
X112250000Y-106250000D03*
X120750000Y-116250000D03*
X131000000Y-106000000D03*
X129500000Y-101500000D03*
X127750000Y-103750000D03*
X127750000Y-99250000D03*
X129250000Y-105000000D03*
X146500000Y-96750000D03*
X145500000Y-109750000D03*
X139500000Y-113250000D03*
X161250000Y-116750000D03*
X155500000Y-112000000D03*
X161250000Y-112000000D03*
X155500000Y-114500000D03*
X161250000Y-114500000D03*
X155500000Y-116750000D03*
X159750000Y-119000000D03*
X156750000Y-119000000D03*
X166999996Y-98000000D03*
X133000000Y-106000000D03*
X188000000Y-113500000D03*
X167250000Y-114000000D03*
X165000000Y-109000000D03*
X166499995Y-103250005D03*
X167316317Y-107183674D03*
X146250000Y-100250000D03*
X150500000Y-99000000D03*
X146750000Y-103750000D03*
X147375000Y-106875000D03*
X147250000Y-108250000D03*
X150500000Y-113000000D03*
X163250000Y-114500000D03*
X164250000Y-113000000D03*
X143250000Y-103250000D03*
X144750000Y-103250000D03*
X152250000Y-97250000D03*
X139250000Y-110000000D03*
X131000000Y-111750000D03*
X163750000Y-99000000D03*
X153925000Y-114925000D03*
X149500000Y-118750000D03*
X166750000Y-101750086D03*
X166750000Y-100000000D03*
X188250000Y-98000000D03*
X188250000Y-99750000D03*
X188250000Y-101500000D03*
X188250000Y-103500000D03*
X166498300Y-105001614D03*
X165250000Y-112000000D03*
X158150000Y-98500000D03*
X152000000Y-103250000D03*
X154250000Y-103250000D03*
X156500000Y-103250000D03*
X156500000Y-107500000D03*
X152000000Y-107250000D03*
X154250000Y-105250000D03*
X152000000Y-105250000D03*
X156500000Y-105250000D03*
X154250000Y-106750000D03*
X159750000Y-110250000D03*
D31*
X116750000Y-116750000D02*
X114750000Y-116750000D01*
D32*
X141250000Y-125750000D02*
X141250000Y-123500000D01*
X129500000Y-125750000D02*
X141250000Y-125750000D01*
X130250000Y-125750000D02*
X130250000Y-123500000D01*
X129500000Y-125750000D02*
X130250000Y-125750000D01*
X119750000Y-125750000D02*
X129500000Y-125750000D01*
X119250000Y-123500000D02*
X119250000Y-125250000D01*
X119250000Y-125250000D02*
X119750000Y-125750000D01*
X156630000Y-125750000D02*
X157730000Y-124650000D01*
X151250000Y-125750000D02*
X156630000Y-125750000D01*
X141250000Y-125750000D02*
X151250000Y-125750000D01*
X152250000Y-125750000D02*
X152250000Y-123500000D01*
X151250000Y-125750000D02*
X152250000Y-125750000D01*
X147037500Y-112212500D02*
X148000000Y-112212500D01*
X146500000Y-113250000D02*
X146500000Y-112750000D01*
X146500000Y-112750000D02*
X147037500Y-112212500D01*
X146500000Y-114000000D02*
X146500000Y-113250000D01*
X148000000Y-114325000D02*
X146825000Y-114325000D01*
X146825000Y-114325000D02*
X146500000Y-114000000D01*
X152000000Y-112500000D02*
X152000000Y-113000000D01*
X153050000Y-109750000D02*
X153050000Y-111450000D01*
X153050000Y-111450000D02*
X152000000Y-112500000D01*
X181700000Y-124750000D02*
X181700000Y-125974990D01*
X181700000Y-125974990D02*
X181250000Y-126424990D01*
X159504990Y-126424990D02*
X157730000Y-124650000D01*
X181250000Y-126424990D02*
X159504990Y-126424990D01*
X166800000Y-117000000D02*
X166800000Y-121450000D01*
X166800000Y-121450000D02*
X165750000Y-122500000D01*
X165750000Y-122500000D02*
X158750000Y-122500000D01*
X157730000Y-123520000D02*
X157730000Y-124650000D01*
X158750000Y-122500000D02*
X157730000Y-123520000D01*
X153050000Y-109750000D02*
X153050000Y-107800000D01*
X144500000Y-98287500D02*
X144500000Y-97500000D01*
X144500000Y-97500000D02*
X145250000Y-96750000D01*
X145250000Y-96750000D02*
X146500000Y-96750000D01*
X148250000Y-97250000D02*
X148250000Y-98250000D01*
X147750000Y-96750000D02*
X148250000Y-97250000D01*
X146500000Y-96750000D02*
X147750000Y-96750000D01*
X145500000Y-107962500D02*
X145500000Y-109750000D01*
X142500000Y-113250000D02*
X139500000Y-113250000D01*
X154650000Y-110900000D02*
X154650000Y-109750000D01*
X155500000Y-111750000D02*
X154650000Y-110900000D01*
X155500000Y-112000000D02*
X155500000Y-111750000D01*
X155500000Y-114500000D02*
X155500000Y-112000000D01*
X161250000Y-112000000D02*
X161250000Y-114500000D01*
X161250000Y-116750000D02*
X161250000Y-114500000D01*
X155500000Y-116750000D02*
X155500000Y-114500000D01*
X159750000Y-119000000D02*
X159750000Y-119000000D01*
X156750000Y-119000000D02*
X156750000Y-119000000D01*
X161250000Y-118250000D02*
X161250000Y-116750000D01*
X159750000Y-119000000D02*
X160500000Y-119000000D01*
X160500000Y-119000000D02*
X161250000Y-118250000D01*
X156000000Y-119000000D02*
X156750000Y-119000000D01*
X155500000Y-116750000D02*
X155500000Y-118500000D01*
X155500000Y-118500000D02*
X156000000Y-119000000D01*
X167499995Y-98499999D02*
X166999996Y-98000000D01*
X167749996Y-98750000D02*
X167499995Y-98499999D01*
X169500000Y-98750000D02*
X167749996Y-98750000D01*
X187925000Y-111500000D02*
X188000000Y-111425000D01*
X187500000Y-111500000D02*
X187925000Y-111500000D01*
X185500000Y-110750000D02*
X186750000Y-110750000D01*
X186750000Y-110750000D02*
X187500000Y-111500000D01*
X188000000Y-111425000D02*
X188000000Y-113500000D01*
X152000000Y-113000000D02*
X152000000Y-114500000D01*
X151750000Y-114750000D02*
X150500000Y-114750000D01*
X152000000Y-114500000D02*
X151750000Y-114750000D01*
X167250000Y-113250000D02*
X167250000Y-114000000D01*
X169500000Y-112750000D02*
X167750000Y-112750000D01*
X167750000Y-112750000D02*
X167250000Y-113250000D01*
X158500000Y-116750000D02*
X158500000Y-119000000D01*
X156750000Y-119000000D02*
X158500000Y-119000000D01*
X158500000Y-119000000D02*
X159750000Y-119000000D01*
D31*
X163250000Y-105500000D02*
X165000000Y-107250000D01*
X158500000Y-104300000D02*
X162050000Y-104300000D01*
X162050000Y-104300000D02*
X163250000Y-105500000D01*
X165000000Y-107250000D02*
X165000000Y-109000000D01*
X159250000Y-100500000D02*
X163000000Y-100500000D01*
X163000000Y-100500000D02*
X165250000Y-100500000D01*
X158750000Y-100000000D02*
X159250000Y-100500000D01*
X157375010Y-100000000D02*
X158750000Y-100000000D01*
X157050000Y-101250000D02*
X157050000Y-100325010D01*
X157050000Y-100325010D02*
X157375010Y-100000000D01*
X169500000Y-104750000D02*
X167999990Y-104750000D01*
X165250000Y-100500000D02*
X165250000Y-102000010D01*
X165250000Y-102000010D02*
X165999996Y-102750006D01*
X167999990Y-104750000D02*
X166999994Y-103750004D01*
X165999996Y-102750006D02*
X166499995Y-103250005D01*
X166999994Y-103750004D02*
X166499995Y-103250005D01*
X163250000Y-103500000D02*
X164750000Y-105000000D01*
X158500000Y-103500000D02*
X163250000Y-103500000D01*
X166933674Y-107183674D02*
X167316317Y-107183674D01*
X164750000Y-105000000D02*
X166933674Y-107183674D01*
D12*
X148000000Y-109000000D02*
X148000000Y-110287500D01*
X150000000Y-108300000D02*
X148700000Y-108300000D01*
X148700000Y-108300000D02*
X148000000Y-109000000D01*
X138750000Y-122000000D02*
X138750000Y-123500000D01*
X143000000Y-121000000D02*
X139750000Y-121000000D01*
X146712500Y-110287500D02*
X145250000Y-111750000D01*
X139750000Y-121000000D02*
X138750000Y-122000000D01*
X148000000Y-110287500D02*
X146712500Y-110287500D01*
X145250000Y-111750000D02*
X145250000Y-118750000D01*
X145250000Y-118750000D02*
X143000000Y-121000000D01*
X149750000Y-123500000D02*
X149750000Y-121000000D01*
X148000000Y-119250000D02*
X148000000Y-116250000D01*
X149750000Y-121000000D02*
X148000000Y-119250000D01*
X149000000Y-116250000D02*
X148000000Y-116250000D01*
X151450000Y-110800000D02*
X151000000Y-111250000D01*
X151450000Y-109750000D02*
X151450000Y-110800000D01*
X151000000Y-111250000D02*
X150250000Y-111250000D01*
X149500000Y-112000000D02*
X149500000Y-115750000D01*
X150250000Y-111250000D02*
X149500000Y-112000000D01*
X149500000Y-115750000D02*
X149000000Y-116250000D01*
D31*
X147750000Y-101500000D02*
X136250000Y-101500000D01*
X148000000Y-100175000D02*
X148000000Y-101250000D01*
X148000000Y-101250000D02*
X147750000Y-101500000D01*
X136250000Y-101500000D02*
X135300000Y-102450000D01*
X135300000Y-113800000D02*
X135300000Y-113950000D01*
X135300000Y-102450000D02*
X135300000Y-113800000D01*
X127750000Y-121250000D02*
X127750000Y-123500000D01*
X135300000Y-114200000D02*
X133250000Y-116250000D01*
X135300000Y-113800000D02*
X135300000Y-114200000D01*
X129500000Y-119500000D02*
X127750000Y-121250000D01*
X133250000Y-118000000D02*
X131750000Y-119500000D01*
X133250000Y-116250000D02*
X133250000Y-118000000D01*
X131750000Y-119500000D02*
X129500000Y-119500000D01*
X144500000Y-100212500D02*
X146212500Y-100212500D01*
X146212500Y-100212500D02*
X146250000Y-100250000D01*
X117800000Y-118950000D02*
X116750000Y-120000000D01*
X116750000Y-120000000D02*
X116750000Y-123500000D01*
X131300000Y-118950000D02*
X117800000Y-118950000D01*
X135787500Y-100212500D02*
X134750000Y-101250000D01*
X144500000Y-100212500D02*
X135787500Y-100212500D01*
X134750000Y-101250000D02*
X134750000Y-113750000D01*
X134750000Y-113750000D02*
X132500000Y-116000000D01*
X132500000Y-116000000D02*
X132500000Y-117750000D01*
X132500000Y-117750000D02*
X131300000Y-118950000D01*
X146750000Y-103750000D02*
X148250000Y-103750000D01*
X148250000Y-103750000D02*
X148800000Y-104300000D01*
X148800000Y-104300000D02*
X150000000Y-104300000D01*
D12*
X147550000Y-106700000D02*
X150000000Y-106700000D01*
X147375000Y-106875000D02*
X147550000Y-106700000D01*
X148250000Y-107500000D02*
X150000000Y-107500000D01*
X147500000Y-108250000D02*
X148250000Y-107500000D01*
X147250000Y-108250000D02*
X147500000Y-108250000D01*
D31*
X150500000Y-113000000D02*
X150500000Y-113300010D01*
X152250000Y-111000000D02*
X152250000Y-109750000D01*
X151375000Y-111875000D02*
X152250000Y-111000000D01*
X150875000Y-111875000D02*
X151375000Y-111875000D01*
X150500000Y-113000000D02*
X150500000Y-112250000D01*
X150500000Y-112250000D02*
X150875000Y-111875000D01*
D12*
X145637500Y-105900000D02*
X145500000Y-106037500D01*
X150000000Y-105900000D02*
X145637500Y-105900000D01*
X142500000Y-106250000D02*
X144000000Y-106250000D01*
X144212500Y-106037500D02*
X145500000Y-106037500D01*
X144000000Y-106250000D02*
X144212500Y-106037500D01*
X139287500Y-106250000D02*
X139250000Y-106287500D01*
X142500000Y-106250000D02*
X139287500Y-106250000D01*
X139212500Y-106250000D02*
X139250000Y-106287500D01*
X148250000Y-102250000D02*
X148700000Y-102700000D01*
X148700000Y-102700000D02*
X150000000Y-102700000D01*
X143250000Y-103250000D02*
X144250000Y-102250000D01*
X144250000Y-102250000D02*
X148250000Y-102250000D01*
X148750000Y-103500000D02*
X150000000Y-103500000D01*
X144750000Y-103250000D02*
X145250000Y-102750000D01*
X148000000Y-102750000D02*
X148750000Y-103500000D01*
X145250000Y-102750000D02*
X148000000Y-102750000D01*
X152250000Y-97250000D02*
X153050000Y-98050000D01*
X153050000Y-98050000D02*
X153050000Y-101250000D01*
D31*
X157000000Y-99000000D02*
X157000000Y-98000000D01*
X157000000Y-99250000D02*
X157000000Y-99000000D01*
X156250000Y-101250000D02*
X156250000Y-100000000D01*
X156250000Y-100000000D02*
X157000000Y-99250000D01*
X157000000Y-97750000D02*
X157000000Y-98000000D01*
X157750000Y-97000000D02*
X157000000Y-97750000D01*
X159957500Y-97000000D02*
X157750000Y-97000000D01*
D33*
X119650000Y-111250000D02*
X113350000Y-111250000D01*
X119650000Y-111250000D02*
X120750000Y-111250000D01*
X121250000Y-111750000D02*
X123000000Y-111750000D01*
X120750000Y-111250000D02*
X121250000Y-111750000D01*
D32*
X154199999Y-108000000D02*
X153850000Y-108349999D01*
X153850000Y-108349999D02*
X153850000Y-109750000D01*
X155050001Y-108000000D02*
X154199999Y-108000000D01*
X155450000Y-109750000D02*
X155450000Y-108399999D01*
X155450000Y-108399999D02*
X155050001Y-108000000D01*
X153850000Y-112925000D02*
X153850000Y-109750000D01*
X153925000Y-113000000D02*
X153850000Y-112925000D01*
X139250000Y-108212500D02*
X139250000Y-110000000D01*
X161962500Y-97080000D02*
X161962500Y-99000000D01*
X162042500Y-97000000D02*
X161962500Y-97080000D01*
X163750000Y-99000000D02*
X161962500Y-99000000D01*
X153925000Y-114925000D02*
X153925000Y-113000000D01*
X152500000Y-118750000D02*
X149500000Y-118750000D01*
X153925000Y-117325000D02*
X152500000Y-118750000D01*
X153925000Y-114925000D02*
X153925000Y-117325000D01*
X185500000Y-108750000D02*
X186500000Y-108750000D01*
X187250000Y-109500000D02*
X188000000Y-109500000D01*
X186500000Y-108750000D02*
X187250000Y-109500000D01*
X188000000Y-107750000D02*
X188000000Y-109500000D01*
X188000000Y-107750000D02*
X188750000Y-107750000D01*
X188750000Y-107750000D02*
X189924990Y-106575010D01*
X189924990Y-106575010D02*
X189924990Y-96674990D01*
X189924990Y-96674990D02*
X189000000Y-95750000D01*
X189000000Y-95750000D02*
X165250000Y-95750000D01*
X163750000Y-97250000D02*
X163750000Y-99000000D01*
X165250000Y-95750000D02*
X163750000Y-97250000D01*
D31*
X169500000Y-102750000D02*
X167749914Y-102750000D01*
X167749914Y-102750000D02*
X167249999Y-102250085D01*
X167249999Y-102250085D02*
X166750000Y-101750086D01*
X167500000Y-100750000D02*
X167249999Y-100499999D01*
X167249999Y-100499999D02*
X166750000Y-100000000D01*
X169500000Y-100750000D02*
X167500000Y-100750000D01*
D12*
X185500000Y-98750000D02*
X187500000Y-98750000D01*
X187500000Y-98750000D02*
X188250000Y-98000000D01*
X185500000Y-100750000D02*
X187250000Y-100750000D01*
X187250000Y-100750000D02*
X188250000Y-99750000D01*
X185500000Y-102750000D02*
X187000000Y-102750000D01*
X187000000Y-102750000D02*
X188250000Y-101500000D01*
X185500000Y-104750000D02*
X187000000Y-104750000D01*
X187000000Y-104750000D02*
X188250000Y-103500000D01*
D31*
X157050000Y-109750000D02*
X157050000Y-110550000D01*
X157050000Y-110550000D02*
X157500000Y-111000000D01*
X157500000Y-111000000D02*
X158500000Y-111000000D01*
X159160000Y-111660000D02*
X159160000Y-112500000D01*
X158500000Y-111000000D02*
X159160000Y-111660000D01*
X159160000Y-114660000D02*
X159250000Y-114750000D01*
X159160000Y-112500000D02*
X159160000Y-114660000D01*
X159250000Y-114750000D02*
X159250000Y-115500000D01*
X159450000Y-115700000D02*
X159450000Y-116750000D01*
X159250000Y-115500000D02*
X159450000Y-115700000D01*
X156250000Y-109750000D02*
X156250000Y-111000000D01*
X157250000Y-112000000D02*
X157250000Y-112500000D01*
X156250000Y-111000000D02*
X157250000Y-112000000D01*
X157250000Y-112500000D02*
X157250000Y-114750000D01*
X157250000Y-114750000D02*
X157250000Y-115500000D01*
X157550000Y-115800000D02*
X157550000Y-116750000D01*
X157250000Y-115500000D02*
X157550000Y-115800000D01*
X187075000Y-106750000D02*
X188000000Y-105825000D01*
X185500000Y-106750000D02*
X187075000Y-106750000D01*
X158500000Y-105900000D02*
X160400000Y-105900000D01*
X162500000Y-107750000D02*
X162500000Y-107250000D01*
X161150000Y-105900000D02*
X158500000Y-105900000D01*
X162500000Y-107250000D02*
X161150000Y-105900000D01*
D12*
X154650000Y-99100000D02*
X154750000Y-99000000D01*
X154650000Y-101250000D02*
X154650000Y-99100000D01*
D31*
X166498300Y-105001614D02*
X168246686Y-106750000D01*
X168246686Y-106750000D02*
X169500000Y-106750000D01*
X166498300Y-105001614D02*
X164196686Y-102700000D01*
X164196686Y-102700000D02*
X158500000Y-102700000D01*
X167250000Y-107249991D02*
X167316317Y-107183674D01*
X167250000Y-108000000D02*
X167250000Y-107249991D01*
X169500000Y-108750000D02*
X168000000Y-108750000D01*
X168000000Y-108750000D02*
X167250000Y-108000000D01*
D12*
X161600000Y-105100000D02*
X158500000Y-105100000D01*
X163750000Y-107250000D02*
X161600000Y-105100000D01*
X163750000Y-109500000D02*
X163750000Y-107250000D01*
X169500000Y-110750000D02*
X165000000Y-110750000D01*
X165000000Y-110750000D02*
X163750000Y-109500000D01*
D31*
X159750000Y-107500000D02*
X158500000Y-107500000D01*
X164250000Y-113000000D02*
X163250000Y-112000000D01*
X163250000Y-111000000D02*
X159750000Y-107500000D01*
X163250000Y-112000000D02*
X163250000Y-111000000D01*
X159550000Y-108300000D02*
X158500000Y-108300000D01*
X162500000Y-111250000D02*
X159550000Y-108300000D01*
X163250000Y-114500000D02*
X162500000Y-113750000D01*
X162500000Y-113750000D02*
X162500000Y-111250000D01*
X165250000Y-112000000D02*
X159950000Y-106700000D01*
X159950000Y-106700000D02*
X158500000Y-106700000D01*
X137750000Y-115500000D02*
X137750000Y-116750000D01*
X145950000Y-104550000D02*
X137150000Y-104550000D01*
X146750000Y-103750000D02*
X145950000Y-104550000D01*
X137150000Y-104550000D02*
X135850000Y-105850000D01*
X135850000Y-105850000D02*
X135850000Y-113600000D01*
X135850000Y-113600000D02*
X137750000Y-115500000D01*
X146850000Y-105100000D02*
X150000000Y-105100000D01*
X140290000Y-116540000D02*
X136400000Y-112650000D01*
X140290000Y-116750000D02*
X140290000Y-116540000D01*
X136400000Y-112650000D02*
X136400000Y-106100000D01*
X136400000Y-106100000D02*
X137400000Y-105100000D01*
X137400000Y-105100000D02*
X146850000Y-105100000D01*
D12*
X148825000Y-100175000D02*
X148000000Y-100175000D01*
X149375000Y-99625000D02*
X148825000Y-100175000D01*
X152250000Y-98750000D02*
X151500000Y-98000000D01*
X151500000Y-98000000D02*
X149950000Y-98000000D01*
X149375000Y-98575000D02*
X149375000Y-99625000D01*
X152250000Y-101250000D02*
X152250000Y-98750000D01*
X149950000Y-98000000D02*
X149375000Y-98575000D01*
X151450000Y-99950000D02*
X151450000Y-101250000D01*
X150500000Y-99000000D02*
X151450000Y-99950000D01*
X143000000Y-97250000D02*
X141290000Y-97250000D01*
X144650000Y-95600000D02*
X143000000Y-97250000D01*
X155450000Y-100050000D02*
X156000000Y-99500000D01*
X155450000Y-101250000D02*
X155450000Y-100050000D01*
X156000000Y-99500000D02*
X156000000Y-98250000D01*
X153350000Y-95600000D02*
X144650000Y-95600000D01*
X156000000Y-98250000D02*
X153350000Y-95600000D01*
D32*
X158650000Y-99000000D02*
X160037500Y-99000000D01*
X158150000Y-98500000D02*
X158650000Y-99000000D01*
D31*
G36*
X156698386Y-102676682D02*
G01*
X156912500Y-102706111D01*
X157043889Y-102706111D01*
X157043889Y-102837500D01*
X157060488Y-102998965D01*
X157095469Y-103097390D01*
X157073318Y-103148386D01*
X157043889Y-103362500D01*
X157043889Y-103637500D01*
X157060488Y-103798965D01*
X157095469Y-103897390D01*
X157073318Y-103948386D01*
X157043889Y-104162500D01*
X157043889Y-104437500D01*
X157060488Y-104598965D01*
X157071919Y-104631127D01*
X157071862Y-104631245D01*
X157042658Y-104825000D01*
X157042658Y-105375000D01*
X157074813Y-105544943D01*
X157073318Y-105548386D01*
X157043889Y-105762500D01*
X157043889Y-106037500D01*
X157060488Y-106198965D01*
X157071919Y-106231127D01*
X157071862Y-106231245D01*
X157042658Y-106425000D01*
X157042658Y-106975000D01*
X157063632Y-107085848D01*
X157042658Y-107225000D01*
X157042658Y-107775000D01*
X157063632Y-107885848D01*
X157042658Y-108025000D01*
X157042658Y-108292658D01*
X156775000Y-108292658D01*
X156664152Y-108313632D01*
X156525000Y-108292658D01*
X156343634Y-108292658D01*
X156326835Y-108165052D01*
X156236148Y-107946116D01*
X156091887Y-107758112D01*
X156044683Y-107721891D01*
X155728109Y-107405317D01*
X155691888Y-107358113D01*
X155503884Y-107213852D01*
X155284948Y-107123165D01*
X155108990Y-107100000D01*
X155108982Y-107100000D01*
X155050001Y-107092235D01*
X154991020Y-107100000D01*
X154258980Y-107100000D01*
X154199998Y-107092235D01*
X154141016Y-107100000D01*
X154141010Y-107100000D01*
X153965052Y-107123165D01*
X153746116Y-107213852D01*
X153558112Y-107358113D01*
X153521891Y-107405317D01*
X153255317Y-107671891D01*
X153208113Y-107708112D01*
X153171893Y-107755315D01*
X153063852Y-107896116D01*
X153037291Y-107960242D01*
X152973165Y-108115053D01*
X152950000Y-108291011D01*
X152950000Y-108291018D01*
X152942235Y-108349999D01*
X152950000Y-108408981D01*
X152950000Y-108457639D01*
X152895294Y-108406879D01*
X152718755Y-108321862D01*
X152525000Y-108292658D01*
X151975000Y-108292658D01*
X151864152Y-108313632D01*
X151725000Y-108292658D01*
X151457342Y-108292658D01*
X151457342Y-108025000D01*
X151436368Y-107914152D01*
X151457342Y-107775000D01*
X151457342Y-107225000D01*
X151436368Y-107114152D01*
X151457342Y-106975000D01*
X151457342Y-106425000D01*
X151436368Y-106314152D01*
X151457342Y-106175000D01*
X151457342Y-105625000D01*
X151436368Y-105514152D01*
X151457342Y-105375000D01*
X151457342Y-104825000D01*
X151436368Y-104714152D01*
X151457342Y-104575000D01*
X151457342Y-104025000D01*
X151436368Y-103914152D01*
X151457342Y-103775000D01*
X151457342Y-103225000D01*
X151425187Y-103055057D01*
X151426682Y-103051614D01*
X151456111Y-102837500D01*
X151456111Y-102707342D01*
X151725000Y-102707342D01*
X151835848Y-102686368D01*
X151975000Y-102707342D01*
X152525000Y-102707342D01*
X152635848Y-102686368D01*
X152775000Y-102707342D01*
X153325000Y-102707342D01*
X153435848Y-102686368D01*
X153575000Y-102707342D01*
X154125000Y-102707342D01*
X154235848Y-102686368D01*
X154375000Y-102707342D01*
X154925000Y-102707342D01*
X155035848Y-102686368D01*
X155175000Y-102707342D01*
X155725000Y-102707342D01*
X155835848Y-102686368D01*
X155975000Y-102707342D01*
X156525000Y-102707342D01*
X156694943Y-102675187D01*
X156698386Y-102676682D01*
X156698386Y-102676682D01*
G37*
X156698386Y-102676682D02*
X156912500Y-102706111D01*
X157043889Y-102706111D01*
X157043889Y-102837500D01*
X157060488Y-102998965D01*
X157095469Y-103097390D01*
X157073318Y-103148386D01*
X157043889Y-103362500D01*
X157043889Y-103637500D01*
X157060488Y-103798965D01*
X157095469Y-103897390D01*
X157073318Y-103948386D01*
X157043889Y-104162500D01*
X157043889Y-104437500D01*
X157060488Y-104598965D01*
X157071919Y-104631127D01*
X157071862Y-104631245D01*
X157042658Y-104825000D01*
X157042658Y-105375000D01*
X157074813Y-105544943D01*
X157073318Y-105548386D01*
X157043889Y-105762500D01*
X157043889Y-106037500D01*
X157060488Y-106198965D01*
X157071919Y-106231127D01*
X157071862Y-106231245D01*
X157042658Y-106425000D01*
X157042658Y-106975000D01*
X157063632Y-107085848D01*
X157042658Y-107225000D01*
X157042658Y-107775000D01*
X157063632Y-107885848D01*
X157042658Y-108025000D01*
X157042658Y-108292658D01*
X156775000Y-108292658D01*
X156664152Y-108313632D01*
X156525000Y-108292658D01*
X156343634Y-108292658D01*
X156326835Y-108165052D01*
X156236148Y-107946116D01*
X156091887Y-107758112D01*
X156044683Y-107721891D01*
X155728109Y-107405317D01*
X155691888Y-107358113D01*
X155503884Y-107213852D01*
X155284948Y-107123165D01*
X155108990Y-107100000D01*
X155108982Y-107100000D01*
X155050001Y-107092235D01*
X154991020Y-107100000D01*
X154258980Y-107100000D01*
X154199998Y-107092235D01*
X154141016Y-107100000D01*
X154141010Y-107100000D01*
X153965052Y-107123165D01*
X153746116Y-107213852D01*
X153558112Y-107358113D01*
X153521891Y-107405317D01*
X153255317Y-107671891D01*
X153208113Y-107708112D01*
X153171893Y-107755315D01*
X153063852Y-107896116D01*
X153037291Y-107960242D01*
X152973165Y-108115053D01*
X152950000Y-108291011D01*
X152950000Y-108291018D01*
X152942235Y-108349999D01*
X152950000Y-108408981D01*
X152950000Y-108457639D01*
X152895294Y-108406879D01*
X152718755Y-108321862D01*
X152525000Y-108292658D01*
X151975000Y-108292658D01*
X151864152Y-108313632D01*
X151725000Y-108292658D01*
X151457342Y-108292658D01*
X151457342Y-108025000D01*
X151436368Y-107914152D01*
X151457342Y-107775000D01*
X151457342Y-107225000D01*
X151436368Y-107114152D01*
X151457342Y-106975000D01*
X151457342Y-106425000D01*
X151436368Y-106314152D01*
X151457342Y-106175000D01*
X151457342Y-105625000D01*
X151436368Y-105514152D01*
X151457342Y-105375000D01*
X151457342Y-104825000D01*
X151436368Y-104714152D01*
X151457342Y-104575000D01*
X151457342Y-104025000D01*
X151436368Y-103914152D01*
X151457342Y-103775000D01*
X151457342Y-103225000D01*
X151425187Y-103055057D01*
X151426682Y-103051614D01*
X151456111Y-102837500D01*
X151456111Y-102707342D01*
X151725000Y-102707342D01*
X151835848Y-102686368D01*
X151975000Y-102707342D01*
X152525000Y-102707342D01*
X152635848Y-102686368D01*
X152775000Y-102707342D01*
X153325000Y-102707342D01*
X153435848Y-102686368D01*
X153575000Y-102707342D01*
X154125000Y-102707342D01*
X154235848Y-102686368D01*
X154375000Y-102707342D01*
X154925000Y-102707342D01*
X155035848Y-102686368D01*
X155175000Y-102707342D01*
X155725000Y-102707342D01*
X155835848Y-102686368D01*
X155975000Y-102707342D01*
X156525000Y-102707342D01*
X156694943Y-102675187D01*
X156698386Y-102676682D01*
D34*
G36*
X112615000Y-101714250D02*
G01*
X112773750Y-101873000D01*
X114123000Y-101873000D01*
X114123000Y-101853000D01*
X114377000Y-101853000D01*
X114377000Y-101873000D01*
X115726250Y-101873000D01*
X115885000Y-101714250D01*
X115888017Y-101377000D01*
X116437491Y-101377000D01*
X116515251Y-101392467D01*
X116570570Y-101429430D01*
X116607533Y-101484749D01*
X116623000Y-101562509D01*
X116623000Y-104200000D01*
X116625440Y-104224776D01*
X116648276Y-104339581D01*
X116667239Y-104385363D01*
X116732271Y-104482690D01*
X116767310Y-104517729D01*
X116864637Y-104582761D01*
X116910419Y-104601724D01*
X117025224Y-104624560D01*
X117050000Y-104627000D01*
X118287491Y-104627000D01*
X118365251Y-104642467D01*
X118420570Y-104679430D01*
X118457533Y-104734749D01*
X118473000Y-104812509D01*
X118473000Y-105252750D01*
X118452000Y-105273750D01*
X118452000Y-106123000D01*
X118472000Y-106123000D01*
X118472000Y-106377000D01*
X118452000Y-106377000D01*
X118452000Y-107226250D01*
X118473000Y-107247250D01*
X118473000Y-107437491D01*
X118457533Y-107515251D01*
X118420570Y-107570570D01*
X118365251Y-107607533D01*
X118287491Y-107623000D01*
X111562509Y-107623000D01*
X111484749Y-107607533D01*
X111429430Y-107570570D01*
X111392467Y-107515251D01*
X111377000Y-107437491D01*
X111377000Y-106790189D01*
X117263716Y-106790189D01*
X117293779Y-106947785D01*
X117362090Y-107092954D01*
X117464358Y-107216574D01*
X117594155Y-107310877D01*
X117743327Y-107369939D01*
X117902500Y-107390047D01*
X118039250Y-107385000D01*
X118198000Y-107226250D01*
X118198000Y-106377000D01*
X117426250Y-106377000D01*
X117267500Y-106535750D01*
X117263716Y-106790189D01*
X111377000Y-106790189D01*
X111377000Y-105709811D01*
X117263716Y-105709811D01*
X117267500Y-105964250D01*
X117426250Y-106123000D01*
X118198000Y-106123000D01*
X118198000Y-105273750D01*
X118039250Y-105115000D01*
X117902500Y-105109953D01*
X117743327Y-105130061D01*
X117594155Y-105189123D01*
X117464358Y-105283426D01*
X117362090Y-105407046D01*
X117293779Y-105552215D01*
X117263716Y-105709811D01*
X111377000Y-105709811D01*
X111377000Y-102850000D01*
X112609953Y-102850000D01*
X112630061Y-103009173D01*
X112689123Y-103158345D01*
X112783426Y-103288142D01*
X112907046Y-103390410D01*
X113052215Y-103458721D01*
X113209811Y-103488784D01*
X113964250Y-103485000D01*
X114123000Y-103326250D01*
X114123000Y-102127000D01*
X114377000Y-102127000D01*
X114377000Y-103326250D01*
X114535750Y-103485000D01*
X115290189Y-103488784D01*
X115447785Y-103458721D01*
X115592954Y-103390410D01*
X115716574Y-103288142D01*
X115810877Y-103158345D01*
X115869939Y-103009173D01*
X115890047Y-102850000D01*
X115885000Y-102285750D01*
X115726250Y-102127000D01*
X114377000Y-102127000D01*
X114123000Y-102127000D01*
X112773750Y-102127000D01*
X112615000Y-102285750D01*
X112609953Y-102850000D01*
X111377000Y-102850000D01*
X111377000Y-101562509D01*
X111392467Y-101484749D01*
X111429430Y-101429430D01*
X111484749Y-101392467D01*
X111562509Y-101377000D01*
X112611983Y-101377000D01*
X112615000Y-101714250D01*
X112615000Y-101714250D01*
G37*
X112615000Y-101714250D02*
X112773750Y-101873000D01*
X114123000Y-101873000D01*
X114123000Y-101853000D01*
X114377000Y-101853000D01*
X114377000Y-101873000D01*
X115726250Y-101873000D01*
X115885000Y-101714250D01*
X115888017Y-101377000D01*
X116437491Y-101377000D01*
X116515251Y-101392467D01*
X116570570Y-101429430D01*
X116607533Y-101484749D01*
X116623000Y-101562509D01*
X116623000Y-104200000D01*
X116625440Y-104224776D01*
X116648276Y-104339581D01*
X116667239Y-104385363D01*
X116732271Y-104482690D01*
X116767310Y-104517729D01*
X116864637Y-104582761D01*
X116910419Y-104601724D01*
X117025224Y-104624560D01*
X117050000Y-104627000D01*
X118287491Y-104627000D01*
X118365251Y-104642467D01*
X118420570Y-104679430D01*
X118457533Y-104734749D01*
X118473000Y-104812509D01*
X118473000Y-105252750D01*
X118452000Y-105273750D01*
X118452000Y-106123000D01*
X118472000Y-106123000D01*
X118472000Y-106377000D01*
X118452000Y-106377000D01*
X118452000Y-107226250D01*
X118473000Y-107247250D01*
X118473000Y-107437491D01*
X118457533Y-107515251D01*
X118420570Y-107570570D01*
X118365251Y-107607533D01*
X118287491Y-107623000D01*
X111562509Y-107623000D01*
X111484749Y-107607533D01*
X111429430Y-107570570D01*
X111392467Y-107515251D01*
X111377000Y-107437491D01*
X111377000Y-106790189D01*
X117263716Y-106790189D01*
X117293779Y-106947785D01*
X117362090Y-107092954D01*
X117464358Y-107216574D01*
X117594155Y-107310877D01*
X117743327Y-107369939D01*
X117902500Y-107390047D01*
X118039250Y-107385000D01*
X118198000Y-107226250D01*
X118198000Y-106377000D01*
X117426250Y-106377000D01*
X117267500Y-106535750D01*
X117263716Y-106790189D01*
X111377000Y-106790189D01*
X111377000Y-105709811D01*
X117263716Y-105709811D01*
X117267500Y-105964250D01*
X117426250Y-106123000D01*
X118198000Y-106123000D01*
X118198000Y-105273750D01*
X118039250Y-105115000D01*
X117902500Y-105109953D01*
X117743327Y-105130061D01*
X117594155Y-105189123D01*
X117464358Y-105283426D01*
X117362090Y-105407046D01*
X117293779Y-105552215D01*
X117263716Y-105709811D01*
X111377000Y-105709811D01*
X111377000Y-102850000D01*
X112609953Y-102850000D01*
X112630061Y-103009173D01*
X112689123Y-103158345D01*
X112783426Y-103288142D01*
X112907046Y-103390410D01*
X113052215Y-103458721D01*
X113209811Y-103488784D01*
X113964250Y-103485000D01*
X114123000Y-103326250D01*
X114123000Y-102127000D01*
X114377000Y-102127000D01*
X114377000Y-103326250D01*
X114535750Y-103485000D01*
X115290189Y-103488784D01*
X115447785Y-103458721D01*
X115592954Y-103390410D01*
X115716574Y-103288142D01*
X115810877Y-103158345D01*
X115869939Y-103009173D01*
X115890047Y-102850000D01*
X115885000Y-102285750D01*
X115726250Y-102127000D01*
X114377000Y-102127000D01*
X114123000Y-102127000D01*
X112773750Y-102127000D01*
X112615000Y-102285750D01*
X112609953Y-102850000D01*
X111377000Y-102850000D01*
X111377000Y-101562509D01*
X111392467Y-101484749D01*
X111429430Y-101429430D01*
X111484749Y-101392467D01*
X111562509Y-101377000D01*
X112611983Y-101377000D01*
X112615000Y-101714250D01*
G36*
X122369459Y-82344871D02*
G01*
X122372259Y-100061638D01*
X121035750Y-100065000D01*
X120877000Y-100223750D01*
X120877000Y-101373000D01*
X120897000Y-101373000D01*
X120897000Y-101627000D01*
X120877000Y-101627000D01*
X120877000Y-102776250D01*
X121035750Y-102935000D01*
X122372714Y-102938363D01*
X122373000Y-104750020D01*
X122393172Y-104818678D01*
X122447261Y-104865532D01*
X122500000Y-104877000D01*
X123373000Y-104877000D01*
X123373000Y-105864283D01*
X123285750Y-105865000D01*
X123127000Y-106023750D01*
X123127000Y-107623000D01*
X123147000Y-107623000D01*
X123147000Y-107877000D01*
X123127000Y-107877000D01*
X123127000Y-107897000D01*
X122873000Y-107897000D01*
X122873000Y-107877000D01*
X121623750Y-107877000D01*
X121465000Y-108035750D01*
X121461216Y-109040189D01*
X121477023Y-109123054D01*
X121172297Y-109123047D01*
X121126250Y-109077000D01*
X119777000Y-109077000D01*
X119777000Y-109097000D01*
X119523000Y-109097000D01*
X119523000Y-109077000D01*
X119503000Y-109077000D01*
X119503000Y-108823000D01*
X119523000Y-108823000D01*
X119523000Y-107723750D01*
X119777000Y-107723750D01*
X119777000Y-108823000D01*
X121126250Y-108823000D01*
X121285000Y-108664250D01*
X121290047Y-108200000D01*
X121269939Y-108040827D01*
X121210877Y-107891655D01*
X121116574Y-107761858D01*
X120992954Y-107659590D01*
X120847785Y-107591279D01*
X120690189Y-107561216D01*
X119935750Y-107565000D01*
X119777000Y-107723750D01*
X119523000Y-107723750D01*
X119377000Y-107577750D01*
X119377000Y-107377000D01*
X119724221Y-107377000D01*
X119827500Y-107390047D01*
X119964250Y-107385000D01*
X120123000Y-107226250D01*
X120123000Y-106377000D01*
X120377000Y-106377000D01*
X120377000Y-107226250D01*
X120535750Y-107385000D01*
X120672500Y-107390047D01*
X120831673Y-107369939D01*
X120980845Y-107310877D01*
X121110642Y-107216574D01*
X121212910Y-107092954D01*
X121281221Y-106947785D01*
X121311284Y-106790189D01*
X121307500Y-106535750D01*
X121231561Y-106459811D01*
X121461216Y-106459811D01*
X121465000Y-107464250D01*
X121623750Y-107623000D01*
X122873000Y-107623000D01*
X122873000Y-106023750D01*
X122714250Y-105865000D01*
X122100000Y-105859953D01*
X121940827Y-105880061D01*
X121791655Y-105939123D01*
X121661858Y-106033426D01*
X121559590Y-106157046D01*
X121491279Y-106302215D01*
X121461216Y-106459811D01*
X121231561Y-106459811D01*
X121148750Y-106377000D01*
X120377000Y-106377000D01*
X120123000Y-106377000D01*
X120103000Y-106377000D01*
X120103000Y-106123000D01*
X120123000Y-106123000D01*
X120123000Y-105273750D01*
X120377000Y-105273750D01*
X120377000Y-106123000D01*
X121148750Y-106123000D01*
X121307500Y-105964250D01*
X121311284Y-105709811D01*
X121281221Y-105552215D01*
X121212910Y-105407046D01*
X121110642Y-105283426D01*
X120980845Y-105189123D01*
X120831673Y-105130061D01*
X120672500Y-105109953D01*
X120535750Y-105115000D01*
X120377000Y-105273750D01*
X120123000Y-105273750D01*
X119964250Y-105115000D01*
X119827500Y-105109953D01*
X119724221Y-105123000D01*
X119377000Y-105123000D01*
X119377000Y-104500000D01*
X119356839Y-104431339D01*
X119302758Y-104384477D01*
X119250000Y-104373000D01*
X119116557Y-104373000D01*
X119098495Y-104336852D01*
X119033463Y-104239525D01*
X118979181Y-104169545D01*
X118860475Y-104066537D01*
X118763148Y-104001505D01*
X118686215Y-103957623D01*
X118537126Y-103907883D01*
X118422321Y-103885047D01*
X118300000Y-103873000D01*
X117377000Y-103873000D01*
X117377000Y-102300000D01*
X118359953Y-102300000D01*
X118380061Y-102459173D01*
X118439123Y-102608345D01*
X118533426Y-102738142D01*
X118657046Y-102840410D01*
X118802215Y-102908721D01*
X118959811Y-102938784D01*
X120464250Y-102935000D01*
X120623000Y-102776250D01*
X120623000Y-101627000D01*
X118523750Y-101627000D01*
X118365000Y-101785750D01*
X118359953Y-102300000D01*
X117377000Y-102300000D01*
X117377000Y-101550000D01*
X117364953Y-101427679D01*
X117342117Y-101312874D01*
X117318746Y-101227445D01*
X117248495Y-101086852D01*
X117183463Y-100989525D01*
X117129181Y-100919545D01*
X117010475Y-100816537D01*
X116913148Y-100751505D01*
X116877000Y-100730886D01*
X116877000Y-100700000D01*
X118359953Y-100700000D01*
X118365000Y-101214250D01*
X118523750Y-101373000D01*
X120623000Y-101373000D01*
X120623000Y-100223750D01*
X120464250Y-100065000D01*
X118959811Y-100061216D01*
X118802215Y-100091279D01*
X118657046Y-100159590D01*
X118533426Y-100261858D01*
X118439123Y-100391655D01*
X118380061Y-100540827D01*
X118359953Y-100700000D01*
X116877000Y-100700000D01*
X116877000Y-100000000D01*
X116856839Y-99931339D01*
X116802758Y-99884477D01*
X116750000Y-99873000D01*
X115837698Y-99873000D01*
X115841476Y-99856890D01*
X115720155Y-99627000D01*
X114377000Y-99627000D01*
X114377000Y-99647000D01*
X114123000Y-99647000D01*
X114123000Y-99627000D01*
X112779845Y-99627000D01*
X112658524Y-99856890D01*
X112662302Y-99873000D01*
X111377013Y-99873000D01*
X111377085Y-99143110D01*
X112658524Y-99143110D01*
X112779845Y-99373000D01*
X114123000Y-99373000D01*
X114123000Y-98172768D01*
X114377000Y-98172768D01*
X114377000Y-99373000D01*
X115720155Y-99373000D01*
X115841476Y-99143110D01*
X115831617Y-99101067D01*
X115746429Y-98870872D01*
X115624514Y-98657838D01*
X115469198Y-98467776D01*
X115284717Y-98305870D01*
X115076103Y-98176537D01*
X114849047Y-98083304D01*
X114609742Y-98028715D01*
X114377000Y-98172768D01*
X114123000Y-98172768D01*
X113890258Y-98028715D01*
X113650953Y-98083304D01*
X113423897Y-98176537D01*
X113215283Y-98305870D01*
X113030802Y-98467776D01*
X112875486Y-98657838D01*
X112753571Y-98870872D01*
X112668383Y-99101067D01*
X112658524Y-99143110D01*
X111377085Y-99143110D01*
X111377220Y-97777931D01*
X118651674Y-97777931D01*
X118686744Y-97991320D01*
X118884532Y-98080002D01*
X119095528Y-98129651D01*
X119312107Y-98138471D01*
X119526442Y-98106143D01*
X119730785Y-98033836D01*
X119813256Y-97991320D01*
X119848326Y-97777931D01*
X119250000Y-97179605D01*
X118651674Y-97777931D01*
X111377220Y-97777931D01*
X111377292Y-97062107D01*
X118111529Y-97062107D01*
X118143857Y-97276442D01*
X118216164Y-97480785D01*
X118258680Y-97563256D01*
X118472069Y-97598326D01*
X119070395Y-97000000D01*
X119429605Y-97000000D01*
X120027931Y-97598326D01*
X120241320Y-97563256D01*
X120330002Y-97365468D01*
X120379651Y-97154472D01*
X120388471Y-96937893D01*
X120356143Y-96723558D01*
X120283836Y-96519215D01*
X120241320Y-96436744D01*
X120027931Y-96401674D01*
X119429605Y-97000000D01*
X119070395Y-97000000D01*
X118472069Y-96401674D01*
X118258680Y-96436744D01*
X118169998Y-96634532D01*
X118120349Y-96845528D01*
X118111529Y-97062107D01*
X111377292Y-97062107D01*
X111377375Y-96222069D01*
X118651674Y-96222069D01*
X119250000Y-96820395D01*
X119848326Y-96222069D01*
X119813256Y-96008680D01*
X119615468Y-95919998D01*
X119404472Y-95870349D01*
X119187893Y-95861529D01*
X118973558Y-95893857D01*
X118769215Y-95966164D01*
X118686744Y-96008680D01*
X118651674Y-96222069D01*
X111377375Y-96222069D01*
X111378267Y-87290189D01*
X112111216Y-87290189D01*
X112141279Y-87447785D01*
X112209590Y-87592954D01*
X112311858Y-87716574D01*
X112441655Y-87810877D01*
X112590827Y-87869939D01*
X112750000Y-87890047D01*
X114214250Y-87885000D01*
X114373000Y-87726250D01*
X114373000Y-85627000D01*
X114627000Y-85627000D01*
X114627000Y-87726250D01*
X114785750Y-87885000D01*
X116250000Y-87890047D01*
X116409173Y-87869939D01*
X116558345Y-87810877D01*
X116688142Y-87716574D01*
X116790410Y-87592954D01*
X116858721Y-87447785D01*
X116888784Y-87290189D01*
X116885000Y-85785750D01*
X116726250Y-85627000D01*
X114627000Y-85627000D01*
X114373000Y-85627000D01*
X112273750Y-85627000D01*
X112115000Y-85785750D01*
X112111216Y-87290189D01*
X111378267Y-87290189D01*
X111378624Y-83709811D01*
X112111216Y-83709811D01*
X112115000Y-85214250D01*
X112273750Y-85373000D01*
X114373000Y-85373000D01*
X114373000Y-83273750D01*
X114627000Y-83273750D01*
X114627000Y-85373000D01*
X116726250Y-85373000D01*
X116885000Y-85214250D01*
X116888784Y-83709811D01*
X116858721Y-83552215D01*
X116790410Y-83407046D01*
X116688142Y-83283426D01*
X116558345Y-83189123D01*
X116409173Y-83130061D01*
X116250000Y-83109953D01*
X114785750Y-83115000D01*
X114627000Y-83273750D01*
X114373000Y-83273750D01*
X114214250Y-83115000D01*
X112750000Y-83109953D01*
X112590827Y-83130061D01*
X112441655Y-83189123D01*
X112311858Y-83283426D01*
X112209590Y-83407046D01*
X112141279Y-83552215D01*
X112111216Y-83709811D01*
X111378624Y-83709811D01*
X111378768Y-82268510D01*
X122369459Y-82344871D01*
X122369459Y-82344871D01*
G37*
X122369459Y-82344871D02*
X122372259Y-100061638D01*
X121035750Y-100065000D01*
X120877000Y-100223750D01*
X120877000Y-101373000D01*
X120897000Y-101373000D01*
X120897000Y-101627000D01*
X120877000Y-101627000D01*
X120877000Y-102776250D01*
X121035750Y-102935000D01*
X122372714Y-102938363D01*
X122373000Y-104750020D01*
X122393172Y-104818678D01*
X122447261Y-104865532D01*
X122500000Y-104877000D01*
X123373000Y-104877000D01*
X123373000Y-105864283D01*
X123285750Y-105865000D01*
X123127000Y-106023750D01*
X123127000Y-107623000D01*
X123147000Y-107623000D01*
X123147000Y-107877000D01*
X123127000Y-107877000D01*
X123127000Y-107897000D01*
X122873000Y-107897000D01*
X122873000Y-107877000D01*
X121623750Y-107877000D01*
X121465000Y-108035750D01*
X121461216Y-109040189D01*
X121477023Y-109123054D01*
X121172297Y-109123047D01*
X121126250Y-109077000D01*
X119777000Y-109077000D01*
X119777000Y-109097000D01*
X119523000Y-109097000D01*
X119523000Y-109077000D01*
X119503000Y-109077000D01*
X119503000Y-108823000D01*
X119523000Y-108823000D01*
X119523000Y-107723750D01*
X119777000Y-107723750D01*
X119777000Y-108823000D01*
X121126250Y-108823000D01*
X121285000Y-108664250D01*
X121290047Y-108200000D01*
X121269939Y-108040827D01*
X121210877Y-107891655D01*
X121116574Y-107761858D01*
X120992954Y-107659590D01*
X120847785Y-107591279D01*
X120690189Y-107561216D01*
X119935750Y-107565000D01*
X119777000Y-107723750D01*
X119523000Y-107723750D01*
X119377000Y-107577750D01*
X119377000Y-107377000D01*
X119724221Y-107377000D01*
X119827500Y-107390047D01*
X119964250Y-107385000D01*
X120123000Y-107226250D01*
X120123000Y-106377000D01*
X120377000Y-106377000D01*
X120377000Y-107226250D01*
X120535750Y-107385000D01*
X120672500Y-107390047D01*
X120831673Y-107369939D01*
X120980845Y-107310877D01*
X121110642Y-107216574D01*
X121212910Y-107092954D01*
X121281221Y-106947785D01*
X121311284Y-106790189D01*
X121307500Y-106535750D01*
X121231561Y-106459811D01*
X121461216Y-106459811D01*
X121465000Y-107464250D01*
X121623750Y-107623000D01*
X122873000Y-107623000D01*
X122873000Y-106023750D01*
X122714250Y-105865000D01*
X122100000Y-105859953D01*
X121940827Y-105880061D01*
X121791655Y-105939123D01*
X121661858Y-106033426D01*
X121559590Y-106157046D01*
X121491279Y-106302215D01*
X121461216Y-106459811D01*
X121231561Y-106459811D01*
X121148750Y-106377000D01*
X120377000Y-106377000D01*
X120123000Y-106377000D01*
X120103000Y-106377000D01*
X120103000Y-106123000D01*
X120123000Y-106123000D01*
X120123000Y-105273750D01*
X120377000Y-105273750D01*
X120377000Y-106123000D01*
X121148750Y-106123000D01*
X121307500Y-105964250D01*
X121311284Y-105709811D01*
X121281221Y-105552215D01*
X121212910Y-105407046D01*
X121110642Y-105283426D01*
X120980845Y-105189123D01*
X120831673Y-105130061D01*
X120672500Y-105109953D01*
X120535750Y-105115000D01*
X120377000Y-105273750D01*
X120123000Y-105273750D01*
X119964250Y-105115000D01*
X119827500Y-105109953D01*
X119724221Y-105123000D01*
X119377000Y-105123000D01*
X119377000Y-104500000D01*
X119356839Y-104431339D01*
X119302758Y-104384477D01*
X119250000Y-104373000D01*
X119116557Y-104373000D01*
X119098495Y-104336852D01*
X119033463Y-104239525D01*
X118979181Y-104169545D01*
X118860475Y-104066537D01*
X118763148Y-104001505D01*
X118686215Y-103957623D01*
X118537126Y-103907883D01*
X118422321Y-103885047D01*
X118300000Y-103873000D01*
X117377000Y-103873000D01*
X117377000Y-102300000D01*
X118359953Y-102300000D01*
X118380061Y-102459173D01*
X118439123Y-102608345D01*
X118533426Y-102738142D01*
X118657046Y-102840410D01*
X118802215Y-102908721D01*
X118959811Y-102938784D01*
X120464250Y-102935000D01*
X120623000Y-102776250D01*
X120623000Y-101627000D01*
X118523750Y-101627000D01*
X118365000Y-101785750D01*
X118359953Y-102300000D01*
X117377000Y-102300000D01*
X117377000Y-101550000D01*
X117364953Y-101427679D01*
X117342117Y-101312874D01*
X117318746Y-101227445D01*
X117248495Y-101086852D01*
X117183463Y-100989525D01*
X117129181Y-100919545D01*
X117010475Y-100816537D01*
X116913148Y-100751505D01*
X116877000Y-100730886D01*
X116877000Y-100700000D01*
X118359953Y-100700000D01*
X118365000Y-101214250D01*
X118523750Y-101373000D01*
X120623000Y-101373000D01*
X120623000Y-100223750D01*
X120464250Y-100065000D01*
X118959811Y-100061216D01*
X118802215Y-100091279D01*
X118657046Y-100159590D01*
X118533426Y-100261858D01*
X118439123Y-100391655D01*
X118380061Y-100540827D01*
X118359953Y-100700000D01*
X116877000Y-100700000D01*
X116877000Y-100000000D01*
X116856839Y-99931339D01*
X116802758Y-99884477D01*
X116750000Y-99873000D01*
X115837698Y-99873000D01*
X115841476Y-99856890D01*
X115720155Y-99627000D01*
X114377000Y-99627000D01*
X114377000Y-99647000D01*
X114123000Y-99647000D01*
X114123000Y-99627000D01*
X112779845Y-99627000D01*
X112658524Y-99856890D01*
X112662302Y-99873000D01*
X111377013Y-99873000D01*
X111377085Y-99143110D01*
X112658524Y-99143110D01*
X112779845Y-99373000D01*
X114123000Y-99373000D01*
X114123000Y-98172768D01*
X114377000Y-98172768D01*
X114377000Y-99373000D01*
X115720155Y-99373000D01*
X115841476Y-99143110D01*
X115831617Y-99101067D01*
X115746429Y-98870872D01*
X115624514Y-98657838D01*
X115469198Y-98467776D01*
X115284717Y-98305870D01*
X115076103Y-98176537D01*
X114849047Y-98083304D01*
X114609742Y-98028715D01*
X114377000Y-98172768D01*
X114123000Y-98172768D01*
X113890258Y-98028715D01*
X113650953Y-98083304D01*
X113423897Y-98176537D01*
X113215283Y-98305870D01*
X113030802Y-98467776D01*
X112875486Y-98657838D01*
X112753571Y-98870872D01*
X112668383Y-99101067D01*
X112658524Y-99143110D01*
X111377085Y-99143110D01*
X111377220Y-97777931D01*
X118651674Y-97777931D01*
X118686744Y-97991320D01*
X118884532Y-98080002D01*
X119095528Y-98129651D01*
X119312107Y-98138471D01*
X119526442Y-98106143D01*
X119730785Y-98033836D01*
X119813256Y-97991320D01*
X119848326Y-97777931D01*
X119250000Y-97179605D01*
X118651674Y-97777931D01*
X111377220Y-97777931D01*
X111377292Y-97062107D01*
X118111529Y-97062107D01*
X118143857Y-97276442D01*
X118216164Y-97480785D01*
X118258680Y-97563256D01*
X118472069Y-97598326D01*
X119070395Y-97000000D01*
X119429605Y-97000000D01*
X120027931Y-97598326D01*
X120241320Y-97563256D01*
X120330002Y-97365468D01*
X120379651Y-97154472D01*
X120388471Y-96937893D01*
X120356143Y-96723558D01*
X120283836Y-96519215D01*
X120241320Y-96436744D01*
X120027931Y-96401674D01*
X119429605Y-97000000D01*
X119070395Y-97000000D01*
X118472069Y-96401674D01*
X118258680Y-96436744D01*
X118169998Y-96634532D01*
X118120349Y-96845528D01*
X118111529Y-97062107D01*
X111377292Y-97062107D01*
X111377375Y-96222069D01*
X118651674Y-96222069D01*
X119250000Y-96820395D01*
X119848326Y-96222069D01*
X119813256Y-96008680D01*
X119615468Y-95919998D01*
X119404472Y-95870349D01*
X119187893Y-95861529D01*
X118973558Y-95893857D01*
X118769215Y-95966164D01*
X118686744Y-96008680D01*
X118651674Y-96222069D01*
X111377375Y-96222069D01*
X111378267Y-87290189D01*
X112111216Y-87290189D01*
X112141279Y-87447785D01*
X112209590Y-87592954D01*
X112311858Y-87716574D01*
X112441655Y-87810877D01*
X112590827Y-87869939D01*
X112750000Y-87890047D01*
X114214250Y-87885000D01*
X114373000Y-87726250D01*
X114373000Y-85627000D01*
X114627000Y-85627000D01*
X114627000Y-87726250D01*
X114785750Y-87885000D01*
X116250000Y-87890047D01*
X116409173Y-87869939D01*
X116558345Y-87810877D01*
X116688142Y-87716574D01*
X116790410Y-87592954D01*
X116858721Y-87447785D01*
X116888784Y-87290189D01*
X116885000Y-85785750D01*
X116726250Y-85627000D01*
X114627000Y-85627000D01*
X114373000Y-85627000D01*
X112273750Y-85627000D01*
X112115000Y-85785750D01*
X112111216Y-87290189D01*
X111378267Y-87290189D01*
X111378624Y-83709811D01*
X112111216Y-83709811D01*
X112115000Y-85214250D01*
X112273750Y-85373000D01*
X114373000Y-85373000D01*
X114373000Y-83273750D01*
X114627000Y-83273750D01*
X114627000Y-85373000D01*
X116726250Y-85373000D01*
X116885000Y-85214250D01*
X116888784Y-83709811D01*
X116858721Y-83552215D01*
X116790410Y-83407046D01*
X116688142Y-83283426D01*
X116558345Y-83189123D01*
X116409173Y-83130061D01*
X116250000Y-83109953D01*
X114785750Y-83115000D01*
X114627000Y-83273750D01*
X114373000Y-83273750D01*
X114214250Y-83115000D01*
X112750000Y-83109953D01*
X112590827Y-83130061D01*
X112441655Y-83189123D01*
X112311858Y-83283426D01*
X112209590Y-83407046D01*
X112141279Y-83552215D01*
X112111216Y-83709811D01*
X111378624Y-83709811D01*
X111378768Y-82268510D01*
X122369459Y-82344871D01*
D31*
G36*
X118156500Y-113446000D02*
G01*
X119546000Y-113446000D01*
X119546000Y-113426000D01*
X119754000Y-113426000D01*
X119754000Y-113446000D01*
X119774000Y-113446000D01*
X119774000Y-113654000D01*
X119754000Y-113654000D01*
X119754000Y-114793500D01*
X119918500Y-114958000D01*
X120691645Y-114961921D01*
X120854949Y-114930769D01*
X120954472Y-114883937D01*
X121020737Y-114897118D01*
X121050000Y-114900000D01*
X121185226Y-114900000D01*
X121256278Y-114914133D01*
X121303988Y-114946012D01*
X121335867Y-114993722D01*
X121350000Y-115064774D01*
X121350000Y-116935226D01*
X121335867Y-117006278D01*
X121303988Y-117053988D01*
X121256278Y-117085867D01*
X121185226Y-117100000D01*
X119803611Y-117100000D01*
X119803000Y-117018500D01*
X119638500Y-116854000D01*
X118764000Y-116854000D01*
X118764000Y-116874000D01*
X118556000Y-116874000D01*
X118556000Y-116854000D01*
X118536000Y-116854000D01*
X118536000Y-116646000D01*
X118556000Y-116646000D01*
X118556000Y-115506500D01*
X118764000Y-115506500D01*
X118764000Y-116646000D01*
X119638500Y-116646000D01*
X119803000Y-116481500D01*
X119806921Y-115958355D01*
X119775769Y-115795051D01*
X119704984Y-115644624D01*
X119599012Y-115516526D01*
X119464513Y-115418807D01*
X119309939Y-115357607D01*
X119145000Y-115336770D01*
X118928500Y-115342000D01*
X118764000Y-115506500D01*
X118556000Y-115506500D01*
X118391500Y-115342000D01*
X118175000Y-115336770D01*
X118010061Y-115357607D01*
X118007706Y-115358540D01*
X117979263Y-115352882D01*
X117950000Y-115350000D01*
X117814774Y-115350000D01*
X117743722Y-115335867D01*
X117696012Y-115303988D01*
X117664133Y-115256278D01*
X117650000Y-115185226D01*
X117650000Y-114300000D01*
X117986770Y-114300000D01*
X118007607Y-114464939D01*
X118068807Y-114619513D01*
X118166526Y-114754012D01*
X118294624Y-114859984D01*
X118445051Y-114930769D01*
X118608355Y-114961921D01*
X119381500Y-114958000D01*
X119546000Y-114793500D01*
X119546000Y-113654000D01*
X118156500Y-113654000D01*
X117992000Y-113818500D01*
X117986770Y-114300000D01*
X117650000Y-114300000D01*
X117650000Y-113564774D01*
X117664133Y-113493722D01*
X117696012Y-113446012D01*
X117743722Y-113414133D01*
X117814774Y-113400000D01*
X118110500Y-113400000D01*
X118156500Y-113446000D01*
X118156500Y-113446000D01*
G37*
X118156500Y-113446000D02*
X119546000Y-113446000D01*
X119546000Y-113426000D01*
X119754000Y-113426000D01*
X119754000Y-113446000D01*
X119774000Y-113446000D01*
X119774000Y-113654000D01*
X119754000Y-113654000D01*
X119754000Y-114793500D01*
X119918500Y-114958000D01*
X120691645Y-114961921D01*
X120854949Y-114930769D01*
X120954472Y-114883937D01*
X121020737Y-114897118D01*
X121050000Y-114900000D01*
X121185226Y-114900000D01*
X121256278Y-114914133D01*
X121303988Y-114946012D01*
X121335867Y-114993722D01*
X121350000Y-115064774D01*
X121350000Y-116935226D01*
X121335867Y-117006278D01*
X121303988Y-117053988D01*
X121256278Y-117085867D01*
X121185226Y-117100000D01*
X119803611Y-117100000D01*
X119803000Y-117018500D01*
X119638500Y-116854000D01*
X118764000Y-116854000D01*
X118764000Y-116874000D01*
X118556000Y-116874000D01*
X118556000Y-116854000D01*
X118536000Y-116854000D01*
X118536000Y-116646000D01*
X118556000Y-116646000D01*
X118556000Y-115506500D01*
X118764000Y-115506500D01*
X118764000Y-116646000D01*
X119638500Y-116646000D01*
X119803000Y-116481500D01*
X119806921Y-115958355D01*
X119775769Y-115795051D01*
X119704984Y-115644624D01*
X119599012Y-115516526D01*
X119464513Y-115418807D01*
X119309939Y-115357607D01*
X119145000Y-115336770D01*
X118928500Y-115342000D01*
X118764000Y-115506500D01*
X118556000Y-115506500D01*
X118391500Y-115342000D01*
X118175000Y-115336770D01*
X118010061Y-115357607D01*
X118007706Y-115358540D01*
X117979263Y-115352882D01*
X117950000Y-115350000D01*
X117814774Y-115350000D01*
X117743722Y-115335867D01*
X117696012Y-115303988D01*
X117664133Y-115256278D01*
X117650000Y-115185226D01*
X117650000Y-114300000D01*
X117986770Y-114300000D01*
X118007607Y-114464939D01*
X118068807Y-114619513D01*
X118166526Y-114754012D01*
X118294624Y-114859984D01*
X118445051Y-114930769D01*
X118608355Y-114961921D01*
X119381500Y-114958000D01*
X119546000Y-114793500D01*
X119546000Y-113654000D01*
X118156500Y-113654000D01*
X117992000Y-113818500D01*
X117986770Y-114300000D01*
X117650000Y-114300000D01*
X117650000Y-113564774D01*
X117664133Y-113493722D01*
X117696012Y-113446012D01*
X117743722Y-113414133D01*
X117814774Y-113400000D01*
X118110500Y-113400000D01*
X118156500Y-113446000D01*
D34*
G36*
X111715000Y-110964250D02*
G01*
X111873750Y-111123000D01*
X113223000Y-111123000D01*
X113223000Y-111103000D01*
X113477000Y-111103000D01*
X113477000Y-111123000D01*
X113497000Y-111123000D01*
X113497000Y-111377000D01*
X113477000Y-111377000D01*
X113477000Y-113626250D01*
X113635750Y-113785000D01*
X114123000Y-113788443D01*
X114123000Y-115437491D01*
X114107533Y-115515251D01*
X114070570Y-115570570D01*
X114015251Y-115607533D01*
X113937491Y-115623000D01*
X113800000Y-115623000D01*
X113775224Y-115625440D01*
X113660419Y-115648276D01*
X113614637Y-115667239D01*
X113568320Y-115698187D01*
X113555845Y-115689123D01*
X113406673Y-115630061D01*
X113247500Y-115609953D01*
X113110750Y-115615000D01*
X112952000Y-115773750D01*
X112952000Y-116623000D01*
X112972000Y-116623000D01*
X112972000Y-116877000D01*
X112952000Y-116877000D01*
X112952000Y-116897000D01*
X112698000Y-116897000D01*
X112698000Y-116877000D01*
X111926250Y-116877000D01*
X111767500Y-117035750D01*
X111766202Y-117123000D01*
X111562509Y-117123000D01*
X111484749Y-117107533D01*
X111429430Y-117070570D01*
X111392467Y-117015251D01*
X111377000Y-116937491D01*
X111377000Y-116209811D01*
X111763716Y-116209811D01*
X111767500Y-116464250D01*
X111926250Y-116623000D01*
X112698000Y-116623000D01*
X112698000Y-115773750D01*
X112539250Y-115615000D01*
X112402500Y-115609953D01*
X112243327Y-115630061D01*
X112094155Y-115689123D01*
X111964358Y-115783426D01*
X111862090Y-115907046D01*
X111793779Y-116052215D01*
X111763716Y-116209811D01*
X111377000Y-116209811D01*
X111377000Y-113190189D01*
X111711216Y-113190189D01*
X111741279Y-113347785D01*
X111809590Y-113492954D01*
X111911858Y-113616574D01*
X112041655Y-113710877D01*
X112190827Y-113769939D01*
X112350000Y-113790047D01*
X113064250Y-113785000D01*
X113223000Y-113626250D01*
X113223000Y-111377000D01*
X111873750Y-111377000D01*
X111715000Y-111535750D01*
X111711216Y-113190189D01*
X111377000Y-113190189D01*
X111377000Y-110812509D01*
X111392467Y-110734749D01*
X111429430Y-110679430D01*
X111484749Y-110642467D01*
X111562509Y-110627000D01*
X111714229Y-110627000D01*
X111715000Y-110964250D01*
X111715000Y-110964250D01*
G37*
X111715000Y-110964250D02*
X111873750Y-111123000D01*
X113223000Y-111123000D01*
X113223000Y-111103000D01*
X113477000Y-111103000D01*
X113477000Y-111123000D01*
X113497000Y-111123000D01*
X113497000Y-111377000D01*
X113477000Y-111377000D01*
X113477000Y-113626250D01*
X113635750Y-113785000D01*
X114123000Y-113788443D01*
X114123000Y-115437491D01*
X114107533Y-115515251D01*
X114070570Y-115570570D01*
X114015251Y-115607533D01*
X113937491Y-115623000D01*
X113800000Y-115623000D01*
X113775224Y-115625440D01*
X113660419Y-115648276D01*
X113614637Y-115667239D01*
X113568320Y-115698187D01*
X113555845Y-115689123D01*
X113406673Y-115630061D01*
X113247500Y-115609953D01*
X113110750Y-115615000D01*
X112952000Y-115773750D01*
X112952000Y-116623000D01*
X112972000Y-116623000D01*
X112972000Y-116877000D01*
X112952000Y-116877000D01*
X112952000Y-116897000D01*
X112698000Y-116897000D01*
X112698000Y-116877000D01*
X111926250Y-116877000D01*
X111767500Y-117035750D01*
X111766202Y-117123000D01*
X111562509Y-117123000D01*
X111484749Y-117107533D01*
X111429430Y-117070570D01*
X111392467Y-117015251D01*
X111377000Y-116937491D01*
X111377000Y-116209811D01*
X111763716Y-116209811D01*
X111767500Y-116464250D01*
X111926250Y-116623000D01*
X112698000Y-116623000D01*
X112698000Y-115773750D01*
X112539250Y-115615000D01*
X112402500Y-115609953D01*
X112243327Y-115630061D01*
X112094155Y-115689123D01*
X111964358Y-115783426D01*
X111862090Y-115907046D01*
X111793779Y-116052215D01*
X111763716Y-116209811D01*
X111377000Y-116209811D01*
X111377000Y-113190189D01*
X111711216Y-113190189D01*
X111741279Y-113347785D01*
X111809590Y-113492954D01*
X111911858Y-113616574D01*
X112041655Y-113710877D01*
X112190827Y-113769939D01*
X112350000Y-113790047D01*
X113064250Y-113785000D01*
X113223000Y-113626250D01*
X113223000Y-111377000D01*
X111873750Y-111377000D01*
X111715000Y-111535750D01*
X111711216Y-113190189D01*
X111377000Y-113190189D01*
X111377000Y-110812509D01*
X111392467Y-110734749D01*
X111429430Y-110679430D01*
X111484749Y-110642467D01*
X111562509Y-110627000D01*
X111714229Y-110627000D01*
X111715000Y-110964250D01*
D31*
G36*
X133756278Y-95414133D02*
G01*
X133803988Y-95446012D01*
X133835867Y-95493722D01*
X133850000Y-95564774D01*
X133850000Y-95742658D01*
X132820000Y-95742658D01*
X132579846Y-95788098D01*
X132410154Y-95886069D01*
X132276879Y-96029706D01*
X132191862Y-96206245D01*
X132162658Y-96400000D01*
X132162658Y-98100000D01*
X132208098Y-98340154D01*
X132306069Y-98509846D01*
X132449706Y-98643121D01*
X132626245Y-98728138D01*
X132820000Y-98757342D01*
X133850000Y-98757342D01*
X133850000Y-107935226D01*
X133835867Y-108006278D01*
X133803988Y-108053988D01*
X133756278Y-108085867D01*
X133685226Y-108100000D01*
X132151614Y-108100000D01*
X132150000Y-108050000D01*
X131987500Y-107887500D01*
X131100000Y-107887500D01*
X131100000Y-107907500D01*
X130900000Y-107907500D01*
X130900000Y-107887500D01*
X130012500Y-107887500D01*
X129850000Y-108050000D01*
X129848386Y-108100000D01*
X128703187Y-108100000D01*
X128700548Y-107365000D01*
X129844834Y-107365000D01*
X129850000Y-107525000D01*
X130012500Y-107687500D01*
X130900000Y-107687500D01*
X130900000Y-106877500D01*
X131100000Y-106877500D01*
X131100000Y-107687500D01*
X131987500Y-107687500D01*
X132150000Y-107525000D01*
X132155166Y-107365000D01*
X132134583Y-107202067D01*
X132074126Y-107049371D01*
X131977595Y-106916508D01*
X131851055Y-106811825D01*
X131702457Y-106741900D01*
X131541138Y-106711127D01*
X131262500Y-106715000D01*
X131100000Y-106877500D01*
X130900000Y-106877500D01*
X130737500Y-106715000D01*
X130458862Y-106711127D01*
X130297543Y-106741900D01*
X130148945Y-106811825D01*
X130022405Y-106916508D01*
X129925874Y-107049371D01*
X129865417Y-107202067D01*
X129844834Y-107365000D01*
X128700548Y-107365000D01*
X128700000Y-107212500D01*
X128537500Y-107050000D01*
X127350000Y-107050000D01*
X127350000Y-107070000D01*
X127150000Y-107070000D01*
X127150000Y-107050000D01*
X125962500Y-107050000D01*
X125800000Y-107212500D01*
X125796813Y-108100000D01*
X125314774Y-108100000D01*
X125243722Y-108085867D01*
X125196012Y-108053988D01*
X125164133Y-108006278D01*
X125150000Y-107935226D01*
X125150000Y-105608862D01*
X125796127Y-105608862D01*
X125800000Y-106687500D01*
X125962500Y-106850000D01*
X127150000Y-106850000D01*
X127150000Y-105162500D01*
X127350000Y-105162500D01*
X127350000Y-106850000D01*
X128537500Y-106850000D01*
X128700000Y-106687500D01*
X128703873Y-105608862D01*
X128673100Y-105447543D01*
X128603175Y-105298945D01*
X128498492Y-105172405D01*
X128365629Y-105075874D01*
X128212933Y-105015417D01*
X128050000Y-104994834D01*
X127512500Y-105000000D01*
X127350000Y-105162500D01*
X127150000Y-105162500D01*
X126987500Y-105000000D01*
X126450000Y-104994834D01*
X126287067Y-105015417D01*
X126134371Y-105075874D01*
X126001508Y-105172405D01*
X125896825Y-105298945D01*
X125826900Y-105447543D01*
X125796127Y-105608862D01*
X125150000Y-105608862D01*
X125150000Y-102951869D01*
X125887500Y-102950000D01*
X126050000Y-102787500D01*
X126050000Y-101600000D01*
X126250000Y-101600000D01*
X126250000Y-102787500D01*
X126412500Y-102950000D01*
X127941138Y-102953873D01*
X128102457Y-102923100D01*
X128251055Y-102853175D01*
X128377595Y-102748492D01*
X128474126Y-102615629D01*
X128534583Y-102462933D01*
X128555166Y-102300000D01*
X128550000Y-101762500D01*
X128387500Y-101600000D01*
X126250000Y-101600000D01*
X126050000Y-101600000D01*
X126030000Y-101600000D01*
X126030000Y-101400000D01*
X126050000Y-101400000D01*
X126050000Y-100212500D01*
X126250000Y-100212500D01*
X126250000Y-101400000D01*
X128387500Y-101400000D01*
X128550000Y-101237500D01*
X128555166Y-100700000D01*
X128534583Y-100537067D01*
X128474126Y-100384371D01*
X128377595Y-100251508D01*
X128251055Y-100146825D01*
X128102457Y-100076900D01*
X127941138Y-100046127D01*
X126412500Y-100050000D01*
X126250000Y-100212500D01*
X126050000Y-100212500D01*
X125887500Y-100050000D01*
X125150000Y-100048131D01*
X125150000Y-95564774D01*
X125164133Y-95493722D01*
X125196012Y-95446012D01*
X125243722Y-95414133D01*
X125314774Y-95400000D01*
X133685226Y-95400000D01*
X133756278Y-95414133D01*
X133756278Y-95414133D01*
G37*
X133756278Y-95414133D02*
X133803988Y-95446012D01*
X133835867Y-95493722D01*
X133850000Y-95564774D01*
X133850000Y-95742658D01*
X132820000Y-95742658D01*
X132579846Y-95788098D01*
X132410154Y-95886069D01*
X132276879Y-96029706D01*
X132191862Y-96206245D01*
X132162658Y-96400000D01*
X132162658Y-98100000D01*
X132208098Y-98340154D01*
X132306069Y-98509846D01*
X132449706Y-98643121D01*
X132626245Y-98728138D01*
X132820000Y-98757342D01*
X133850000Y-98757342D01*
X133850000Y-107935226D01*
X133835867Y-108006278D01*
X133803988Y-108053988D01*
X133756278Y-108085867D01*
X133685226Y-108100000D01*
X132151614Y-108100000D01*
X132150000Y-108050000D01*
X131987500Y-107887500D01*
X131100000Y-107887500D01*
X131100000Y-107907500D01*
X130900000Y-107907500D01*
X130900000Y-107887500D01*
X130012500Y-107887500D01*
X129850000Y-108050000D01*
X129848386Y-108100000D01*
X128703187Y-108100000D01*
X128700548Y-107365000D01*
X129844834Y-107365000D01*
X129850000Y-107525000D01*
X130012500Y-107687500D01*
X130900000Y-107687500D01*
X130900000Y-106877500D01*
X131100000Y-106877500D01*
X131100000Y-107687500D01*
X131987500Y-107687500D01*
X132150000Y-107525000D01*
X132155166Y-107365000D01*
X132134583Y-107202067D01*
X132074126Y-107049371D01*
X131977595Y-106916508D01*
X131851055Y-106811825D01*
X131702457Y-106741900D01*
X131541138Y-106711127D01*
X131262500Y-106715000D01*
X131100000Y-106877500D01*
X130900000Y-106877500D01*
X130737500Y-106715000D01*
X130458862Y-106711127D01*
X130297543Y-106741900D01*
X130148945Y-106811825D01*
X130022405Y-106916508D01*
X129925874Y-107049371D01*
X129865417Y-107202067D01*
X129844834Y-107365000D01*
X128700548Y-107365000D01*
X128700000Y-107212500D01*
X128537500Y-107050000D01*
X127350000Y-107050000D01*
X127350000Y-107070000D01*
X127150000Y-107070000D01*
X127150000Y-107050000D01*
X125962500Y-107050000D01*
X125800000Y-107212500D01*
X125796813Y-108100000D01*
X125314774Y-108100000D01*
X125243722Y-108085867D01*
X125196012Y-108053988D01*
X125164133Y-108006278D01*
X125150000Y-107935226D01*
X125150000Y-105608862D01*
X125796127Y-105608862D01*
X125800000Y-106687500D01*
X125962500Y-106850000D01*
X127150000Y-106850000D01*
X127150000Y-105162500D01*
X127350000Y-105162500D01*
X127350000Y-106850000D01*
X128537500Y-106850000D01*
X128700000Y-106687500D01*
X128703873Y-105608862D01*
X128673100Y-105447543D01*
X128603175Y-105298945D01*
X128498492Y-105172405D01*
X128365629Y-105075874D01*
X128212933Y-105015417D01*
X128050000Y-104994834D01*
X127512500Y-105000000D01*
X127350000Y-105162500D01*
X127150000Y-105162500D01*
X126987500Y-105000000D01*
X126450000Y-104994834D01*
X126287067Y-105015417D01*
X126134371Y-105075874D01*
X126001508Y-105172405D01*
X125896825Y-105298945D01*
X125826900Y-105447543D01*
X125796127Y-105608862D01*
X125150000Y-105608862D01*
X125150000Y-102951869D01*
X125887500Y-102950000D01*
X126050000Y-102787500D01*
X126050000Y-101600000D01*
X126250000Y-101600000D01*
X126250000Y-102787500D01*
X126412500Y-102950000D01*
X127941138Y-102953873D01*
X128102457Y-102923100D01*
X128251055Y-102853175D01*
X128377595Y-102748492D01*
X128474126Y-102615629D01*
X128534583Y-102462933D01*
X128555166Y-102300000D01*
X128550000Y-101762500D01*
X128387500Y-101600000D01*
X126250000Y-101600000D01*
X126050000Y-101600000D01*
X126030000Y-101600000D01*
X126030000Y-101400000D01*
X126050000Y-101400000D01*
X126050000Y-100212500D01*
X126250000Y-100212500D01*
X126250000Y-101400000D01*
X128387500Y-101400000D01*
X128550000Y-101237500D01*
X128555166Y-100700000D01*
X128534583Y-100537067D01*
X128474126Y-100384371D01*
X128377595Y-100251508D01*
X128251055Y-100146825D01*
X128102457Y-100076900D01*
X127941138Y-100046127D01*
X126412500Y-100050000D01*
X126250000Y-100212500D01*
X126050000Y-100212500D01*
X125887500Y-100050000D01*
X125150000Y-100048131D01*
X125150000Y-95564774D01*
X125164133Y-95493722D01*
X125196012Y-95446012D01*
X125243722Y-95414133D01*
X125314774Y-95400000D01*
X133685226Y-95400000D01*
X133756278Y-95414133D01*
D34*
G36*
X125815000Y-110264250D02*
G01*
X125973750Y-110423000D01*
X127123000Y-110423000D01*
X127123000Y-110403000D01*
X127377000Y-110403000D01*
X127377000Y-110423000D01*
X128526250Y-110423000D01*
X128685000Y-110264250D01*
X128685463Y-110135000D01*
X129859953Y-110135000D01*
X129880061Y-110294173D01*
X129939123Y-110443345D01*
X130033426Y-110573142D01*
X130157046Y-110675410D01*
X130302215Y-110743721D01*
X130459811Y-110773784D01*
X130714250Y-110770000D01*
X130873000Y-110611250D01*
X130873000Y-109839500D01*
X131127000Y-109839500D01*
X131127000Y-110611250D01*
X131285750Y-110770000D01*
X131540189Y-110773784D01*
X131697785Y-110743721D01*
X131842954Y-110675410D01*
X131966574Y-110573142D01*
X132060877Y-110443345D01*
X132119939Y-110294173D01*
X132140047Y-110135000D01*
X132135000Y-109998250D01*
X131976250Y-109839500D01*
X131127000Y-109839500D01*
X130873000Y-109839500D01*
X130023750Y-109839500D01*
X129865000Y-109998250D01*
X129859953Y-110135000D01*
X128685463Y-110135000D01*
X128687825Y-109477000D01*
X129915250Y-109477000D01*
X130023750Y-109585500D01*
X130873000Y-109585500D01*
X130873000Y-109565500D01*
X131127000Y-109565500D01*
X131127000Y-109585500D01*
X131976250Y-109585500D01*
X132034750Y-109527000D01*
X132187491Y-109527000D01*
X132265251Y-109542467D01*
X132320570Y-109579430D01*
X132357533Y-109634749D01*
X132373000Y-109712509D01*
X132373000Y-115028157D01*
X131962909Y-115438248D01*
X131895683Y-115500066D01*
X131858903Y-115559385D01*
X131816703Y-115614982D01*
X131803048Y-115649470D01*
X131783502Y-115680995D01*
X131775313Y-115719522D01*
X131738335Y-115812918D01*
X131716082Y-116024635D01*
X131723000Y-116065537D01*
X131723001Y-117428155D01*
X131028157Y-118123000D01*
X130062509Y-118123000D01*
X129984749Y-118107533D01*
X129929430Y-118070570D01*
X129892467Y-118015251D01*
X129877000Y-117937491D01*
X129877000Y-117800000D01*
X129874560Y-117775224D01*
X129866195Y-117733172D01*
X129943078Y-117589283D01*
X130021480Y-117356891D01*
X129900813Y-117127000D01*
X128707000Y-117127000D01*
X128707000Y-117147000D01*
X128453000Y-117147000D01*
X128453000Y-117127000D01*
X128433000Y-117127000D01*
X128433000Y-116873000D01*
X128453000Y-116873000D01*
X128453000Y-115679845D01*
X128707000Y-115679845D01*
X128707000Y-116873000D01*
X129900813Y-116873000D01*
X130021480Y-116643109D01*
X129943078Y-116410717D01*
X129827495Y-116194399D01*
X129677883Y-116000055D01*
X129498324Y-115832987D01*
X129293715Y-115697752D01*
X129069638Y-115598039D01*
X128936890Y-115558524D01*
X128707000Y-115679845D01*
X128453000Y-115679845D01*
X128223110Y-115558524D01*
X128090362Y-115598039D01*
X128034269Y-115623000D01*
X126581707Y-115623000D01*
X126551753Y-115609096D01*
X126317711Y-115544190D01*
X126093541Y-115523000D01*
X125978442Y-115523000D01*
X125797941Y-115537840D01*
X125562383Y-115597008D01*
X125502606Y-115623000D01*
X124696791Y-115623000D01*
X124546169Y-115546254D01*
X124350000Y-115515184D01*
X122650000Y-115515184D01*
X122453831Y-115546254D01*
X122377000Y-115585401D01*
X122377000Y-114277931D01*
X129151674Y-114277931D01*
X129186744Y-114491320D01*
X129384532Y-114580002D01*
X129595528Y-114629651D01*
X129812107Y-114638471D01*
X130026442Y-114606143D01*
X130230785Y-114533836D01*
X130313256Y-114491320D01*
X130348326Y-114277931D01*
X129750000Y-113679605D01*
X129151674Y-114277931D01*
X122377000Y-114277931D01*
X122377000Y-113637771D01*
X122714250Y-113635000D01*
X122873000Y-113476250D01*
X122873000Y-111877000D01*
X123127000Y-111877000D01*
X123127000Y-113476250D01*
X123285750Y-113635000D01*
X123900000Y-113640047D01*
X124059173Y-113619939D01*
X124205238Y-113562107D01*
X128611529Y-113562107D01*
X128643857Y-113776442D01*
X128716164Y-113980785D01*
X128758680Y-114063256D01*
X128972069Y-114098326D01*
X129570395Y-113500000D01*
X129929605Y-113500000D01*
X130527931Y-114098326D01*
X130741320Y-114063256D01*
X130830002Y-113865468D01*
X130879651Y-113654472D01*
X130888471Y-113437893D01*
X130856143Y-113223558D01*
X130783836Y-113019215D01*
X130741320Y-112936744D01*
X130527931Y-112901674D01*
X129929605Y-113500000D01*
X129570395Y-113500000D01*
X128972069Y-112901674D01*
X128758680Y-112936744D01*
X128669998Y-113134532D01*
X128620349Y-113345528D01*
X128611529Y-113562107D01*
X124205238Y-113562107D01*
X124208345Y-113560877D01*
X124338142Y-113466574D01*
X124440410Y-113342954D01*
X124508721Y-113197785D01*
X124538784Y-113040189D01*
X124537586Y-112722069D01*
X129151674Y-112722069D01*
X129750000Y-113320395D01*
X130348326Y-112722069D01*
X130313256Y-112508680D01*
X130115468Y-112419998D01*
X129904472Y-112370349D01*
X129687893Y-112361529D01*
X129473558Y-112393857D01*
X129269215Y-112466164D01*
X129186744Y-112508680D01*
X129151674Y-112722069D01*
X124537586Y-112722069D01*
X124535000Y-112035750D01*
X124389439Y-111890189D01*
X125811216Y-111890189D01*
X125841279Y-112047785D01*
X125909590Y-112192954D01*
X126011858Y-112316574D01*
X126141655Y-112410877D01*
X126290827Y-112469939D01*
X126450000Y-112490047D01*
X126964250Y-112485000D01*
X127123000Y-112326250D01*
X127123000Y-110677000D01*
X127377000Y-110677000D01*
X127377000Y-112326250D01*
X127535750Y-112485000D01*
X128050000Y-112490047D01*
X128209173Y-112469939D01*
X128358345Y-112410877D01*
X128488142Y-112316574D01*
X128590410Y-112192954D01*
X128658721Y-112047785D01*
X128688784Y-111890189D01*
X128685000Y-110835750D01*
X128526250Y-110677000D01*
X127377000Y-110677000D01*
X127123000Y-110677000D01*
X125973750Y-110677000D01*
X125815000Y-110835750D01*
X125811216Y-111890189D01*
X124389439Y-111890189D01*
X124376250Y-111877000D01*
X123127000Y-111877000D01*
X122873000Y-111877000D01*
X122853000Y-111877000D01*
X122853000Y-111623000D01*
X122873000Y-111623000D01*
X122873000Y-111603000D01*
X123127000Y-111603000D01*
X123127000Y-111623000D01*
X124376250Y-111623000D01*
X124535000Y-111464250D01*
X124538784Y-110459811D01*
X124527000Y-110398037D01*
X124527000Y-109437509D01*
X124542467Y-109359749D01*
X124579430Y-109304430D01*
X124634749Y-109267467D01*
X124712509Y-109252000D01*
X125811367Y-109252000D01*
X125815000Y-110264250D01*
X125815000Y-110264250D01*
G37*
X125815000Y-110264250D02*
X125973750Y-110423000D01*
X127123000Y-110423000D01*
X127123000Y-110403000D01*
X127377000Y-110403000D01*
X127377000Y-110423000D01*
X128526250Y-110423000D01*
X128685000Y-110264250D01*
X128685463Y-110135000D01*
X129859953Y-110135000D01*
X129880061Y-110294173D01*
X129939123Y-110443345D01*
X130033426Y-110573142D01*
X130157046Y-110675410D01*
X130302215Y-110743721D01*
X130459811Y-110773784D01*
X130714250Y-110770000D01*
X130873000Y-110611250D01*
X130873000Y-109839500D01*
X131127000Y-109839500D01*
X131127000Y-110611250D01*
X131285750Y-110770000D01*
X131540189Y-110773784D01*
X131697785Y-110743721D01*
X131842954Y-110675410D01*
X131966574Y-110573142D01*
X132060877Y-110443345D01*
X132119939Y-110294173D01*
X132140047Y-110135000D01*
X132135000Y-109998250D01*
X131976250Y-109839500D01*
X131127000Y-109839500D01*
X130873000Y-109839500D01*
X130023750Y-109839500D01*
X129865000Y-109998250D01*
X129859953Y-110135000D01*
X128685463Y-110135000D01*
X128687825Y-109477000D01*
X129915250Y-109477000D01*
X130023750Y-109585500D01*
X130873000Y-109585500D01*
X130873000Y-109565500D01*
X131127000Y-109565500D01*
X131127000Y-109585500D01*
X131976250Y-109585500D01*
X132034750Y-109527000D01*
X132187491Y-109527000D01*
X132265251Y-109542467D01*
X132320570Y-109579430D01*
X132357533Y-109634749D01*
X132373000Y-109712509D01*
X132373000Y-115028157D01*
X131962909Y-115438248D01*
X131895683Y-115500066D01*
X131858903Y-115559385D01*
X131816703Y-115614982D01*
X131803048Y-115649470D01*
X131783502Y-115680995D01*
X131775313Y-115719522D01*
X131738335Y-115812918D01*
X131716082Y-116024635D01*
X131723000Y-116065537D01*
X131723001Y-117428155D01*
X131028157Y-118123000D01*
X130062509Y-118123000D01*
X129984749Y-118107533D01*
X129929430Y-118070570D01*
X129892467Y-118015251D01*
X129877000Y-117937491D01*
X129877000Y-117800000D01*
X129874560Y-117775224D01*
X129866195Y-117733172D01*
X129943078Y-117589283D01*
X130021480Y-117356891D01*
X129900813Y-117127000D01*
X128707000Y-117127000D01*
X128707000Y-117147000D01*
X128453000Y-117147000D01*
X128453000Y-117127000D01*
X128433000Y-117127000D01*
X128433000Y-116873000D01*
X128453000Y-116873000D01*
X128453000Y-115679845D01*
X128707000Y-115679845D01*
X128707000Y-116873000D01*
X129900813Y-116873000D01*
X130021480Y-116643109D01*
X129943078Y-116410717D01*
X129827495Y-116194399D01*
X129677883Y-116000055D01*
X129498324Y-115832987D01*
X129293715Y-115697752D01*
X129069638Y-115598039D01*
X128936890Y-115558524D01*
X128707000Y-115679845D01*
X128453000Y-115679845D01*
X128223110Y-115558524D01*
X128090362Y-115598039D01*
X128034269Y-115623000D01*
X126581707Y-115623000D01*
X126551753Y-115609096D01*
X126317711Y-115544190D01*
X126093541Y-115523000D01*
X125978442Y-115523000D01*
X125797941Y-115537840D01*
X125562383Y-115597008D01*
X125502606Y-115623000D01*
X124696791Y-115623000D01*
X124546169Y-115546254D01*
X124350000Y-115515184D01*
X122650000Y-115515184D01*
X122453831Y-115546254D01*
X122377000Y-115585401D01*
X122377000Y-114277931D01*
X129151674Y-114277931D01*
X129186744Y-114491320D01*
X129384532Y-114580002D01*
X129595528Y-114629651D01*
X129812107Y-114638471D01*
X130026442Y-114606143D01*
X130230785Y-114533836D01*
X130313256Y-114491320D01*
X130348326Y-114277931D01*
X129750000Y-113679605D01*
X129151674Y-114277931D01*
X122377000Y-114277931D01*
X122377000Y-113637771D01*
X122714250Y-113635000D01*
X122873000Y-113476250D01*
X122873000Y-111877000D01*
X123127000Y-111877000D01*
X123127000Y-113476250D01*
X123285750Y-113635000D01*
X123900000Y-113640047D01*
X124059173Y-113619939D01*
X124205238Y-113562107D01*
X128611529Y-113562107D01*
X128643857Y-113776442D01*
X128716164Y-113980785D01*
X128758680Y-114063256D01*
X128972069Y-114098326D01*
X129570395Y-113500000D01*
X129929605Y-113500000D01*
X130527931Y-114098326D01*
X130741320Y-114063256D01*
X130830002Y-113865468D01*
X130879651Y-113654472D01*
X130888471Y-113437893D01*
X130856143Y-113223558D01*
X130783836Y-113019215D01*
X130741320Y-112936744D01*
X130527931Y-112901674D01*
X129929605Y-113500000D01*
X129570395Y-113500000D01*
X128972069Y-112901674D01*
X128758680Y-112936744D01*
X128669998Y-113134532D01*
X128620349Y-113345528D01*
X128611529Y-113562107D01*
X124205238Y-113562107D01*
X124208345Y-113560877D01*
X124338142Y-113466574D01*
X124440410Y-113342954D01*
X124508721Y-113197785D01*
X124538784Y-113040189D01*
X124537586Y-112722069D01*
X129151674Y-112722069D01*
X129750000Y-113320395D01*
X130348326Y-112722069D01*
X130313256Y-112508680D01*
X130115468Y-112419998D01*
X129904472Y-112370349D01*
X129687893Y-112361529D01*
X129473558Y-112393857D01*
X129269215Y-112466164D01*
X129186744Y-112508680D01*
X129151674Y-112722069D01*
X124537586Y-112722069D01*
X124535000Y-112035750D01*
X124389439Y-111890189D01*
X125811216Y-111890189D01*
X125841279Y-112047785D01*
X125909590Y-112192954D01*
X126011858Y-112316574D01*
X126141655Y-112410877D01*
X126290827Y-112469939D01*
X126450000Y-112490047D01*
X126964250Y-112485000D01*
X127123000Y-112326250D01*
X127123000Y-110677000D01*
X127377000Y-110677000D01*
X127377000Y-112326250D01*
X127535750Y-112485000D01*
X128050000Y-112490047D01*
X128209173Y-112469939D01*
X128358345Y-112410877D01*
X128488142Y-112316574D01*
X128590410Y-112192954D01*
X128658721Y-112047785D01*
X128688784Y-111890189D01*
X128685000Y-110835750D01*
X128526250Y-110677000D01*
X127377000Y-110677000D01*
X127123000Y-110677000D01*
X125973750Y-110677000D01*
X125815000Y-110835750D01*
X125811216Y-111890189D01*
X124389439Y-111890189D01*
X124376250Y-111877000D01*
X123127000Y-111877000D01*
X122873000Y-111877000D01*
X122853000Y-111877000D01*
X122853000Y-111623000D01*
X122873000Y-111623000D01*
X122873000Y-111603000D01*
X123127000Y-111603000D01*
X123127000Y-111623000D01*
X124376250Y-111623000D01*
X124535000Y-111464250D01*
X124538784Y-110459811D01*
X124527000Y-110398037D01*
X124527000Y-109437509D01*
X124542467Y-109359749D01*
X124579430Y-109304430D01*
X124634749Y-109267467D01*
X124712509Y-109252000D01*
X125811367Y-109252000D01*
X125815000Y-110264250D01*
G36*
X161723001Y-111571845D02*
G01*
X161723000Y-113732575D01*
X161719176Y-113823809D01*
X161735114Y-113891761D01*
X161744587Y-113960914D01*
X161759319Y-113994958D01*
X161767789Y-114031069D01*
X161789240Y-114064101D01*
X161829134Y-114156290D01*
X161873000Y-114210461D01*
X161873000Y-119373000D01*
X154377000Y-119373000D01*
X154377000Y-118113265D01*
X154504492Y-117985773D01*
X154550483Y-117950483D01*
X154585774Y-117904491D01*
X154691057Y-117767284D01*
X154741074Y-117646532D01*
X154779426Y-117553943D01*
X154802000Y-117382477D01*
X154802000Y-117382470D01*
X154809566Y-117325001D01*
X154802000Y-117267532D01*
X154802000Y-115633862D01*
X154863465Y-115562780D01*
X154985016Y-115329781D01*
X155049705Y-115075068D01*
X155052152Y-114794584D01*
X154991919Y-114538781D01*
X154874453Y-114303695D01*
X154802000Y-114216888D01*
X154802000Y-113795925D01*
X154867301Y-113710823D01*
X154951631Y-113507231D01*
X154980395Y-113288750D01*
X154980395Y-112711250D01*
X154951631Y-112492769D01*
X154867301Y-112289178D01*
X154733151Y-112114349D01*
X154727000Y-112109629D01*
X154727000Y-111185000D01*
X154777002Y-111185000D01*
X154777002Y-111038714D01*
X154801865Y-111063577D01*
X154827273Y-111076523D01*
X154935750Y-111185000D01*
X155080550Y-111169857D01*
X155175000Y-111184816D01*
X155491013Y-111184816D01*
X155494588Y-111210915D01*
X155509318Y-111244955D01*
X155517789Y-111281069D01*
X155539242Y-111314104D01*
X155579135Y-111406291D01*
X155713107Y-111571734D01*
X155746922Y-111595765D01*
X156133877Y-111982721D01*
X156132590Y-111992500D01*
X156132590Y-113007500D01*
X156162402Y-113233943D01*
X156249806Y-113444955D01*
X156388845Y-113626155D01*
X156473001Y-113690730D01*
X156473001Y-113931833D01*
X156432876Y-113966407D01*
X156299445Y-114135058D01*
X156200311Y-114325898D01*
X156139053Y-114532041D01*
X156117881Y-114746048D01*
X156137559Y-114960198D01*
X156197376Y-115166763D01*
X156295175Y-115358291D01*
X156427426Y-115527870D01*
X156469558Y-115564689D01*
X156469176Y-115573809D01*
X156485115Y-115641765D01*
X156494588Y-115710915D01*
X156509318Y-115744955D01*
X156517789Y-115781069D01*
X156539242Y-115814104D01*
X156579135Y-115906291D01*
X156713107Y-116071734D01*
X156739487Y-116090482D01*
X156716552Y-116250000D01*
X156716552Y-117250000D01*
X156782832Y-117554685D01*
X156895697Y-117730306D01*
X157053468Y-117867016D01*
X157243364Y-117953738D01*
X157450000Y-117983448D01*
X157650000Y-117983448D01*
X157954685Y-117917168D01*
X157977812Y-117902305D01*
X157981998Y-117905459D01*
X158130126Y-117967092D01*
X158268250Y-117985000D01*
X158427000Y-117826250D01*
X158427000Y-116877000D01*
X158383448Y-116877000D01*
X158383448Y-116623000D01*
X158427000Y-116623000D01*
X158427000Y-116603000D01*
X158573000Y-116603000D01*
X158573000Y-116623000D01*
X158616552Y-116623000D01*
X158616552Y-116877000D01*
X158573000Y-116877000D01*
X158573000Y-117826250D01*
X158731750Y-117985000D01*
X158869874Y-117967092D01*
X159018002Y-117905459D01*
X159025417Y-117899874D01*
X159143364Y-117953738D01*
X159350000Y-117983448D01*
X159550000Y-117983448D01*
X159854685Y-117917168D01*
X160030306Y-117804303D01*
X160167016Y-117646532D01*
X160253738Y-117456636D01*
X160283448Y-117250000D01*
X160283448Y-116250000D01*
X160227000Y-115990512D01*
X160227000Y-115717424D01*
X160230824Y-115626190D01*
X160214886Y-115558236D01*
X160205413Y-115489085D01*
X160190682Y-115455045D01*
X160182212Y-115418931D01*
X160170780Y-115401327D01*
X160253294Y-115274509D01*
X160334376Y-115075328D01*
X160376330Y-114864408D01*
X160377102Y-114643458D01*
X160336621Y-114432250D01*
X160256931Y-114232508D01*
X160140910Y-114051438D01*
X159992741Y-113895574D01*
X159937000Y-113855741D01*
X159937000Y-113690729D01*
X160021155Y-113626155D01*
X160160194Y-113444955D01*
X160247598Y-113233943D01*
X160277410Y-113007500D01*
X160277410Y-111992500D01*
X160247598Y-111766057D01*
X160160194Y-111555045D01*
X160021155Y-111373845D01*
X159839955Y-111234806D01*
X159803246Y-111219601D01*
X159696894Y-111088266D01*
X159663079Y-111064235D01*
X159061758Y-110462915D01*
X158999935Y-110395683D01*
X158940610Y-110358900D01*
X158885018Y-110316703D01*
X158850532Y-110303049D01*
X158819006Y-110283502D01*
X158780476Y-110275312D01*
X158687082Y-110238335D01*
X158475365Y-110216082D01*
X158434464Y-110223000D01*
X157959816Y-110223000D01*
X157959816Y-109209816D01*
X159300000Y-109209816D01*
X159352636Y-109201479D01*
X161723001Y-111571845D01*
X161723001Y-111571845D01*
G37*
X161723001Y-111571845D02*
X161723000Y-113732575D01*
X161719176Y-113823809D01*
X161735114Y-113891761D01*
X161744587Y-113960914D01*
X161759319Y-113994958D01*
X161767789Y-114031069D01*
X161789240Y-114064101D01*
X161829134Y-114156290D01*
X161873000Y-114210461D01*
X161873000Y-119373000D01*
X154377000Y-119373000D01*
X154377000Y-118113265D01*
X154504492Y-117985773D01*
X154550483Y-117950483D01*
X154585774Y-117904491D01*
X154691057Y-117767284D01*
X154741074Y-117646532D01*
X154779426Y-117553943D01*
X154802000Y-117382477D01*
X154802000Y-117382470D01*
X154809566Y-117325001D01*
X154802000Y-117267532D01*
X154802000Y-115633862D01*
X154863465Y-115562780D01*
X154985016Y-115329781D01*
X155049705Y-115075068D01*
X155052152Y-114794584D01*
X154991919Y-114538781D01*
X154874453Y-114303695D01*
X154802000Y-114216888D01*
X154802000Y-113795925D01*
X154867301Y-113710823D01*
X154951631Y-113507231D01*
X154980395Y-113288750D01*
X154980395Y-112711250D01*
X154951631Y-112492769D01*
X154867301Y-112289178D01*
X154733151Y-112114349D01*
X154727000Y-112109629D01*
X154727000Y-111185000D01*
X154777002Y-111185000D01*
X154777002Y-111038714D01*
X154801865Y-111063577D01*
X154827273Y-111076523D01*
X154935750Y-111185000D01*
X155080550Y-111169857D01*
X155175000Y-111184816D01*
X155491013Y-111184816D01*
X155494588Y-111210915D01*
X155509318Y-111244955D01*
X155517789Y-111281069D01*
X155539242Y-111314104D01*
X155579135Y-111406291D01*
X155713107Y-111571734D01*
X155746922Y-111595765D01*
X156133877Y-111982721D01*
X156132590Y-111992500D01*
X156132590Y-113007500D01*
X156162402Y-113233943D01*
X156249806Y-113444955D01*
X156388845Y-113626155D01*
X156473001Y-113690730D01*
X156473001Y-113931833D01*
X156432876Y-113966407D01*
X156299445Y-114135058D01*
X156200311Y-114325898D01*
X156139053Y-114532041D01*
X156117881Y-114746048D01*
X156137559Y-114960198D01*
X156197376Y-115166763D01*
X156295175Y-115358291D01*
X156427426Y-115527870D01*
X156469558Y-115564689D01*
X156469176Y-115573809D01*
X156485115Y-115641765D01*
X156494588Y-115710915D01*
X156509318Y-115744955D01*
X156517789Y-115781069D01*
X156539242Y-115814104D01*
X156579135Y-115906291D01*
X156713107Y-116071734D01*
X156739487Y-116090482D01*
X156716552Y-116250000D01*
X156716552Y-117250000D01*
X156782832Y-117554685D01*
X156895697Y-117730306D01*
X157053468Y-117867016D01*
X157243364Y-117953738D01*
X157450000Y-117983448D01*
X157650000Y-117983448D01*
X157954685Y-117917168D01*
X157977812Y-117902305D01*
X157981998Y-117905459D01*
X158130126Y-117967092D01*
X158268250Y-117985000D01*
X158427000Y-117826250D01*
X158427000Y-116877000D01*
X158383448Y-116877000D01*
X158383448Y-116623000D01*
X158427000Y-116623000D01*
X158427000Y-116603000D01*
X158573000Y-116603000D01*
X158573000Y-116623000D01*
X158616552Y-116623000D01*
X158616552Y-116877000D01*
X158573000Y-116877000D01*
X158573000Y-117826250D01*
X158731750Y-117985000D01*
X158869874Y-117967092D01*
X159018002Y-117905459D01*
X159025417Y-117899874D01*
X159143364Y-117953738D01*
X159350000Y-117983448D01*
X159550000Y-117983448D01*
X159854685Y-117917168D01*
X160030306Y-117804303D01*
X160167016Y-117646532D01*
X160253738Y-117456636D01*
X160283448Y-117250000D01*
X160283448Y-116250000D01*
X160227000Y-115990512D01*
X160227000Y-115717424D01*
X160230824Y-115626190D01*
X160214886Y-115558236D01*
X160205413Y-115489085D01*
X160190682Y-115455045D01*
X160182212Y-115418931D01*
X160170780Y-115401327D01*
X160253294Y-115274509D01*
X160334376Y-115075328D01*
X160376330Y-114864408D01*
X160377102Y-114643458D01*
X160336621Y-114432250D01*
X160256931Y-114232508D01*
X160140910Y-114051438D01*
X159992741Y-113895574D01*
X159937000Y-113855741D01*
X159937000Y-113690729D01*
X160021155Y-113626155D01*
X160160194Y-113444955D01*
X160247598Y-113233943D01*
X160277410Y-113007500D01*
X160277410Y-111992500D01*
X160247598Y-111766057D01*
X160160194Y-111555045D01*
X160021155Y-111373845D01*
X159839955Y-111234806D01*
X159803246Y-111219601D01*
X159696894Y-111088266D01*
X159663079Y-111064235D01*
X159061758Y-110462915D01*
X158999935Y-110395683D01*
X158940610Y-110358900D01*
X158885018Y-110316703D01*
X158850532Y-110303049D01*
X158819006Y-110283502D01*
X158780476Y-110275312D01*
X158687082Y-110238335D01*
X158475365Y-110216082D01*
X158434464Y-110223000D01*
X157959816Y-110223000D01*
X157959816Y-109209816D01*
X159300000Y-109209816D01*
X159352636Y-109201479D01*
X161723001Y-111571845D01*
M02*
