G04 #@! TF.GenerationSoftware,KiCad,Pcbnew,6.0.0-unknown*
G04 #@! TF.CreationDate,2019-06-26T08:34:25-07:00*
G04 #@! TF.ProjectId,IOT-LORA,494f542d-4c4f-4524-912e-6b696361645f,rev?*
G04 #@! TF.SameCoordinates,Original*
G04 #@! TF.FileFunction,Soldermask,Bot*
G04 #@! TF.FilePolarity,Negative*
%FSLAX46Y46*%
G04 Gerber Fmt 4.6, Leading zero omitted, Abs format (unit mm)*
G04 Created by KiCad (PCBNEW 6.0.0-unknown) date 2019-06-26 08:34:25*
%MOMM*%
%LPD*%
G04 APERTURE LIST*
%ADD10C,0.250000*%
G04 APERTURE END LIST*
D10*
G36*
X181888360Y-123863835D02*
G01*
X181969397Y-123890166D01*
X182056663Y-123917848D01*
X182059655Y-123919493D01*
X182068488Y-123922363D01*
X182140466Y-123963919D01*
X182211499Y-124002970D01*
X182218986Y-124009253D01*
X182232511Y-124017061D01*
X182290259Y-124069057D01*
X182346857Y-124116549D01*
X182356962Y-124129118D01*
X182373261Y-124143793D01*
X182415454Y-124201867D01*
X182457579Y-124254260D01*
X182467994Y-124274182D01*
X182484586Y-124297019D01*
X182511297Y-124357012D01*
X182539439Y-124410843D01*
X182547582Y-124438510D01*
X182561621Y-124470042D01*
X182573992Y-124528241D01*
X182589328Y-124580349D01*
X182592518Y-124615401D01*
X182600999Y-124655301D01*
X182600999Y-124708592D01*
X182605343Y-124756324D01*
X182600999Y-124797653D01*
X182600999Y-124844699D01*
X182591217Y-124890721D01*
X182586873Y-124932047D01*
X182572702Y-124977827D01*
X182561621Y-125029958D01*
X182545028Y-125067226D01*
X182534622Y-125100843D01*
X182508789Y-125148620D01*
X182484586Y-125202981D01*
X182464298Y-125230905D01*
X182450580Y-125256276D01*
X182411859Y-125303082D01*
X182373261Y-125356207D01*
X182352284Y-125375095D01*
X182337952Y-125392419D01*
X182285845Y-125434917D01*
X182232511Y-125482939D01*
X182213524Y-125493901D01*
X182201025Y-125504095D01*
X182135780Y-125538786D01*
X182068488Y-125577637D01*
X182053636Y-125582463D01*
X182045003Y-125587053D01*
X181967430Y-125610473D01*
X181888360Y-125636165D01*
X181879114Y-125637137D01*
X181875851Y-125638122D01*
X181784710Y-125647059D01*
X181747211Y-125651000D01*
X181652789Y-125651000D01*
X181511640Y-125636165D01*
X181430603Y-125609834D01*
X181343337Y-125582152D01*
X181340345Y-125580507D01*
X181331512Y-125577637D01*
X181259534Y-125536081D01*
X181188501Y-125497030D01*
X181181014Y-125490747D01*
X181167489Y-125482939D01*
X181109741Y-125430943D01*
X181053143Y-125383451D01*
X181043038Y-125370882D01*
X181026739Y-125356207D01*
X180984546Y-125298133D01*
X180942421Y-125245740D01*
X180932006Y-125225818D01*
X180915414Y-125202981D01*
X180888703Y-125142988D01*
X180860561Y-125089157D01*
X180852418Y-125061490D01*
X180838379Y-125029958D01*
X180826008Y-124971759D01*
X180810672Y-124919651D01*
X180807482Y-124884599D01*
X180799001Y-124844699D01*
X180799001Y-124791408D01*
X180794657Y-124743676D01*
X180799001Y-124702347D01*
X180799001Y-124655301D01*
X180808783Y-124609279D01*
X180813127Y-124567953D01*
X180827298Y-124522173D01*
X180838379Y-124470042D01*
X180854972Y-124432774D01*
X180865378Y-124399157D01*
X180891211Y-124351380D01*
X180915414Y-124297019D01*
X180935702Y-124269095D01*
X180949420Y-124243724D01*
X180988141Y-124196918D01*
X181026739Y-124143793D01*
X181047716Y-124124905D01*
X181062048Y-124107581D01*
X181114155Y-124065083D01*
X181167489Y-124017061D01*
X181186476Y-124006099D01*
X181198975Y-123995905D01*
X181264220Y-123961214D01*
X181331512Y-123922363D01*
X181346364Y-123917537D01*
X181354997Y-123912947D01*
X181432570Y-123889527D01*
X181511640Y-123863835D01*
X181520886Y-123862863D01*
X181524149Y-123861878D01*
X181615290Y-123852941D01*
X181652789Y-123849000D01*
X181747211Y-123849000D01*
X181888360Y-123863835D01*
X181888360Y-123863835D01*
G37*
G36*
X179348360Y-123863835D02*
G01*
X179429397Y-123890166D01*
X179516663Y-123917848D01*
X179519655Y-123919493D01*
X179528488Y-123922363D01*
X179600466Y-123963919D01*
X179671499Y-124002970D01*
X179678986Y-124009253D01*
X179692511Y-124017061D01*
X179750259Y-124069057D01*
X179806857Y-124116549D01*
X179816962Y-124129118D01*
X179833261Y-124143793D01*
X179875454Y-124201867D01*
X179917579Y-124254260D01*
X179927994Y-124274182D01*
X179944586Y-124297019D01*
X179971297Y-124357012D01*
X179999439Y-124410843D01*
X180007582Y-124438510D01*
X180021621Y-124470042D01*
X180033992Y-124528241D01*
X180049328Y-124580349D01*
X180052518Y-124615401D01*
X180060999Y-124655301D01*
X180060999Y-124708592D01*
X180065343Y-124756324D01*
X180060999Y-124797653D01*
X180060999Y-124844699D01*
X180051217Y-124890721D01*
X180046873Y-124932047D01*
X180032702Y-124977827D01*
X180021621Y-125029958D01*
X180005028Y-125067226D01*
X179994622Y-125100843D01*
X179968789Y-125148620D01*
X179944586Y-125202981D01*
X179924298Y-125230905D01*
X179910580Y-125256276D01*
X179871859Y-125303082D01*
X179833261Y-125356207D01*
X179812284Y-125375095D01*
X179797952Y-125392419D01*
X179745845Y-125434917D01*
X179692511Y-125482939D01*
X179673524Y-125493901D01*
X179661025Y-125504095D01*
X179595780Y-125538786D01*
X179528488Y-125577637D01*
X179513636Y-125582463D01*
X179505003Y-125587053D01*
X179427430Y-125610473D01*
X179348360Y-125636165D01*
X179339114Y-125637137D01*
X179335851Y-125638122D01*
X179244710Y-125647059D01*
X179207211Y-125651000D01*
X179112789Y-125651000D01*
X178971640Y-125636165D01*
X178890603Y-125609834D01*
X178803337Y-125582152D01*
X178800345Y-125580507D01*
X178791512Y-125577637D01*
X178719534Y-125536081D01*
X178648501Y-125497030D01*
X178641014Y-125490747D01*
X178627489Y-125482939D01*
X178569741Y-125430943D01*
X178513143Y-125383451D01*
X178503038Y-125370882D01*
X178486739Y-125356207D01*
X178444546Y-125298133D01*
X178402421Y-125245740D01*
X178392006Y-125225818D01*
X178375414Y-125202981D01*
X178348703Y-125142988D01*
X178320561Y-125089157D01*
X178312418Y-125061490D01*
X178298379Y-125029958D01*
X178286008Y-124971759D01*
X178270672Y-124919651D01*
X178267482Y-124884599D01*
X178259001Y-124844699D01*
X178259001Y-124791408D01*
X178254657Y-124743676D01*
X178259001Y-124702347D01*
X178259001Y-124655301D01*
X178268783Y-124609279D01*
X178273127Y-124567953D01*
X178287298Y-124522173D01*
X178298379Y-124470042D01*
X178314972Y-124432774D01*
X178325378Y-124399157D01*
X178351211Y-124351380D01*
X178375414Y-124297019D01*
X178395702Y-124269095D01*
X178409420Y-124243724D01*
X178448141Y-124196918D01*
X178486739Y-124143793D01*
X178507716Y-124124905D01*
X178522048Y-124107581D01*
X178574155Y-124065083D01*
X178627489Y-124017061D01*
X178646476Y-124006099D01*
X178658975Y-123995905D01*
X178724220Y-123961214D01*
X178791512Y-123922363D01*
X178806364Y-123917537D01*
X178814997Y-123912947D01*
X178892570Y-123889527D01*
X178971640Y-123863835D01*
X178980886Y-123862863D01*
X178984149Y-123861878D01*
X179075290Y-123852941D01*
X179112789Y-123849000D01*
X179207211Y-123849000D01*
X179348360Y-123863835D01*
X179348360Y-123863835D01*
G37*
G36*
X169901000Y-125651000D02*
G01*
X168099000Y-125651000D01*
X168099000Y-123849000D01*
X169901000Y-123849000D01*
X169901000Y-125651000D01*
X169901000Y-125651000D01*
G37*
G36*
X171728360Y-123863835D02*
G01*
X171809397Y-123890166D01*
X171896663Y-123917848D01*
X171899655Y-123919493D01*
X171908488Y-123922363D01*
X171980466Y-123963919D01*
X172051499Y-124002970D01*
X172058986Y-124009253D01*
X172072511Y-124017061D01*
X172130259Y-124069057D01*
X172186857Y-124116549D01*
X172196962Y-124129118D01*
X172213261Y-124143793D01*
X172255454Y-124201867D01*
X172297579Y-124254260D01*
X172307994Y-124274182D01*
X172324586Y-124297019D01*
X172351297Y-124357012D01*
X172379439Y-124410843D01*
X172387582Y-124438510D01*
X172401621Y-124470042D01*
X172413992Y-124528241D01*
X172429328Y-124580349D01*
X172432518Y-124615401D01*
X172440999Y-124655301D01*
X172440999Y-124708592D01*
X172445343Y-124756324D01*
X172440999Y-124797653D01*
X172440999Y-124844699D01*
X172431217Y-124890721D01*
X172426873Y-124932047D01*
X172412702Y-124977827D01*
X172401621Y-125029958D01*
X172385028Y-125067226D01*
X172374622Y-125100843D01*
X172348789Y-125148620D01*
X172324586Y-125202981D01*
X172304298Y-125230905D01*
X172290580Y-125256276D01*
X172251859Y-125303082D01*
X172213261Y-125356207D01*
X172192284Y-125375095D01*
X172177952Y-125392419D01*
X172125845Y-125434917D01*
X172072511Y-125482939D01*
X172053524Y-125493901D01*
X172041025Y-125504095D01*
X171975780Y-125538786D01*
X171908488Y-125577637D01*
X171893636Y-125582463D01*
X171885003Y-125587053D01*
X171807430Y-125610473D01*
X171728360Y-125636165D01*
X171719114Y-125637137D01*
X171715851Y-125638122D01*
X171624710Y-125647059D01*
X171587211Y-125651000D01*
X171492789Y-125651000D01*
X171351640Y-125636165D01*
X171270603Y-125609834D01*
X171183337Y-125582152D01*
X171180345Y-125580507D01*
X171171512Y-125577637D01*
X171099534Y-125536081D01*
X171028501Y-125497030D01*
X171021014Y-125490747D01*
X171007489Y-125482939D01*
X170949741Y-125430943D01*
X170893143Y-125383451D01*
X170883038Y-125370882D01*
X170866739Y-125356207D01*
X170824546Y-125298133D01*
X170782421Y-125245740D01*
X170772006Y-125225818D01*
X170755414Y-125202981D01*
X170728703Y-125142988D01*
X170700561Y-125089157D01*
X170692418Y-125061490D01*
X170678379Y-125029958D01*
X170666008Y-124971759D01*
X170650672Y-124919651D01*
X170647482Y-124884599D01*
X170639001Y-124844699D01*
X170639001Y-124791408D01*
X170634657Y-124743676D01*
X170639001Y-124702347D01*
X170639001Y-124655301D01*
X170648783Y-124609279D01*
X170653127Y-124567953D01*
X170667298Y-124522173D01*
X170678379Y-124470042D01*
X170694972Y-124432774D01*
X170705378Y-124399157D01*
X170731211Y-124351380D01*
X170755414Y-124297019D01*
X170775702Y-124269095D01*
X170789420Y-124243724D01*
X170828141Y-124196918D01*
X170866739Y-124143793D01*
X170887716Y-124124905D01*
X170902048Y-124107581D01*
X170954155Y-124065083D01*
X171007489Y-124017061D01*
X171026476Y-124006099D01*
X171038975Y-123995905D01*
X171104220Y-123961214D01*
X171171512Y-123922363D01*
X171186364Y-123917537D01*
X171194997Y-123912947D01*
X171272570Y-123889527D01*
X171351640Y-123863835D01*
X171360886Y-123862863D01*
X171364149Y-123861878D01*
X171455290Y-123852941D01*
X171492789Y-123849000D01*
X171587211Y-123849000D01*
X171728360Y-123863835D01*
X171728360Y-123863835D01*
G37*
G36*
X176808360Y-123863835D02*
G01*
X176889397Y-123890166D01*
X176976663Y-123917848D01*
X176979655Y-123919493D01*
X176988488Y-123922363D01*
X177060466Y-123963919D01*
X177131499Y-124002970D01*
X177138986Y-124009253D01*
X177152511Y-124017061D01*
X177210259Y-124069057D01*
X177266857Y-124116549D01*
X177276962Y-124129118D01*
X177293261Y-124143793D01*
X177335454Y-124201867D01*
X177377579Y-124254260D01*
X177387994Y-124274182D01*
X177404586Y-124297019D01*
X177431297Y-124357012D01*
X177459439Y-124410843D01*
X177467582Y-124438510D01*
X177481621Y-124470042D01*
X177493992Y-124528241D01*
X177509328Y-124580349D01*
X177512518Y-124615401D01*
X177520999Y-124655301D01*
X177520999Y-124708592D01*
X177525343Y-124756324D01*
X177520999Y-124797653D01*
X177520999Y-124844699D01*
X177511217Y-124890721D01*
X177506873Y-124932047D01*
X177492702Y-124977827D01*
X177481621Y-125029958D01*
X177465028Y-125067226D01*
X177454622Y-125100843D01*
X177428789Y-125148620D01*
X177404586Y-125202981D01*
X177384298Y-125230905D01*
X177370580Y-125256276D01*
X177331859Y-125303082D01*
X177293261Y-125356207D01*
X177272284Y-125375095D01*
X177257952Y-125392419D01*
X177205845Y-125434917D01*
X177152511Y-125482939D01*
X177133524Y-125493901D01*
X177121025Y-125504095D01*
X177055780Y-125538786D01*
X176988488Y-125577637D01*
X176973636Y-125582463D01*
X176965003Y-125587053D01*
X176887430Y-125610473D01*
X176808360Y-125636165D01*
X176799114Y-125637137D01*
X176795851Y-125638122D01*
X176704710Y-125647059D01*
X176667211Y-125651000D01*
X176572789Y-125651000D01*
X176431640Y-125636165D01*
X176350603Y-125609834D01*
X176263337Y-125582152D01*
X176260345Y-125580507D01*
X176251512Y-125577637D01*
X176179534Y-125536081D01*
X176108501Y-125497030D01*
X176101014Y-125490747D01*
X176087489Y-125482939D01*
X176029741Y-125430943D01*
X175973143Y-125383451D01*
X175963038Y-125370882D01*
X175946739Y-125356207D01*
X175904546Y-125298133D01*
X175862421Y-125245740D01*
X175852006Y-125225818D01*
X175835414Y-125202981D01*
X175808703Y-125142988D01*
X175780561Y-125089157D01*
X175772418Y-125061490D01*
X175758379Y-125029958D01*
X175746008Y-124971759D01*
X175730672Y-124919651D01*
X175727482Y-124884599D01*
X175719001Y-124844699D01*
X175719001Y-124791408D01*
X175714657Y-124743676D01*
X175719001Y-124702347D01*
X175719001Y-124655301D01*
X175728783Y-124609279D01*
X175733127Y-124567953D01*
X175747298Y-124522173D01*
X175758379Y-124470042D01*
X175774972Y-124432774D01*
X175785378Y-124399157D01*
X175811211Y-124351380D01*
X175835414Y-124297019D01*
X175855702Y-124269095D01*
X175869420Y-124243724D01*
X175908141Y-124196918D01*
X175946739Y-124143793D01*
X175967716Y-124124905D01*
X175982048Y-124107581D01*
X176034155Y-124065083D01*
X176087489Y-124017061D01*
X176106476Y-124006099D01*
X176118975Y-123995905D01*
X176184220Y-123961214D01*
X176251512Y-123922363D01*
X176266364Y-123917537D01*
X176274997Y-123912947D01*
X176352570Y-123889527D01*
X176431640Y-123863835D01*
X176440886Y-123862863D01*
X176444149Y-123861878D01*
X176535290Y-123852941D01*
X176572789Y-123849000D01*
X176667211Y-123849000D01*
X176808360Y-123863835D01*
X176808360Y-123863835D01*
G37*
G36*
X174268360Y-123863835D02*
G01*
X174349397Y-123890166D01*
X174436663Y-123917848D01*
X174439655Y-123919493D01*
X174448488Y-123922363D01*
X174520466Y-123963919D01*
X174591499Y-124002970D01*
X174598986Y-124009253D01*
X174612511Y-124017061D01*
X174670259Y-124069057D01*
X174726857Y-124116549D01*
X174736962Y-124129118D01*
X174753261Y-124143793D01*
X174795454Y-124201867D01*
X174837579Y-124254260D01*
X174847994Y-124274182D01*
X174864586Y-124297019D01*
X174891297Y-124357012D01*
X174919439Y-124410843D01*
X174927582Y-124438510D01*
X174941621Y-124470042D01*
X174953992Y-124528241D01*
X174969328Y-124580349D01*
X174972518Y-124615401D01*
X174980999Y-124655301D01*
X174980999Y-124708592D01*
X174985343Y-124756324D01*
X174980999Y-124797653D01*
X174980999Y-124844699D01*
X174971217Y-124890721D01*
X174966873Y-124932047D01*
X174952702Y-124977827D01*
X174941621Y-125029958D01*
X174925028Y-125067226D01*
X174914622Y-125100843D01*
X174888789Y-125148620D01*
X174864586Y-125202981D01*
X174844298Y-125230905D01*
X174830580Y-125256276D01*
X174791859Y-125303082D01*
X174753261Y-125356207D01*
X174732284Y-125375095D01*
X174717952Y-125392419D01*
X174665845Y-125434917D01*
X174612511Y-125482939D01*
X174593524Y-125493901D01*
X174581025Y-125504095D01*
X174515780Y-125538786D01*
X174448488Y-125577637D01*
X174433636Y-125582463D01*
X174425003Y-125587053D01*
X174347430Y-125610473D01*
X174268360Y-125636165D01*
X174259114Y-125637137D01*
X174255851Y-125638122D01*
X174164710Y-125647059D01*
X174127211Y-125651000D01*
X174032789Y-125651000D01*
X173891640Y-125636165D01*
X173810603Y-125609834D01*
X173723337Y-125582152D01*
X173720345Y-125580507D01*
X173711512Y-125577637D01*
X173639534Y-125536081D01*
X173568501Y-125497030D01*
X173561014Y-125490747D01*
X173547489Y-125482939D01*
X173489741Y-125430943D01*
X173433143Y-125383451D01*
X173423038Y-125370882D01*
X173406739Y-125356207D01*
X173364546Y-125298133D01*
X173322421Y-125245740D01*
X173312006Y-125225818D01*
X173295414Y-125202981D01*
X173268703Y-125142988D01*
X173240561Y-125089157D01*
X173232418Y-125061490D01*
X173218379Y-125029958D01*
X173206008Y-124971759D01*
X173190672Y-124919651D01*
X173187482Y-124884599D01*
X173179001Y-124844699D01*
X173179001Y-124791408D01*
X173174657Y-124743676D01*
X173179001Y-124702347D01*
X173179001Y-124655301D01*
X173188783Y-124609279D01*
X173193127Y-124567953D01*
X173207298Y-124522173D01*
X173218379Y-124470042D01*
X173234972Y-124432774D01*
X173245378Y-124399157D01*
X173271211Y-124351380D01*
X173295414Y-124297019D01*
X173315702Y-124269095D01*
X173329420Y-124243724D01*
X173368141Y-124196918D01*
X173406739Y-124143793D01*
X173427716Y-124124905D01*
X173442048Y-124107581D01*
X173494155Y-124065083D01*
X173547489Y-124017061D01*
X173566476Y-124006099D01*
X173578975Y-123995905D01*
X173644220Y-123961214D01*
X173711512Y-123922363D01*
X173726364Y-123917537D01*
X173734997Y-123912947D01*
X173812570Y-123889527D01*
X173891640Y-123863835D01*
X173900886Y-123862863D01*
X173904149Y-123861878D01*
X173995290Y-123852941D01*
X174032789Y-123849000D01*
X174127211Y-123849000D01*
X174268360Y-123863835D01*
X174268360Y-123863835D01*
G37*
G36*
X158631000Y-125551000D02*
G01*
X156829000Y-125551000D01*
X156829000Y-123749000D01*
X158631000Y-123749000D01*
X158631000Y-125551000D01*
X158631000Y-125551000D01*
G37*
G36*
X160458360Y-123763835D02*
G01*
X160539397Y-123790166D01*
X160626663Y-123817848D01*
X160629655Y-123819493D01*
X160638488Y-123822363D01*
X160710466Y-123863919D01*
X160781499Y-123902970D01*
X160788986Y-123909253D01*
X160802511Y-123917061D01*
X160860259Y-123969057D01*
X160916857Y-124016549D01*
X160926962Y-124029118D01*
X160943261Y-124043793D01*
X160985454Y-124101867D01*
X161027579Y-124154260D01*
X161037994Y-124174182D01*
X161054586Y-124197019D01*
X161081297Y-124257012D01*
X161109439Y-124310843D01*
X161117582Y-124338510D01*
X161131621Y-124370042D01*
X161143992Y-124428241D01*
X161159328Y-124480349D01*
X161162518Y-124515401D01*
X161170999Y-124555301D01*
X161170999Y-124608592D01*
X161175343Y-124656324D01*
X161170999Y-124697653D01*
X161170999Y-124744699D01*
X161161217Y-124790721D01*
X161156873Y-124832047D01*
X161142702Y-124877827D01*
X161131621Y-124929958D01*
X161115028Y-124967226D01*
X161104622Y-125000843D01*
X161078789Y-125048620D01*
X161054586Y-125102981D01*
X161034298Y-125130905D01*
X161020580Y-125156276D01*
X160981859Y-125203082D01*
X160943261Y-125256207D01*
X160922284Y-125275095D01*
X160907952Y-125292419D01*
X160855845Y-125334917D01*
X160802511Y-125382939D01*
X160783524Y-125393901D01*
X160771025Y-125404095D01*
X160705780Y-125438786D01*
X160638488Y-125477637D01*
X160623636Y-125482463D01*
X160615003Y-125487053D01*
X160537430Y-125510473D01*
X160458360Y-125536165D01*
X160449114Y-125537137D01*
X160445851Y-125538122D01*
X160354710Y-125547059D01*
X160317211Y-125551000D01*
X160222789Y-125551000D01*
X160081640Y-125536165D01*
X160000603Y-125509834D01*
X159913337Y-125482152D01*
X159910345Y-125480507D01*
X159901512Y-125477637D01*
X159829534Y-125436081D01*
X159758501Y-125397030D01*
X159751014Y-125390747D01*
X159737489Y-125382939D01*
X159679741Y-125330943D01*
X159623143Y-125283451D01*
X159613038Y-125270882D01*
X159596739Y-125256207D01*
X159554546Y-125198133D01*
X159512421Y-125145740D01*
X159502006Y-125125818D01*
X159485414Y-125102981D01*
X159458703Y-125042988D01*
X159430561Y-124989157D01*
X159422418Y-124961490D01*
X159408379Y-124929958D01*
X159396008Y-124871759D01*
X159380672Y-124819651D01*
X159377482Y-124784599D01*
X159369001Y-124744699D01*
X159369001Y-124691408D01*
X159364657Y-124643676D01*
X159369001Y-124602347D01*
X159369001Y-124555301D01*
X159378783Y-124509279D01*
X159383127Y-124467953D01*
X159397298Y-124422173D01*
X159408379Y-124370042D01*
X159424972Y-124332774D01*
X159435378Y-124299157D01*
X159461211Y-124251380D01*
X159485414Y-124197019D01*
X159505702Y-124169095D01*
X159519420Y-124143724D01*
X159558141Y-124096918D01*
X159596739Y-124043793D01*
X159617716Y-124024905D01*
X159632048Y-124007581D01*
X159684155Y-123965083D01*
X159737489Y-123917061D01*
X159756476Y-123906099D01*
X159768975Y-123895905D01*
X159834220Y-123861214D01*
X159901512Y-123822363D01*
X159916364Y-123817537D01*
X159924997Y-123812947D01*
X160002570Y-123789527D01*
X160081640Y-123763835D01*
X160090886Y-123762863D01*
X160094149Y-123761878D01*
X160185290Y-123752941D01*
X160222789Y-123749000D01*
X160317211Y-123749000D01*
X160458360Y-123763835D01*
X160458360Y-123763835D01*
G37*
G36*
X162998360Y-123763835D02*
G01*
X163079397Y-123790166D01*
X163166663Y-123817848D01*
X163169655Y-123819493D01*
X163178488Y-123822363D01*
X163250466Y-123863919D01*
X163321499Y-123902970D01*
X163328986Y-123909253D01*
X163342511Y-123917061D01*
X163400259Y-123969057D01*
X163456857Y-124016549D01*
X163466962Y-124029118D01*
X163483261Y-124043793D01*
X163525454Y-124101867D01*
X163567579Y-124154260D01*
X163577994Y-124174182D01*
X163594586Y-124197019D01*
X163621297Y-124257012D01*
X163649439Y-124310843D01*
X163657582Y-124338510D01*
X163671621Y-124370042D01*
X163683992Y-124428241D01*
X163699328Y-124480349D01*
X163702518Y-124515401D01*
X163710999Y-124555301D01*
X163710999Y-124608592D01*
X163715343Y-124656324D01*
X163710999Y-124697653D01*
X163710999Y-124744699D01*
X163701217Y-124790721D01*
X163696873Y-124832047D01*
X163682702Y-124877827D01*
X163671621Y-124929958D01*
X163655028Y-124967226D01*
X163644622Y-125000843D01*
X163618789Y-125048620D01*
X163594586Y-125102981D01*
X163574298Y-125130905D01*
X163560580Y-125156276D01*
X163521859Y-125203082D01*
X163483261Y-125256207D01*
X163462284Y-125275095D01*
X163447952Y-125292419D01*
X163395845Y-125334917D01*
X163342511Y-125382939D01*
X163323524Y-125393901D01*
X163311025Y-125404095D01*
X163245780Y-125438786D01*
X163178488Y-125477637D01*
X163163636Y-125482463D01*
X163155003Y-125487053D01*
X163077430Y-125510473D01*
X162998360Y-125536165D01*
X162989114Y-125537137D01*
X162985851Y-125538122D01*
X162894710Y-125547059D01*
X162857211Y-125551000D01*
X162762789Y-125551000D01*
X162621640Y-125536165D01*
X162540603Y-125509834D01*
X162453337Y-125482152D01*
X162450345Y-125480507D01*
X162441512Y-125477637D01*
X162369534Y-125436081D01*
X162298501Y-125397030D01*
X162291014Y-125390747D01*
X162277489Y-125382939D01*
X162219741Y-125330943D01*
X162163143Y-125283451D01*
X162153038Y-125270882D01*
X162136739Y-125256207D01*
X162094546Y-125198133D01*
X162052421Y-125145740D01*
X162042006Y-125125818D01*
X162025414Y-125102981D01*
X161998703Y-125042988D01*
X161970561Y-124989157D01*
X161962418Y-124961490D01*
X161948379Y-124929958D01*
X161936008Y-124871759D01*
X161920672Y-124819651D01*
X161917482Y-124784599D01*
X161909001Y-124744699D01*
X161909001Y-124691408D01*
X161904657Y-124643676D01*
X161909001Y-124602347D01*
X161909001Y-124555301D01*
X161918783Y-124509279D01*
X161923127Y-124467953D01*
X161937298Y-124422173D01*
X161948379Y-124370042D01*
X161964972Y-124332774D01*
X161975378Y-124299157D01*
X162001211Y-124251380D01*
X162025414Y-124197019D01*
X162045702Y-124169095D01*
X162059420Y-124143724D01*
X162098141Y-124096918D01*
X162136739Y-124043793D01*
X162157716Y-124024905D01*
X162172048Y-124007581D01*
X162224155Y-123965083D01*
X162277489Y-123917061D01*
X162296476Y-123906099D01*
X162308975Y-123895905D01*
X162374220Y-123861214D01*
X162441512Y-123822363D01*
X162456364Y-123817537D01*
X162464997Y-123812947D01*
X162542570Y-123789527D01*
X162621640Y-123763835D01*
X162630886Y-123762863D01*
X162634149Y-123761878D01*
X162725290Y-123752941D01*
X162762789Y-123749000D01*
X162857211Y-123749000D01*
X162998360Y-123763835D01*
X162998360Y-123763835D01*
G37*
G36*
X165538360Y-123763835D02*
G01*
X165619397Y-123790166D01*
X165706663Y-123817848D01*
X165709655Y-123819493D01*
X165718488Y-123822363D01*
X165790466Y-123863919D01*
X165861499Y-123902970D01*
X165868986Y-123909253D01*
X165882511Y-123917061D01*
X165940259Y-123969057D01*
X165996857Y-124016549D01*
X166006962Y-124029118D01*
X166023261Y-124043793D01*
X166065454Y-124101867D01*
X166107579Y-124154260D01*
X166117994Y-124174182D01*
X166134586Y-124197019D01*
X166161297Y-124257012D01*
X166189439Y-124310843D01*
X166197582Y-124338510D01*
X166211621Y-124370042D01*
X166223992Y-124428241D01*
X166239328Y-124480349D01*
X166242518Y-124515401D01*
X166250999Y-124555301D01*
X166250999Y-124608592D01*
X166255343Y-124656324D01*
X166250999Y-124697653D01*
X166250999Y-124744699D01*
X166241217Y-124790721D01*
X166236873Y-124832047D01*
X166222702Y-124877827D01*
X166211621Y-124929958D01*
X166195028Y-124967226D01*
X166184622Y-125000843D01*
X166158789Y-125048620D01*
X166134586Y-125102981D01*
X166114298Y-125130905D01*
X166100580Y-125156276D01*
X166061859Y-125203082D01*
X166023261Y-125256207D01*
X166002284Y-125275095D01*
X165987952Y-125292419D01*
X165935845Y-125334917D01*
X165882511Y-125382939D01*
X165863524Y-125393901D01*
X165851025Y-125404095D01*
X165785780Y-125438786D01*
X165718488Y-125477637D01*
X165703636Y-125482463D01*
X165695003Y-125487053D01*
X165617430Y-125510473D01*
X165538360Y-125536165D01*
X165529114Y-125537137D01*
X165525851Y-125538122D01*
X165434710Y-125547059D01*
X165397211Y-125551000D01*
X165302789Y-125551000D01*
X165161640Y-125536165D01*
X165080603Y-125509834D01*
X164993337Y-125482152D01*
X164990345Y-125480507D01*
X164981512Y-125477637D01*
X164909534Y-125436081D01*
X164838501Y-125397030D01*
X164831014Y-125390747D01*
X164817489Y-125382939D01*
X164759741Y-125330943D01*
X164703143Y-125283451D01*
X164693038Y-125270882D01*
X164676739Y-125256207D01*
X164634546Y-125198133D01*
X164592421Y-125145740D01*
X164582006Y-125125818D01*
X164565414Y-125102981D01*
X164538703Y-125042988D01*
X164510561Y-124989157D01*
X164502418Y-124961490D01*
X164488379Y-124929958D01*
X164476008Y-124871759D01*
X164460672Y-124819651D01*
X164457482Y-124784599D01*
X164449001Y-124744699D01*
X164449001Y-124691408D01*
X164444657Y-124643676D01*
X164449001Y-124602347D01*
X164449001Y-124555301D01*
X164458783Y-124509279D01*
X164463127Y-124467953D01*
X164477298Y-124422173D01*
X164488379Y-124370042D01*
X164504972Y-124332774D01*
X164515378Y-124299157D01*
X164541211Y-124251380D01*
X164565414Y-124197019D01*
X164585702Y-124169095D01*
X164599420Y-124143724D01*
X164638141Y-124096918D01*
X164676739Y-124043793D01*
X164697716Y-124024905D01*
X164712048Y-124007581D01*
X164764155Y-123965083D01*
X164817489Y-123917061D01*
X164836476Y-123906099D01*
X164848975Y-123895905D01*
X164914220Y-123861214D01*
X164981512Y-123822363D01*
X164996364Y-123817537D01*
X165004997Y-123812947D01*
X165082570Y-123789527D01*
X165161640Y-123763835D01*
X165170886Y-123762863D01*
X165174149Y-123761878D01*
X165265290Y-123752941D01*
X165302789Y-123749000D01*
X165397211Y-123749000D01*
X165538360Y-123763835D01*
X165538360Y-123763835D01*
G37*
G36*
X136297645Y-122474001D02*
G01*
X136344699Y-122474001D01*
X136390723Y-122483784D01*
X136432047Y-122488127D01*
X136477827Y-122502298D01*
X136529958Y-122513379D01*
X136567226Y-122529972D01*
X136600843Y-122540378D01*
X136648620Y-122566211D01*
X136702981Y-122590414D01*
X136730905Y-122610702D01*
X136756276Y-122624420D01*
X136803082Y-122663141D01*
X136856207Y-122701739D01*
X136875095Y-122722716D01*
X136892419Y-122737048D01*
X136934915Y-122789153D01*
X136982939Y-122842489D01*
X136993903Y-122861479D01*
X137004096Y-122873977D01*
X137038786Y-122939219D01*
X137077637Y-123006512D01*
X137082463Y-123021364D01*
X137087052Y-123029995D01*
X137110471Y-123107562D01*
X137136165Y-123186641D01*
X137137137Y-123195887D01*
X137138122Y-123199150D01*
X137147059Y-123290291D01*
X137151000Y-123327790D01*
X137151000Y-123672211D01*
X137136165Y-123813360D01*
X137109834Y-123894397D01*
X137082152Y-123981663D01*
X137080507Y-123984655D01*
X137077637Y-123993488D01*
X137036081Y-124065466D01*
X136997030Y-124136499D01*
X136990747Y-124143986D01*
X136982939Y-124157511D01*
X136930943Y-124215259D01*
X136883451Y-124271857D01*
X136870882Y-124281962D01*
X136856207Y-124298261D01*
X136798133Y-124340454D01*
X136745742Y-124382577D01*
X136725819Y-124392992D01*
X136702980Y-124409586D01*
X136642985Y-124436298D01*
X136589154Y-124464440D01*
X136561487Y-124472583D01*
X136529957Y-124486621D01*
X136471760Y-124498991D01*
X136419650Y-124514328D01*
X136384600Y-124517518D01*
X136344698Y-124525999D01*
X136291400Y-124525999D01*
X136243676Y-124530342D01*
X136202355Y-124525999D01*
X136155301Y-124525999D01*
X136109277Y-124516216D01*
X136067953Y-124511873D01*
X136022173Y-124497702D01*
X135970042Y-124486621D01*
X135932774Y-124470028D01*
X135899157Y-124459622D01*
X135851380Y-124433789D01*
X135797019Y-124409586D01*
X135769095Y-124389298D01*
X135743724Y-124375580D01*
X135696918Y-124336859D01*
X135643793Y-124298261D01*
X135624905Y-124277284D01*
X135607581Y-124262952D01*
X135565085Y-124210847D01*
X135517061Y-124157511D01*
X135506098Y-124138521D01*
X135495904Y-124126023D01*
X135461210Y-124060773D01*
X135422363Y-123993487D01*
X135417538Y-123978638D01*
X135412948Y-123970005D01*
X135389528Y-123892432D01*
X135363835Y-123813359D01*
X135362863Y-123804113D01*
X135361878Y-123800850D01*
X135352941Y-123709709D01*
X135349000Y-123672210D01*
X135349000Y-123327789D01*
X135363835Y-123186640D01*
X135390166Y-123105603D01*
X135417848Y-123018337D01*
X135419493Y-123015345D01*
X135422363Y-123006512D01*
X135463925Y-122934524D01*
X135502970Y-122863502D01*
X135509251Y-122856017D01*
X135517061Y-122842489D01*
X135569071Y-122784726D01*
X135616550Y-122728143D01*
X135629115Y-122718040D01*
X135643793Y-122701739D01*
X135701874Y-122659541D01*
X135754261Y-122617421D01*
X135774183Y-122607006D01*
X135797020Y-122590414D01*
X135857013Y-122563703D01*
X135910844Y-122535561D01*
X135938511Y-122527418D01*
X135970043Y-122513379D01*
X136028242Y-122501008D01*
X136080350Y-122485672D01*
X136115400Y-122482482D01*
X136155302Y-122474001D01*
X136208600Y-122474001D01*
X136256324Y-122469658D01*
X136297645Y-122474001D01*
X136297645Y-122474001D01*
G37*
G36*
X147297645Y-122474001D02*
G01*
X147344699Y-122474001D01*
X147390723Y-122483784D01*
X147432047Y-122488127D01*
X147477827Y-122502298D01*
X147529958Y-122513379D01*
X147567226Y-122529972D01*
X147600843Y-122540378D01*
X147648620Y-122566211D01*
X147702981Y-122590414D01*
X147730905Y-122610702D01*
X147756276Y-122624420D01*
X147803082Y-122663141D01*
X147856207Y-122701739D01*
X147875095Y-122722716D01*
X147892419Y-122737048D01*
X147934915Y-122789153D01*
X147982939Y-122842489D01*
X147993903Y-122861479D01*
X148004096Y-122873977D01*
X148038786Y-122939219D01*
X148077637Y-123006512D01*
X148082463Y-123021364D01*
X148087052Y-123029995D01*
X148110471Y-123107562D01*
X148136165Y-123186641D01*
X148137137Y-123195887D01*
X148138122Y-123199150D01*
X148147059Y-123290291D01*
X148151000Y-123327790D01*
X148151000Y-123672211D01*
X148136165Y-123813360D01*
X148109834Y-123894397D01*
X148082152Y-123981663D01*
X148080507Y-123984655D01*
X148077637Y-123993488D01*
X148036081Y-124065466D01*
X147997030Y-124136499D01*
X147990747Y-124143986D01*
X147982939Y-124157511D01*
X147930943Y-124215259D01*
X147883451Y-124271857D01*
X147870882Y-124281962D01*
X147856207Y-124298261D01*
X147798133Y-124340454D01*
X147745742Y-124382577D01*
X147725819Y-124392992D01*
X147702980Y-124409586D01*
X147642985Y-124436298D01*
X147589154Y-124464440D01*
X147561487Y-124472583D01*
X147529957Y-124486621D01*
X147471760Y-124498991D01*
X147419650Y-124514328D01*
X147384600Y-124517518D01*
X147344698Y-124525999D01*
X147291400Y-124525999D01*
X147243676Y-124530342D01*
X147202355Y-124525999D01*
X147155301Y-124525999D01*
X147109277Y-124516216D01*
X147067953Y-124511873D01*
X147022173Y-124497702D01*
X146970042Y-124486621D01*
X146932774Y-124470028D01*
X146899157Y-124459622D01*
X146851380Y-124433789D01*
X146797019Y-124409586D01*
X146769095Y-124389298D01*
X146743724Y-124375580D01*
X146696918Y-124336859D01*
X146643793Y-124298261D01*
X146624905Y-124277284D01*
X146607581Y-124262952D01*
X146565085Y-124210847D01*
X146517061Y-124157511D01*
X146506098Y-124138521D01*
X146495904Y-124126023D01*
X146461210Y-124060773D01*
X146422363Y-123993487D01*
X146417538Y-123978638D01*
X146412948Y-123970005D01*
X146389528Y-123892432D01*
X146363835Y-123813359D01*
X146362863Y-123804113D01*
X146361878Y-123800850D01*
X146352941Y-123709709D01*
X146349000Y-123672210D01*
X146349000Y-123327789D01*
X146363835Y-123186640D01*
X146390166Y-123105603D01*
X146417848Y-123018337D01*
X146419493Y-123015345D01*
X146422363Y-123006512D01*
X146463925Y-122934524D01*
X146502970Y-122863502D01*
X146509251Y-122856017D01*
X146517061Y-122842489D01*
X146569071Y-122784726D01*
X146616550Y-122728143D01*
X146629115Y-122718040D01*
X146643793Y-122701739D01*
X146701874Y-122659541D01*
X146754261Y-122617421D01*
X146774183Y-122607006D01*
X146797020Y-122590414D01*
X146857013Y-122563703D01*
X146910844Y-122535561D01*
X146938511Y-122527418D01*
X146970043Y-122513379D01*
X147028242Y-122501008D01*
X147080350Y-122485672D01*
X147115400Y-122482482D01*
X147155302Y-122474001D01*
X147208600Y-122474001D01*
X147256324Y-122469658D01*
X147297645Y-122474001D01*
X147297645Y-122474001D01*
G37*
G36*
X149797645Y-122474001D02*
G01*
X149844699Y-122474001D01*
X149890723Y-122483784D01*
X149932047Y-122488127D01*
X149977827Y-122502298D01*
X150029958Y-122513379D01*
X150067226Y-122529972D01*
X150100843Y-122540378D01*
X150148620Y-122566211D01*
X150202981Y-122590414D01*
X150230905Y-122610702D01*
X150256276Y-122624420D01*
X150303082Y-122663141D01*
X150356207Y-122701739D01*
X150375095Y-122722716D01*
X150392419Y-122737048D01*
X150434915Y-122789153D01*
X150482939Y-122842489D01*
X150493903Y-122861479D01*
X150504096Y-122873977D01*
X150538786Y-122939219D01*
X150577637Y-123006512D01*
X150582463Y-123021364D01*
X150587052Y-123029995D01*
X150610471Y-123107562D01*
X150636165Y-123186641D01*
X150637137Y-123195887D01*
X150638122Y-123199150D01*
X150647059Y-123290291D01*
X150651000Y-123327790D01*
X150651000Y-123672211D01*
X150636165Y-123813360D01*
X150609834Y-123894397D01*
X150582152Y-123981663D01*
X150580507Y-123984655D01*
X150577637Y-123993488D01*
X150536081Y-124065466D01*
X150497030Y-124136499D01*
X150490747Y-124143986D01*
X150482939Y-124157511D01*
X150430943Y-124215259D01*
X150383451Y-124271857D01*
X150370882Y-124281962D01*
X150356207Y-124298261D01*
X150298133Y-124340454D01*
X150245742Y-124382577D01*
X150225819Y-124392992D01*
X150202980Y-124409586D01*
X150142985Y-124436298D01*
X150089154Y-124464440D01*
X150061487Y-124472583D01*
X150029957Y-124486621D01*
X149971760Y-124498991D01*
X149919650Y-124514328D01*
X149884600Y-124517518D01*
X149844698Y-124525999D01*
X149791400Y-124525999D01*
X149743676Y-124530342D01*
X149702355Y-124525999D01*
X149655301Y-124525999D01*
X149609277Y-124516216D01*
X149567953Y-124511873D01*
X149522173Y-124497702D01*
X149470042Y-124486621D01*
X149432774Y-124470028D01*
X149399157Y-124459622D01*
X149351380Y-124433789D01*
X149297019Y-124409586D01*
X149269095Y-124389298D01*
X149243724Y-124375580D01*
X149196918Y-124336859D01*
X149143793Y-124298261D01*
X149124905Y-124277284D01*
X149107581Y-124262952D01*
X149065085Y-124210847D01*
X149017061Y-124157511D01*
X149006098Y-124138521D01*
X148995904Y-124126023D01*
X148961210Y-124060773D01*
X148922363Y-123993487D01*
X148917538Y-123978638D01*
X148912948Y-123970005D01*
X148889528Y-123892432D01*
X148863835Y-123813359D01*
X148862863Y-123804113D01*
X148861878Y-123800850D01*
X148852941Y-123709709D01*
X148849000Y-123672210D01*
X148849000Y-123327789D01*
X148863835Y-123186640D01*
X148890166Y-123105603D01*
X148917848Y-123018337D01*
X148919493Y-123015345D01*
X148922363Y-123006512D01*
X148963925Y-122934524D01*
X149002970Y-122863502D01*
X149009251Y-122856017D01*
X149017061Y-122842489D01*
X149069071Y-122784726D01*
X149116550Y-122728143D01*
X149129115Y-122718040D01*
X149143793Y-122701739D01*
X149201874Y-122659541D01*
X149254261Y-122617421D01*
X149274183Y-122607006D01*
X149297020Y-122590414D01*
X149357013Y-122563703D01*
X149410844Y-122535561D01*
X149438511Y-122527418D01*
X149470043Y-122513379D01*
X149528242Y-122501008D01*
X149580350Y-122485672D01*
X149615400Y-122482482D01*
X149655302Y-122474001D01*
X149708600Y-122474001D01*
X149756324Y-122469658D01*
X149797645Y-122474001D01*
X149797645Y-122474001D01*
G37*
G36*
X138797645Y-122474001D02*
G01*
X138844699Y-122474001D01*
X138890723Y-122483784D01*
X138932047Y-122488127D01*
X138977827Y-122502298D01*
X139029958Y-122513379D01*
X139067226Y-122529972D01*
X139100843Y-122540378D01*
X139148620Y-122566211D01*
X139202981Y-122590414D01*
X139230905Y-122610702D01*
X139256276Y-122624420D01*
X139303082Y-122663141D01*
X139356207Y-122701739D01*
X139375095Y-122722716D01*
X139392419Y-122737048D01*
X139434915Y-122789153D01*
X139482939Y-122842489D01*
X139493903Y-122861479D01*
X139504096Y-122873977D01*
X139538786Y-122939219D01*
X139577637Y-123006512D01*
X139582463Y-123021364D01*
X139587052Y-123029995D01*
X139610471Y-123107562D01*
X139636165Y-123186641D01*
X139637137Y-123195887D01*
X139638122Y-123199150D01*
X139647059Y-123290291D01*
X139651000Y-123327790D01*
X139651000Y-123672211D01*
X139636165Y-123813360D01*
X139609834Y-123894397D01*
X139582152Y-123981663D01*
X139580507Y-123984655D01*
X139577637Y-123993488D01*
X139536081Y-124065466D01*
X139497030Y-124136499D01*
X139490747Y-124143986D01*
X139482939Y-124157511D01*
X139430943Y-124215259D01*
X139383451Y-124271857D01*
X139370882Y-124281962D01*
X139356207Y-124298261D01*
X139298133Y-124340454D01*
X139245742Y-124382577D01*
X139225819Y-124392992D01*
X139202980Y-124409586D01*
X139142985Y-124436298D01*
X139089154Y-124464440D01*
X139061487Y-124472583D01*
X139029957Y-124486621D01*
X138971760Y-124498991D01*
X138919650Y-124514328D01*
X138884600Y-124517518D01*
X138844698Y-124525999D01*
X138791400Y-124525999D01*
X138743676Y-124530342D01*
X138702355Y-124525999D01*
X138655301Y-124525999D01*
X138609277Y-124516216D01*
X138567953Y-124511873D01*
X138522173Y-124497702D01*
X138470042Y-124486621D01*
X138432774Y-124470028D01*
X138399157Y-124459622D01*
X138351380Y-124433789D01*
X138297019Y-124409586D01*
X138269095Y-124389298D01*
X138243724Y-124375580D01*
X138196918Y-124336859D01*
X138143793Y-124298261D01*
X138124905Y-124277284D01*
X138107581Y-124262952D01*
X138065085Y-124210847D01*
X138017061Y-124157511D01*
X138006098Y-124138521D01*
X137995904Y-124126023D01*
X137961210Y-124060773D01*
X137922363Y-123993487D01*
X137917538Y-123978638D01*
X137912948Y-123970005D01*
X137889528Y-123892432D01*
X137863835Y-123813359D01*
X137862863Y-123804113D01*
X137861878Y-123800850D01*
X137852941Y-123709709D01*
X137849000Y-123672210D01*
X137849000Y-123327789D01*
X137863835Y-123186640D01*
X137890166Y-123105603D01*
X137917848Y-123018337D01*
X137919493Y-123015345D01*
X137922363Y-123006512D01*
X137963925Y-122934524D01*
X138002970Y-122863502D01*
X138009251Y-122856017D01*
X138017061Y-122842489D01*
X138069071Y-122784726D01*
X138116550Y-122728143D01*
X138129115Y-122718040D01*
X138143793Y-122701739D01*
X138201874Y-122659541D01*
X138254261Y-122617421D01*
X138274183Y-122607006D01*
X138297020Y-122590414D01*
X138357013Y-122563703D01*
X138410844Y-122535561D01*
X138438511Y-122527418D01*
X138470043Y-122513379D01*
X138528242Y-122501008D01*
X138580350Y-122485672D01*
X138615400Y-122482482D01*
X138655302Y-122474001D01*
X138708600Y-122474001D01*
X138756324Y-122469658D01*
X138797645Y-122474001D01*
X138797645Y-122474001D01*
G37*
G36*
X127797645Y-122474001D02*
G01*
X127844699Y-122474001D01*
X127890723Y-122483784D01*
X127932047Y-122488127D01*
X127977827Y-122502298D01*
X128029958Y-122513379D01*
X128067226Y-122529972D01*
X128100843Y-122540378D01*
X128148620Y-122566211D01*
X128202981Y-122590414D01*
X128230905Y-122610702D01*
X128256276Y-122624420D01*
X128303082Y-122663141D01*
X128356207Y-122701739D01*
X128375095Y-122722716D01*
X128392419Y-122737048D01*
X128434915Y-122789153D01*
X128482939Y-122842489D01*
X128493903Y-122861479D01*
X128504096Y-122873977D01*
X128538786Y-122939219D01*
X128577637Y-123006512D01*
X128582463Y-123021364D01*
X128587052Y-123029995D01*
X128610471Y-123107562D01*
X128636165Y-123186641D01*
X128637137Y-123195887D01*
X128638122Y-123199150D01*
X128647059Y-123290291D01*
X128651000Y-123327790D01*
X128651000Y-123672211D01*
X128636165Y-123813360D01*
X128609834Y-123894397D01*
X128582152Y-123981663D01*
X128580507Y-123984655D01*
X128577637Y-123993488D01*
X128536081Y-124065466D01*
X128497030Y-124136499D01*
X128490747Y-124143986D01*
X128482939Y-124157511D01*
X128430943Y-124215259D01*
X128383451Y-124271857D01*
X128370882Y-124281962D01*
X128356207Y-124298261D01*
X128298133Y-124340454D01*
X128245742Y-124382577D01*
X128225819Y-124392992D01*
X128202980Y-124409586D01*
X128142985Y-124436298D01*
X128089154Y-124464440D01*
X128061487Y-124472583D01*
X128029957Y-124486621D01*
X127971760Y-124498991D01*
X127919650Y-124514328D01*
X127884600Y-124517518D01*
X127844698Y-124525999D01*
X127791400Y-124525999D01*
X127743676Y-124530342D01*
X127702355Y-124525999D01*
X127655301Y-124525999D01*
X127609277Y-124516216D01*
X127567953Y-124511873D01*
X127522173Y-124497702D01*
X127470042Y-124486621D01*
X127432774Y-124470028D01*
X127399157Y-124459622D01*
X127351380Y-124433789D01*
X127297019Y-124409586D01*
X127269095Y-124389298D01*
X127243724Y-124375580D01*
X127196918Y-124336859D01*
X127143793Y-124298261D01*
X127124905Y-124277284D01*
X127107581Y-124262952D01*
X127065085Y-124210847D01*
X127017061Y-124157511D01*
X127006098Y-124138521D01*
X126995904Y-124126023D01*
X126961210Y-124060773D01*
X126922363Y-123993487D01*
X126917538Y-123978638D01*
X126912948Y-123970005D01*
X126889528Y-123892432D01*
X126863835Y-123813359D01*
X126862863Y-123804113D01*
X126861878Y-123800850D01*
X126852941Y-123709709D01*
X126849000Y-123672210D01*
X126849000Y-123327789D01*
X126863835Y-123186640D01*
X126890166Y-123105603D01*
X126917848Y-123018337D01*
X126919493Y-123015345D01*
X126922363Y-123006512D01*
X126963925Y-122934524D01*
X127002970Y-122863502D01*
X127009251Y-122856017D01*
X127017061Y-122842489D01*
X127069071Y-122784726D01*
X127116550Y-122728143D01*
X127129115Y-122718040D01*
X127143793Y-122701739D01*
X127201874Y-122659541D01*
X127254261Y-122617421D01*
X127274183Y-122607006D01*
X127297020Y-122590414D01*
X127357013Y-122563703D01*
X127410844Y-122535561D01*
X127438511Y-122527418D01*
X127470043Y-122513379D01*
X127528242Y-122501008D01*
X127580350Y-122485672D01*
X127615400Y-122482482D01*
X127655302Y-122474001D01*
X127708600Y-122474001D01*
X127756324Y-122469658D01*
X127797645Y-122474001D01*
X127797645Y-122474001D01*
G37*
G36*
X125297645Y-122474001D02*
G01*
X125344699Y-122474001D01*
X125390723Y-122483784D01*
X125432047Y-122488127D01*
X125477827Y-122502298D01*
X125529958Y-122513379D01*
X125567226Y-122529972D01*
X125600843Y-122540378D01*
X125648620Y-122566211D01*
X125702981Y-122590414D01*
X125730905Y-122610702D01*
X125756276Y-122624420D01*
X125803082Y-122663141D01*
X125856207Y-122701739D01*
X125875095Y-122722716D01*
X125892419Y-122737048D01*
X125934915Y-122789153D01*
X125982939Y-122842489D01*
X125993903Y-122861479D01*
X126004096Y-122873977D01*
X126038786Y-122939219D01*
X126077637Y-123006512D01*
X126082463Y-123021364D01*
X126087052Y-123029995D01*
X126110471Y-123107562D01*
X126136165Y-123186641D01*
X126137137Y-123195887D01*
X126138122Y-123199150D01*
X126147059Y-123290291D01*
X126151000Y-123327790D01*
X126151000Y-123672211D01*
X126136165Y-123813360D01*
X126109834Y-123894397D01*
X126082152Y-123981663D01*
X126080507Y-123984655D01*
X126077637Y-123993488D01*
X126036081Y-124065466D01*
X125997030Y-124136499D01*
X125990747Y-124143986D01*
X125982939Y-124157511D01*
X125930943Y-124215259D01*
X125883451Y-124271857D01*
X125870882Y-124281962D01*
X125856207Y-124298261D01*
X125798133Y-124340454D01*
X125745742Y-124382577D01*
X125725819Y-124392992D01*
X125702980Y-124409586D01*
X125642985Y-124436298D01*
X125589154Y-124464440D01*
X125561487Y-124472583D01*
X125529957Y-124486621D01*
X125471760Y-124498991D01*
X125419650Y-124514328D01*
X125384600Y-124517518D01*
X125344698Y-124525999D01*
X125291400Y-124525999D01*
X125243676Y-124530342D01*
X125202355Y-124525999D01*
X125155301Y-124525999D01*
X125109277Y-124516216D01*
X125067953Y-124511873D01*
X125022173Y-124497702D01*
X124970042Y-124486621D01*
X124932774Y-124470028D01*
X124899157Y-124459622D01*
X124851380Y-124433789D01*
X124797019Y-124409586D01*
X124769095Y-124389298D01*
X124743724Y-124375580D01*
X124696918Y-124336859D01*
X124643793Y-124298261D01*
X124624905Y-124277284D01*
X124607581Y-124262952D01*
X124565085Y-124210847D01*
X124517061Y-124157511D01*
X124506098Y-124138521D01*
X124495904Y-124126023D01*
X124461210Y-124060773D01*
X124422363Y-123993487D01*
X124417538Y-123978638D01*
X124412948Y-123970005D01*
X124389528Y-123892432D01*
X124363835Y-123813359D01*
X124362863Y-123804113D01*
X124361878Y-123800850D01*
X124352941Y-123709709D01*
X124349000Y-123672210D01*
X124349000Y-123327789D01*
X124363835Y-123186640D01*
X124390166Y-123105603D01*
X124417848Y-123018337D01*
X124419493Y-123015345D01*
X124422363Y-123006512D01*
X124463925Y-122934524D01*
X124502970Y-122863502D01*
X124509251Y-122856017D01*
X124517061Y-122842489D01*
X124569071Y-122784726D01*
X124616550Y-122728143D01*
X124629115Y-122718040D01*
X124643793Y-122701739D01*
X124701874Y-122659541D01*
X124754261Y-122617421D01*
X124774183Y-122607006D01*
X124797020Y-122590414D01*
X124857013Y-122563703D01*
X124910844Y-122535561D01*
X124938511Y-122527418D01*
X124970043Y-122513379D01*
X125028242Y-122501008D01*
X125080350Y-122485672D01*
X125115400Y-122482482D01*
X125155302Y-122474001D01*
X125208600Y-122474001D01*
X125256324Y-122469658D01*
X125297645Y-122474001D01*
X125297645Y-122474001D01*
G37*
G36*
X116797645Y-122474001D02*
G01*
X116844699Y-122474001D01*
X116890723Y-122483784D01*
X116932047Y-122488127D01*
X116977827Y-122502298D01*
X117029958Y-122513379D01*
X117067226Y-122529972D01*
X117100843Y-122540378D01*
X117148620Y-122566211D01*
X117202981Y-122590414D01*
X117230905Y-122610702D01*
X117256276Y-122624420D01*
X117303082Y-122663141D01*
X117356207Y-122701739D01*
X117375095Y-122722716D01*
X117392419Y-122737048D01*
X117434915Y-122789153D01*
X117482939Y-122842489D01*
X117493903Y-122861479D01*
X117504096Y-122873977D01*
X117538786Y-122939219D01*
X117577637Y-123006512D01*
X117582463Y-123021364D01*
X117587052Y-123029995D01*
X117610471Y-123107562D01*
X117636165Y-123186641D01*
X117637137Y-123195887D01*
X117638122Y-123199150D01*
X117647059Y-123290291D01*
X117651000Y-123327790D01*
X117651000Y-123672211D01*
X117636165Y-123813360D01*
X117609834Y-123894397D01*
X117582152Y-123981663D01*
X117580507Y-123984655D01*
X117577637Y-123993488D01*
X117536081Y-124065466D01*
X117497030Y-124136499D01*
X117490747Y-124143986D01*
X117482939Y-124157511D01*
X117430943Y-124215259D01*
X117383451Y-124271857D01*
X117370882Y-124281962D01*
X117356207Y-124298261D01*
X117298133Y-124340454D01*
X117245742Y-124382577D01*
X117225819Y-124392992D01*
X117202980Y-124409586D01*
X117142985Y-124436298D01*
X117089154Y-124464440D01*
X117061487Y-124472583D01*
X117029957Y-124486621D01*
X116971760Y-124498991D01*
X116919650Y-124514328D01*
X116884600Y-124517518D01*
X116844698Y-124525999D01*
X116791400Y-124525999D01*
X116743676Y-124530342D01*
X116702355Y-124525999D01*
X116655301Y-124525999D01*
X116609277Y-124516216D01*
X116567953Y-124511873D01*
X116522173Y-124497702D01*
X116470042Y-124486621D01*
X116432774Y-124470028D01*
X116399157Y-124459622D01*
X116351380Y-124433789D01*
X116297019Y-124409586D01*
X116269095Y-124389298D01*
X116243724Y-124375580D01*
X116196918Y-124336859D01*
X116143793Y-124298261D01*
X116124905Y-124277284D01*
X116107581Y-124262952D01*
X116065085Y-124210847D01*
X116017061Y-124157511D01*
X116006098Y-124138521D01*
X115995904Y-124126023D01*
X115961210Y-124060773D01*
X115922363Y-123993487D01*
X115917538Y-123978638D01*
X115912948Y-123970005D01*
X115889528Y-123892432D01*
X115863835Y-123813359D01*
X115862863Y-123804113D01*
X115861878Y-123800850D01*
X115852941Y-123709709D01*
X115849000Y-123672210D01*
X115849000Y-123327789D01*
X115863835Y-123186640D01*
X115890166Y-123105603D01*
X115917848Y-123018337D01*
X115919493Y-123015345D01*
X115922363Y-123006512D01*
X115963925Y-122934524D01*
X116002970Y-122863502D01*
X116009251Y-122856017D01*
X116017061Y-122842489D01*
X116069071Y-122784726D01*
X116116550Y-122728143D01*
X116129115Y-122718040D01*
X116143793Y-122701739D01*
X116201874Y-122659541D01*
X116254261Y-122617421D01*
X116274183Y-122607006D01*
X116297020Y-122590414D01*
X116357013Y-122563703D01*
X116410844Y-122535561D01*
X116438511Y-122527418D01*
X116470043Y-122513379D01*
X116528242Y-122501008D01*
X116580350Y-122485672D01*
X116615400Y-122482482D01*
X116655302Y-122474001D01*
X116708600Y-122474001D01*
X116756324Y-122469658D01*
X116797645Y-122474001D01*
X116797645Y-122474001D01*
G37*
G36*
X114297645Y-122474001D02*
G01*
X114344699Y-122474001D01*
X114390723Y-122483784D01*
X114432047Y-122488127D01*
X114477827Y-122502298D01*
X114529958Y-122513379D01*
X114567226Y-122529972D01*
X114600843Y-122540378D01*
X114648620Y-122566211D01*
X114702981Y-122590414D01*
X114730905Y-122610702D01*
X114756276Y-122624420D01*
X114803082Y-122663141D01*
X114856207Y-122701739D01*
X114875095Y-122722716D01*
X114892419Y-122737048D01*
X114934915Y-122789153D01*
X114982939Y-122842489D01*
X114993903Y-122861479D01*
X115004096Y-122873977D01*
X115038786Y-122939219D01*
X115077637Y-123006512D01*
X115082463Y-123021364D01*
X115087052Y-123029995D01*
X115110471Y-123107562D01*
X115136165Y-123186641D01*
X115137137Y-123195887D01*
X115138122Y-123199150D01*
X115147059Y-123290291D01*
X115151000Y-123327790D01*
X115151000Y-123672211D01*
X115136165Y-123813360D01*
X115109834Y-123894397D01*
X115082152Y-123981663D01*
X115080507Y-123984655D01*
X115077637Y-123993488D01*
X115036081Y-124065466D01*
X114997030Y-124136499D01*
X114990747Y-124143986D01*
X114982939Y-124157511D01*
X114930943Y-124215259D01*
X114883451Y-124271857D01*
X114870882Y-124281962D01*
X114856207Y-124298261D01*
X114798133Y-124340454D01*
X114745742Y-124382577D01*
X114725819Y-124392992D01*
X114702980Y-124409586D01*
X114642985Y-124436298D01*
X114589154Y-124464440D01*
X114561487Y-124472583D01*
X114529957Y-124486621D01*
X114471760Y-124498991D01*
X114419650Y-124514328D01*
X114384600Y-124517518D01*
X114344698Y-124525999D01*
X114291400Y-124525999D01*
X114243676Y-124530342D01*
X114202355Y-124525999D01*
X114155301Y-124525999D01*
X114109277Y-124516216D01*
X114067953Y-124511873D01*
X114022173Y-124497702D01*
X113970042Y-124486621D01*
X113932774Y-124470028D01*
X113899157Y-124459622D01*
X113851380Y-124433789D01*
X113797019Y-124409586D01*
X113769095Y-124389298D01*
X113743724Y-124375580D01*
X113696918Y-124336859D01*
X113643793Y-124298261D01*
X113624905Y-124277284D01*
X113607581Y-124262952D01*
X113565085Y-124210847D01*
X113517061Y-124157511D01*
X113506098Y-124138521D01*
X113495904Y-124126023D01*
X113461210Y-124060773D01*
X113422363Y-123993487D01*
X113417538Y-123978638D01*
X113412948Y-123970005D01*
X113389528Y-123892432D01*
X113363835Y-123813359D01*
X113362863Y-123804113D01*
X113361878Y-123800850D01*
X113352941Y-123709709D01*
X113349000Y-123672210D01*
X113349000Y-123327789D01*
X113363835Y-123186640D01*
X113390166Y-123105603D01*
X113417848Y-123018337D01*
X113419493Y-123015345D01*
X113422363Y-123006512D01*
X113463925Y-122934524D01*
X113502970Y-122863502D01*
X113509251Y-122856017D01*
X113517061Y-122842489D01*
X113569071Y-122784726D01*
X113616550Y-122728143D01*
X113629115Y-122718040D01*
X113643793Y-122701739D01*
X113701874Y-122659541D01*
X113754261Y-122617421D01*
X113774183Y-122607006D01*
X113797020Y-122590414D01*
X113857013Y-122563703D01*
X113910844Y-122535561D01*
X113938511Y-122527418D01*
X113970043Y-122513379D01*
X114028242Y-122501008D01*
X114080350Y-122485672D01*
X114115400Y-122482482D01*
X114155302Y-122474001D01*
X114208600Y-122474001D01*
X114256324Y-122469658D01*
X114297645Y-122474001D01*
X114297645Y-122474001D01*
G37*
G36*
X120151000Y-124526000D02*
G01*
X118349000Y-124526000D01*
X118349000Y-122474000D01*
X120151000Y-122474000D01*
X120151000Y-124526000D01*
X120151000Y-124526000D01*
G37*
G36*
X153151000Y-124526000D02*
G01*
X151349000Y-124526000D01*
X151349000Y-122474000D01*
X153151000Y-122474000D01*
X153151000Y-124526000D01*
X153151000Y-124526000D01*
G37*
G36*
X142151000Y-124526000D02*
G01*
X140349000Y-124526000D01*
X140349000Y-122474000D01*
X142151000Y-122474000D01*
X142151000Y-124526000D01*
X142151000Y-124526000D01*
G37*
G36*
X131151000Y-124526000D02*
G01*
X129349000Y-124526000D01*
X129349000Y-122474000D01*
X131151000Y-122474000D01*
X131151000Y-124526000D01*
X131151000Y-124526000D01*
G37*
G36*
X175398360Y-119863835D02*
G01*
X175479397Y-119890166D01*
X175566663Y-119917848D01*
X175569655Y-119919493D01*
X175578488Y-119922363D01*
X175650466Y-119963919D01*
X175721499Y-120002970D01*
X175728986Y-120009253D01*
X175742511Y-120017061D01*
X175800259Y-120069057D01*
X175856857Y-120116549D01*
X175866962Y-120129118D01*
X175883261Y-120143793D01*
X175925454Y-120201867D01*
X175967579Y-120254260D01*
X175977994Y-120274182D01*
X175994586Y-120297019D01*
X176021297Y-120357012D01*
X176049439Y-120410843D01*
X176057582Y-120438510D01*
X176071621Y-120470042D01*
X176083992Y-120528241D01*
X176099328Y-120580349D01*
X176102518Y-120615401D01*
X176110999Y-120655301D01*
X176110999Y-120708592D01*
X176115343Y-120756324D01*
X176110999Y-120797653D01*
X176110999Y-120844699D01*
X176101217Y-120890721D01*
X176096873Y-120932047D01*
X176082702Y-120977827D01*
X176071621Y-121029958D01*
X176055028Y-121067226D01*
X176044622Y-121100843D01*
X176018789Y-121148620D01*
X175994586Y-121202981D01*
X175974298Y-121230905D01*
X175960580Y-121256276D01*
X175921859Y-121303082D01*
X175883261Y-121356207D01*
X175862284Y-121375095D01*
X175847952Y-121392419D01*
X175795845Y-121434917D01*
X175742511Y-121482939D01*
X175723524Y-121493901D01*
X175711025Y-121504095D01*
X175645780Y-121538786D01*
X175578488Y-121577637D01*
X175563636Y-121582463D01*
X175555003Y-121587053D01*
X175477430Y-121610473D01*
X175398360Y-121636165D01*
X175389114Y-121637137D01*
X175385851Y-121638122D01*
X175294710Y-121647059D01*
X175257211Y-121651000D01*
X175162789Y-121651000D01*
X175021640Y-121636165D01*
X174940603Y-121609834D01*
X174853337Y-121582152D01*
X174850345Y-121580507D01*
X174841512Y-121577637D01*
X174769534Y-121536081D01*
X174698501Y-121497030D01*
X174691014Y-121490747D01*
X174677489Y-121482939D01*
X174619741Y-121430943D01*
X174563143Y-121383451D01*
X174553038Y-121370882D01*
X174536739Y-121356207D01*
X174494546Y-121298133D01*
X174452421Y-121245740D01*
X174442006Y-121225818D01*
X174425414Y-121202981D01*
X174398703Y-121142988D01*
X174370561Y-121089157D01*
X174362418Y-121061490D01*
X174348379Y-121029958D01*
X174336008Y-120971759D01*
X174320672Y-120919651D01*
X174317482Y-120884599D01*
X174309001Y-120844699D01*
X174309001Y-120791408D01*
X174304657Y-120743676D01*
X174309001Y-120702347D01*
X174309001Y-120655301D01*
X174318783Y-120609279D01*
X174323127Y-120567953D01*
X174337298Y-120522173D01*
X174348379Y-120470042D01*
X174364972Y-120432774D01*
X174375378Y-120399157D01*
X174401211Y-120351380D01*
X174425414Y-120297019D01*
X174445702Y-120269095D01*
X174459420Y-120243724D01*
X174498141Y-120196918D01*
X174536739Y-120143793D01*
X174557716Y-120124905D01*
X174572048Y-120107581D01*
X174624155Y-120065083D01*
X174677489Y-120017061D01*
X174696476Y-120006099D01*
X174708975Y-119995905D01*
X174774220Y-119961214D01*
X174841512Y-119922363D01*
X174856364Y-119917537D01*
X174864997Y-119912947D01*
X174942570Y-119889527D01*
X175021640Y-119863835D01*
X175030886Y-119862863D01*
X175034149Y-119861878D01*
X175125290Y-119852941D01*
X175162789Y-119849000D01*
X175257211Y-119849000D01*
X175398360Y-119863835D01*
X175398360Y-119863835D01*
G37*
G36*
X177938360Y-119863835D02*
G01*
X178019397Y-119890166D01*
X178106663Y-119917848D01*
X178109655Y-119919493D01*
X178118488Y-119922363D01*
X178190466Y-119963919D01*
X178261499Y-120002970D01*
X178268986Y-120009253D01*
X178282511Y-120017061D01*
X178340259Y-120069057D01*
X178396857Y-120116549D01*
X178406962Y-120129118D01*
X178423261Y-120143793D01*
X178465454Y-120201867D01*
X178507579Y-120254260D01*
X178517994Y-120274182D01*
X178534586Y-120297019D01*
X178561297Y-120357012D01*
X178589439Y-120410843D01*
X178597582Y-120438510D01*
X178611621Y-120470042D01*
X178623992Y-120528241D01*
X178639328Y-120580349D01*
X178642518Y-120615401D01*
X178650999Y-120655301D01*
X178650999Y-120708592D01*
X178655343Y-120756324D01*
X178650999Y-120797653D01*
X178650999Y-120844699D01*
X178641217Y-120890721D01*
X178636873Y-120932047D01*
X178622702Y-120977827D01*
X178611621Y-121029958D01*
X178595028Y-121067226D01*
X178584622Y-121100843D01*
X178558789Y-121148620D01*
X178534586Y-121202981D01*
X178514298Y-121230905D01*
X178500580Y-121256276D01*
X178461859Y-121303082D01*
X178423261Y-121356207D01*
X178402284Y-121375095D01*
X178387952Y-121392419D01*
X178335845Y-121434917D01*
X178282511Y-121482939D01*
X178263524Y-121493901D01*
X178251025Y-121504095D01*
X178185780Y-121538786D01*
X178118488Y-121577637D01*
X178103636Y-121582463D01*
X178095003Y-121587053D01*
X178017430Y-121610473D01*
X177938360Y-121636165D01*
X177929114Y-121637137D01*
X177925851Y-121638122D01*
X177834710Y-121647059D01*
X177797211Y-121651000D01*
X177702789Y-121651000D01*
X177561640Y-121636165D01*
X177480603Y-121609834D01*
X177393337Y-121582152D01*
X177390345Y-121580507D01*
X177381512Y-121577637D01*
X177309534Y-121536081D01*
X177238501Y-121497030D01*
X177231014Y-121490747D01*
X177217489Y-121482939D01*
X177159741Y-121430943D01*
X177103143Y-121383451D01*
X177093038Y-121370882D01*
X177076739Y-121356207D01*
X177034546Y-121298133D01*
X176992421Y-121245740D01*
X176982006Y-121225818D01*
X176965414Y-121202981D01*
X176938703Y-121142988D01*
X176910561Y-121089157D01*
X176902418Y-121061490D01*
X176888379Y-121029958D01*
X176876008Y-120971759D01*
X176860672Y-120919651D01*
X176857482Y-120884599D01*
X176849001Y-120844699D01*
X176849001Y-120791408D01*
X176844657Y-120743676D01*
X176849001Y-120702347D01*
X176849001Y-120655301D01*
X176858783Y-120609279D01*
X176863127Y-120567953D01*
X176877298Y-120522173D01*
X176888379Y-120470042D01*
X176904972Y-120432774D01*
X176915378Y-120399157D01*
X176941211Y-120351380D01*
X176965414Y-120297019D01*
X176985702Y-120269095D01*
X176999420Y-120243724D01*
X177038141Y-120196918D01*
X177076739Y-120143793D01*
X177097716Y-120124905D01*
X177112048Y-120107581D01*
X177164155Y-120065083D01*
X177217489Y-120017061D01*
X177236476Y-120006099D01*
X177248975Y-119995905D01*
X177314220Y-119961214D01*
X177381512Y-119922363D01*
X177396364Y-119917537D01*
X177404997Y-119912947D01*
X177482570Y-119889527D01*
X177561640Y-119863835D01*
X177570886Y-119862863D01*
X177574149Y-119861878D01*
X177665290Y-119852941D01*
X177702789Y-119849000D01*
X177797211Y-119849000D01*
X177938360Y-119863835D01*
X177938360Y-119863835D01*
G37*
G36*
X183018360Y-119863835D02*
G01*
X183099397Y-119890166D01*
X183186663Y-119917848D01*
X183189655Y-119919493D01*
X183198488Y-119922363D01*
X183270466Y-119963919D01*
X183341499Y-120002970D01*
X183348986Y-120009253D01*
X183362511Y-120017061D01*
X183420259Y-120069057D01*
X183476857Y-120116549D01*
X183486962Y-120129118D01*
X183503261Y-120143793D01*
X183545454Y-120201867D01*
X183587579Y-120254260D01*
X183597994Y-120274182D01*
X183614586Y-120297019D01*
X183641297Y-120357012D01*
X183669439Y-120410843D01*
X183677582Y-120438510D01*
X183691621Y-120470042D01*
X183703992Y-120528241D01*
X183719328Y-120580349D01*
X183722518Y-120615401D01*
X183730999Y-120655301D01*
X183730999Y-120708592D01*
X183735343Y-120756324D01*
X183730999Y-120797653D01*
X183730999Y-120844699D01*
X183721217Y-120890721D01*
X183716873Y-120932047D01*
X183702702Y-120977827D01*
X183691621Y-121029958D01*
X183675028Y-121067226D01*
X183664622Y-121100843D01*
X183638789Y-121148620D01*
X183614586Y-121202981D01*
X183594298Y-121230905D01*
X183580580Y-121256276D01*
X183541859Y-121303082D01*
X183503261Y-121356207D01*
X183482284Y-121375095D01*
X183467952Y-121392419D01*
X183415845Y-121434917D01*
X183362511Y-121482939D01*
X183343524Y-121493901D01*
X183331025Y-121504095D01*
X183265780Y-121538786D01*
X183198488Y-121577637D01*
X183183636Y-121582463D01*
X183175003Y-121587053D01*
X183097430Y-121610473D01*
X183018360Y-121636165D01*
X183009114Y-121637137D01*
X183005851Y-121638122D01*
X182914710Y-121647059D01*
X182877211Y-121651000D01*
X182782789Y-121651000D01*
X182641640Y-121636165D01*
X182560603Y-121609834D01*
X182473337Y-121582152D01*
X182470345Y-121580507D01*
X182461512Y-121577637D01*
X182389534Y-121536081D01*
X182318501Y-121497030D01*
X182311014Y-121490747D01*
X182297489Y-121482939D01*
X182239741Y-121430943D01*
X182183143Y-121383451D01*
X182173038Y-121370882D01*
X182156739Y-121356207D01*
X182114546Y-121298133D01*
X182072421Y-121245740D01*
X182062006Y-121225818D01*
X182045414Y-121202981D01*
X182018703Y-121142988D01*
X181990561Y-121089157D01*
X181982418Y-121061490D01*
X181968379Y-121029958D01*
X181956008Y-120971759D01*
X181940672Y-120919651D01*
X181937482Y-120884599D01*
X181929001Y-120844699D01*
X181929001Y-120791408D01*
X181924657Y-120743676D01*
X181929001Y-120702347D01*
X181929001Y-120655301D01*
X181938783Y-120609279D01*
X181943127Y-120567953D01*
X181957298Y-120522173D01*
X181968379Y-120470042D01*
X181984972Y-120432774D01*
X181995378Y-120399157D01*
X182021211Y-120351380D01*
X182045414Y-120297019D01*
X182065702Y-120269095D01*
X182079420Y-120243724D01*
X182118141Y-120196918D01*
X182156739Y-120143793D01*
X182177716Y-120124905D01*
X182192048Y-120107581D01*
X182244155Y-120065083D01*
X182297489Y-120017061D01*
X182316476Y-120006099D01*
X182328975Y-119995905D01*
X182394220Y-119961214D01*
X182461512Y-119922363D01*
X182476364Y-119917537D01*
X182484997Y-119912947D01*
X182562570Y-119889527D01*
X182641640Y-119863835D01*
X182650886Y-119862863D01*
X182654149Y-119861878D01*
X182745290Y-119852941D01*
X182782789Y-119849000D01*
X182877211Y-119849000D01*
X183018360Y-119863835D01*
X183018360Y-119863835D01*
G37*
G36*
X188811000Y-121651000D02*
G01*
X187009000Y-121651000D01*
X187009000Y-119849000D01*
X188811000Y-119849000D01*
X188811000Y-121651000D01*
X188811000Y-121651000D01*
G37*
G36*
X180478360Y-119863835D02*
G01*
X180559397Y-119890166D01*
X180646663Y-119917848D01*
X180649655Y-119919493D01*
X180658488Y-119922363D01*
X180730466Y-119963919D01*
X180801499Y-120002970D01*
X180808986Y-120009253D01*
X180822511Y-120017061D01*
X180880259Y-120069057D01*
X180936857Y-120116549D01*
X180946962Y-120129118D01*
X180963261Y-120143793D01*
X181005454Y-120201867D01*
X181047579Y-120254260D01*
X181057994Y-120274182D01*
X181074586Y-120297019D01*
X181101297Y-120357012D01*
X181129439Y-120410843D01*
X181137582Y-120438510D01*
X181151621Y-120470042D01*
X181163992Y-120528241D01*
X181179328Y-120580349D01*
X181182518Y-120615401D01*
X181190999Y-120655301D01*
X181190999Y-120708592D01*
X181195343Y-120756324D01*
X181190999Y-120797653D01*
X181190999Y-120844699D01*
X181181217Y-120890721D01*
X181176873Y-120932047D01*
X181162702Y-120977827D01*
X181151621Y-121029958D01*
X181135028Y-121067226D01*
X181124622Y-121100843D01*
X181098789Y-121148620D01*
X181074586Y-121202981D01*
X181054298Y-121230905D01*
X181040580Y-121256276D01*
X181001859Y-121303082D01*
X180963261Y-121356207D01*
X180942284Y-121375095D01*
X180927952Y-121392419D01*
X180875845Y-121434917D01*
X180822511Y-121482939D01*
X180803524Y-121493901D01*
X180791025Y-121504095D01*
X180725780Y-121538786D01*
X180658488Y-121577637D01*
X180643636Y-121582463D01*
X180635003Y-121587053D01*
X180557430Y-121610473D01*
X180478360Y-121636165D01*
X180469114Y-121637137D01*
X180465851Y-121638122D01*
X180374710Y-121647059D01*
X180337211Y-121651000D01*
X180242789Y-121651000D01*
X180101640Y-121636165D01*
X180020603Y-121609834D01*
X179933337Y-121582152D01*
X179930345Y-121580507D01*
X179921512Y-121577637D01*
X179849534Y-121536081D01*
X179778501Y-121497030D01*
X179771014Y-121490747D01*
X179757489Y-121482939D01*
X179699741Y-121430943D01*
X179643143Y-121383451D01*
X179633038Y-121370882D01*
X179616739Y-121356207D01*
X179574546Y-121298133D01*
X179532421Y-121245740D01*
X179522006Y-121225818D01*
X179505414Y-121202981D01*
X179478703Y-121142988D01*
X179450561Y-121089157D01*
X179442418Y-121061490D01*
X179428379Y-121029958D01*
X179416008Y-120971759D01*
X179400672Y-120919651D01*
X179397482Y-120884599D01*
X179389001Y-120844699D01*
X179389001Y-120791408D01*
X179384657Y-120743676D01*
X179389001Y-120702347D01*
X179389001Y-120655301D01*
X179398783Y-120609279D01*
X179403127Y-120567953D01*
X179417298Y-120522173D01*
X179428379Y-120470042D01*
X179444972Y-120432774D01*
X179455378Y-120399157D01*
X179481211Y-120351380D01*
X179505414Y-120297019D01*
X179525702Y-120269095D01*
X179539420Y-120243724D01*
X179578141Y-120196918D01*
X179616739Y-120143793D01*
X179637716Y-120124905D01*
X179652048Y-120107581D01*
X179704155Y-120065083D01*
X179757489Y-120017061D01*
X179776476Y-120006099D01*
X179788975Y-119995905D01*
X179854220Y-119961214D01*
X179921512Y-119922363D01*
X179936364Y-119917537D01*
X179944997Y-119912947D01*
X180022570Y-119889527D01*
X180101640Y-119863835D01*
X180110886Y-119862863D01*
X180114149Y-119861878D01*
X180205290Y-119852941D01*
X180242789Y-119849000D01*
X180337211Y-119849000D01*
X180478360Y-119863835D01*
X180478360Y-119863835D01*
G37*
G36*
X185558360Y-119863835D02*
G01*
X185639397Y-119890166D01*
X185726663Y-119917848D01*
X185729655Y-119919493D01*
X185738488Y-119922363D01*
X185810466Y-119963919D01*
X185881499Y-120002970D01*
X185888986Y-120009253D01*
X185902511Y-120017061D01*
X185960259Y-120069057D01*
X186016857Y-120116549D01*
X186026962Y-120129118D01*
X186043261Y-120143793D01*
X186085454Y-120201867D01*
X186127579Y-120254260D01*
X186137994Y-120274182D01*
X186154586Y-120297019D01*
X186181297Y-120357012D01*
X186209439Y-120410843D01*
X186217582Y-120438510D01*
X186231621Y-120470042D01*
X186243992Y-120528241D01*
X186259328Y-120580349D01*
X186262518Y-120615401D01*
X186270999Y-120655301D01*
X186270999Y-120708592D01*
X186275343Y-120756324D01*
X186270999Y-120797653D01*
X186270999Y-120844699D01*
X186261217Y-120890721D01*
X186256873Y-120932047D01*
X186242702Y-120977827D01*
X186231621Y-121029958D01*
X186215028Y-121067226D01*
X186204622Y-121100843D01*
X186178789Y-121148620D01*
X186154586Y-121202981D01*
X186134298Y-121230905D01*
X186120580Y-121256276D01*
X186081859Y-121303082D01*
X186043261Y-121356207D01*
X186022284Y-121375095D01*
X186007952Y-121392419D01*
X185955845Y-121434917D01*
X185902511Y-121482939D01*
X185883524Y-121493901D01*
X185871025Y-121504095D01*
X185805780Y-121538786D01*
X185738488Y-121577637D01*
X185723636Y-121582463D01*
X185715003Y-121587053D01*
X185637430Y-121610473D01*
X185558360Y-121636165D01*
X185549114Y-121637137D01*
X185545851Y-121638122D01*
X185454710Y-121647059D01*
X185417211Y-121651000D01*
X185322789Y-121651000D01*
X185181640Y-121636165D01*
X185100603Y-121609834D01*
X185013337Y-121582152D01*
X185010345Y-121580507D01*
X185001512Y-121577637D01*
X184929534Y-121536081D01*
X184858501Y-121497030D01*
X184851014Y-121490747D01*
X184837489Y-121482939D01*
X184779741Y-121430943D01*
X184723143Y-121383451D01*
X184713038Y-121370882D01*
X184696739Y-121356207D01*
X184654546Y-121298133D01*
X184612421Y-121245740D01*
X184602006Y-121225818D01*
X184585414Y-121202981D01*
X184558703Y-121142988D01*
X184530561Y-121089157D01*
X184522418Y-121061490D01*
X184508379Y-121029958D01*
X184496008Y-120971759D01*
X184480672Y-120919651D01*
X184477482Y-120884599D01*
X184469001Y-120844699D01*
X184469001Y-120791408D01*
X184464657Y-120743676D01*
X184469001Y-120702347D01*
X184469001Y-120655301D01*
X184478783Y-120609279D01*
X184483127Y-120567953D01*
X184497298Y-120522173D01*
X184508379Y-120470042D01*
X184524972Y-120432774D01*
X184535378Y-120399157D01*
X184561211Y-120351380D01*
X184585414Y-120297019D01*
X184605702Y-120269095D01*
X184619420Y-120243724D01*
X184658141Y-120196918D01*
X184696739Y-120143793D01*
X184717716Y-120124905D01*
X184732048Y-120107581D01*
X184784155Y-120065083D01*
X184837489Y-120017061D01*
X184856476Y-120006099D01*
X184868975Y-119995905D01*
X184934220Y-119961214D01*
X185001512Y-119922363D01*
X185016364Y-119917537D01*
X185024997Y-119912947D01*
X185102570Y-119889527D01*
X185181640Y-119863835D01*
X185190886Y-119862863D01*
X185194149Y-119861878D01*
X185285290Y-119852941D01*
X185322789Y-119849000D01*
X185417211Y-119849000D01*
X185558360Y-119863835D01*
X185558360Y-119863835D01*
G37*
G36*
X177148360Y-116113835D02*
G01*
X177229397Y-116140166D01*
X177316663Y-116167848D01*
X177319655Y-116169493D01*
X177328488Y-116172363D01*
X177400466Y-116213919D01*
X177471499Y-116252970D01*
X177478986Y-116259253D01*
X177492511Y-116267061D01*
X177550259Y-116319057D01*
X177606857Y-116366549D01*
X177616962Y-116379118D01*
X177633261Y-116393793D01*
X177675454Y-116451867D01*
X177717579Y-116504260D01*
X177727994Y-116524182D01*
X177744586Y-116547019D01*
X177771297Y-116607012D01*
X177799439Y-116660843D01*
X177807582Y-116688510D01*
X177821621Y-116720042D01*
X177833992Y-116778241D01*
X177849328Y-116830349D01*
X177852518Y-116865401D01*
X177860999Y-116905301D01*
X177860999Y-116958592D01*
X177865343Y-117006324D01*
X177860999Y-117047653D01*
X177860999Y-117094699D01*
X177851217Y-117140721D01*
X177846873Y-117182047D01*
X177832702Y-117227827D01*
X177821621Y-117279958D01*
X177805028Y-117317226D01*
X177794622Y-117350843D01*
X177768789Y-117398620D01*
X177744586Y-117452981D01*
X177724298Y-117480905D01*
X177710580Y-117506276D01*
X177671859Y-117553082D01*
X177633261Y-117606207D01*
X177612284Y-117625095D01*
X177597952Y-117642419D01*
X177545845Y-117684917D01*
X177492511Y-117732939D01*
X177473524Y-117743901D01*
X177461025Y-117754095D01*
X177395780Y-117788786D01*
X177328488Y-117827637D01*
X177313636Y-117832463D01*
X177305003Y-117837053D01*
X177227430Y-117860473D01*
X177148360Y-117886165D01*
X177139114Y-117887137D01*
X177135851Y-117888122D01*
X177044710Y-117897059D01*
X177007211Y-117901000D01*
X176912789Y-117901000D01*
X176771640Y-117886165D01*
X176690603Y-117859834D01*
X176603337Y-117832152D01*
X176600345Y-117830507D01*
X176591512Y-117827637D01*
X176519534Y-117786081D01*
X176448501Y-117747030D01*
X176441014Y-117740747D01*
X176427489Y-117732939D01*
X176369741Y-117680943D01*
X176313143Y-117633451D01*
X176303038Y-117620882D01*
X176286739Y-117606207D01*
X176244546Y-117548133D01*
X176202421Y-117495740D01*
X176192006Y-117475818D01*
X176175414Y-117452981D01*
X176148703Y-117392988D01*
X176120561Y-117339157D01*
X176112418Y-117311490D01*
X176098379Y-117279958D01*
X176086008Y-117221759D01*
X176070672Y-117169651D01*
X176067482Y-117134599D01*
X176059001Y-117094699D01*
X176059001Y-117041408D01*
X176054657Y-116993676D01*
X176059001Y-116952347D01*
X176059001Y-116905301D01*
X176068783Y-116859279D01*
X176073127Y-116817953D01*
X176087298Y-116772173D01*
X176098379Y-116720042D01*
X176114972Y-116682774D01*
X176125378Y-116649157D01*
X176151211Y-116601380D01*
X176175414Y-116547019D01*
X176195702Y-116519095D01*
X176209420Y-116493724D01*
X176248141Y-116446918D01*
X176286739Y-116393793D01*
X176307716Y-116374905D01*
X176322048Y-116357581D01*
X176374155Y-116315083D01*
X176427489Y-116267061D01*
X176446476Y-116256099D01*
X176458975Y-116245905D01*
X176524220Y-116211214D01*
X176591512Y-116172363D01*
X176606364Y-116167537D01*
X176614997Y-116162947D01*
X176692570Y-116139527D01*
X176771640Y-116113835D01*
X176780886Y-116112863D01*
X176784149Y-116111878D01*
X176875290Y-116102941D01*
X176912789Y-116099000D01*
X177007211Y-116099000D01*
X177148360Y-116113835D01*
X177148360Y-116113835D01*
G37*
G36*
X167701000Y-117901000D02*
G01*
X165899000Y-117901000D01*
X165899000Y-116099000D01*
X167701000Y-116099000D01*
X167701000Y-117901000D01*
X167701000Y-117901000D01*
G37*
G36*
X128768360Y-116113835D02*
G01*
X128849397Y-116140166D01*
X128936663Y-116167848D01*
X128939655Y-116169493D01*
X128948488Y-116172363D01*
X129020466Y-116213919D01*
X129091499Y-116252970D01*
X129098986Y-116259253D01*
X129112511Y-116267061D01*
X129170259Y-116319057D01*
X129226857Y-116366549D01*
X129236962Y-116379118D01*
X129253261Y-116393793D01*
X129295454Y-116451867D01*
X129337579Y-116504260D01*
X129347994Y-116524182D01*
X129364586Y-116547019D01*
X129391297Y-116607012D01*
X129419439Y-116660843D01*
X129427582Y-116688510D01*
X129441621Y-116720042D01*
X129453992Y-116778241D01*
X129469328Y-116830349D01*
X129472518Y-116865401D01*
X129480999Y-116905301D01*
X129480999Y-116958592D01*
X129485343Y-117006324D01*
X129480999Y-117047653D01*
X129480999Y-117094699D01*
X129471217Y-117140721D01*
X129466873Y-117182047D01*
X129452702Y-117227827D01*
X129441621Y-117279958D01*
X129425028Y-117317226D01*
X129414622Y-117350843D01*
X129388789Y-117398620D01*
X129364586Y-117452981D01*
X129344298Y-117480905D01*
X129330580Y-117506276D01*
X129291859Y-117553082D01*
X129253261Y-117606207D01*
X129232284Y-117625095D01*
X129217952Y-117642419D01*
X129165845Y-117684917D01*
X129112511Y-117732939D01*
X129093524Y-117743901D01*
X129081025Y-117754095D01*
X129015780Y-117788786D01*
X128948488Y-117827637D01*
X128933636Y-117832463D01*
X128925003Y-117837053D01*
X128847430Y-117860473D01*
X128768360Y-117886165D01*
X128759114Y-117887137D01*
X128755851Y-117888122D01*
X128664710Y-117897059D01*
X128627211Y-117901000D01*
X128532789Y-117901000D01*
X128391640Y-117886165D01*
X128310603Y-117859834D01*
X128223337Y-117832152D01*
X128220345Y-117830507D01*
X128211512Y-117827637D01*
X128139534Y-117786081D01*
X128068501Y-117747030D01*
X128061014Y-117740747D01*
X128047489Y-117732939D01*
X127989741Y-117680943D01*
X127933143Y-117633451D01*
X127923038Y-117620882D01*
X127906739Y-117606207D01*
X127864546Y-117548133D01*
X127822421Y-117495740D01*
X127812006Y-117475818D01*
X127795414Y-117452981D01*
X127768703Y-117392988D01*
X127740561Y-117339157D01*
X127732418Y-117311490D01*
X127718379Y-117279958D01*
X127706008Y-117221759D01*
X127690672Y-117169651D01*
X127687482Y-117134599D01*
X127679001Y-117094699D01*
X127679001Y-117041408D01*
X127674657Y-116993676D01*
X127679001Y-116952347D01*
X127679001Y-116905301D01*
X127688783Y-116859279D01*
X127693127Y-116817953D01*
X127707298Y-116772173D01*
X127718379Y-116720042D01*
X127734972Y-116682774D01*
X127745378Y-116649157D01*
X127771211Y-116601380D01*
X127795414Y-116547019D01*
X127815702Y-116519095D01*
X127829420Y-116493724D01*
X127868141Y-116446918D01*
X127906739Y-116393793D01*
X127927716Y-116374905D01*
X127942048Y-116357581D01*
X127994155Y-116315083D01*
X128047489Y-116267061D01*
X128066476Y-116256099D01*
X128078975Y-116245905D01*
X128144220Y-116211214D01*
X128211512Y-116172363D01*
X128226364Y-116167537D01*
X128234997Y-116162947D01*
X128312570Y-116139527D01*
X128391640Y-116113835D01*
X128400886Y-116112863D01*
X128404149Y-116111878D01*
X128495290Y-116102941D01*
X128532789Y-116099000D01*
X128627211Y-116099000D01*
X128768360Y-116113835D01*
X128768360Y-116113835D01*
G37*
G36*
X169528360Y-116113835D02*
G01*
X169609397Y-116140166D01*
X169696663Y-116167848D01*
X169699655Y-116169493D01*
X169708488Y-116172363D01*
X169780466Y-116213919D01*
X169851499Y-116252970D01*
X169858986Y-116259253D01*
X169872511Y-116267061D01*
X169930259Y-116319057D01*
X169986857Y-116366549D01*
X169996962Y-116379118D01*
X170013261Y-116393793D01*
X170055454Y-116451867D01*
X170097579Y-116504260D01*
X170107994Y-116524182D01*
X170124586Y-116547019D01*
X170151297Y-116607012D01*
X170179439Y-116660843D01*
X170187582Y-116688510D01*
X170201621Y-116720042D01*
X170213992Y-116778241D01*
X170229328Y-116830349D01*
X170232518Y-116865401D01*
X170240999Y-116905301D01*
X170240999Y-116958592D01*
X170245343Y-117006324D01*
X170240999Y-117047653D01*
X170240999Y-117094699D01*
X170231217Y-117140721D01*
X170226873Y-117182047D01*
X170212702Y-117227827D01*
X170201621Y-117279958D01*
X170185028Y-117317226D01*
X170174622Y-117350843D01*
X170148789Y-117398620D01*
X170124586Y-117452981D01*
X170104298Y-117480905D01*
X170090580Y-117506276D01*
X170051859Y-117553082D01*
X170013261Y-117606207D01*
X169992284Y-117625095D01*
X169977952Y-117642419D01*
X169925845Y-117684917D01*
X169872511Y-117732939D01*
X169853524Y-117743901D01*
X169841025Y-117754095D01*
X169775780Y-117788786D01*
X169708488Y-117827637D01*
X169693636Y-117832463D01*
X169685003Y-117837053D01*
X169607430Y-117860473D01*
X169528360Y-117886165D01*
X169519114Y-117887137D01*
X169515851Y-117888122D01*
X169424710Y-117897059D01*
X169387211Y-117901000D01*
X169292789Y-117901000D01*
X169151640Y-117886165D01*
X169070603Y-117859834D01*
X168983337Y-117832152D01*
X168980345Y-117830507D01*
X168971512Y-117827637D01*
X168899534Y-117786081D01*
X168828501Y-117747030D01*
X168821014Y-117740747D01*
X168807489Y-117732939D01*
X168749741Y-117680943D01*
X168693143Y-117633451D01*
X168683038Y-117620882D01*
X168666739Y-117606207D01*
X168624546Y-117548133D01*
X168582421Y-117495740D01*
X168572006Y-117475818D01*
X168555414Y-117452981D01*
X168528703Y-117392988D01*
X168500561Y-117339157D01*
X168492418Y-117311490D01*
X168478379Y-117279958D01*
X168466008Y-117221759D01*
X168450672Y-117169651D01*
X168447482Y-117134599D01*
X168439001Y-117094699D01*
X168439001Y-117041408D01*
X168434657Y-116993676D01*
X168439001Y-116952347D01*
X168439001Y-116905301D01*
X168448783Y-116859279D01*
X168453127Y-116817953D01*
X168467298Y-116772173D01*
X168478379Y-116720042D01*
X168494972Y-116682774D01*
X168505378Y-116649157D01*
X168531211Y-116601380D01*
X168555414Y-116547019D01*
X168575702Y-116519095D01*
X168589420Y-116493724D01*
X168628141Y-116446918D01*
X168666739Y-116393793D01*
X168687716Y-116374905D01*
X168702048Y-116357581D01*
X168754155Y-116315083D01*
X168807489Y-116267061D01*
X168826476Y-116256099D01*
X168838975Y-116245905D01*
X168904220Y-116211214D01*
X168971512Y-116172363D01*
X168986364Y-116167537D01*
X168994997Y-116162947D01*
X169072570Y-116139527D01*
X169151640Y-116113835D01*
X169160886Y-116112863D01*
X169164149Y-116111878D01*
X169255290Y-116102941D01*
X169292789Y-116099000D01*
X169387211Y-116099000D01*
X169528360Y-116113835D01*
X169528360Y-116113835D01*
G37*
G36*
X172068360Y-116113835D02*
G01*
X172149397Y-116140166D01*
X172236663Y-116167848D01*
X172239655Y-116169493D01*
X172248488Y-116172363D01*
X172320466Y-116213919D01*
X172391499Y-116252970D01*
X172398986Y-116259253D01*
X172412511Y-116267061D01*
X172470259Y-116319057D01*
X172526857Y-116366549D01*
X172536962Y-116379118D01*
X172553261Y-116393793D01*
X172595454Y-116451867D01*
X172637579Y-116504260D01*
X172647994Y-116524182D01*
X172664586Y-116547019D01*
X172691297Y-116607012D01*
X172719439Y-116660843D01*
X172727582Y-116688510D01*
X172741621Y-116720042D01*
X172753992Y-116778241D01*
X172769328Y-116830349D01*
X172772518Y-116865401D01*
X172780999Y-116905301D01*
X172780999Y-116958592D01*
X172785343Y-117006324D01*
X172780999Y-117047653D01*
X172780999Y-117094699D01*
X172771217Y-117140721D01*
X172766873Y-117182047D01*
X172752702Y-117227827D01*
X172741621Y-117279958D01*
X172725028Y-117317226D01*
X172714622Y-117350843D01*
X172688789Y-117398620D01*
X172664586Y-117452981D01*
X172644298Y-117480905D01*
X172630580Y-117506276D01*
X172591859Y-117553082D01*
X172553261Y-117606207D01*
X172532284Y-117625095D01*
X172517952Y-117642419D01*
X172465845Y-117684917D01*
X172412511Y-117732939D01*
X172393524Y-117743901D01*
X172381025Y-117754095D01*
X172315780Y-117788786D01*
X172248488Y-117827637D01*
X172233636Y-117832463D01*
X172225003Y-117837053D01*
X172147430Y-117860473D01*
X172068360Y-117886165D01*
X172059114Y-117887137D01*
X172055851Y-117888122D01*
X171964710Y-117897059D01*
X171927211Y-117901000D01*
X171832789Y-117901000D01*
X171691640Y-117886165D01*
X171610603Y-117859834D01*
X171523337Y-117832152D01*
X171520345Y-117830507D01*
X171511512Y-117827637D01*
X171439534Y-117786081D01*
X171368501Y-117747030D01*
X171361014Y-117740747D01*
X171347489Y-117732939D01*
X171289741Y-117680943D01*
X171233143Y-117633451D01*
X171223038Y-117620882D01*
X171206739Y-117606207D01*
X171164546Y-117548133D01*
X171122421Y-117495740D01*
X171112006Y-117475818D01*
X171095414Y-117452981D01*
X171068703Y-117392988D01*
X171040561Y-117339157D01*
X171032418Y-117311490D01*
X171018379Y-117279958D01*
X171006008Y-117221759D01*
X170990672Y-117169651D01*
X170987482Y-117134599D01*
X170979001Y-117094699D01*
X170979001Y-117041408D01*
X170974657Y-116993676D01*
X170979001Y-116952347D01*
X170979001Y-116905301D01*
X170988783Y-116859279D01*
X170993127Y-116817953D01*
X171007298Y-116772173D01*
X171018379Y-116720042D01*
X171034972Y-116682774D01*
X171045378Y-116649157D01*
X171071211Y-116601380D01*
X171095414Y-116547019D01*
X171115702Y-116519095D01*
X171129420Y-116493724D01*
X171168141Y-116446918D01*
X171206739Y-116393793D01*
X171227716Y-116374905D01*
X171242048Y-116357581D01*
X171294155Y-116315083D01*
X171347489Y-116267061D01*
X171366476Y-116256099D01*
X171378975Y-116245905D01*
X171444220Y-116211214D01*
X171511512Y-116172363D01*
X171526364Y-116167537D01*
X171534997Y-116162947D01*
X171612570Y-116139527D01*
X171691640Y-116113835D01*
X171700886Y-116112863D01*
X171704149Y-116111878D01*
X171795290Y-116102941D01*
X171832789Y-116099000D01*
X171927211Y-116099000D01*
X172068360Y-116113835D01*
X172068360Y-116113835D01*
G37*
G36*
X174608360Y-116113835D02*
G01*
X174689397Y-116140166D01*
X174776663Y-116167848D01*
X174779655Y-116169493D01*
X174788488Y-116172363D01*
X174860466Y-116213919D01*
X174931499Y-116252970D01*
X174938986Y-116259253D01*
X174952511Y-116267061D01*
X175010259Y-116319057D01*
X175066857Y-116366549D01*
X175076962Y-116379118D01*
X175093261Y-116393793D01*
X175135454Y-116451867D01*
X175177579Y-116504260D01*
X175187994Y-116524182D01*
X175204586Y-116547019D01*
X175231297Y-116607012D01*
X175259439Y-116660843D01*
X175267582Y-116688510D01*
X175281621Y-116720042D01*
X175293992Y-116778241D01*
X175309328Y-116830349D01*
X175312518Y-116865401D01*
X175320999Y-116905301D01*
X175320999Y-116958592D01*
X175325343Y-117006324D01*
X175320999Y-117047653D01*
X175320999Y-117094699D01*
X175311217Y-117140721D01*
X175306873Y-117182047D01*
X175292702Y-117227827D01*
X175281621Y-117279958D01*
X175265028Y-117317226D01*
X175254622Y-117350843D01*
X175228789Y-117398620D01*
X175204586Y-117452981D01*
X175184298Y-117480905D01*
X175170580Y-117506276D01*
X175131859Y-117553082D01*
X175093261Y-117606207D01*
X175072284Y-117625095D01*
X175057952Y-117642419D01*
X175005845Y-117684917D01*
X174952511Y-117732939D01*
X174933524Y-117743901D01*
X174921025Y-117754095D01*
X174855780Y-117788786D01*
X174788488Y-117827637D01*
X174773636Y-117832463D01*
X174765003Y-117837053D01*
X174687430Y-117860473D01*
X174608360Y-117886165D01*
X174599114Y-117887137D01*
X174595851Y-117888122D01*
X174504710Y-117897059D01*
X174467211Y-117901000D01*
X174372789Y-117901000D01*
X174231640Y-117886165D01*
X174150603Y-117859834D01*
X174063337Y-117832152D01*
X174060345Y-117830507D01*
X174051512Y-117827637D01*
X173979534Y-117786081D01*
X173908501Y-117747030D01*
X173901014Y-117740747D01*
X173887489Y-117732939D01*
X173829741Y-117680943D01*
X173773143Y-117633451D01*
X173763038Y-117620882D01*
X173746739Y-117606207D01*
X173704546Y-117548133D01*
X173662421Y-117495740D01*
X173652006Y-117475818D01*
X173635414Y-117452981D01*
X173608703Y-117392988D01*
X173580561Y-117339157D01*
X173572418Y-117311490D01*
X173558379Y-117279958D01*
X173546008Y-117221759D01*
X173530672Y-117169651D01*
X173527482Y-117134599D01*
X173519001Y-117094699D01*
X173519001Y-117041408D01*
X173514657Y-116993676D01*
X173519001Y-116952347D01*
X173519001Y-116905301D01*
X173528783Y-116859279D01*
X173533127Y-116817953D01*
X173547298Y-116772173D01*
X173558379Y-116720042D01*
X173574972Y-116682774D01*
X173585378Y-116649157D01*
X173611211Y-116601380D01*
X173635414Y-116547019D01*
X173655702Y-116519095D01*
X173669420Y-116493724D01*
X173708141Y-116446918D01*
X173746739Y-116393793D01*
X173767716Y-116374905D01*
X173782048Y-116357581D01*
X173834155Y-116315083D01*
X173887489Y-116267061D01*
X173906476Y-116256099D01*
X173918975Y-116245905D01*
X173984220Y-116211214D01*
X174051512Y-116172363D01*
X174066364Y-116167537D01*
X174074997Y-116162947D01*
X174152570Y-116139527D01*
X174231640Y-116113835D01*
X174240886Y-116112863D01*
X174244149Y-116111878D01*
X174335290Y-116102941D01*
X174372789Y-116099000D01*
X174467211Y-116099000D01*
X174608360Y-116113835D01*
X174608360Y-116113835D01*
G37*
G36*
X179688360Y-116113835D02*
G01*
X179769397Y-116140166D01*
X179856663Y-116167848D01*
X179859655Y-116169493D01*
X179868488Y-116172363D01*
X179940466Y-116213919D01*
X180011499Y-116252970D01*
X180018986Y-116259253D01*
X180032511Y-116267061D01*
X180090259Y-116319057D01*
X180146857Y-116366549D01*
X180156962Y-116379118D01*
X180173261Y-116393793D01*
X180215454Y-116451867D01*
X180257579Y-116504260D01*
X180267994Y-116524182D01*
X180284586Y-116547019D01*
X180311297Y-116607012D01*
X180339439Y-116660843D01*
X180347582Y-116688510D01*
X180361621Y-116720042D01*
X180373992Y-116778241D01*
X180389328Y-116830349D01*
X180392518Y-116865401D01*
X180400999Y-116905301D01*
X180400999Y-116958592D01*
X180405343Y-117006324D01*
X180400999Y-117047653D01*
X180400999Y-117094699D01*
X180391217Y-117140721D01*
X180386873Y-117182047D01*
X180372702Y-117227827D01*
X180361621Y-117279958D01*
X180345028Y-117317226D01*
X180334622Y-117350843D01*
X180308789Y-117398620D01*
X180284586Y-117452981D01*
X180264298Y-117480905D01*
X180250580Y-117506276D01*
X180211859Y-117553082D01*
X180173261Y-117606207D01*
X180152284Y-117625095D01*
X180137952Y-117642419D01*
X180085845Y-117684917D01*
X180032511Y-117732939D01*
X180013524Y-117743901D01*
X180001025Y-117754095D01*
X179935780Y-117788786D01*
X179868488Y-117827637D01*
X179853636Y-117832463D01*
X179845003Y-117837053D01*
X179767430Y-117860473D01*
X179688360Y-117886165D01*
X179679114Y-117887137D01*
X179675851Y-117888122D01*
X179584710Y-117897059D01*
X179547211Y-117901000D01*
X179452789Y-117901000D01*
X179311640Y-117886165D01*
X179230603Y-117859834D01*
X179143337Y-117832152D01*
X179140345Y-117830507D01*
X179131512Y-117827637D01*
X179059534Y-117786081D01*
X178988501Y-117747030D01*
X178981014Y-117740747D01*
X178967489Y-117732939D01*
X178909741Y-117680943D01*
X178853143Y-117633451D01*
X178843038Y-117620882D01*
X178826739Y-117606207D01*
X178784546Y-117548133D01*
X178742421Y-117495740D01*
X178732006Y-117475818D01*
X178715414Y-117452981D01*
X178688703Y-117392988D01*
X178660561Y-117339157D01*
X178652418Y-117311490D01*
X178638379Y-117279958D01*
X178626008Y-117221759D01*
X178610672Y-117169651D01*
X178607482Y-117134599D01*
X178599001Y-117094699D01*
X178599001Y-117041408D01*
X178594657Y-116993676D01*
X178599001Y-116952347D01*
X178599001Y-116905301D01*
X178608783Y-116859279D01*
X178613127Y-116817953D01*
X178627298Y-116772173D01*
X178638379Y-116720042D01*
X178654972Y-116682774D01*
X178665378Y-116649157D01*
X178691211Y-116601380D01*
X178715414Y-116547019D01*
X178735702Y-116519095D01*
X178749420Y-116493724D01*
X178788141Y-116446918D01*
X178826739Y-116393793D01*
X178847716Y-116374905D01*
X178862048Y-116357581D01*
X178914155Y-116315083D01*
X178967489Y-116267061D01*
X178986476Y-116256099D01*
X178998975Y-116245905D01*
X179064220Y-116211214D01*
X179131512Y-116172363D01*
X179146364Y-116167537D01*
X179154997Y-116162947D01*
X179232570Y-116139527D01*
X179311640Y-116113835D01*
X179320886Y-116112863D01*
X179324149Y-116111878D01*
X179415290Y-116102941D01*
X179452789Y-116099000D01*
X179547211Y-116099000D01*
X179688360Y-116113835D01*
X179688360Y-116113835D01*
G37*
G36*
X124401000Y-117901000D02*
G01*
X122599000Y-117901000D01*
X122599000Y-116099000D01*
X124401000Y-116099000D01*
X124401000Y-117901000D01*
X124401000Y-117901000D01*
G37*
G36*
X126228360Y-116113835D02*
G01*
X126309397Y-116140166D01*
X126396663Y-116167848D01*
X126399655Y-116169493D01*
X126408488Y-116172363D01*
X126480466Y-116213919D01*
X126551499Y-116252970D01*
X126558986Y-116259253D01*
X126572511Y-116267061D01*
X126630259Y-116319057D01*
X126686857Y-116366549D01*
X126696962Y-116379118D01*
X126713261Y-116393793D01*
X126755454Y-116451867D01*
X126797579Y-116504260D01*
X126807994Y-116524182D01*
X126824586Y-116547019D01*
X126851297Y-116607012D01*
X126879439Y-116660843D01*
X126887582Y-116688510D01*
X126901621Y-116720042D01*
X126913992Y-116778241D01*
X126929328Y-116830349D01*
X126932518Y-116865401D01*
X126940999Y-116905301D01*
X126940999Y-116958592D01*
X126945343Y-117006324D01*
X126940999Y-117047653D01*
X126940999Y-117094699D01*
X126931217Y-117140721D01*
X126926873Y-117182047D01*
X126912702Y-117227827D01*
X126901621Y-117279958D01*
X126885028Y-117317226D01*
X126874622Y-117350843D01*
X126848789Y-117398620D01*
X126824586Y-117452981D01*
X126804298Y-117480905D01*
X126790580Y-117506276D01*
X126751859Y-117553082D01*
X126713261Y-117606207D01*
X126692284Y-117625095D01*
X126677952Y-117642419D01*
X126625845Y-117684917D01*
X126572511Y-117732939D01*
X126553524Y-117743901D01*
X126541025Y-117754095D01*
X126475780Y-117788786D01*
X126408488Y-117827637D01*
X126393636Y-117832463D01*
X126385003Y-117837053D01*
X126307430Y-117860473D01*
X126228360Y-117886165D01*
X126219114Y-117887137D01*
X126215851Y-117888122D01*
X126124710Y-117897059D01*
X126087211Y-117901000D01*
X125992789Y-117901000D01*
X125851640Y-117886165D01*
X125770603Y-117859834D01*
X125683337Y-117832152D01*
X125680345Y-117830507D01*
X125671512Y-117827637D01*
X125599534Y-117786081D01*
X125528501Y-117747030D01*
X125521014Y-117740747D01*
X125507489Y-117732939D01*
X125449741Y-117680943D01*
X125393143Y-117633451D01*
X125383038Y-117620882D01*
X125366739Y-117606207D01*
X125324546Y-117548133D01*
X125282421Y-117495740D01*
X125272006Y-117475818D01*
X125255414Y-117452981D01*
X125228703Y-117392988D01*
X125200561Y-117339157D01*
X125192418Y-117311490D01*
X125178379Y-117279958D01*
X125166008Y-117221759D01*
X125150672Y-117169651D01*
X125147482Y-117134599D01*
X125139001Y-117094699D01*
X125139001Y-117041408D01*
X125134657Y-116993676D01*
X125139001Y-116952347D01*
X125139001Y-116905301D01*
X125148783Y-116859279D01*
X125153127Y-116817953D01*
X125167298Y-116772173D01*
X125178379Y-116720042D01*
X125194972Y-116682774D01*
X125205378Y-116649157D01*
X125231211Y-116601380D01*
X125255414Y-116547019D01*
X125275702Y-116519095D01*
X125289420Y-116493724D01*
X125328141Y-116446918D01*
X125366739Y-116393793D01*
X125387716Y-116374905D01*
X125402048Y-116357581D01*
X125454155Y-116315083D01*
X125507489Y-116267061D01*
X125526476Y-116256099D01*
X125538975Y-116245905D01*
X125604220Y-116211214D01*
X125671512Y-116172363D01*
X125686364Y-116167537D01*
X125694997Y-116162947D01*
X125772570Y-116139527D01*
X125851640Y-116113835D01*
X125860886Y-116112863D01*
X125864149Y-116111878D01*
X125955290Y-116102941D01*
X125992789Y-116099000D01*
X126087211Y-116099000D01*
X126228360Y-116113835D01*
X126228360Y-116113835D01*
G37*
G36*
X140478360Y-115863835D02*
G01*
X140559397Y-115890166D01*
X140646663Y-115917848D01*
X140649655Y-115919493D01*
X140658488Y-115922363D01*
X140730466Y-115963919D01*
X140801499Y-116002970D01*
X140808986Y-116009253D01*
X140822511Y-116017061D01*
X140880259Y-116069057D01*
X140936857Y-116116549D01*
X140946962Y-116129118D01*
X140963261Y-116143793D01*
X141005454Y-116201867D01*
X141047579Y-116254260D01*
X141057994Y-116274182D01*
X141074586Y-116297019D01*
X141101297Y-116357012D01*
X141129439Y-116410843D01*
X141137582Y-116438510D01*
X141151621Y-116470042D01*
X141163992Y-116528241D01*
X141179328Y-116580349D01*
X141182518Y-116615401D01*
X141190999Y-116655301D01*
X141190999Y-116708592D01*
X141195343Y-116756324D01*
X141190999Y-116797653D01*
X141190999Y-116844699D01*
X141181217Y-116890721D01*
X141176873Y-116932047D01*
X141162702Y-116977827D01*
X141151621Y-117029958D01*
X141135028Y-117067226D01*
X141124622Y-117100843D01*
X141098789Y-117148620D01*
X141074586Y-117202981D01*
X141054298Y-117230905D01*
X141040580Y-117256276D01*
X141001859Y-117303082D01*
X140963261Y-117356207D01*
X140942284Y-117375095D01*
X140927952Y-117392419D01*
X140875845Y-117434917D01*
X140822511Y-117482939D01*
X140803524Y-117493901D01*
X140791025Y-117504095D01*
X140725780Y-117538786D01*
X140658488Y-117577637D01*
X140643636Y-117582463D01*
X140635003Y-117587053D01*
X140557430Y-117610473D01*
X140478360Y-117636165D01*
X140469114Y-117637137D01*
X140465851Y-117638122D01*
X140374710Y-117647059D01*
X140337211Y-117651000D01*
X140242789Y-117651000D01*
X140101640Y-117636165D01*
X140020603Y-117609834D01*
X139933337Y-117582152D01*
X139930345Y-117580507D01*
X139921512Y-117577637D01*
X139849534Y-117536081D01*
X139778501Y-117497030D01*
X139771014Y-117490747D01*
X139757489Y-117482939D01*
X139699741Y-117430943D01*
X139643143Y-117383451D01*
X139633038Y-117370882D01*
X139616739Y-117356207D01*
X139574546Y-117298133D01*
X139532421Y-117245740D01*
X139522006Y-117225818D01*
X139505414Y-117202981D01*
X139478703Y-117142988D01*
X139450561Y-117089157D01*
X139442418Y-117061490D01*
X139428379Y-117029958D01*
X139416008Y-116971759D01*
X139400672Y-116919651D01*
X139397482Y-116884599D01*
X139389001Y-116844699D01*
X139389001Y-116791408D01*
X139384657Y-116743676D01*
X139389001Y-116702347D01*
X139389001Y-116655301D01*
X139398783Y-116609279D01*
X139403127Y-116567953D01*
X139417298Y-116522173D01*
X139428379Y-116470042D01*
X139444972Y-116432774D01*
X139455378Y-116399157D01*
X139481211Y-116351380D01*
X139505414Y-116297019D01*
X139525702Y-116269095D01*
X139539420Y-116243724D01*
X139578141Y-116196918D01*
X139616739Y-116143793D01*
X139637716Y-116124905D01*
X139652048Y-116107581D01*
X139704155Y-116065083D01*
X139757489Y-116017061D01*
X139776476Y-116006099D01*
X139788975Y-115995905D01*
X139854220Y-115961214D01*
X139921512Y-115922363D01*
X139936364Y-115917537D01*
X139944997Y-115912947D01*
X140022570Y-115889527D01*
X140101640Y-115863835D01*
X140110886Y-115862863D01*
X140114149Y-115861878D01*
X140205290Y-115852941D01*
X140242789Y-115849000D01*
X140337211Y-115849000D01*
X140478360Y-115863835D01*
X140478360Y-115863835D01*
G37*
G36*
X135398360Y-115863835D02*
G01*
X135479397Y-115890166D01*
X135566663Y-115917848D01*
X135569655Y-115919493D01*
X135578488Y-115922363D01*
X135650466Y-115963919D01*
X135721499Y-116002970D01*
X135728986Y-116009253D01*
X135742511Y-116017061D01*
X135800259Y-116069057D01*
X135856857Y-116116549D01*
X135866962Y-116129118D01*
X135883261Y-116143793D01*
X135925454Y-116201867D01*
X135967579Y-116254260D01*
X135977994Y-116274182D01*
X135994586Y-116297019D01*
X136021297Y-116357012D01*
X136049439Y-116410843D01*
X136057582Y-116438510D01*
X136071621Y-116470042D01*
X136083992Y-116528241D01*
X136099328Y-116580349D01*
X136102518Y-116615401D01*
X136110999Y-116655301D01*
X136110999Y-116708592D01*
X136115343Y-116756324D01*
X136110999Y-116797653D01*
X136110999Y-116844699D01*
X136101217Y-116890721D01*
X136096873Y-116932047D01*
X136082702Y-116977827D01*
X136071621Y-117029958D01*
X136055028Y-117067226D01*
X136044622Y-117100843D01*
X136018789Y-117148620D01*
X135994586Y-117202981D01*
X135974298Y-117230905D01*
X135960580Y-117256276D01*
X135921859Y-117303082D01*
X135883261Y-117356207D01*
X135862284Y-117375095D01*
X135847952Y-117392419D01*
X135795845Y-117434917D01*
X135742511Y-117482939D01*
X135723524Y-117493901D01*
X135711025Y-117504095D01*
X135645780Y-117538786D01*
X135578488Y-117577637D01*
X135563636Y-117582463D01*
X135555003Y-117587053D01*
X135477430Y-117610473D01*
X135398360Y-117636165D01*
X135389114Y-117637137D01*
X135385851Y-117638122D01*
X135294710Y-117647059D01*
X135257211Y-117651000D01*
X135162789Y-117651000D01*
X135021640Y-117636165D01*
X134940603Y-117609834D01*
X134853337Y-117582152D01*
X134850345Y-117580507D01*
X134841512Y-117577637D01*
X134769534Y-117536081D01*
X134698501Y-117497030D01*
X134691014Y-117490747D01*
X134677489Y-117482939D01*
X134619741Y-117430943D01*
X134563143Y-117383451D01*
X134553038Y-117370882D01*
X134536739Y-117356207D01*
X134494546Y-117298133D01*
X134452421Y-117245740D01*
X134442006Y-117225818D01*
X134425414Y-117202981D01*
X134398703Y-117142988D01*
X134370561Y-117089157D01*
X134362418Y-117061490D01*
X134348379Y-117029958D01*
X134336008Y-116971759D01*
X134320672Y-116919651D01*
X134317482Y-116884599D01*
X134309001Y-116844699D01*
X134309001Y-116791408D01*
X134304657Y-116743676D01*
X134309001Y-116702347D01*
X134309001Y-116655301D01*
X134318783Y-116609279D01*
X134323127Y-116567953D01*
X134337298Y-116522173D01*
X134348379Y-116470042D01*
X134364972Y-116432774D01*
X134375378Y-116399157D01*
X134401211Y-116351380D01*
X134425414Y-116297019D01*
X134445702Y-116269095D01*
X134459420Y-116243724D01*
X134498141Y-116196918D01*
X134536739Y-116143793D01*
X134557716Y-116124905D01*
X134572048Y-116107581D01*
X134624155Y-116065083D01*
X134677489Y-116017061D01*
X134696476Y-116006099D01*
X134708975Y-115995905D01*
X134774220Y-115961214D01*
X134841512Y-115922363D01*
X134856364Y-115917537D01*
X134864997Y-115912947D01*
X134942570Y-115889527D01*
X135021640Y-115863835D01*
X135030886Y-115862863D01*
X135034149Y-115861878D01*
X135125290Y-115852941D01*
X135162789Y-115849000D01*
X135257211Y-115849000D01*
X135398360Y-115863835D01*
X135398360Y-115863835D01*
G37*
G36*
X137938360Y-115863835D02*
G01*
X138019397Y-115890166D01*
X138106663Y-115917848D01*
X138109655Y-115919493D01*
X138118488Y-115922363D01*
X138190466Y-115963919D01*
X138261499Y-116002970D01*
X138268986Y-116009253D01*
X138282511Y-116017061D01*
X138340259Y-116069057D01*
X138396857Y-116116549D01*
X138406962Y-116129118D01*
X138423261Y-116143793D01*
X138465454Y-116201867D01*
X138507579Y-116254260D01*
X138517994Y-116274182D01*
X138534586Y-116297019D01*
X138561297Y-116357012D01*
X138589439Y-116410843D01*
X138597582Y-116438510D01*
X138611621Y-116470042D01*
X138623992Y-116528241D01*
X138639328Y-116580349D01*
X138642518Y-116615401D01*
X138650999Y-116655301D01*
X138650999Y-116708592D01*
X138655343Y-116756324D01*
X138650999Y-116797653D01*
X138650999Y-116844699D01*
X138641217Y-116890721D01*
X138636873Y-116932047D01*
X138622702Y-116977827D01*
X138611621Y-117029958D01*
X138595028Y-117067226D01*
X138584622Y-117100843D01*
X138558789Y-117148620D01*
X138534586Y-117202981D01*
X138514298Y-117230905D01*
X138500580Y-117256276D01*
X138461859Y-117303082D01*
X138423261Y-117356207D01*
X138402284Y-117375095D01*
X138387952Y-117392419D01*
X138335845Y-117434917D01*
X138282511Y-117482939D01*
X138263524Y-117493901D01*
X138251025Y-117504095D01*
X138185780Y-117538786D01*
X138118488Y-117577637D01*
X138103636Y-117582463D01*
X138095003Y-117587053D01*
X138017430Y-117610473D01*
X137938360Y-117636165D01*
X137929114Y-117637137D01*
X137925851Y-117638122D01*
X137834710Y-117647059D01*
X137797211Y-117651000D01*
X137702789Y-117651000D01*
X137561640Y-117636165D01*
X137480603Y-117609834D01*
X137393337Y-117582152D01*
X137390345Y-117580507D01*
X137381512Y-117577637D01*
X137309534Y-117536081D01*
X137238501Y-117497030D01*
X137231014Y-117490747D01*
X137217489Y-117482939D01*
X137159741Y-117430943D01*
X137103143Y-117383451D01*
X137093038Y-117370882D01*
X137076739Y-117356207D01*
X137034546Y-117298133D01*
X136992421Y-117245740D01*
X136982006Y-117225818D01*
X136965414Y-117202981D01*
X136938703Y-117142988D01*
X136910561Y-117089157D01*
X136902418Y-117061490D01*
X136888379Y-117029958D01*
X136876008Y-116971759D01*
X136860672Y-116919651D01*
X136857482Y-116884599D01*
X136849001Y-116844699D01*
X136849001Y-116791408D01*
X136844657Y-116743676D01*
X136849001Y-116702347D01*
X136849001Y-116655301D01*
X136858783Y-116609279D01*
X136863127Y-116567953D01*
X136877298Y-116522173D01*
X136888379Y-116470042D01*
X136904972Y-116432774D01*
X136915378Y-116399157D01*
X136941211Y-116351380D01*
X136965414Y-116297019D01*
X136985702Y-116269095D01*
X136999420Y-116243724D01*
X137038141Y-116196918D01*
X137076739Y-116143793D01*
X137097716Y-116124905D01*
X137112048Y-116107581D01*
X137164155Y-116065083D01*
X137217489Y-116017061D01*
X137236476Y-116006099D01*
X137248975Y-115995905D01*
X137314220Y-115961214D01*
X137381512Y-115922363D01*
X137396364Y-115917537D01*
X137404997Y-115912947D01*
X137482570Y-115889527D01*
X137561640Y-115863835D01*
X137570886Y-115862863D01*
X137574149Y-115861878D01*
X137665290Y-115852941D01*
X137702789Y-115849000D01*
X137797211Y-115849000D01*
X137938360Y-115863835D01*
X137938360Y-115863835D01*
G37*
G36*
X143731000Y-117651000D02*
G01*
X141929000Y-117651000D01*
X141929000Y-115849000D01*
X143731000Y-115849000D01*
X143731000Y-117651000D01*
X143731000Y-117651000D01*
G37*
G36*
X115301000Y-102901000D02*
G01*
X113199000Y-102901000D01*
X113199000Y-101099000D01*
X115301000Y-101099000D01*
X115301000Y-102901000D01*
X115301000Y-102901000D01*
G37*
G36*
X114588360Y-98613835D02*
G01*
X114669397Y-98640166D01*
X114756663Y-98667848D01*
X114759655Y-98669493D01*
X114768488Y-98672363D01*
X114840466Y-98713919D01*
X114911499Y-98752970D01*
X114918986Y-98759253D01*
X114932511Y-98767061D01*
X114990259Y-98819057D01*
X115046857Y-98866549D01*
X115056962Y-98879118D01*
X115073261Y-98893793D01*
X115115454Y-98951867D01*
X115157579Y-99004260D01*
X115167994Y-99024182D01*
X115184586Y-99047019D01*
X115211297Y-99107012D01*
X115239439Y-99160843D01*
X115247582Y-99188510D01*
X115261621Y-99220042D01*
X115273992Y-99278241D01*
X115289328Y-99330349D01*
X115292518Y-99365401D01*
X115300999Y-99405301D01*
X115300999Y-99458592D01*
X115305343Y-99506324D01*
X115300999Y-99547653D01*
X115300999Y-99594699D01*
X115291217Y-99640721D01*
X115286873Y-99682047D01*
X115272702Y-99727827D01*
X115261621Y-99779958D01*
X115245028Y-99817226D01*
X115234622Y-99850843D01*
X115208789Y-99898620D01*
X115184586Y-99952981D01*
X115164298Y-99980905D01*
X115150580Y-100006276D01*
X115111859Y-100053082D01*
X115073261Y-100106207D01*
X115052284Y-100125095D01*
X115037952Y-100142419D01*
X114985845Y-100184917D01*
X114932511Y-100232939D01*
X114913524Y-100243901D01*
X114901025Y-100254095D01*
X114835780Y-100288786D01*
X114768488Y-100327637D01*
X114753636Y-100332463D01*
X114745003Y-100337053D01*
X114667430Y-100360473D01*
X114588360Y-100386165D01*
X114579114Y-100387137D01*
X114575851Y-100388122D01*
X114484710Y-100397059D01*
X114447211Y-100401000D01*
X114052789Y-100401000D01*
X113911640Y-100386165D01*
X113830603Y-100359834D01*
X113743337Y-100332152D01*
X113740345Y-100330507D01*
X113731512Y-100327637D01*
X113659534Y-100286081D01*
X113588501Y-100247030D01*
X113581014Y-100240747D01*
X113567489Y-100232939D01*
X113509741Y-100180943D01*
X113453143Y-100133451D01*
X113443038Y-100120882D01*
X113426739Y-100106207D01*
X113384546Y-100048133D01*
X113342421Y-99995740D01*
X113332006Y-99975818D01*
X113315414Y-99952981D01*
X113288703Y-99892988D01*
X113260561Y-99839157D01*
X113252418Y-99811490D01*
X113238379Y-99779958D01*
X113226008Y-99721759D01*
X113210672Y-99669651D01*
X113207482Y-99634599D01*
X113199001Y-99594699D01*
X113199001Y-99541408D01*
X113194657Y-99493676D01*
X113199001Y-99452347D01*
X113199001Y-99405301D01*
X113208783Y-99359279D01*
X113213127Y-99317953D01*
X113227298Y-99272173D01*
X113238379Y-99220042D01*
X113254972Y-99182774D01*
X113265378Y-99149157D01*
X113291211Y-99101380D01*
X113315414Y-99047019D01*
X113335702Y-99019095D01*
X113349420Y-98993724D01*
X113388141Y-98946918D01*
X113426739Y-98893793D01*
X113447716Y-98874905D01*
X113462048Y-98857581D01*
X113514155Y-98815083D01*
X113567489Y-98767061D01*
X113586476Y-98756099D01*
X113598975Y-98745905D01*
X113664220Y-98711214D01*
X113731512Y-98672363D01*
X113746364Y-98667537D01*
X113754997Y-98662947D01*
X113832570Y-98639527D01*
X113911640Y-98613835D01*
X113920886Y-98612863D01*
X113924149Y-98611878D01*
X114015290Y-98602941D01*
X114052789Y-98599000D01*
X114447211Y-98599000D01*
X114588360Y-98613835D01*
X114588360Y-98613835D01*
G37*
G36*
X136398360Y-96363835D02*
G01*
X136479397Y-96390166D01*
X136566663Y-96417848D01*
X136569655Y-96419493D01*
X136578488Y-96422363D01*
X136650466Y-96463919D01*
X136721499Y-96502970D01*
X136728986Y-96509253D01*
X136742511Y-96517061D01*
X136800259Y-96569057D01*
X136856857Y-96616549D01*
X136866962Y-96629118D01*
X136883261Y-96643793D01*
X136925454Y-96701867D01*
X136967579Y-96754260D01*
X136977994Y-96774182D01*
X136994586Y-96797019D01*
X137021297Y-96857012D01*
X137049439Y-96910843D01*
X137057582Y-96938510D01*
X137071621Y-96970042D01*
X137083992Y-97028241D01*
X137099328Y-97080349D01*
X137102518Y-97115401D01*
X137110999Y-97155301D01*
X137110999Y-97208592D01*
X137115343Y-97256324D01*
X137110999Y-97297653D01*
X137110999Y-97344699D01*
X137101217Y-97390721D01*
X137096873Y-97432047D01*
X137082702Y-97477827D01*
X137071621Y-97529958D01*
X137055028Y-97567226D01*
X137044622Y-97600843D01*
X137018789Y-97648620D01*
X136994586Y-97702981D01*
X136974298Y-97730905D01*
X136960580Y-97756276D01*
X136921859Y-97803082D01*
X136883261Y-97856207D01*
X136862284Y-97875095D01*
X136847952Y-97892419D01*
X136795845Y-97934917D01*
X136742511Y-97982939D01*
X136723524Y-97993901D01*
X136711025Y-98004095D01*
X136645780Y-98038786D01*
X136578488Y-98077637D01*
X136563636Y-98082463D01*
X136555003Y-98087053D01*
X136477430Y-98110473D01*
X136398360Y-98136165D01*
X136389114Y-98137137D01*
X136385851Y-98138122D01*
X136294710Y-98147059D01*
X136257211Y-98151000D01*
X136162789Y-98151000D01*
X136021640Y-98136165D01*
X135940603Y-98109834D01*
X135853337Y-98082152D01*
X135850345Y-98080507D01*
X135841512Y-98077637D01*
X135769534Y-98036081D01*
X135698501Y-97997030D01*
X135691014Y-97990747D01*
X135677489Y-97982939D01*
X135619741Y-97930943D01*
X135563143Y-97883451D01*
X135553038Y-97870882D01*
X135536739Y-97856207D01*
X135494546Y-97798133D01*
X135452421Y-97745740D01*
X135442006Y-97725818D01*
X135425414Y-97702981D01*
X135398703Y-97642988D01*
X135370561Y-97589157D01*
X135362418Y-97561490D01*
X135348379Y-97529958D01*
X135336008Y-97471759D01*
X135320672Y-97419651D01*
X135317482Y-97384599D01*
X135309001Y-97344699D01*
X135309001Y-97291408D01*
X135304657Y-97243676D01*
X135309001Y-97202347D01*
X135309001Y-97155301D01*
X135318783Y-97109279D01*
X135323127Y-97067953D01*
X135337298Y-97022173D01*
X135348379Y-96970042D01*
X135364972Y-96932774D01*
X135375378Y-96899157D01*
X135401211Y-96851380D01*
X135425414Y-96797019D01*
X135445702Y-96769095D01*
X135459420Y-96743724D01*
X135498141Y-96696918D01*
X135536739Y-96643793D01*
X135557716Y-96624905D01*
X135572048Y-96607581D01*
X135624155Y-96565083D01*
X135677489Y-96517061D01*
X135696476Y-96506099D01*
X135708975Y-96495905D01*
X135774220Y-96461214D01*
X135841512Y-96422363D01*
X135856364Y-96417537D01*
X135864997Y-96412947D01*
X135942570Y-96389527D01*
X136021640Y-96363835D01*
X136030886Y-96362863D01*
X136034149Y-96361878D01*
X136125290Y-96352941D01*
X136162789Y-96349000D01*
X136257211Y-96349000D01*
X136398360Y-96363835D01*
X136398360Y-96363835D01*
G37*
G36*
X141478360Y-96363835D02*
G01*
X141559397Y-96390166D01*
X141646663Y-96417848D01*
X141649655Y-96419493D01*
X141658488Y-96422363D01*
X141730466Y-96463919D01*
X141801499Y-96502970D01*
X141808986Y-96509253D01*
X141822511Y-96517061D01*
X141880259Y-96569057D01*
X141936857Y-96616549D01*
X141946962Y-96629118D01*
X141963261Y-96643793D01*
X142005454Y-96701867D01*
X142047579Y-96754260D01*
X142057994Y-96774182D01*
X142074586Y-96797019D01*
X142101297Y-96857012D01*
X142129439Y-96910843D01*
X142137582Y-96938510D01*
X142151621Y-96970042D01*
X142163992Y-97028241D01*
X142179328Y-97080349D01*
X142182518Y-97115401D01*
X142190999Y-97155301D01*
X142190999Y-97208592D01*
X142195343Y-97256324D01*
X142190999Y-97297653D01*
X142190999Y-97344699D01*
X142181217Y-97390721D01*
X142176873Y-97432047D01*
X142162702Y-97477827D01*
X142151621Y-97529958D01*
X142135028Y-97567226D01*
X142124622Y-97600843D01*
X142098789Y-97648620D01*
X142074586Y-97702981D01*
X142054298Y-97730905D01*
X142040580Y-97756276D01*
X142001859Y-97803082D01*
X141963261Y-97856207D01*
X141942284Y-97875095D01*
X141927952Y-97892419D01*
X141875845Y-97934917D01*
X141822511Y-97982939D01*
X141803524Y-97993901D01*
X141791025Y-98004095D01*
X141725780Y-98038786D01*
X141658488Y-98077637D01*
X141643636Y-98082463D01*
X141635003Y-98087053D01*
X141557430Y-98110473D01*
X141478360Y-98136165D01*
X141469114Y-98137137D01*
X141465851Y-98138122D01*
X141374710Y-98147059D01*
X141337211Y-98151000D01*
X141242789Y-98151000D01*
X141101640Y-98136165D01*
X141020603Y-98109834D01*
X140933337Y-98082152D01*
X140930345Y-98080507D01*
X140921512Y-98077637D01*
X140849534Y-98036081D01*
X140778501Y-97997030D01*
X140771014Y-97990747D01*
X140757489Y-97982939D01*
X140699741Y-97930943D01*
X140643143Y-97883451D01*
X140633038Y-97870882D01*
X140616739Y-97856207D01*
X140574546Y-97798133D01*
X140532421Y-97745740D01*
X140522006Y-97725818D01*
X140505414Y-97702981D01*
X140478703Y-97642988D01*
X140450561Y-97589157D01*
X140442418Y-97561490D01*
X140428379Y-97529958D01*
X140416008Y-97471759D01*
X140400672Y-97419651D01*
X140397482Y-97384599D01*
X140389001Y-97344699D01*
X140389001Y-97291408D01*
X140384657Y-97243676D01*
X140389001Y-97202347D01*
X140389001Y-97155301D01*
X140398783Y-97109279D01*
X140403127Y-97067953D01*
X140417298Y-97022173D01*
X140428379Y-96970042D01*
X140444972Y-96932774D01*
X140455378Y-96899157D01*
X140481211Y-96851380D01*
X140505414Y-96797019D01*
X140525702Y-96769095D01*
X140539420Y-96743724D01*
X140578141Y-96696918D01*
X140616739Y-96643793D01*
X140637716Y-96624905D01*
X140652048Y-96607581D01*
X140704155Y-96565083D01*
X140757489Y-96517061D01*
X140776476Y-96506099D01*
X140788975Y-96495905D01*
X140854220Y-96461214D01*
X140921512Y-96422363D01*
X140936364Y-96417537D01*
X140944997Y-96412947D01*
X141022570Y-96389527D01*
X141101640Y-96363835D01*
X141110886Y-96362863D01*
X141114149Y-96361878D01*
X141205290Y-96352941D01*
X141242789Y-96349000D01*
X141337211Y-96349000D01*
X141478360Y-96363835D01*
X141478360Y-96363835D01*
G37*
G36*
X138938360Y-96363835D02*
G01*
X139019397Y-96390166D01*
X139106663Y-96417848D01*
X139109655Y-96419493D01*
X139118488Y-96422363D01*
X139190466Y-96463919D01*
X139261499Y-96502970D01*
X139268986Y-96509253D01*
X139282511Y-96517061D01*
X139340259Y-96569057D01*
X139396857Y-96616549D01*
X139406962Y-96629118D01*
X139423261Y-96643793D01*
X139465454Y-96701867D01*
X139507579Y-96754260D01*
X139517994Y-96774182D01*
X139534586Y-96797019D01*
X139561297Y-96857012D01*
X139589439Y-96910843D01*
X139597582Y-96938510D01*
X139611621Y-96970042D01*
X139623992Y-97028241D01*
X139639328Y-97080349D01*
X139642518Y-97115401D01*
X139650999Y-97155301D01*
X139650999Y-97208592D01*
X139655343Y-97256324D01*
X139650999Y-97297653D01*
X139650999Y-97344699D01*
X139641217Y-97390721D01*
X139636873Y-97432047D01*
X139622702Y-97477827D01*
X139611621Y-97529958D01*
X139595028Y-97567226D01*
X139584622Y-97600843D01*
X139558789Y-97648620D01*
X139534586Y-97702981D01*
X139514298Y-97730905D01*
X139500580Y-97756276D01*
X139461859Y-97803082D01*
X139423261Y-97856207D01*
X139402284Y-97875095D01*
X139387952Y-97892419D01*
X139335845Y-97934917D01*
X139282511Y-97982939D01*
X139263524Y-97993901D01*
X139251025Y-98004095D01*
X139185780Y-98038786D01*
X139118488Y-98077637D01*
X139103636Y-98082463D01*
X139095003Y-98087053D01*
X139017430Y-98110473D01*
X138938360Y-98136165D01*
X138929114Y-98137137D01*
X138925851Y-98138122D01*
X138834710Y-98147059D01*
X138797211Y-98151000D01*
X138702789Y-98151000D01*
X138561640Y-98136165D01*
X138480603Y-98109834D01*
X138393337Y-98082152D01*
X138390345Y-98080507D01*
X138381512Y-98077637D01*
X138309534Y-98036081D01*
X138238501Y-97997030D01*
X138231014Y-97990747D01*
X138217489Y-97982939D01*
X138159741Y-97930943D01*
X138103143Y-97883451D01*
X138093038Y-97870882D01*
X138076739Y-97856207D01*
X138034546Y-97798133D01*
X137992421Y-97745740D01*
X137982006Y-97725818D01*
X137965414Y-97702981D01*
X137938703Y-97642988D01*
X137910561Y-97589157D01*
X137902418Y-97561490D01*
X137888379Y-97529958D01*
X137876008Y-97471759D01*
X137860672Y-97419651D01*
X137857482Y-97384599D01*
X137849001Y-97344699D01*
X137849001Y-97291408D01*
X137844657Y-97243676D01*
X137849001Y-97202347D01*
X137849001Y-97155301D01*
X137858783Y-97109279D01*
X137863127Y-97067953D01*
X137877298Y-97022173D01*
X137888379Y-96970042D01*
X137904972Y-96932774D01*
X137915378Y-96899157D01*
X137941211Y-96851380D01*
X137965414Y-96797019D01*
X137985702Y-96769095D01*
X137999420Y-96743724D01*
X138038141Y-96696918D01*
X138076739Y-96643793D01*
X138097716Y-96624905D01*
X138112048Y-96607581D01*
X138164155Y-96565083D01*
X138217489Y-96517061D01*
X138236476Y-96506099D01*
X138248975Y-96495905D01*
X138314220Y-96461214D01*
X138381512Y-96422363D01*
X138396364Y-96417537D01*
X138404997Y-96412947D01*
X138482570Y-96389527D01*
X138561640Y-96363835D01*
X138570886Y-96362863D01*
X138574149Y-96361878D01*
X138665290Y-96352941D01*
X138702789Y-96349000D01*
X138797211Y-96349000D01*
X138938360Y-96363835D01*
X138938360Y-96363835D01*
G37*
G36*
X134571000Y-98151000D02*
G01*
X132769000Y-98151000D01*
X132769000Y-96349000D01*
X134571000Y-96349000D01*
X134571000Y-98151000D01*
X134571000Y-98151000D01*
G37*
G36*
X186594141Y-83700217D02*
G01*
X186657370Y-83701265D01*
X186721381Y-83711461D01*
X186791865Y-83717689D01*
X186853022Y-83732428D01*
X186909244Y-83741383D01*
X186977222Y-83762361D01*
X187052101Y-83780407D01*
X187104580Y-83801663D01*
X187152950Y-83816590D01*
X187223007Y-83849631D01*
X187300209Y-83880901D01*
X187343559Y-83906487D01*
X187383635Y-83925388D01*
X187453619Y-83971447D01*
X187530737Y-84016963D01*
X187564943Y-84044712D01*
X187596680Y-84065599D01*
X187664229Y-84125256D01*
X187738622Y-84185606D01*
X187764098Y-84213457D01*
X187787850Y-84234434D01*
X187850445Y-84307854D01*
X187919297Y-84383124D01*
X187936862Y-84409215D01*
X187953318Y-84428516D01*
X188008346Y-84515393D01*
X188068792Y-84605177D01*
X188079601Y-84627889D01*
X188089799Y-84643990D01*
X188134708Y-84743684D01*
X188183823Y-84846888D01*
X188189315Y-84864906D01*
X188194548Y-84876524D01*
X188226801Y-84987902D01*
X188261864Y-85102947D01*
X188263706Y-85115345D01*
X188265492Y-85121513D01*
X188282746Y-85243512D01*
X188301200Y-85367728D01*
X188291411Y-85729485D01*
X188289007Y-85741247D01*
X188288923Y-85743859D01*
X188263236Y-85867356D01*
X188237814Y-85991752D01*
X188194259Y-86111093D01*
X188150782Y-86231525D01*
X188149259Y-86234395D01*
X188146040Y-86243216D01*
X188087171Y-86351414D01*
X188031240Y-86456827D01*
X188025602Y-86464572D01*
X188018105Y-86478352D01*
X187947415Y-86571991D01*
X187881148Y-86663033D01*
X187870074Y-86674441D01*
X187856821Y-86691996D01*
X187777386Y-86769920D01*
X187703496Y-86846036D01*
X187685931Y-86859636D01*
X187665729Y-86879454D01*
X187580628Y-86941170D01*
X187501829Y-87002182D01*
X187477038Y-87016294D01*
X187449028Y-87036607D01*
X187361263Y-87082198D01*
X187280176Y-87128355D01*
X187247768Y-87141154D01*
X187211479Y-87160004D01*
X187123823Y-87190101D01*
X187042960Y-87222035D01*
X187002945Y-87231605D01*
X186958300Y-87246934D01*
X186873299Y-87262611D01*
X186794896Y-87281362D01*
X186747635Y-87285788D01*
X186695052Y-87295486D01*
X186614955Y-87298213D01*
X186540967Y-87305142D01*
X186487244Y-87302562D01*
X186427520Y-87304595D01*
X186354117Y-87296167D01*
X186286207Y-87292905D01*
X186227189Y-87281593D01*
X186161580Y-87274060D01*
X186096284Y-87256503D01*
X186035721Y-87244895D01*
X185972924Y-87223333D01*
X185903074Y-87204552D01*
X185846842Y-87180043D01*
X185794496Y-87162070D01*
X185729735Y-87129002D01*
X185657682Y-87097597D01*
X185611022Y-87068384D01*
X185567344Y-87046081D01*
X185502721Y-87000579D01*
X185430795Y-86955547D01*
X185393738Y-86923842D01*
X185358803Y-86899243D01*
X185296633Y-86840760D01*
X185227395Y-86781520D01*
X185199556Y-86749438D01*
X185173034Y-86724489D01*
X185115760Y-86652872D01*
X185051953Y-86579341D01*
X185032545Y-86548818D01*
X185013738Y-86525301D01*
X184963883Y-86440832D01*
X184908322Y-86353450D01*
X184896195Y-86326148D01*
X184884102Y-86305659D01*
X184844213Y-86209121D01*
X184799657Y-86108811D01*
X184793376Y-86086087D01*
X184786703Y-86069936D01*
X184759212Y-85962474D01*
X184728346Y-85850797D01*
X184726256Y-85833651D01*
X184723492Y-85822847D01*
X184710690Y-85705959D01*
X184695955Y-85585077D01*
X184696251Y-85574121D01*
X184695725Y-85569314D01*
X184699774Y-85443943D01*
X184703196Y-85317487D01*
X184724964Y-85194660D01*
X184748030Y-85063180D01*
X184748546Y-85061595D01*
X184749909Y-85053907D01*
X184789515Y-84935880D01*
X184827052Y-84820694D01*
X184830576Y-84813517D01*
X184835069Y-84800127D01*
X184889136Y-84694243D01*
X184939462Y-84591742D01*
X184947518Y-84579910D01*
X184956805Y-84561723D01*
X185022396Y-84469937D01*
X185083001Y-84380927D01*
X185096900Y-84365679D01*
X185112442Y-84343930D01*
X185186617Y-84267253D01*
X185254822Y-84192428D01*
X185275600Y-84175270D01*
X185298561Y-84151534D01*
X185378318Y-84090445D01*
X185451478Y-84030029D01*
X185479853Y-84012675D01*
X185511073Y-83988762D01*
X185593535Y-83943147D01*
X185669059Y-83896956D01*
X185705391Y-83881271D01*
X185745311Y-83859189D01*
X185827761Y-83828444D01*
X185903226Y-83795866D01*
X185947494Y-83783797D01*
X185996128Y-83765662D01*
X186076080Y-83748740D01*
X186149287Y-83728782D01*
X186201078Y-83722285D01*
X186258014Y-83710235D01*
X186333345Y-83705693D01*
X186402353Y-83697037D01*
X186460845Y-83698007D01*
X186525216Y-83694126D01*
X186594141Y-83700217D01*
X186594141Y-83700217D01*
G37*
G36*
X116301000Y-87301000D02*
G01*
X112699000Y-87301000D01*
X112699000Y-83699000D01*
X116301000Y-83699000D01*
X116301000Y-87301000D01*
X116301000Y-87301000D01*
G37*
M02*
