G04 #@! TF.GenerationSoftware,KiCad,Pcbnew,6.0.0-unknown*
G04 #@! TF.CreationDate,2019-06-26T08:34:25-07:00*
G04 #@! TF.ProjectId,IOT-LORA,494f542d-4c4f-4524-912e-6b696361645f,rev?*
G04 #@! TF.SameCoordinates,Original*
G04 #@! TF.FileFunction,Legend,Bot*
G04 #@! TF.FilePolarity,Positive*
%FSLAX46Y46*%
G04 Gerber Fmt 4.6, Leading zero omitted, Abs format (unit mm)*
G04 Created by KiCad (PCBNEW 6.0.0-unknown) date 2019-06-26 08:34:25*
%MOMM*%
%LPD*%
G04 APERTURE LIST*
%ADD10C,0.300000*%
%ADD11C,0.250000*%
G04 APERTURE END LIST*
D10*
X117107142Y-102928571D02*
X117107142Y-101785714D01*
X117678571Y-102357142D02*
X116535714Y-102357142D01*
X116178571Y-100357142D02*
X116178571Y-101071428D01*
X116892857Y-101142857D01*
X116821428Y-101071428D01*
X116750000Y-100928571D01*
X116750000Y-100571428D01*
X116821428Y-100428571D01*
X116892857Y-100357142D01*
X117035714Y-100285714D01*
X117392857Y-100285714D01*
X117535714Y-100357142D01*
X117607142Y-100428571D01*
X117678571Y-100571428D01*
X117678571Y-100928571D01*
X117607142Y-101071428D01*
X117535714Y-101142857D01*
X116178571Y-99857142D02*
X117678571Y-99357142D01*
X116178571Y-98857142D01*
X189392857Y-102678571D02*
X190107142Y-102678571D01*
X190107142Y-101178571D01*
X188607142Y-101178571D02*
X188321428Y-101178571D01*
X188178571Y-101250000D01*
X188035714Y-101392857D01*
X187964285Y-101678571D01*
X187964285Y-102178571D01*
X188035714Y-102464285D01*
X188178571Y-102607142D01*
X188321428Y-102678571D01*
X188607142Y-102678571D01*
X188750000Y-102607142D01*
X188892857Y-102464285D01*
X188964285Y-102178571D01*
X188964285Y-101678571D01*
X188892857Y-101392857D01*
X188750000Y-101250000D01*
X188607142Y-101178571D01*
X186464285Y-102678571D02*
X186964285Y-101964285D01*
X187321428Y-102678571D02*
X187321428Y-101178571D01*
X186750000Y-101178571D01*
X186607142Y-101250000D01*
X186535714Y-101321428D01*
X186464285Y-101464285D01*
X186464285Y-101678571D01*
X186535714Y-101821428D01*
X186607142Y-101892857D01*
X186750000Y-101964285D01*
X187321428Y-101964285D01*
X185892857Y-102250000D02*
X185178571Y-102250000D01*
X186035714Y-102678571D02*
X185535714Y-101178571D01*
X185035714Y-102678571D01*
X183464285Y-102607142D02*
X183250000Y-102678571D01*
X182892857Y-102678571D01*
X182750000Y-102607142D01*
X182678571Y-102535714D01*
X182607142Y-102392857D01*
X182607142Y-102250000D01*
X182678571Y-102107142D01*
X182750000Y-102035714D01*
X182892857Y-101964285D01*
X183178571Y-101892857D01*
X183321428Y-101821428D01*
X183392857Y-101750000D01*
X183464285Y-101607142D01*
X183464285Y-101464285D01*
X183392857Y-101321428D01*
X183321428Y-101250000D01*
X183178571Y-101178571D01*
X182821428Y-101178571D01*
X182607142Y-101250000D01*
X182178571Y-101178571D02*
X181321428Y-101178571D01*
X181750000Y-102678571D02*
X181750000Y-101178571D01*
X180892857Y-102250000D02*
X180178571Y-102250000D01*
X181035714Y-102678571D02*
X180535714Y-101178571D01*
X180035714Y-102678571D01*
X179750000Y-101178571D02*
X178892857Y-101178571D01*
X179321428Y-102678571D02*
X179321428Y-101178571D01*
X178392857Y-102678571D02*
X178392857Y-101178571D01*
X177392857Y-101178571D02*
X177107142Y-101178571D01*
X176964285Y-101250000D01*
X176821428Y-101392857D01*
X176750000Y-101678571D01*
X176750000Y-102178571D01*
X176821428Y-102464285D01*
X176964285Y-102607142D01*
X177107142Y-102678571D01*
X177392857Y-102678571D01*
X177535714Y-102607142D01*
X177678571Y-102464285D01*
X177750000Y-102178571D01*
X177750000Y-101678571D01*
X177678571Y-101392857D01*
X177535714Y-101250000D01*
X177392857Y-101178571D01*
X176107142Y-102678571D02*
X176107142Y-101178571D01*
X175250000Y-102678571D01*
X175250000Y-101178571D01*
X173607142Y-101178571D02*
X173107142Y-102678571D01*
X172607142Y-101178571D01*
X171321428Y-102678571D02*
X172178571Y-102678571D01*
X171750000Y-102678571D02*
X171750000Y-101178571D01*
X171892857Y-101392857D01*
X172035714Y-101535714D01*
X172178571Y-101607142D01*
D11*
X112047619Y-97535714D02*
X112000000Y-97488095D01*
X111952380Y-97392857D01*
X111952380Y-97154761D01*
X112000000Y-97059523D01*
X112047619Y-97011904D01*
X112142857Y-96964285D01*
X112238095Y-96964285D01*
X112380952Y-97011904D01*
X112952380Y-97583333D01*
X112952380Y-96964285D01*
X113202380Y-103714285D02*
X113202380Y-104285714D01*
X113202380Y-104000000D02*
X112202380Y-104000000D01*
X112345238Y-104095238D01*
X112440476Y-104190476D01*
X112488095Y-104285714D01*
M02*
