G04 #@! TF.GenerationSoftware,KiCad,Pcbnew,6.0.0-unknown*
G04 #@! TF.CreationDate,2019-06-26T08:34:25-07:00*
G04 #@! TF.ProjectId,IOT-LORA,494f542d-4c4f-4524-912e-6b696361645f,rev?*
G04 #@! TF.SameCoordinates,Original*
G04 #@! TF.FileFunction,Legend,Top*
G04 #@! TF.FilePolarity,Positive*
%FSLAX46Y46*%
G04 Gerber Fmt 4.6, Leading zero omitted, Abs format (unit mm)*
G04 Created by KiCad (PCBNEW 6.0.0-unknown) date 2019-06-26 08:34:25*
%MOMM*%
%LPD*%
G04 APERTURE LIST*
%ADD10C,0.100000*%
%ADD11C,0.250000*%
%ADD12C,0.150000*%
%ADD13C,0.120000*%
G04 APERTURE END LIST*
D10*
G36*
X166250000Y-115000000D02*
G01*
X165250000Y-115000000D01*
X165750000Y-114000000D01*
X166250000Y-115000000D01*
G37*
X166250000Y-115000000D02*
X165250000Y-115000000D01*
X165750000Y-114000000D01*
X166250000Y-115000000D01*
D11*
X105802380Y-103869047D02*
X105802380Y-104345238D01*
X106278571Y-104392857D01*
X106230952Y-104345238D01*
X106183333Y-104250000D01*
X106183333Y-104011904D01*
X106230952Y-103916666D01*
X106278571Y-103869047D01*
X106373809Y-103821428D01*
X106611904Y-103821428D01*
X106707142Y-103869047D01*
X106754761Y-103916666D01*
X106802380Y-104011904D01*
X106802380Y-104250000D01*
X106754761Y-104345238D01*
X106707142Y-104392857D01*
X105897619Y-103440476D02*
X105850000Y-103392857D01*
X105802380Y-103297619D01*
X105802380Y-103059523D01*
X105850000Y-102964285D01*
X105897619Y-102916666D01*
X105992857Y-102869047D01*
X106088095Y-102869047D01*
X106230952Y-102916666D01*
X106802380Y-103488095D01*
X106802380Y-102869047D01*
X106707142Y-102440476D02*
X106754761Y-102392857D01*
X106802380Y-102440476D01*
X106754761Y-102488095D01*
X106707142Y-102440476D01*
X106802380Y-102440476D01*
X105802380Y-101488095D02*
X105802380Y-101964285D01*
X106278571Y-102011904D01*
X106230952Y-101964285D01*
X106183333Y-101869047D01*
X106183333Y-101630952D01*
X106230952Y-101535714D01*
X106278571Y-101488095D01*
X106373809Y-101440476D01*
X106611904Y-101440476D01*
X106707142Y-101488095D01*
X106754761Y-101535714D01*
X106802380Y-101630952D01*
X106802380Y-101869047D01*
X106754761Y-101964285D01*
X106707142Y-102011904D01*
X105802380Y-100821428D02*
X105802380Y-100726190D01*
X105850000Y-100630952D01*
X105897619Y-100583333D01*
X105992857Y-100535714D01*
X106183333Y-100488095D01*
X106421428Y-100488095D01*
X106611904Y-100535714D01*
X106707142Y-100583333D01*
X106754761Y-100630952D01*
X106802380Y-100726190D01*
X106802380Y-100821428D01*
X106754761Y-100916666D01*
X106707142Y-100964285D01*
X106611904Y-101011904D01*
X106421428Y-101059523D01*
X106183333Y-101059523D01*
X105992857Y-101011904D01*
X105897619Y-100964285D01*
X105850000Y-100916666D01*
X105802380Y-100821428D01*
X105802380Y-99869047D02*
X105802380Y-99773809D01*
X105850000Y-99678571D01*
X105897619Y-99630952D01*
X105992857Y-99583333D01*
X106183333Y-99535714D01*
X106421428Y-99535714D01*
X106611904Y-99583333D01*
X106707142Y-99630952D01*
X106754761Y-99678571D01*
X106802380Y-99773809D01*
X106802380Y-99869047D01*
X106754761Y-99964285D01*
X106707142Y-100011904D01*
X106611904Y-100059523D01*
X106421428Y-100107142D01*
X106183333Y-100107142D01*
X105992857Y-100059523D01*
X105897619Y-100011904D01*
X105850000Y-99964285D01*
X105802380Y-99869047D01*
X106802380Y-98345238D02*
X106135714Y-98345238D01*
X106230952Y-98345238D02*
X106183333Y-98297619D01*
X106135714Y-98202380D01*
X106135714Y-98059523D01*
X106183333Y-97964285D01*
X106278571Y-97916666D01*
X106802380Y-97916666D01*
X106278571Y-97916666D02*
X106183333Y-97869047D01*
X106135714Y-97773809D01*
X106135714Y-97630952D01*
X106183333Y-97535714D01*
X106278571Y-97488095D01*
X106802380Y-97488095D01*
X106802380Y-97011904D02*
X106135714Y-97011904D01*
X106230952Y-97011904D02*
X106183333Y-96964285D01*
X106135714Y-96869047D01*
X106135714Y-96726190D01*
X106183333Y-96630952D01*
X106278571Y-96583333D01*
X106802380Y-96583333D01*
X106278571Y-96583333D02*
X106183333Y-96535714D01*
X106135714Y-96440476D01*
X106135714Y-96297619D01*
X106183333Y-96202380D01*
X106278571Y-96154761D01*
X106802380Y-96154761D01*
D12*
X107750000Y-126500000D02*
X107750000Y-74000000D01*
X110250000Y-126500000D02*
X107163579Y-126500000D01*
X110250000Y-74000000D02*
X107163579Y-74000000D01*
X107750000Y-74000000D02*
X108336421Y-75126504D01*
X107750000Y-74000000D02*
X107163579Y-75126504D01*
X107750000Y-126500000D02*
X108336421Y-125373496D01*
X107750000Y-126500000D02*
X107163579Y-125373496D01*
G36*
X179500000Y-116500000D02*
G01*
X178000000Y-116500000D01*
X178750000Y-115250000D01*
X179500000Y-116500000D01*
G37*
X179500000Y-116500000D02*
X178000000Y-116500000D01*
X178750000Y-115250000D01*
X179500000Y-116500000D01*
D13*
X122170000Y-118330000D02*
X122170000Y-117000000D01*
X123500000Y-118330000D02*
X122170000Y-118330000D01*
X124770000Y-118330000D02*
X124770000Y-115670000D01*
X124770000Y-115670000D02*
X129910000Y-115670000D01*
X124770000Y-118330000D02*
X129910000Y-118330000D01*
X129910000Y-118330000D02*
X129910000Y-115670000D01*
D11*
X154727500Y-112125000D02*
X154727500Y-113875000D01*
X151197500Y-112125000D02*
X154727500Y-112125000D01*
X151197500Y-113875000D02*
X151197500Y-112125000D01*
X154727500Y-113875000D02*
X151197500Y-113875000D01*
X147125000Y-113522500D02*
X148875000Y-113522500D01*
X147125000Y-117052500D02*
X147125000Y-113522500D01*
X148875000Y-117052500D02*
X147125000Y-117052500D01*
X148875000Y-113522500D02*
X148875000Y-117052500D01*
X121024095Y-114974255D02*
X111975905Y-114974255D01*
X121024095Y-107525745D02*
X121024095Y-114974255D01*
X111975905Y-107525745D02*
X121024095Y-107525745D01*
X111975905Y-114974255D02*
X111975905Y-107525745D01*
D13*
X132340000Y-97250000D02*
X132340000Y-95920000D01*
X132340000Y-95920000D02*
X133670000Y-95920000D01*
X134940000Y-95920000D02*
X142620000Y-95920000D01*
X142620000Y-98580000D02*
X142620000Y-95920000D01*
X134940000Y-98580000D02*
X142620000Y-98580000D01*
X134940000Y-98580000D02*
X134940000Y-95920000D01*
D11*
X112450000Y-120750000D02*
X116750000Y-120750000D01*
X112450000Y-123700000D02*
X112450000Y-120750000D01*
X111625000Y-123700000D02*
X112450000Y-123700000D01*
X121050000Y-120750000D02*
X116750000Y-120750000D01*
X121050000Y-123700000D02*
X121050000Y-120750000D01*
X121875000Y-123700000D02*
X121050000Y-123700000D01*
X111625000Y-126025000D02*
X121875000Y-126025000D01*
X111625000Y-119925000D02*
X111625000Y-126025000D01*
X121875000Y-119925000D02*
X111625000Y-119925000D01*
X121875000Y-126025000D02*
X121875000Y-119925000D01*
X123450000Y-120750000D02*
X127750000Y-120750000D01*
X123450000Y-123700000D02*
X123450000Y-120750000D01*
X122625000Y-123700000D02*
X123450000Y-123700000D01*
X132050000Y-120750000D02*
X127750000Y-120750000D01*
X132050000Y-123700000D02*
X132050000Y-120750000D01*
X132875000Y-123700000D02*
X132050000Y-123700000D01*
X122625000Y-126025000D02*
X132875000Y-126025000D01*
X122625000Y-119925000D02*
X122625000Y-126025000D01*
X132875000Y-119925000D02*
X122625000Y-119925000D01*
X132875000Y-126025000D02*
X132875000Y-119925000D01*
X134450000Y-120750000D02*
X138750000Y-120750000D01*
X134450000Y-123700000D02*
X134450000Y-120750000D01*
X133625000Y-123700000D02*
X134450000Y-123700000D01*
X143050000Y-120750000D02*
X138750000Y-120750000D01*
X143050000Y-123700000D02*
X143050000Y-120750000D01*
X143875000Y-123700000D02*
X143050000Y-123700000D01*
X133625000Y-126025000D02*
X143875000Y-126025000D01*
X133625000Y-119925000D02*
X133625000Y-126025000D01*
X143875000Y-119925000D02*
X133625000Y-119925000D01*
X143875000Y-126025000D02*
X143875000Y-119925000D01*
X145450000Y-120750000D02*
X149750000Y-120750000D01*
X145450000Y-123700000D02*
X145450000Y-120750000D01*
X144625000Y-123700000D02*
X145450000Y-123700000D01*
X154050000Y-120750000D02*
X149750000Y-120750000D01*
X154050000Y-123700000D02*
X154050000Y-120750000D01*
X154875000Y-123700000D02*
X154050000Y-123700000D01*
X144625000Y-126025000D02*
X154875000Y-126025000D01*
X144625000Y-119925000D02*
X144625000Y-126025000D01*
X154875000Y-119925000D02*
X144625000Y-119925000D01*
X154875000Y-126025000D02*
X154875000Y-119925000D01*
X117000000Y-97700000D02*
X117000000Y-100750000D01*
X114050000Y-97700000D02*
X117000000Y-97700000D01*
X114050000Y-96875000D02*
X114050000Y-97700000D01*
X117000000Y-103800000D02*
X117000000Y-100750000D01*
X114050000Y-103800000D02*
X117000000Y-103800000D01*
X114050000Y-104625000D02*
X114050000Y-103800000D01*
X111725000Y-96875000D02*
X111725000Y-104625000D01*
X117825000Y-96875000D02*
X111725000Y-96875000D01*
X117825000Y-104625000D02*
X117825000Y-96875000D01*
X111725000Y-104625000D02*
X117825000Y-104625000D01*
D13*
X155450000Y-99000000D02*
G75*
G03X155450000Y-99000000I-700000J0D01*
G01*
X165450000Y-105000000D02*
G75*
G03X165450000Y-105000000I-700000J0D01*
G01*
X164950000Y-102750000D02*
G75*
G03X164950000Y-102750000I-700000J0D01*
G01*
X165950000Y-100500000D02*
G75*
G03X165950000Y-100500000I-700000J0D01*
G01*
X165700000Y-107250000D02*
G75*
G03X165700000Y-107250000I-700000J0D01*
G01*
X158450000Y-97000000D02*
G75*
G03X158450000Y-97000000I-700000J0D01*
G01*
X130450000Y-113500000D02*
G75*
G03X130450000Y-113500000I-700000J0D01*
G01*
X163200000Y-107750000D02*
G75*
G03X163200000Y-107750000I-700000J0D01*
G01*
X159950000Y-114750000D02*
G75*
G03X159950000Y-114750000I-700000J0D01*
G01*
X156400000Y-124650000D02*
X156400000Y-123320000D01*
X156400000Y-123320000D02*
X157730000Y-123320000D01*
X159000000Y-123320000D02*
X166680000Y-123320000D01*
X166680000Y-125980000D02*
X166680000Y-123320000D01*
X159000000Y-125980000D02*
X166680000Y-125980000D01*
X159000000Y-125980000D02*
X159000000Y-123320000D01*
X144160000Y-116750000D02*
X144160000Y-118080000D01*
X144160000Y-118080000D02*
X142830000Y-118080000D01*
X141560000Y-118080000D02*
X133880000Y-118080000D01*
X133880000Y-115420000D02*
X133880000Y-118080000D01*
X141560000Y-115420000D02*
X133880000Y-115420000D01*
X141560000Y-115420000D02*
X141560000Y-118080000D01*
X165470000Y-117000000D02*
X165470000Y-115670000D01*
X165470000Y-115670000D02*
X166800000Y-115670000D01*
X168070000Y-115670000D02*
X180830000Y-115670000D01*
X180830000Y-118330000D02*
X180830000Y-115670000D01*
X168070000Y-118330000D02*
X180830000Y-118330000D01*
X168070000Y-118330000D02*
X168070000Y-115670000D01*
D11*
X115865000Y-117900000D02*
X115865000Y-115600000D01*
X119545000Y-115600000D02*
X115865000Y-115600000D01*
X119545000Y-117900000D02*
X119545000Y-115600000D01*
X115865000Y-117900000D02*
X119545000Y-117900000D01*
X124675000Y-105375000D02*
X121325000Y-105375000D01*
X124675000Y-105625000D02*
X121325000Y-105625000D01*
X124675000Y-105875000D02*
X121325000Y-105875000D01*
X121325000Y-106125000D02*
X121325000Y-105375000D01*
X124675000Y-106125000D02*
X124675000Y-105375000D01*
X124675000Y-113375000D02*
X121325000Y-113370000D01*
X124675000Y-106125000D02*
X124675000Y-113375000D01*
X121325000Y-106125000D02*
X121325000Y-113370000D01*
X124675000Y-106125000D02*
X121325000Y-106125000D01*
X121052500Y-105375000D02*
X121052500Y-107125000D01*
X117522500Y-105375000D02*
X121052500Y-105375000D01*
X117522500Y-107125000D02*
X117522500Y-105375000D01*
X121052500Y-107125000D02*
X117522500Y-107125000D01*
D13*
X189240000Y-120750000D02*
X189240000Y-122080000D01*
X189240000Y-122080000D02*
X187910000Y-122080000D01*
X186640000Y-122080000D02*
X173880000Y-122080000D01*
X173880000Y-119420000D02*
X173880000Y-122080000D01*
X186640000Y-119420000D02*
X173880000Y-119420000D01*
X186640000Y-119420000D02*
X186640000Y-122080000D01*
X167670000Y-124750000D02*
X167670000Y-123420000D01*
X167670000Y-123420000D02*
X169000000Y-123420000D01*
X170270000Y-123420000D02*
X183030000Y-123420000D01*
X183030000Y-126080000D02*
X183030000Y-123420000D01*
X170270000Y-126080000D02*
X183030000Y-126080000D01*
X170270000Y-126080000D02*
X170270000Y-123420000D01*
D11*
X156390000Y-113625000D02*
X156390000Y-111375000D01*
X160020000Y-113625000D02*
X156390000Y-113625000D01*
X160020000Y-111375000D02*
X160020000Y-113625000D01*
X156390000Y-111375000D02*
X160020000Y-111375000D01*
X128760000Y-111005000D02*
X128425000Y-111005000D01*
X129505000Y-106495000D02*
X128425000Y-106495000D01*
X129505000Y-110260000D02*
X129505000Y-106495000D01*
X129505000Y-110260000D02*
X128760000Y-111005000D01*
X124995000Y-110265000D02*
X125735000Y-111005000D01*
X124995000Y-110265000D02*
X124995000Y-106495000D01*
X124995000Y-106495000D02*
X126075000Y-106495000D01*
X125735000Y-111005000D02*
X126075000Y-111005000D01*
D12*
X185750000Y-97750000D02*
X185750000Y-97000000D01*
X185750000Y-97000000D02*
X169250000Y-97000000D01*
X169250000Y-97000000D02*
X169250000Y-97750000D01*
X185750000Y-113750000D02*
X185750000Y-114500000D01*
X185750000Y-114500000D02*
X169250000Y-114500000D01*
X169250000Y-114500000D02*
X169250000Y-113750000D01*
D11*
X146375000Y-108765000D02*
X144625000Y-108765000D01*
X146375000Y-105235000D02*
X146375000Y-108765000D01*
X144625000Y-105235000D02*
X146375000Y-105235000D01*
X144625000Y-108765000D02*
X144625000Y-105235000D01*
X188875000Y-112227500D02*
X187125000Y-112227500D01*
X188875000Y-108697500D02*
X188875000Y-112227500D01*
X187125000Y-108697500D02*
X188875000Y-108697500D01*
X187125000Y-112227500D02*
X187125000Y-108697500D01*
X187125000Y-108552500D02*
X187125000Y-105022500D01*
X188875000Y-108552500D02*
X187125000Y-108552500D01*
X188875000Y-105022500D02*
X188875000Y-108552500D01*
X187125000Y-105022500D02*
X188875000Y-105022500D01*
X131875000Y-110515000D02*
X130125000Y-110515000D01*
X131875000Y-106985000D02*
X131875000Y-110515000D01*
X130125000Y-106985000D02*
X131875000Y-106985000D01*
X130125000Y-110515000D02*
X130125000Y-106985000D01*
X112022500Y-115875000D02*
X115552500Y-115875000D01*
X112022500Y-117625000D02*
X112022500Y-115875000D01*
X115552500Y-117625000D02*
X112022500Y-117625000D01*
X115552500Y-115875000D02*
X115552500Y-117625000D01*
D13*
X160850000Y-97710000D02*
X161150000Y-97710000D01*
X160850000Y-96290000D02*
X161150000Y-96290000D01*
D11*
X159235000Y-99875000D02*
X159235000Y-98125000D01*
X162765000Y-99875000D02*
X159235000Y-99875000D01*
X162765000Y-98125000D02*
X162765000Y-99875000D01*
X159235000Y-98125000D02*
X162765000Y-98125000D01*
X147125000Y-97447500D02*
X148875000Y-97447500D01*
X147125000Y-100977500D02*
X147125000Y-97447500D01*
X148875000Y-100977500D02*
X147125000Y-100977500D01*
X148875000Y-97447500D02*
X148875000Y-100977500D01*
X143625000Y-97485000D02*
X145375000Y-97485000D01*
X143625000Y-101015000D02*
X143625000Y-97485000D01*
X145375000Y-101015000D02*
X143625000Y-101015000D01*
X145375000Y-97485000D02*
X145375000Y-101015000D01*
X138375000Y-109015000D02*
X138375000Y-105485000D01*
X140125000Y-109015000D02*
X138375000Y-109015000D01*
X140125000Y-105485000D02*
X140125000Y-109015000D01*
X138375000Y-105485000D02*
X140125000Y-105485000D01*
X148875000Y-113015000D02*
X147125000Y-113015000D01*
X148875000Y-109485000D02*
X148875000Y-113015000D01*
X147125000Y-109485000D02*
X148875000Y-109485000D01*
X147125000Y-113015000D02*
X147125000Y-109485000D01*
D12*
X111500000Y-75450000D02*
X189500000Y-75450000D01*
X189500000Y-75450000D02*
X189500000Y-95550000D01*
X189500000Y-95550000D02*
X111500000Y-95550000D01*
X111500000Y-95550000D02*
X111500000Y-75450000D01*
D11*
X120125000Y-100325000D02*
X120125000Y-98945000D01*
X120895000Y-98175000D02*
X126775000Y-98175000D01*
X120125000Y-98945000D02*
X120895000Y-98175000D01*
X120895000Y-104825000D02*
X120125000Y-104055000D01*
X126775000Y-104825000D02*
X120895000Y-104825000D01*
X126775000Y-98175000D02*
X126775000Y-100325000D01*
X126775000Y-104825000D02*
X126775000Y-102675000D01*
X120125000Y-104055000D02*
X120125000Y-102675000D01*
X142000000Y-108750000D02*
X143000000Y-108750000D01*
X142000000Y-110750000D02*
X142000000Y-108750000D01*
X143000000Y-110750000D02*
X142000000Y-110750000D01*
X143000000Y-108750000D02*
X143000000Y-110750000D01*
X140625000Y-105375000D02*
X144375000Y-105375000D01*
X140625000Y-114125000D02*
X140625000Y-105375000D01*
X144375000Y-114125000D02*
X140625000Y-114125000D01*
X144375000Y-105375000D02*
X144375000Y-114125000D01*
D13*
X119950000Y-97000000D02*
G75*
G03X119950000Y-97000000I-700000J0D01*
G01*
X157950000Y-114750000D02*
G75*
G03X157950000Y-114750000I-700000J0D01*
G01*
D12*
X150850000Y-109125000D02*
X150850000Y-110550000D01*
X150625000Y-101875000D02*
X150625000Y-102200000D01*
X157875000Y-101875000D02*
X157875000Y-102200000D01*
X157875000Y-109125000D02*
X157875000Y-108800000D01*
X150625000Y-109125000D02*
X150625000Y-108800000D01*
X157875000Y-109125000D02*
X157550000Y-109125000D01*
X157875000Y-101875000D02*
X157550000Y-101875000D01*
X150625000Y-101875000D02*
X150950000Y-101875000D01*
X150625000Y-109125000D02*
X150850000Y-109125000D01*
G36*
X157500000Y-118250000D02*
G01*
X157750000Y-118750000D01*
X157250000Y-118750000D01*
X157500000Y-118250000D01*
G37*
X157500000Y-118250000D02*
X157750000Y-118750000D01*
X157250000Y-118750000D01*
X157500000Y-118250000D01*
D11*
X156775000Y-117725000D02*
X156775000Y-115775000D01*
X160225000Y-117725000D02*
X156775000Y-117725000D01*
X160225000Y-115775000D02*
X160225000Y-117725000D01*
X156775000Y-115775000D02*
X160225000Y-115775000D01*
D12*
X120622380Y-117809523D02*
X121336666Y-117809523D01*
X121479523Y-117857142D01*
X121574761Y-117952380D01*
X121622380Y-118095238D01*
X121622380Y-118190476D01*
X121622380Y-116809523D02*
X121622380Y-117380952D01*
X121622380Y-117095238D02*
X120622380Y-117095238D01*
X120765238Y-117190476D01*
X120860476Y-117285714D01*
X120908095Y-117380952D01*
X120717619Y-116428571D02*
X120670000Y-116380952D01*
X120622380Y-116285714D01*
X120622380Y-116047619D01*
X120670000Y-115952380D01*
X120717619Y-115904761D01*
X120812857Y-115857142D01*
X120908095Y-115857142D01*
X121050952Y-115904761D01*
X121622380Y-116476190D01*
X121622380Y-115857142D01*
D11*
X152083333Y-115357142D02*
X152035714Y-115404761D01*
X151892857Y-115452380D01*
X151797619Y-115452380D01*
X151654761Y-115404761D01*
X151559523Y-115309523D01*
X151511904Y-115214285D01*
X151464285Y-115023809D01*
X151464285Y-114880952D01*
X151511904Y-114690476D01*
X151559523Y-114595238D01*
X151654761Y-114500000D01*
X151797619Y-114452380D01*
X151892857Y-114452380D01*
X152035714Y-114500000D01*
X152083333Y-114547619D01*
X153035714Y-115452380D02*
X152464285Y-115452380D01*
X152750000Y-115452380D02*
X152750000Y-114452380D01*
X152654761Y-114595238D01*
X152559523Y-114690476D01*
X152464285Y-114738095D01*
X145857142Y-117416666D02*
X145904761Y-117464285D01*
X145952380Y-117607142D01*
X145952380Y-117702380D01*
X145904761Y-117845238D01*
X145809523Y-117940476D01*
X145714285Y-117988095D01*
X145523809Y-118035714D01*
X145380952Y-118035714D01*
X145190476Y-117988095D01*
X145095238Y-117940476D01*
X145000000Y-117845238D01*
X144952380Y-117702380D01*
X144952380Y-117607142D01*
X145000000Y-117464285D01*
X145047619Y-117416666D01*
X145380952Y-116845238D02*
X145333333Y-116940476D01*
X145285714Y-116988095D01*
X145190476Y-117035714D01*
X145142857Y-117035714D01*
X145047619Y-116988095D01*
X145000000Y-116940476D01*
X144952380Y-116845238D01*
X144952380Y-116654761D01*
X145000000Y-116559523D01*
X145047619Y-116511904D01*
X145142857Y-116464285D01*
X145190476Y-116464285D01*
X145285714Y-116511904D01*
X145333333Y-116559523D01*
X145380952Y-116654761D01*
X145380952Y-116845238D01*
X145428571Y-116940476D01*
X145476190Y-116988095D01*
X145571428Y-117035714D01*
X145761904Y-117035714D01*
X145857142Y-116988095D01*
X145904761Y-116940476D01*
X145952380Y-116845238D01*
X145952380Y-116654761D01*
X145904761Y-116559523D01*
X145857142Y-116511904D01*
X145761904Y-116464285D01*
X145571428Y-116464285D01*
X145476190Y-116511904D01*
X145428571Y-116559523D01*
X145380952Y-116654761D01*
X121738095Y-114202380D02*
X121738095Y-115011904D01*
X121785714Y-115107142D01*
X121833333Y-115154761D01*
X121928571Y-115202380D01*
X122119047Y-115202380D01*
X122214285Y-115154761D01*
X122261904Y-115107142D01*
X122309523Y-115011904D01*
X122309523Y-114202380D01*
X123309523Y-115202380D02*
X122738095Y-115202380D01*
X123023809Y-115202380D02*
X123023809Y-114202380D01*
X122928571Y-114345238D01*
X122833333Y-114440476D01*
X122738095Y-114488095D01*
D12*
X137230476Y-99202380D02*
X137230476Y-99916666D01*
X137182857Y-100059523D01*
X137087619Y-100154761D01*
X136944761Y-100202380D01*
X136849523Y-100202380D01*
X138230476Y-100202380D02*
X137659047Y-100202380D01*
X137944761Y-100202380D02*
X137944761Y-99202380D01*
X137849523Y-99345238D01*
X137754285Y-99440476D01*
X137659047Y-99488095D01*
X139182857Y-100202380D02*
X138611428Y-100202380D01*
X138897142Y-100202380D02*
X138897142Y-99202380D01*
X138801904Y-99345238D01*
X138706666Y-99440476D01*
X138611428Y-99488095D01*
X116416666Y-126502380D02*
X116416666Y-127216666D01*
X116369047Y-127359523D01*
X116273809Y-127454761D01*
X116130952Y-127502380D01*
X116035714Y-127502380D01*
X117321428Y-126502380D02*
X117130952Y-126502380D01*
X117035714Y-126550000D01*
X116988095Y-126597619D01*
X116892857Y-126740476D01*
X116845238Y-126930952D01*
X116845238Y-127311904D01*
X116892857Y-127407142D01*
X116940476Y-127454761D01*
X117035714Y-127502380D01*
X117226190Y-127502380D01*
X117321428Y-127454761D01*
X117369047Y-127407142D01*
X117416666Y-127311904D01*
X117416666Y-127073809D01*
X117369047Y-126978571D01*
X117321428Y-126930952D01*
X117226190Y-126883333D01*
X117035714Y-126883333D01*
X116940476Y-126930952D01*
X116892857Y-126978571D01*
X116845238Y-127073809D01*
D11*
X110166666Y-122952380D02*
X110785714Y-122952380D01*
X110452380Y-123333333D01*
X110595238Y-123333333D01*
X110690476Y-123380952D01*
X110738095Y-123428571D01*
X110785714Y-123523809D01*
X110785714Y-123761904D01*
X110738095Y-123857142D01*
X110690476Y-123904761D01*
X110595238Y-123952380D01*
X110309523Y-123952380D01*
X110214285Y-123904761D01*
X110166666Y-123857142D01*
X123285714Y-123952380D02*
X122714285Y-123952380D01*
X123000000Y-123952380D02*
X123000000Y-122952380D01*
X122904761Y-123095238D01*
X122809523Y-123190476D01*
X122714285Y-123238095D01*
D12*
X127416666Y-126502380D02*
X127416666Y-127216666D01*
X127369047Y-127359523D01*
X127273809Y-127454761D01*
X127130952Y-127502380D01*
X127035714Y-127502380D01*
X128369047Y-126502380D02*
X127892857Y-126502380D01*
X127845238Y-126978571D01*
X127892857Y-126930952D01*
X127988095Y-126883333D01*
X128226190Y-126883333D01*
X128321428Y-126930952D01*
X128369047Y-126978571D01*
X128416666Y-127073809D01*
X128416666Y-127311904D01*
X128369047Y-127407142D01*
X128321428Y-127454761D01*
X128226190Y-127502380D01*
X127988095Y-127502380D01*
X127892857Y-127454761D01*
X127845238Y-127407142D01*
D11*
X121166666Y-122952380D02*
X121785714Y-122952380D01*
X121452380Y-123333333D01*
X121595238Y-123333333D01*
X121690476Y-123380952D01*
X121738095Y-123428571D01*
X121785714Y-123523809D01*
X121785714Y-123761904D01*
X121738095Y-123857142D01*
X121690476Y-123904761D01*
X121595238Y-123952380D01*
X121309523Y-123952380D01*
X121214285Y-123904761D01*
X121166666Y-123857142D01*
X134285714Y-123952380D02*
X133714285Y-123952380D01*
X134000000Y-123952380D02*
X134000000Y-122952380D01*
X133904761Y-123095238D01*
X133809523Y-123190476D01*
X133714285Y-123238095D01*
D12*
X138416666Y-126502380D02*
X138416666Y-127216666D01*
X138369047Y-127359523D01*
X138273809Y-127454761D01*
X138130952Y-127502380D01*
X138035714Y-127502380D01*
X139321428Y-126835714D02*
X139321428Y-127502380D01*
X139083333Y-126454761D02*
X138845238Y-127169047D01*
X139464285Y-127169047D01*
D11*
X132166666Y-122952380D02*
X132785714Y-122952380D01*
X132452380Y-123333333D01*
X132595238Y-123333333D01*
X132690476Y-123380952D01*
X132738095Y-123428571D01*
X132785714Y-123523809D01*
X132785714Y-123761904D01*
X132738095Y-123857142D01*
X132690476Y-123904761D01*
X132595238Y-123952380D01*
X132309523Y-123952380D01*
X132214285Y-123904761D01*
X132166666Y-123857142D01*
X145285714Y-123952380D02*
X144714285Y-123952380D01*
X145000000Y-123952380D02*
X145000000Y-122952380D01*
X144904761Y-123095238D01*
X144809523Y-123190476D01*
X144714285Y-123238095D01*
D12*
X149416666Y-126502380D02*
X149416666Y-127216666D01*
X149369047Y-127359523D01*
X149273809Y-127454761D01*
X149130952Y-127502380D01*
X149035714Y-127502380D01*
X149797619Y-126502380D02*
X150416666Y-126502380D01*
X150083333Y-126883333D01*
X150226190Y-126883333D01*
X150321428Y-126930952D01*
X150369047Y-126978571D01*
X150416666Y-127073809D01*
X150416666Y-127311904D01*
X150369047Y-127407142D01*
X150321428Y-127454761D01*
X150226190Y-127502380D01*
X149940476Y-127502380D01*
X149845238Y-127454761D01*
X149797619Y-127407142D01*
D11*
X143166666Y-122952380D02*
X143785714Y-122952380D01*
X143452380Y-123333333D01*
X143595238Y-123333333D01*
X143690476Y-123380952D01*
X143738095Y-123428571D01*
X143785714Y-123523809D01*
X143785714Y-123761904D01*
X143738095Y-123857142D01*
X143690476Y-123904761D01*
X143595238Y-123952380D01*
X143309523Y-123952380D01*
X143214285Y-123904761D01*
X143166666Y-123857142D01*
X156285714Y-123952380D02*
X155714285Y-123952380D01*
X156000000Y-123952380D02*
X156000000Y-122952380D01*
X155904761Y-123095238D01*
X155809523Y-123190476D01*
X155714285Y-123238095D01*
D12*
X113916666Y-105702380D02*
X113916666Y-106416666D01*
X113869047Y-106559523D01*
X113773809Y-106654761D01*
X113630952Y-106702380D01*
X113535714Y-106702380D01*
X114916666Y-106702380D02*
X114345238Y-106702380D01*
X114630952Y-106702380D02*
X114630952Y-105702380D01*
X114535714Y-105845238D01*
X114440476Y-105940476D01*
X114345238Y-105988095D01*
X153488095Y-100452380D02*
X154059523Y-100452380D01*
X153773809Y-101452380D02*
X153773809Y-100452380D01*
X154392857Y-101452380D02*
X154392857Y-100452380D01*
X154773809Y-100452380D01*
X154869047Y-100500000D01*
X154916666Y-100547619D01*
X154964285Y-100642857D01*
X154964285Y-100785714D01*
X154916666Y-100880952D01*
X154869047Y-100928571D01*
X154773809Y-100976190D01*
X154392857Y-100976190D01*
X155440476Y-101452380D02*
X155630952Y-101452380D01*
X155726190Y-101404761D01*
X155773809Y-101357142D01*
X155869047Y-101214285D01*
X155916666Y-101023809D01*
X155916666Y-100642857D01*
X155869047Y-100547619D01*
X155821428Y-100500000D01*
X155726190Y-100452380D01*
X155535714Y-100452380D01*
X155440476Y-100500000D01*
X155392857Y-100547619D01*
X155345238Y-100642857D01*
X155345238Y-100880952D01*
X155392857Y-100976190D01*
X155440476Y-101023809D01*
X155535714Y-101071428D01*
X155726190Y-101071428D01*
X155821428Y-101023809D01*
X155869047Y-100976190D01*
X155916666Y-100880952D01*
X160011904Y-104452380D02*
X160583333Y-104452380D01*
X160297619Y-105452380D02*
X160297619Y-104452380D01*
X160916666Y-105452380D02*
X160916666Y-104452380D01*
X161297619Y-104452380D01*
X161392857Y-104500000D01*
X161440476Y-104547619D01*
X161488095Y-104642857D01*
X161488095Y-104785714D01*
X161440476Y-104880952D01*
X161392857Y-104928571D01*
X161297619Y-104976190D01*
X160916666Y-104976190D01*
X162440476Y-105452380D02*
X161869047Y-105452380D01*
X162154761Y-105452380D02*
X162154761Y-104452380D01*
X162059523Y-104595238D01*
X161964285Y-104690476D01*
X161869047Y-104738095D01*
X163345238Y-104452380D02*
X162869047Y-104452380D01*
X162821428Y-104928571D01*
X162869047Y-104880952D01*
X162964285Y-104833333D01*
X163202380Y-104833333D01*
X163297619Y-104880952D01*
X163345238Y-104928571D01*
X163392857Y-105023809D01*
X163392857Y-105261904D01*
X163345238Y-105357142D01*
X163297619Y-105404761D01*
X163202380Y-105452380D01*
X162964285Y-105452380D01*
X162869047Y-105404761D01*
X162821428Y-105357142D01*
X159761904Y-102202380D02*
X160333333Y-102202380D01*
X160047619Y-103202380D02*
X160047619Y-102202380D01*
X160666666Y-103202380D02*
X160666666Y-102202380D01*
X161047619Y-102202380D01*
X161142857Y-102250000D01*
X161190476Y-102297619D01*
X161238095Y-102392857D01*
X161238095Y-102535714D01*
X161190476Y-102630952D01*
X161142857Y-102678571D01*
X161047619Y-102726190D01*
X160666666Y-102726190D01*
X162190476Y-103202380D02*
X161619047Y-103202380D01*
X161904761Y-103202380D02*
X161904761Y-102202380D01*
X161809523Y-102345238D01*
X161714285Y-102440476D01*
X161619047Y-102488095D01*
X163047619Y-102535714D02*
X163047619Y-103202380D01*
X162809523Y-102154761D02*
X162571428Y-102869047D01*
X163190476Y-102869047D01*
X164261904Y-98202380D02*
X164833333Y-98202380D01*
X164547619Y-99202380D02*
X164547619Y-98202380D01*
X165166666Y-99202380D02*
X165166666Y-98202380D01*
X165547619Y-98202380D01*
X165642857Y-98250000D01*
X165690476Y-98297619D01*
X165738095Y-98392857D01*
X165738095Y-98535714D01*
X165690476Y-98630952D01*
X165642857Y-98678571D01*
X165547619Y-98726190D01*
X165166666Y-98726190D01*
X166690476Y-99202380D02*
X166119047Y-99202380D01*
X166404761Y-99202380D02*
X166404761Y-98202380D01*
X166309523Y-98345238D01*
X166214285Y-98440476D01*
X166119047Y-98488095D01*
X167023809Y-98202380D02*
X167642857Y-98202380D01*
X167309523Y-98583333D01*
X167452380Y-98583333D01*
X167547619Y-98630952D01*
X167595238Y-98678571D01*
X167642857Y-98773809D01*
X167642857Y-99011904D01*
X167595238Y-99107142D01*
X167547619Y-99154761D01*
X167452380Y-99202380D01*
X167166666Y-99202380D01*
X167071428Y-99154761D01*
X167023809Y-99107142D01*
X163261904Y-109952380D02*
X163833333Y-109952380D01*
X163547619Y-110952380D02*
X163547619Y-109952380D01*
X164166666Y-110952380D02*
X164166666Y-109952380D01*
X164547619Y-109952380D01*
X164642857Y-110000000D01*
X164690476Y-110047619D01*
X164738095Y-110142857D01*
X164738095Y-110285714D01*
X164690476Y-110380952D01*
X164642857Y-110428571D01*
X164547619Y-110476190D01*
X164166666Y-110476190D01*
X165690476Y-110952380D02*
X165119047Y-110952380D01*
X165404761Y-110952380D02*
X165404761Y-109952380D01*
X165309523Y-110095238D01*
X165214285Y-110190476D01*
X165119047Y-110238095D01*
X166071428Y-110047619D02*
X166119047Y-110000000D01*
X166214285Y-109952380D01*
X166452380Y-109952380D01*
X166547619Y-110000000D01*
X166595238Y-110047619D01*
X166642857Y-110142857D01*
X166642857Y-110238095D01*
X166595238Y-110380952D01*
X166023809Y-110952380D01*
X166642857Y-110952380D01*
X153261904Y-96452380D02*
X153833333Y-96452380D01*
X153547619Y-97452380D02*
X153547619Y-96452380D01*
X154166666Y-97452380D02*
X154166666Y-96452380D01*
X154547619Y-96452380D01*
X154642857Y-96500000D01*
X154690476Y-96547619D01*
X154738095Y-96642857D01*
X154738095Y-96785714D01*
X154690476Y-96880952D01*
X154642857Y-96928571D01*
X154547619Y-96976190D01*
X154166666Y-96976190D01*
X155690476Y-97452380D02*
X155119047Y-97452380D01*
X155404761Y-97452380D02*
X155404761Y-96452380D01*
X155309523Y-96595238D01*
X155214285Y-96690476D01*
X155119047Y-96738095D01*
X156642857Y-97452380D02*
X156071428Y-97452380D01*
X156357142Y-97452380D02*
X156357142Y-96452380D01*
X156261904Y-96595238D01*
X156166666Y-96690476D01*
X156071428Y-96738095D01*
X128011904Y-114702380D02*
X128583333Y-114702380D01*
X128297619Y-115702380D02*
X128297619Y-114702380D01*
X128916666Y-115702380D02*
X128916666Y-114702380D01*
X129297619Y-114702380D01*
X129392857Y-114750000D01*
X129440476Y-114797619D01*
X129488095Y-114892857D01*
X129488095Y-115035714D01*
X129440476Y-115130952D01*
X129392857Y-115178571D01*
X129297619Y-115226190D01*
X128916666Y-115226190D01*
X130440476Y-115702380D02*
X129869047Y-115702380D01*
X130154761Y-115702380D02*
X130154761Y-114702380D01*
X130059523Y-114845238D01*
X129964285Y-114940476D01*
X129869047Y-114988095D01*
X131059523Y-114702380D02*
X131154761Y-114702380D01*
X131250000Y-114750000D01*
X131297619Y-114797619D01*
X131345238Y-114892857D01*
X131392857Y-115083333D01*
X131392857Y-115321428D01*
X131345238Y-115511904D01*
X131297619Y-115607142D01*
X131250000Y-115654761D01*
X131154761Y-115702380D01*
X131059523Y-115702380D01*
X130964285Y-115654761D01*
X130916666Y-115607142D01*
X130869047Y-115511904D01*
X130821428Y-115321428D01*
X130821428Y-115083333D01*
X130869047Y-114892857D01*
X130916666Y-114797619D01*
X130964285Y-114750000D01*
X131059523Y-114702380D01*
X161238095Y-109202380D02*
X161809523Y-109202380D01*
X161523809Y-110202380D02*
X161523809Y-109202380D01*
X162142857Y-110202380D02*
X162142857Y-109202380D01*
X162523809Y-109202380D01*
X162619047Y-109250000D01*
X162666666Y-109297619D01*
X162714285Y-109392857D01*
X162714285Y-109535714D01*
X162666666Y-109630952D01*
X162619047Y-109678571D01*
X162523809Y-109726190D01*
X162142857Y-109726190D01*
X163285714Y-109630952D02*
X163190476Y-109583333D01*
X163142857Y-109535714D01*
X163095238Y-109440476D01*
X163095238Y-109392857D01*
X163142857Y-109297619D01*
X163190476Y-109250000D01*
X163285714Y-109202380D01*
X163476190Y-109202380D01*
X163571428Y-109250000D01*
X163619047Y-109297619D01*
X163666666Y-109392857D01*
X163666666Y-109440476D01*
X163619047Y-109535714D01*
X163571428Y-109583333D01*
X163476190Y-109630952D01*
X163285714Y-109630952D01*
X163190476Y-109678571D01*
X163142857Y-109726190D01*
X163095238Y-109821428D01*
X163095238Y-110011904D01*
X163142857Y-110107142D01*
X163190476Y-110154761D01*
X163285714Y-110202380D01*
X163476190Y-110202380D01*
X163571428Y-110154761D01*
X163619047Y-110107142D01*
X163666666Y-110011904D01*
X163666666Y-109821428D01*
X163619047Y-109726190D01*
X163571428Y-109678571D01*
X163476190Y-109630952D01*
X164738095Y-115452380D02*
X165309523Y-115452380D01*
X165023809Y-116452380D02*
X165023809Y-115452380D01*
X165642857Y-116452380D02*
X165642857Y-115452380D01*
X166023809Y-115452380D01*
X166119047Y-115500000D01*
X166166666Y-115547619D01*
X166214285Y-115642857D01*
X166214285Y-115785714D01*
X166166666Y-115880952D01*
X166119047Y-115928571D01*
X166023809Y-115976190D01*
X165642857Y-115976190D01*
X166547619Y-115452380D02*
X167214285Y-115452380D01*
X166785714Y-116452380D01*
X154412380Y-124983333D02*
X155126666Y-124983333D01*
X155269523Y-125030952D01*
X155364761Y-125126190D01*
X155412380Y-125269047D01*
X155412380Y-125364285D01*
X155412380Y-124459523D02*
X155412380Y-124269047D01*
X155364761Y-124173809D01*
X155317142Y-124126190D01*
X155174285Y-124030952D01*
X154983809Y-123983333D01*
X154602857Y-123983333D01*
X154507619Y-124030952D01*
X154460000Y-124078571D01*
X154412380Y-124173809D01*
X154412380Y-124364285D01*
X154460000Y-124459523D01*
X154507619Y-124507142D01*
X154602857Y-124554761D01*
X154840952Y-124554761D01*
X154936190Y-124507142D01*
X154983809Y-124459523D01*
X155031428Y-124364285D01*
X155031428Y-124173809D01*
X154983809Y-124078571D01*
X154936190Y-124030952D01*
X154840952Y-123983333D01*
X145052380Y-117083333D02*
X145766666Y-117083333D01*
X145909523Y-117130952D01*
X146004761Y-117226190D01*
X146052380Y-117369047D01*
X146052380Y-117464285D01*
X145480952Y-116464285D02*
X145433333Y-116559523D01*
X145385714Y-116607142D01*
X145290476Y-116654761D01*
X145242857Y-116654761D01*
X145147619Y-116607142D01*
X145100000Y-116559523D01*
X145052380Y-116464285D01*
X145052380Y-116273809D01*
X145100000Y-116178571D01*
X145147619Y-116130952D01*
X145242857Y-116083333D01*
X145290476Y-116083333D01*
X145385714Y-116130952D01*
X145433333Y-116178571D01*
X145480952Y-116273809D01*
X145480952Y-116464285D01*
X145528571Y-116559523D01*
X145576190Y-116607142D01*
X145671428Y-116654761D01*
X145861904Y-116654761D01*
X145957142Y-116607142D01*
X146004761Y-116559523D01*
X146052380Y-116464285D01*
X146052380Y-116273809D01*
X146004761Y-116178571D01*
X145957142Y-116130952D01*
X145861904Y-116083333D01*
X145671428Y-116083333D01*
X145576190Y-116130952D01*
X145528571Y-116178571D01*
X145480952Y-116273809D01*
X163482380Y-117333333D02*
X164196666Y-117333333D01*
X164339523Y-117380952D01*
X164434761Y-117476190D01*
X164482380Y-117619047D01*
X164482380Y-117714285D01*
X163577619Y-116904761D02*
X163530000Y-116857142D01*
X163482380Y-116761904D01*
X163482380Y-116523809D01*
X163530000Y-116428571D01*
X163577619Y-116380952D01*
X163672857Y-116333333D01*
X163768095Y-116333333D01*
X163910952Y-116380952D01*
X164482380Y-116952380D01*
X164482380Y-116333333D01*
X116761904Y-119452380D02*
X116761904Y-118452380D01*
X117000000Y-118452380D01*
X117142857Y-118500000D01*
X117238095Y-118595238D01*
X117285714Y-118690476D01*
X117333333Y-118880952D01*
X117333333Y-119023809D01*
X117285714Y-119214285D01*
X117238095Y-119309523D01*
X117142857Y-119404761D01*
X117000000Y-119452380D01*
X116761904Y-119452380D01*
X117714285Y-118547619D02*
X117761904Y-118500000D01*
X117857142Y-118452380D01*
X118095238Y-118452380D01*
X118190476Y-118500000D01*
X118238095Y-118547619D01*
X118285714Y-118642857D01*
X118285714Y-118738095D01*
X118238095Y-118880952D01*
X117666666Y-119452380D01*
X118285714Y-119452380D01*
X125452380Y-115488095D02*
X124452380Y-115488095D01*
X124452380Y-115250000D01*
X124500000Y-115107142D01*
X124595238Y-115011904D01*
X124690476Y-114964285D01*
X124880952Y-114916666D01*
X125023809Y-114916666D01*
X125214285Y-114964285D01*
X125309523Y-115011904D01*
X125404761Y-115107142D01*
X125452380Y-115250000D01*
X125452380Y-115488095D01*
X125452380Y-113964285D02*
X125452380Y-114535714D01*
X125452380Y-114250000D02*
X124452380Y-114250000D01*
X124595238Y-114345238D01*
X124690476Y-114440476D01*
X124738095Y-114535714D01*
X116083333Y-106607142D02*
X116035714Y-106654761D01*
X115892857Y-106702380D01*
X115797619Y-106702380D01*
X115654761Y-106654761D01*
X115559523Y-106559523D01*
X115511904Y-106464285D01*
X115464285Y-106273809D01*
X115464285Y-106130952D01*
X115511904Y-105940476D01*
X115559523Y-105845238D01*
X115654761Y-105750000D01*
X115797619Y-105702380D01*
X115892857Y-105702380D01*
X116035714Y-105750000D01*
X116083333Y-105797619D01*
X116416666Y-105702380D02*
X117035714Y-105702380D01*
X116702380Y-106083333D01*
X116845238Y-106083333D01*
X116940476Y-106130952D01*
X116988095Y-106178571D01*
X117035714Y-106273809D01*
X117035714Y-106511904D01*
X116988095Y-106607142D01*
X116940476Y-106654761D01*
X116845238Y-106702380D01*
X116559523Y-106702380D01*
X116464285Y-106654761D01*
X116416666Y-106607142D01*
X190132380Y-121083333D02*
X190846666Y-121083333D01*
X190989523Y-121130952D01*
X191084761Y-121226190D01*
X191132380Y-121369047D01*
X191132380Y-121464285D01*
X190132380Y-120702380D02*
X190132380Y-120035714D01*
X191132380Y-120464285D01*
X174190476Y-126952380D02*
X174190476Y-127666666D01*
X174142857Y-127809523D01*
X174047619Y-127904761D01*
X173904761Y-127952380D01*
X173809523Y-127952380D01*
X175190476Y-127952380D02*
X174619047Y-127952380D01*
X174904761Y-127952380D02*
X174904761Y-126952380D01*
X174809523Y-127095238D01*
X174714285Y-127190476D01*
X174619047Y-127238095D01*
X175809523Y-126952380D02*
X175904761Y-126952380D01*
X176000000Y-127000000D01*
X176047619Y-127047619D01*
X176095238Y-127142857D01*
X176142857Y-127333333D01*
X176142857Y-127571428D01*
X176095238Y-127761904D01*
X176047619Y-127857142D01*
X176000000Y-127904761D01*
X175904761Y-127952380D01*
X175809523Y-127952380D01*
X175714285Y-127904761D01*
X175666666Y-127857142D01*
X175619047Y-127761904D01*
X175571428Y-127571428D01*
X175571428Y-127333333D01*
X175619047Y-127142857D01*
X175666666Y-127047619D01*
X175714285Y-127000000D01*
X175809523Y-126952380D01*
X161333333Y-112952380D02*
X161000000Y-112476190D01*
X160761904Y-112952380D02*
X160761904Y-111952380D01*
X161142857Y-111952380D01*
X161238095Y-112000000D01*
X161285714Y-112047619D01*
X161333333Y-112142857D01*
X161333333Y-112285714D01*
X161285714Y-112380952D01*
X161238095Y-112428571D01*
X161142857Y-112476190D01*
X160761904Y-112476190D01*
X162285714Y-112952380D02*
X161714285Y-112952380D01*
X162000000Y-112952380D02*
X162000000Y-111952380D01*
X161904761Y-112095238D01*
X161809523Y-112190476D01*
X161714285Y-112238095D01*
D11*
X127083333Y-113607142D02*
X127035714Y-113654761D01*
X126892857Y-113702380D01*
X126797619Y-113702380D01*
X126654761Y-113654761D01*
X126559523Y-113559523D01*
X126511904Y-113464285D01*
X126464285Y-113273809D01*
X126464285Y-113130952D01*
X126511904Y-112940476D01*
X126559523Y-112845238D01*
X126654761Y-112750000D01*
X126797619Y-112702380D01*
X126892857Y-112702380D01*
X127035714Y-112750000D01*
X127083333Y-112797619D01*
X127940476Y-113035714D02*
X127940476Y-113702380D01*
X127702380Y-112654761D02*
X127464285Y-113369047D01*
X128083333Y-113369047D01*
D12*
X168488095Y-115202380D02*
X168488095Y-116011904D01*
X168535714Y-116107142D01*
X168583333Y-116154761D01*
X168678571Y-116202380D01*
X168869047Y-116202380D01*
X168964285Y-116154761D01*
X169011904Y-116107142D01*
X169059523Y-116011904D01*
X169059523Y-115202380D01*
X169440476Y-115202380D02*
X170059523Y-115202380D01*
X169726190Y-115583333D01*
X169869047Y-115583333D01*
X169964285Y-115630952D01*
X170011904Y-115678571D01*
X170059523Y-115773809D01*
X170059523Y-116011904D01*
X170011904Y-116107142D01*
X169964285Y-116154761D01*
X169869047Y-116202380D01*
X169583333Y-116202380D01*
X169488095Y-116154761D01*
X169440476Y-116107142D01*
X145857142Y-111666666D02*
X145904761Y-111714285D01*
X145952380Y-111857142D01*
X145952380Y-111952380D01*
X145904761Y-112095238D01*
X145809523Y-112190476D01*
X145714285Y-112238095D01*
X145523809Y-112285714D01*
X145380952Y-112285714D01*
X145190476Y-112238095D01*
X145095238Y-112190476D01*
X145000000Y-112095238D01*
X144952380Y-111952380D01*
X144952380Y-111857142D01*
X145000000Y-111714285D01*
X145047619Y-111666666D01*
X144952380Y-111333333D02*
X144952380Y-110666666D01*
X145952380Y-111095238D01*
X190357142Y-111105357D02*
X190404761Y-111152976D01*
X190452380Y-111295833D01*
X190452380Y-111391071D01*
X190404761Y-111533928D01*
X190309523Y-111629166D01*
X190214285Y-111676785D01*
X190023809Y-111724404D01*
X189880952Y-111724404D01*
X189690476Y-111676785D01*
X189595238Y-111629166D01*
X189500000Y-111533928D01*
X189452380Y-111391071D01*
X189452380Y-111295833D01*
X189500000Y-111152976D01*
X189547619Y-111105357D01*
X190452380Y-110152976D02*
X190452380Y-110724404D01*
X190452380Y-110438690D02*
X189452380Y-110438690D01*
X189595238Y-110533928D01*
X189690476Y-110629166D01*
X189738095Y-110724404D01*
X189547619Y-109772023D02*
X189500000Y-109724404D01*
X189452380Y-109629166D01*
X189452380Y-109391071D01*
X189500000Y-109295833D01*
X189547619Y-109248214D01*
X189642857Y-109200595D01*
X189738095Y-109200595D01*
X189880952Y-109248214D01*
X190452380Y-109819642D01*
X190452380Y-109200595D01*
X190452380Y-106954166D02*
X189976190Y-107287500D01*
X190452380Y-107525595D02*
X189452380Y-107525595D01*
X189452380Y-107144642D01*
X189500000Y-107049404D01*
X189547619Y-107001785D01*
X189642857Y-106954166D01*
X189785714Y-106954166D01*
X189880952Y-107001785D01*
X189928571Y-107049404D01*
X189976190Y-107144642D01*
X189976190Y-107525595D01*
X189785714Y-106097023D02*
X190452380Y-106097023D01*
X189404761Y-106335119D02*
X190119047Y-106573214D01*
X190119047Y-105954166D01*
D11*
X133607142Y-109166666D02*
X133654761Y-109214285D01*
X133702380Y-109357142D01*
X133702380Y-109452380D01*
X133654761Y-109595238D01*
X133559523Y-109690476D01*
X133464285Y-109738095D01*
X133273809Y-109785714D01*
X133130952Y-109785714D01*
X132940476Y-109738095D01*
X132845238Y-109690476D01*
X132750000Y-109595238D01*
X132702380Y-109452380D01*
X132702380Y-109357142D01*
X132750000Y-109214285D01*
X132797619Y-109166666D01*
X132702380Y-108261904D02*
X132702380Y-108738095D01*
X133178571Y-108785714D01*
X133130952Y-108738095D01*
X133083333Y-108642857D01*
X133083333Y-108404761D01*
X133130952Y-108309523D01*
X133178571Y-108261904D01*
X133273809Y-108214285D01*
X133511904Y-108214285D01*
X133607142Y-108261904D01*
X133654761Y-108309523D01*
X133702380Y-108404761D01*
X133702380Y-108642857D01*
X133654761Y-108738095D01*
X133607142Y-108785714D01*
D12*
X113620833Y-119202380D02*
X113287500Y-118726190D01*
X113049404Y-119202380D02*
X113049404Y-118202380D01*
X113430357Y-118202380D01*
X113525595Y-118250000D01*
X113573214Y-118297619D01*
X113620833Y-118392857D01*
X113620833Y-118535714D01*
X113573214Y-118630952D01*
X113525595Y-118678571D01*
X113430357Y-118726190D01*
X113049404Y-118726190D01*
X114001785Y-118297619D02*
X114049404Y-118250000D01*
X114144642Y-118202380D01*
X114382738Y-118202380D01*
X114477976Y-118250000D01*
X114525595Y-118297619D01*
X114573214Y-118392857D01*
X114573214Y-118488095D01*
X114525595Y-118630952D01*
X113954166Y-119202380D01*
X114573214Y-119202380D01*
D11*
X164083333Y-97202380D02*
X163607142Y-97202380D01*
X163607142Y-96202380D01*
X164940476Y-97202380D02*
X164369047Y-97202380D01*
X164654761Y-97202380D02*
X164654761Y-96202380D01*
X164559523Y-96345238D01*
X164464285Y-96440476D01*
X164369047Y-96488095D01*
X156583333Y-99107142D02*
X156535714Y-99154761D01*
X156392857Y-99202380D01*
X156297619Y-99202380D01*
X156154761Y-99154761D01*
X156059523Y-99059523D01*
X156011904Y-98964285D01*
X155964285Y-98773809D01*
X155964285Y-98630952D01*
X156011904Y-98440476D01*
X156059523Y-98345238D01*
X156154761Y-98250000D01*
X156297619Y-98202380D01*
X156392857Y-98202380D01*
X156535714Y-98250000D01*
X156583333Y-98297619D01*
X157440476Y-98202380D02*
X157250000Y-98202380D01*
X157154761Y-98250000D01*
X157107142Y-98297619D01*
X157011904Y-98440476D01*
X156964285Y-98630952D01*
X156964285Y-99011904D01*
X157011904Y-99107142D01*
X157059523Y-99154761D01*
X157154761Y-99202380D01*
X157345238Y-99202380D01*
X157440476Y-99154761D01*
X157488095Y-99107142D01*
X157535714Y-99011904D01*
X157535714Y-98773809D01*
X157488095Y-98678571D01*
X157440476Y-98630952D01*
X157345238Y-98583333D01*
X157154761Y-98583333D01*
X157059523Y-98630952D01*
X157011904Y-98678571D01*
X156964285Y-98773809D01*
X148357142Y-95642857D02*
X148404761Y-95690476D01*
X148452380Y-95833333D01*
X148452380Y-95928571D01*
X148404761Y-96071428D01*
X148309523Y-96166666D01*
X148214285Y-96214285D01*
X148023809Y-96261904D01*
X147880952Y-96261904D01*
X147690476Y-96214285D01*
X147595238Y-96166666D01*
X147500000Y-96071428D01*
X147452380Y-95928571D01*
X147452380Y-95833333D01*
X147500000Y-95690476D01*
X147547619Y-95642857D01*
X148452380Y-94690476D02*
X148452380Y-95261904D01*
X148452380Y-94976190D02*
X147452380Y-94976190D01*
X147595238Y-95071428D01*
X147690476Y-95166666D01*
X147738095Y-95261904D01*
X147452380Y-94071428D02*
X147452380Y-93976190D01*
X147500000Y-93880952D01*
X147547619Y-93833333D01*
X147642857Y-93785714D01*
X147833333Y-93738095D01*
X148071428Y-93738095D01*
X148261904Y-93785714D01*
X148357142Y-93833333D01*
X148404761Y-93880952D01*
X148452380Y-93976190D01*
X148452380Y-94071428D01*
X148404761Y-94166666D01*
X148357142Y-94214285D01*
X148261904Y-94261904D01*
X148071428Y-94309523D01*
X147833333Y-94309523D01*
X147642857Y-94261904D01*
X147547619Y-94214285D01*
X147500000Y-94166666D01*
X147452380Y-94071428D01*
X144857142Y-95642857D02*
X144904761Y-95690476D01*
X144952380Y-95833333D01*
X144952380Y-95928571D01*
X144904761Y-96071428D01*
X144809523Y-96166666D01*
X144714285Y-96214285D01*
X144523809Y-96261904D01*
X144380952Y-96261904D01*
X144190476Y-96214285D01*
X144095238Y-96166666D01*
X144000000Y-96071428D01*
X143952380Y-95928571D01*
X143952380Y-95833333D01*
X144000000Y-95690476D01*
X144047619Y-95642857D01*
X144952380Y-94690476D02*
X144952380Y-95261904D01*
X144952380Y-94976190D02*
X143952380Y-94976190D01*
X144095238Y-95071428D01*
X144190476Y-95166666D01*
X144238095Y-95261904D01*
X144952380Y-93738095D02*
X144952380Y-94309523D01*
X144952380Y-94023809D02*
X143952380Y-94023809D01*
X144095238Y-94119047D01*
X144190476Y-94214285D01*
X144238095Y-94309523D01*
D12*
X139952380Y-104166666D02*
X139476190Y-104500000D01*
X139952380Y-104738095D02*
X138952380Y-104738095D01*
X138952380Y-104357142D01*
X139000000Y-104261904D01*
X139047619Y-104214285D01*
X139142857Y-104166666D01*
X139285714Y-104166666D01*
X139380952Y-104214285D01*
X139428571Y-104261904D01*
X139476190Y-104357142D01*
X139476190Y-104738095D01*
X138952380Y-103833333D02*
X138952380Y-103214285D01*
X139333333Y-103547619D01*
X139333333Y-103404761D01*
X139380952Y-103309523D01*
X139428571Y-103261904D01*
X139523809Y-103214285D01*
X139761904Y-103214285D01*
X139857142Y-103261904D01*
X139904761Y-103309523D01*
X139952380Y-103404761D01*
X139952380Y-103690476D01*
X139904761Y-103785714D01*
X139857142Y-103833333D01*
D11*
X145857142Y-115166666D02*
X145904761Y-115214285D01*
X145952380Y-115357142D01*
X145952380Y-115452380D01*
X145904761Y-115595238D01*
X145809523Y-115690476D01*
X145714285Y-115738095D01*
X145523809Y-115785714D01*
X145380952Y-115785714D01*
X145190476Y-115738095D01*
X145095238Y-115690476D01*
X145000000Y-115595238D01*
X144952380Y-115452380D01*
X144952380Y-115357142D01*
X145000000Y-115214285D01*
X145047619Y-115166666D01*
X145952380Y-114690476D02*
X145952380Y-114500000D01*
X145904761Y-114404761D01*
X145857142Y-114357142D01*
X145714285Y-114261904D01*
X145523809Y-114214285D01*
X145142857Y-114214285D01*
X145047619Y-114261904D01*
X145000000Y-114309523D01*
X144952380Y-114404761D01*
X144952380Y-114595238D01*
X145000000Y-114690476D01*
X145047619Y-114738095D01*
X145142857Y-114785714D01*
X145380952Y-114785714D01*
X145476190Y-114738095D01*
X145523809Y-114690476D01*
X145571428Y-114595238D01*
X145571428Y-114404761D01*
X145523809Y-114309523D01*
X145476190Y-114261904D01*
X145380952Y-114214285D01*
X187964285Y-96428571D02*
X188107142Y-96476190D01*
X188154761Y-96523809D01*
X188202380Y-96619047D01*
X188202380Y-96761904D01*
X188154761Y-96857142D01*
X188107142Y-96904761D01*
X188011904Y-96952380D01*
X187630952Y-96952380D01*
X187630952Y-95952380D01*
X187964285Y-95952380D01*
X188059523Y-96000000D01*
X188107142Y-96047619D01*
X188154761Y-96142857D01*
X188154761Y-96238095D01*
X188107142Y-96333333D01*
X188059523Y-96380952D01*
X187964285Y-96428571D01*
X187630952Y-96428571D01*
X188488095Y-95952380D02*
X189059523Y-95952380D01*
X188773809Y-96952380D02*
X188773809Y-95952380D01*
X189916666Y-96952380D02*
X189345238Y-96952380D01*
X189630952Y-96952380D02*
X189630952Y-95952380D01*
X189535714Y-96095238D01*
X189440476Y-96190476D01*
X189345238Y-96238095D01*
D12*
X124533333Y-97607142D02*
X124485714Y-97654761D01*
X124342857Y-97702380D01*
X124247619Y-97702380D01*
X124104761Y-97654761D01*
X124009523Y-97559523D01*
X123961904Y-97464285D01*
X123914285Y-97273809D01*
X123914285Y-97130952D01*
X123961904Y-96940476D01*
X124009523Y-96845238D01*
X124104761Y-96750000D01*
X124247619Y-96702380D01*
X124342857Y-96702380D01*
X124485714Y-96750000D01*
X124533333Y-96797619D01*
X124914285Y-96797619D02*
X124961904Y-96750000D01*
X125057142Y-96702380D01*
X125295238Y-96702380D01*
X125390476Y-96750000D01*
X125438095Y-96797619D01*
X125485714Y-96892857D01*
X125485714Y-96988095D01*
X125438095Y-97130952D01*
X124866666Y-97702380D01*
X125485714Y-97702380D01*
X118789047Y-104481428D02*
X119550952Y-104481428D01*
X119170000Y-104862380D02*
X119170000Y-104100476D01*
X141166666Y-115904761D02*
X141309523Y-115952380D01*
X141547619Y-115952380D01*
X141642857Y-115904761D01*
X141690476Y-115857142D01*
X141738095Y-115761904D01*
X141738095Y-115666666D01*
X141690476Y-115571428D01*
X141642857Y-115523809D01*
X141547619Y-115476190D01*
X141357142Y-115428571D01*
X141261904Y-115380952D01*
X141214285Y-115333333D01*
X141166666Y-115238095D01*
X141166666Y-115142857D01*
X141214285Y-115047619D01*
X141261904Y-115000000D01*
X141357142Y-114952380D01*
X141595238Y-114952380D01*
X141738095Y-115000000D01*
X142071428Y-114952380D02*
X142309523Y-115952380D01*
X142500000Y-115238095D01*
X142690476Y-115952380D01*
X142928571Y-114952380D01*
X143833333Y-115952380D02*
X143261904Y-115952380D01*
X143547619Y-115952380D02*
X143547619Y-114952380D01*
X143452380Y-115095238D01*
X143357142Y-115190476D01*
X143261904Y-115238095D01*
X120738095Y-96202380D02*
X121309523Y-96202380D01*
X121023809Y-97202380D02*
X121023809Y-96202380D01*
X121642857Y-97202380D02*
X121642857Y-96202380D01*
X122023809Y-96202380D01*
X122119047Y-96250000D01*
X122166666Y-96297619D01*
X122214285Y-96392857D01*
X122214285Y-96535714D01*
X122166666Y-96630952D01*
X122119047Y-96678571D01*
X122023809Y-96726190D01*
X121642857Y-96726190D01*
X123071428Y-96202380D02*
X122880952Y-96202380D01*
X122785714Y-96250000D01*
X122738095Y-96297619D01*
X122642857Y-96440476D01*
X122595238Y-96630952D01*
X122595238Y-97011904D01*
X122642857Y-97107142D01*
X122690476Y-97154761D01*
X122785714Y-97202380D01*
X122976190Y-97202380D01*
X123071428Y-97154761D01*
X123119047Y-97107142D01*
X123166666Y-97011904D01*
X123166666Y-96773809D01*
X123119047Y-96678571D01*
X123071428Y-96630952D01*
X122976190Y-96583333D01*
X122785714Y-96583333D01*
X122690476Y-96630952D01*
X122642857Y-96678571D01*
X122595238Y-96773809D01*
X161988095Y-115202380D02*
X162559523Y-115202380D01*
X162273809Y-116202380D02*
X162273809Y-115202380D01*
X162892857Y-116202380D02*
X162892857Y-115202380D01*
X163273809Y-115202380D01*
X163369047Y-115250000D01*
X163416666Y-115297619D01*
X163464285Y-115392857D01*
X163464285Y-115535714D01*
X163416666Y-115630952D01*
X163369047Y-115678571D01*
X163273809Y-115726190D01*
X162892857Y-115726190D01*
X164369047Y-115202380D02*
X163892857Y-115202380D01*
X163845238Y-115678571D01*
X163892857Y-115630952D01*
X163988095Y-115583333D01*
X164226190Y-115583333D01*
X164321428Y-115630952D01*
X164369047Y-115678571D01*
X164416666Y-115773809D01*
X164416666Y-116011904D01*
X164369047Y-116107142D01*
X164321428Y-116154761D01*
X164226190Y-116202380D01*
X163988095Y-116202380D01*
X163892857Y-116154761D01*
X163845238Y-116107142D01*
X159988095Y-100202380D02*
X159988095Y-101011904D01*
X160035714Y-101107142D01*
X160083333Y-101154761D01*
X160178571Y-101202380D01*
X160369047Y-101202380D01*
X160464285Y-101154761D01*
X160511904Y-101107142D01*
X160559523Y-101011904D01*
X160559523Y-100202380D01*
X160988095Y-100297619D02*
X161035714Y-100250000D01*
X161130952Y-100202380D01*
X161369047Y-100202380D01*
X161464285Y-100250000D01*
X161511904Y-100297619D01*
X161559523Y-100392857D01*
X161559523Y-100488095D01*
X161511904Y-100630952D01*
X160940476Y-101202380D01*
X161559523Y-101202380D01*
X158523809Y-118976190D02*
X158523809Y-119452380D01*
X158190476Y-118452380D02*
X158523809Y-118976190D01*
X158857142Y-118452380D01*
X159714285Y-119452380D02*
X159142857Y-119452380D01*
X159428571Y-119452380D02*
X159428571Y-118452380D01*
X159333333Y-118595238D01*
X159238095Y-118690476D01*
X159142857Y-118738095D01*
M02*
