M48
; DRILL file {KiCad (6.0.0-rc1-dev-1608-g8d777dd5c-dirty)} date 25/01/2019 9:16:19 CH
; FORMAT={-:-/ absolute / inch / decimal}
; #@! TF.CreationDate,2019-01-25T21:16:19-07:00
; #@! TF.GenerationSoftware,Kicad,Pcbnew,(6.0.0-rc1-dev-1608-g8d777dd5c-dirty)
; #@! TF.FileFunction,Plated,1,2,PTH
FMAT,2
INCH
T1C0.0197
T2C0.0374
T3C0.0394
T4C0.0787
%
G90
G05
T1
X4.5472Y-3.563
X4.6161Y-3.563
X4.685Y-3.563
X4.685Y-3.622
X4.7441Y-3.622
X4.8031Y-3.563
X4.8228Y-3.6319
X5.128Y-3.5335
X5.1772Y-3.5335
X5.2461Y-3.6909
X5.2461Y-4.0846
X5.2657Y-3.3957
X5.3445Y-3.3957
X5.4134Y-3.3957
X5.4429Y-3.5433
X5.4429Y-3.6024
X5.4429Y-3.6614
X5.561Y-3.9173
X5.561Y-3.9961
X5.6594Y-4.2913
X5.6693Y-3.7992
X5.9154Y-3.5236
X5.9252Y-4.2028
X6.0236Y-3.8091
X6.0236Y-3.8681
X6.0236Y-3.9272
X6.0335Y-4.3012
X6.1024Y-3.8091
X6.1024Y-3.8681
X6.1024Y-3.9272
X6.1319Y-4.2618
X6.1319Y-4.3602
X6.1319Y-4.4488
X6.1417Y-4.1437
X6.1614Y-4.5177
X6.1811Y-3.8091
X6.1811Y-3.8681
X6.1811Y-3.9272
X6.2598Y-4.5177
X6.2894Y-4.065
X6.3386Y-4.5177
X6.3681Y-4.124
X6.3878Y-3.5236
X6.4272Y-4.5177
X6.4469Y-4.1831
X6.4665Y-3.937
X6.4665Y-4.2717
X6.4665Y-4.3602
X6.4665Y-4.4488
X6.5157Y-3.8189
X6.5551Y-3.8976
X6.5846Y-3.5827
X6.5945Y-3.9665
X6.752Y-4.1339
X7.4016Y-4.1437
X7.4606Y-4.0059
T2
X4.4783Y-4.7736
X4.5768Y-4.7736
X4.6752Y-4.7736
X4.7736Y-4.7736
X5.0295Y-4.7736
X5.128Y-4.7736
X5.2264Y-4.7736
X5.3248Y-4.7736
X6.7224Y-4.7736
X6.8209Y-4.7736
X6.9193Y-4.7736
X7.0177Y-4.7736
X7.1161Y-4.7736
X7.2146Y-4.7736
X5.9941Y-4.7736
X6.0925Y-4.7736
X6.1909Y-4.7736
X6.2894Y-4.7736
X6.3878Y-4.7736
X6.4862Y-4.7736
X5.0886Y-4.498
X5.187Y-4.498
X5.2854Y-4.498
X5.561Y-4.7736
X5.6594Y-4.7736
X5.7579Y-4.7736
X4.4882Y-4.2323
X4.5866Y-4.2323
X4.685Y-4.2323
X4.4882Y-4.498
X4.5866Y-4.498
X4.685Y-4.498
T3
X4.5276Y-3.7205
X4.5276Y-3.8189
T4
X4.5079Y-3.061
X7.3425Y-3.061
T0
M30
